<?xml version="1.0" standalone="no"?>
<!DOCTYPE svg PUBLIC "-//W3C//DTD SVG 1.1//EN" "http://www.w3.org/Graphics/SVG/1.1/DTD/svg11.dtd" >
<svg xmlns="http://www.w3.org/2000/svg" xmlns:xlink="http://www.w3.org/1999/xlink" version="1.1">
<metadata>
Created by FontForge 20161013 at Tue Dec  3 17:37:43 2013
 By ,,,
Copyright (c) 2013 by Juan Pablo del Peral (huertatipografica.com.ar)
</metadata>
<defs>
<font id="AlegreyaSans-ThinItalic" horiz-adv-x="390" >
  <font-face 
    font-family="Alegreya Sans Thin"
    font-weight="250"
    font-style="italic"
    font-stretch="normal"
    units-per-em="1000"
    panose-1="0 0 3 0 0 0 0 0 0 0"
    ascent="800"
    descent="-200"
    x-height="455"
    cap-height="637"
    bbox="-282 -265 1116 932"
    underline-thickness="0"
    underline-position="0"
    slope="-7"
    unicode-range="U+0020-FB02"
  />
<missing-glyph horiz-adv-x="180" 
 />
    <glyph glyph-name="Idieresis" unicode="&#xa8;I" horiz-adv-x="235" 
d="M100 0h-20l25 195l55 442h20l-55 -442zM155 781q0 -20 -20 -20t-20 20t20 20t20 -20zM257 781q0 -20 -20 -20t-20 20t20 20t20 -20z" />
    <glyph glyph-name="Odieresis" unicode="&#xa8;O" horiz-adv-x="599" 
d="M513.5 577q54.5 -65 54.5 -186q0 -122 -35.5 -211t-103 -137t-162.5 -48q-102 0 -156.5 67t-54.5 191q0 121 35 208.5t102.5 134t161.5 46.5q104 0 158.5 -65zM205 578q-62 -44 -95 -126.5t-33 -195.5q0 -115 49.5 -178t141.5 -63q87 0 150 45.5t96 129t33 197.5
q0 113 -49 174t-144 61q-87 0 -149 -44zM313 781q0 -20 -20 -20t-20 20t20 20t20 -20zM463 781q0 -20 -20 -20t-20 20t20 20t20 -20z" />
    <glyph glyph-name="Yacute" unicode="&#xb4;Y" horiz-adv-x="469" 
d="M231 195l-24 -195h-20l24 195l7 50l-141 392h25l7 -26l120 -334h5l218 334l14 26h26l-254 -390zM407 822l-2 -5q-67 -38 -174 -93l-5 3l-7 15q91 44 176 94l5 -2z" />
    <glyph glyph-name="idieresis" unicode="&#xa8;i" horiz-adv-x="203" 
d="M88 0l-27 -4l49 366l6 90l25 4l-46 -350zM116 596q0 -20 -20 -20t-20 20t20 20t20 -20zM218 596q0 -20 -20 -20t-20 20t20 20t20 -20z" />
    <glyph glyph-name="odieresis" unicode="&#xa8;o" horiz-adv-x="396" 
d="M325.5 421q22.5 -33 22.5 -101q0 -91 -24 -163.5t-69 -115.5t-106 -47h-5q-50 3 -73 36.5t-23 103.5q0 91 24.5 164.5t69.5 116t106 43.5h5q50 -4 72.5 -37zM154.5 398q-40.5 -39 -63.5 -107.5t-23 -153.5q0 -62 19.5 -92t60.5 -30q52 0 93 39.5t63.5 108.5t22.5 154
q0 62 -19 91t-60 29q-53 0 -93.5 -39zM194 596q0 -20 -20 -20t-20 20t20 20t20 -20zM344 596q0 -20 -20 -20t-20 20t20 20t20 -20z" />
    <glyph glyph-name="yacute" unicode="&#xb4;y" horiz-adv-x="378" 
d="M362 373q0 -49 -39 -115l-143 -243q-65 -111 -122 -160t-114 -49q-34 0 -68 15l-1 20l5 2q37 -17 66 -17q94 0 208 186l-80 438l23 6l12 -74l59 -340h4l134 226q36 60 36 106q0 32 -28 70l1 5l18 6q29 -41 29 -82zM318 658l-1 -5q-69 -69 -144 -135l-5 1l-11 13
q69 58 146 137l5 -1z" />
    <glyph glyph-name="Itilde" unicode="&#x7e;I" horiz-adv-x="235" 
d="M100 0h-20l25 195l55 442h20l-55 -442zM309 798l-47 -47l-6 -2q-16 2 -72 20q-54 18 -65 18q-8 0 -30 -24l-16 -16h-3l-9 11v4l47 47l6 2q16 -2 72 -20q54 -18 65 -18q8 0 27 21l19 19h3l9 -11v-4z" />
    <glyph glyph-name="itilde" unicode="&#x7e;i" horiz-adv-x="203" 
d="M88 0l-27 -4l49 366l6 90l25 4l-46 -350zM270 613l-47 -47l-6 -2q-16 2 -72 20q-54 18 -65 18q-8 0 -30 -24l-16 -16h-3l-9 11v4l47 47l6 2q16 -2 72 -20q54 -18 65 -18q8 0 27 21l19 19h3l9 -11v-4z" />
    <glyph glyph-name="Utilde" unicode="&#x7e;U" horiz-adv-x="583" 
d="M500 229q-11 -111 -72.5 -172t-161.5 -61q-89 0 -137 46.5t-48 133.5q0 29 4 53l13 93l40 315h20l-53 -408q-4 -34 -4 -49q0 -79 42.5 -121.5t121.5 -42.5q91 0 146 55t69 158l51 408h20l-41 -325zM499 801l-52 -47l-6 -2q-20 2 -81 20q-64 18 -75 18q-8 0 -30 -22
l-21 -19h-4l-9 11v4l52 47l6 2q20 -2 81 -20q64 -18 75 -18q8 0 30 22l21 19h4l9 -11v-4z" />
    <glyph glyph-name="utilde" unicode="&#x7e;u" horiz-adv-x="454" 
d="M347 106l-9 -106l-25 -4l36 271h-5q-65 -112 -114.5 -179t-98.5 -99h-11q-24 7 -38 30.5t-13 54.5l1 13l43 263l12 101l25 4l-59 -365l-1 -15q-1 -25 10 -42.5t24 -17.5q26 0 90.5 85t142.5 230l4 32l7 90l25 4zM412 616l-52 -47l-6 -2q-20 2 -81 20q-64 18 -75 18
q-8 0 -30 -22l-21 -19h-4l-9 11v4l52 47l6 2q20 -2 81 -20q64 -18 75 -18q8 0 30 22l21 19h4l9 -11v-4z" />
    <glyph glyph-name="Etilde" unicode="&#x7e;E" horiz-adv-x="432" 
d="M143 340h223l3 -4l-6 -16h-222l-16 -125l-22 -175h273l3 -4l-6 -16h-293l25 195l55 442h291l2 -4l-6 -16h-269zM468 801l-52 -47l-6 -2q-20 2 -81 20q-64 18 -75 18q-8 0 -30 -22l-21 -19h-4l-9 11v4l52 47l6 2q20 -2 81 -20q64 -18 75 -18q8 0 30 22l21 19h4l9 -11v-4z
" />
    <glyph glyph-name="etilde" unicode="&#x7e;e" horiz-adv-x="354" 
d="M293 105q-30 -50 -64.5 -77t-80.5 -33h-9q-49 6 -70.5 41.5t-21.5 106.5q0 88 25.5 159t70.5 112.5t99 42.5h5q75 -6 75 -69q0 -57 -64 -111t-190 -101l-1 -28q0 -68 19.5 -100t59.5 -32q75 0 131 102h7zM163.5 405.5q-37.5 -30.5 -62 -84.5t-31.5 -123q111 41 171 90
t60 97q0 23 -14.5 37t-42.5 14q-43 0 -80.5 -30.5zM390 616l-52 -47l-6 -2q-20 2 -81 20q-64 18 -75 18q-8 0 -30 -22l-21 -19h-4l-9 11v4l52 47l6 2q20 -2 81 -20q64 -18 75 -18q8 0 30 22l21 19h4l9 -11v-4z" />
    <glyph glyph-name="Ytilde" unicode="&#x7e;Y" horiz-adv-x="469" 
d="M231 195l-24 -195h-20l24 195l7 50l-141 392h25l7 -26l120 -334h5l218 334l14 26h26l-254 -390zM442 801l-52 -47l-6 -2q-20 2 -81 20q-64 18 -75 18q-8 0 -30 -22l-21 -19h-4l-9 11v4l52 47l6 2q20 -2 81 -20q64 -18 75 -18q8 0 30 22l21 19h4l9 -11v-4z" />
    <glyph glyph-name="ytilde" unicode="&#x7e;y" horiz-adv-x="378" 
d="M362 373q0 -49 -39 -115l-143 -243q-65 -111 -122 -160t-114 -49q-34 0 -68 15l-1 20l5 2q37 -17 66 -17q94 0 208 186l-80 438l23 6l12 -74l59 -340h4l134 226q36 60 36 106q0 32 -28 70l1 5l18 6q29 -41 29 -82zM374 616l-52 -47l-6 -2q-20 2 -81 20q-64 18 -75 18
q-8 0 -30 -22l-21 -19h-4l-9 11v4l52 47l6 2q20 -2 81 -20q64 -18 75 -18q8 0 30 22l21 19h4l9 -11v-4z" />
    <glyph glyph-name="fi" unicode="fi" horiz-adv-x="460" 
d="M226.5 650.5q-35.5 -34.5 -46.5 -99.5l-13 -102h209l18 6l3 -3l-45 -346l-7 -106l-27 -4l49 366l5 67h-208l-30 -237l-27 -216l-9 -106l-25 -4l41 324l30 239h-69l-4 4l4 16h72l13 102q13 74 56.5 114t111.5 40l76 -20l2 -3l-7 -20h-6q-35 23 -75 23q-56 0 -91.5 -34.5z
" />
    <glyph glyph-name="fl" unicode="fl" horiz-adv-x="462" 
d="M353 106l-9 -106l-26 -4l82 612l4 66q-41 11 -86 11q-59 0 -94.5 -34t-43.5 -100l-13 -102h116l3 -4l-4 -16h-118l-30 -237l-27 -216l-9 -106l-25 -4l41 324l30 239h-69l-4 4l4 16h72l13 102q10 76 52 115t112 39l86 -6l22 3z" />
    <glyph glyph-name="uni0066006A" unicode="fj" horiz-adv-x="460" 
d="M226.5 650.5q-35.5 -34.5 -46.5 -99.5l-13 -102h209l18 6l3 -3l-44 -359l-11 -75q-10 -81 -35.5 -125t-82.5 -85l-10 11l1 6q52 37 74 76t31 107l47 354l5 67h-208l-30 -237l-27 -216l-9 -106l-25 -4l41 324l30 239h-69l-4 4l4 16h72l13 102q13 74 56.5 114t111.5 40
l76 -20l2 -3l-7 -20h-6q-35 23 -75 23q-56 0 -91.5 -34.5z" />
    <glyph glyph-name="Gtilde" unicode="&#x7e;G" horiz-adv-x="575" 
d="M542 587l-8 -18h-7q-76 52 -152 52q-94 0 -161.5 -44t-103 -127t-35.5 -198q0 -114 49 -175.5t142 -61.5q44 0 82.5 6.5t98.5 23.5l15 113l9 78l20 2l-9 -80l-17 -128q-67 -20 -108 -27t-91 -7q-103 0 -157 66t-54 188t38.5 210t111 134.5t173.5 46.5q85 0 164 -54z
M501 801l-52 -47l-6 -2q-20 2 -81 20q-64 18 -75 18q-8 0 -30 -22l-21 -19h-4l-9 11v4l52 47l6 2q20 -2 81 -20q64 -18 75 -18q8 0 30 22l21 19h4l9 -11v-4z" />
    <glyph glyph-name="gtilde" unicode="&#x7e;g" horiz-adv-x="415" 
d="M311 133l-12 -98q-15 -116 -72 -174t-145 -58q-55 0 -90.5 27.5t-49.5 77.5l2 7l150 122v5q-35 35 -35 116q0 80 25.5 146t74 106.5t114.5 44.5h4l59 -3l11 7l5 -3zM170.5 398q-44.5 -38 -68.5 -101t-24 -135q0 -37 6.5 -60.5t15 -34t14.5 -10.5q7 0 38 36.5t75.5 102
t91.5 148.5l3 26l5 64l-53 2q-59 0 -103.5 -38zM307 286q-63 -100 -104.5 -157.5t-85.5 -97.5l-144 -117q-6 -5 -6 -10q2 -15 15 -34t38.5 -33t61.5 -14q78 0 130 53t66 155l33 255h-4zM394 616l-52 -47l-6 -2q-20 2 -81 20q-64 18 -75 18q-8 0 -30 -22l-21 -19h-4l-9 11v4
l52 47l6 2q20 -2 81 -20q64 -18 75 -18q8 0 30 22l21 19h4l9 -11v-4z" />
    <glyph glyph-name=".notdef" horiz-adv-x="180" 
 />
    <glyph glyph-name=".null" horiz-adv-x="0" 
 />
    <glyph glyph-name="nonmarkingreturn" horiz-adv-x="333" 
 />
    <glyph glyph-name="space" unicode=" " horiz-adv-x="150" 
 />
    <glyph glyph-name="exclam" unicode="!" horiz-adv-x="249" 
d="M133 198h-16l-4 5l63 448l4 3h14l2 -3zM123 18q0 -20 -20 -20t-20 20t20 20t20 -20z" />
    <glyph glyph-name="quotedbl" unicode="&#x22;" horiz-adv-x="222" 
d="M99 487l-17 -2l-2 4l29 144l18 2l2 -4zM196 487l-17 -2l-2 4l29 144l18 2l2 -4z" />
    <glyph glyph-name="numbersign" unicode="#" horiz-adv-x="480" 
d="M298 245h121l3 -3l-2 -17h-127l-49 -193h-16l-3 4l48 189h-118l-49 -193h-16l-3 4l48 189h-112l-3 3l2 17h118l33 129h-112l-3 3l2 17h118l46 181h16l2 -5l-44 -176h118l46 181h16l2 -5l-44 -176h121l3 -3l-2 -17h-128zM192 374l-32 -129h118l33 129h-119z" />
    <glyph glyph-name="dollar" unicode="$" horiz-adv-x="408" 
d="M344 471l-7 -18l-6 -1q-36 19 -83 21l-31 -218q50 -25 77.5 -51t27.5 -70q0 -51 -39.5 -90t-100.5 -46l-18 -122h-15l-4 4l17 117h-2q-71 0 -119 36l2 20l5 1q47 -37 113 -37h3l31 225q-52 26 -79 52t-27 69q0 50 39 87.5t101 41.5l20 138h16l4 -5l-18 -132q51 -2 93 -22
zM131.5 307.5q22.5 -21.5 66.5 -43.5l29 208q-53 -5 -85.5 -37.5t-32.5 -72.5q0 -33 22.5 -54.5zM279.5 189.5q-22.5 21.5 -65.5 43.5l-29 -214q52 7 84.5 41t32.5 75q0 33 -22.5 54.5z" />
    <glyph glyph-name="percent" unicode="%" horiz-adv-x="799" 
d="M681 656l-577 -746l-8 4l-3 9l576 746l10 -5zM327.5 603q29.5 -35 29.5 -101q0 -96 -42.5 -151t-120.5 -55q-57 0 -86.5 35t-29.5 101q0 96 43.5 151t120.5 55q56 0 85.5 -35zM134 570.5q-37 -48.5 -37 -134.5q0 -59 26 -90t76 -31q66 0 103 48.5t37 134.5q0 59 -26 90
t-76 31q-66 0 -103 -48.5zM713.5 304q29.5 -35 29.5 -101q0 -96 -42.5 -151t-120.5 -55q-57 0 -86.5 35t-29.5 101q0 96 43.5 151t120.5 55q56 0 85.5 -35zM520 271.5q-37 -48.5 -37 -134.5q0 -59 26 -90t76 -31q66 0 103 48.5t37 134.5q0 59 -26 90t-76 31
q-66 0 -103 -48.5z" />
    <glyph glyph-name="ampersand" unicode="&#x26;" horiz-adv-x="601" 
d="M467 600l-8 -19h-7q-64 42 -138 42q-78 0 -121.5 -38t-43.5 -105q0 -57 32 -94t86 -41l300 15l69 8l2 -4l-8 -20l-189 -10l-1 -4q39 -54 39 -132q0 -93 -60.5 -148.5t-164.5 -55.5q-89 0 -140 40.5t-51 108.5q0 60 40 109t113 82v4q-41 17 -64 54t-23 88q0 75 49.5 119
t136.5 44q78 0 152 -43zM125 249q-42 -45 -42 -102q0 -60 46 -96.5t126 -36.5q94 0 149 50.5t55 135.5q0 87 -51 132l-167 -9q-74 -29 -116 -74z" />
    <glyph glyph-name="quotesingle" unicode="'" horiz-adv-x="125" 
d="M99 487l-17 -2l-2 4l29 144l18 2l2 -4z" />
    <glyph glyph-name="parenleft" unicode="(" horiz-adv-x="280" 
d="M317 648q-126 -84 -170.5 -212.5t-44.5 -290.5q0 -95 28.5 -159.5t91.5 -113.5l-1 -4l-10 -11h-4q-66 54 -95.5 120t-29.5 165q0 170 47 302t177 219h4l8 -11z" />
    <glyph glyph-name="parenright" unicode=")" horiz-adv-x="281" 
d="M-28 -128q126 84 170.5 212.5t44.5 290.5q0 95 -28.5 159.5t-91.5 113.5l1 4l10 11h4q66 -54 95.5 -120t29.5 -165q0 -170 -47 -302t-177 -219h-4l-8 11z" />
    <glyph glyph-name="asterisk" unicode="*" horiz-adv-x="365" 
d="M230 600l-14 -2l-3 5l5 109q10 3 21 3l2 -2zM190 569l-5 -1l-102 38q0 14 3 21l3 2l104 -46zM369 597l-1 -2l-111 -25l-5 13l3 4l104 29q6 -7 10 -19zM313 452q-7 -10 -15 -15h-3l-58 98l11 9l5 -2zM209 530l-67 -85q-10 3 -19 10l-1 3l76 85l12 -7z" />
    <glyph glyph-name="plus" unicode="+" horiz-adv-x="478" 
d="M256 280h187l3 -3l-4 -17h-189l-23 -189l-17 -2l-3 3l23 188h-187l-3 3l4 17h189l23 189l17 2l3 -3z" />
    <glyph glyph-name="comma" unicode="," horiz-adv-x="230" 
d="M121 -7q0 -42 -66 -93l-10 11l1 3q54 40 54 78q0 20 -30 34v4q5 7 13 11q38 -17 38 -48z" />
    <glyph glyph-name="hyphen" unicode="-" horiz-adv-x="312" 
d="M285 261l-250 -33l-3 4l2 16l249 33l3 -4z" />
    <glyph glyph-name="period" unicode="." horiz-adv-x="230" 
d="M109 18q0 -20 -20 -20t-20 20t20 20t20 -20z" />
    <glyph glyph-name="slash" unicode="/" horiz-adv-x="291" 
d="M39 -110h-16l-3 4l258 781h16l3 -5z" />
    <glyph glyph-name="zero" unicode="0" horiz-adv-x="539" 
d="M439.5 441.5q48.5 -53.5 48.5 -153.5q0 -139 -63.5 -215.5t-180.5 -76.5q-90 0 -139 52.5t-49 149.5q0 140 63.5 218.5t181.5 78.5q90 0 138.5 -53.5zM135 403q-59 -72 -59 -200q0 -90 43.5 -138.5t126.5 -48.5q106 0 164 70.5t58 196.5q0 92 -43.5 142t-125.5 50
q-105 0 -164 -72z" />
    <glyph glyph-name="one" unicode="1" horiz-adv-x="328" 
d="M184 206l-26 -206h-20l25 201l32 265l-151 -45l-5 3l2 16l174 53l3 -4z" />
    <glyph glyph-name="two" unicode="2" horiz-adv-x="439" 
d="M322 467q29 -25 29 -64q0 -42 -34 -92.5t-111 -132.5l-145 -155l2 -3h234l78 1l2 -4l-6 -18l-82 1h-222l-38 -1l-2 2l2 16l162 174q76 82 108 126.5t32 81.5q0 31 -23 52t-64 21q-81 0 -150 -77h-4l-2 17q72 80 158 80q47 0 76 -25z" />
    <glyph glyph-name="three" unicode="3" horiz-adv-x="392" 
d="M293.5 464q32.5 -29 32.5 -76q0 -49 -35 -94t-90 -70l-1 -3q58 -13 88.5 -47t30.5 -85q0 -54 -29.5 -97t-81 -67t-116.5 -24q-44 0 -86 8l-1 17l3 3q43 -8 86 -8q60 0 106.5 21t72.5 59t26 87q0 55 -39.5 86t-114.5 35h-47l-3 3l3 16h43q33 0 72 21t65.5 57t26.5 78
q0 40 -27 64t-71 24q-66 0 -138 -63h-4l-1 19q77 65 144 65q53 0 85.5 -29z" />
    <glyph glyph-name="four" unicode="4" horiz-adv-x="458" 
d="M402 98l-71 1h-34l-24 -191l-2 -3l-16 -3l-2 3l24 194h-215l-42 -1l-3 4l2 17l303 372h22l-45 -372h105l4 -4zM320 452h-4l-271 -333h234z" />
    <glyph glyph-name="five" unicode="5" horiz-adv-x="403" 
d="M373 472l-4 -2l-41 1h-195l-27 -206l64 -15q83 -19 122.5 -55t39.5 -92q0 -58 -31 -104t-87 -72t-128 -26q-34 0 -72 7l-2 17l4 3q39 -7 74 -7q65 0 115.5 23t78.5 64t28 93q0 47 -37 78.5t-114 50.5l-72 17l-3 5l29 232l10 8l49 -1h136l65 1l2 -2z" />
    <glyph glyph-name="six" unicode="6" horiz-adv-x="455" 
d="M197 450.5q-79 -79.5 -107 -171.5l3 -3q73 59 157 59q69 0 108 -37t39 -106q0 -44 -17 -89t-59.5 -77t-113.5 -32q-75 0 -114 46t-39 130q0 74 32 153.5t110.5 152.5t208.5 116h4l7 -11v-4q-140 -47 -219 -126.5zM82 247q-8 -35 -8 -74q0 -76 34 -117.5t100 -41.5
q63 0 101 28t53 68t15 80q0 60 -33.5 92.5t-94.5 32.5q-88 0 -167 -68z" />
    <glyph glyph-name="seven" unicode="7" horiz-adv-x="401" 
d="M366 491l37 1l-2 -18l-283 -493l-46 -86l-20 6v4l325 566h-257l-58 -1l-3 5l5 17l64 -1h238z" />
    <glyph glyph-name="eight" unicode="8" horiz-adv-x="456" 
d="M363 557.5q35 -31.5 35 -89.5q0 -110 -138 -161v-3q41 -18 67 -34t42.5 -42.5t16.5 -66.5q0 -47 -23 -84.5t-65 -59t-96 -21.5q-71 0 -112.5 36.5t-41.5 98.5q0 117 158 174v3q-49 22 -74 51.5t-25 79.5q0 67 45.5 108.5t116.5 41.5q59 0 94 -31.5zM165.5 533
q-39.5 -36 -39.5 -94q0 -48 27 -73.5t80 -49.5q145 46 145 151q0 49 -29 75.5t-81 26.5q-63 0 -102.5 -36zM113.5 235q-45.5 -36 -45.5 -103q0 -54 36 -85t99 -31q73 0 118 40.5t45 102.5q0 38 -18 62.5t-42.5 38.5t-75.5 36q-71 -25 -116.5 -61z" />
    <glyph glyph-name="nine" unicode="9" horiz-adv-x="455" 
d="M263 41.5q79 79.5 107 171.5l-3 3q-73 -59 -157 -59q-69 0 -108 37t-39 106q0 44 17 89t59.5 77t113.5 32q75 0 114 -46t39 -130q0 -74 -32 -153.5t-110.5 -152.5t-208.5 -116h-4l-7 11v4q140 47 219 126.5zM378 245q8 35 8 74q0 76 -34 117.5t-100 41.5q-63 0 -101 -28
t-53 -68t-15 -80q0 -60 33.5 -92.5t94.5 -32.5q88 0 167 68z" />
    <glyph glyph-name="colon" unicode=":" horiz-adv-x="229" 
d="M109 18q0 -20 -20 -20t-20 20t20 20t20 -20zM143 295q0 -20 -20 -20t-20 20t20 20t20 -20z" />
    <glyph glyph-name="semicolon" unicode=";" horiz-adv-x="230" 
d="M120 -7q0 -42 -66 -93l-10 11l1 3q54 40 54 78q0 20 -30 34v4q5 7 13 11q38 -17 38 -48zM142 295q0 -20 -20 -20t-20 20t20 20t20 -20z" />
    <glyph glyph-name="less" unicode="&#x3c;" horiz-adv-x="500" 
d="M454 436l-390 -164l-1 -4l355 -153l-8 -15l-4 -2l-370 160l3 22l3 4l410 171l5 -14z" />
    <glyph glyph-name="equal" unicode="=" horiz-adv-x="479" 
d="M458 332h-397l-3 3l2 17h397l3 -3zM440 188h-397l-3 3l2 17h397l3 -3z" />
    <glyph glyph-name="greater" unicode="&#x3e;" horiz-adv-x="501" 
d="M475 280l-3 -22l-409 -160l-4 2l-4 15l393 153v4l-350 164l-2 5l9 14l368 -171z" />
    <glyph glyph-name="question" unicode="?" horiz-adv-x="323" 
d="M292 609q55 -37 55 -96q0 -81 -94 -141l-104 -66l-2 -3l-8 -108l-17 -1l-2 4l7 112l6 9l110 69q83 52 83 121q0 54 -51 87t-147 39l-2 3l7 13l7 3q97 -8 152 -45zM138 18q0 -20 -20 -20t-20 20t20 20t20 -20z" />
    <glyph glyph-name="at" unicode="@" horiz-adv-x="805" 
d="M611 553q73 -39 112.5 -108.5t39.5 -160.5q0 -132 -77 -205.5t-223 -82.5l36 275h-5q-93 -177 -202 -275h-11q-27 20 -39.5 52t-12.5 89q0 85 26.5 156t78 115t122.5 49h4l65 -5l13 7l5 -3l-46 -350l-8 -90q124 12 189 80.5t65 187.5q0 86 -36.5 151t-105 101t-160.5 36
q-112 0 -197.5 -48t-132.5 -133.5t-47 -196.5t47.5 -192t135 -124t203.5 -43l1 -4l-13 -16q-117 2 -206 49t-138.5 131t-49.5 195q0 119 49.5 210.5t139.5 141.5t208 50q97 0 170 -39zM333 64q36 40 83 111t92 161l3 26l7 70l-60 5q-63 -1 -110.5 -42.5t-73 -109
t-25.5 -144.5q0 -41 7 -67t16.5 -38t16.5 -12q8 0 44 40z" />
    <glyph glyph-name="A" unicode="A" horiz-adv-x="524" 
d="M447 0l-6 43l-37 170h-283l-85 -170l-20 -43h-24l319 637h21l138 -637h-23zM318 603h-3l-184 -370h268z" />
    <glyph glyph-name="B" unicode="B" horiz-adv-x="471" 
d="M391.5 290.5q31.5 -34.5 31.5 -92.5q0 -95 -62 -148t-177 -53q-56 0 -104 3l25 195l56 442l116 2q66 0 102 -33t36 -93q0 -135 -112 -179q57 -9 88.5 -43.5zM265 340q62 13 95.5 57.5t33.5 110.5q0 51 -30 80.5t-82 29.5h-103l-35 -275zM344 64q58 47 58 131
q0 55 -33.5 87.5t-96.5 37.5h-131l-16 -125l-22 -175q38 -3 78 -3q105 0 163 47z" />
    <glyph glyph-name="C" unicode="C" horiz-adv-x="497" 
d="M437 625.5q42 -15.5 73 -43.5l-9 -17h-7q-59 56 -146 56q-86 0 -147.5 -44.5t-93.5 -127t-32 -196.5q0 -115 47.5 -176.5t138.5 -61.5q94 0 180 67l7 -2l-4 -18q-92 -67 -184 -67q-100 0 -152.5 66.5t-52.5 189.5q0 121 35 208.5t101 134.5t159 47q45 0 87 -15.5z" />
    <glyph glyph-name="D" unicode="D" horiz-adv-x="609" 
d="M520 577.5q59 -64.5 59 -184.5q0 -121 -37.5 -210.5t-109.5 -138.5t-172 -49q-75 0 -180 5l25 195l55 442l190 5q111 0 170 -64.5zM421.5 61q66.5 46 101.5 130.5t35 198.5q0 112 -54 172t-156 60q-78 0 -170 -5l-53 -422l-23 -176q168 -4 161 -4q92 0 158.5 46z" />
    <glyph glyph-name="E" unicode="E" horiz-adv-x="432" 
d="M143 340h223l3 -4l-6 -16h-222l-16 -125l-22 -175h273l3 -4l-6 -16h-293l25 195l55 442h291l2 -4l-6 -16h-269z" />
    <glyph glyph-name="F" unicode="F" horiz-adv-x="394" 
d="M142 330h214l2 -4l-6 -16h-213l-14 -115l-25 -195h-20l25 195l55 442h281l3 -4l-6 -16h-260z" />
    <glyph glyph-name="G" unicode="G" horiz-adv-x="575" 
d="M542 587l-8 -18h-7q-76 52 -152 52q-94 0 -161.5 -44t-103 -127t-35.5 -198q0 -114 49 -175.5t142 -61.5q44 0 82.5 6.5t98.5 23.5l15 113l9 78l20 2l-9 -80l-17 -128q-67 -20 -108 -27t-91 -7q-103 0 -157 66t-54 188t38.5 210t111 134.5t173.5 46.5q85 0 164 -54z" />
    <glyph glyph-name="H" unicode="H" horiz-adv-x="640" 
d="M530 195l-25 -195h-20l25 195l15 119h-385l-15 -119l-25 -195h-20l25 195l55 442h20l-38 -303h385l38 303h20z" />
    <glyph glyph-name="I" unicode="I" horiz-adv-x="235" 
d="M100 0h-20l25 195l55 442h20l-55 -442z" />
    <glyph glyph-name="J" unicode="J" horiz-adv-x="260" 
d="M147 212l-12 -97q-9 -70 -44 -118.5t-109 -94.5l-9 11v6q68 42 102 88t41 108l11 93l51 409h-125l-4 4l5 16h146z" />
    <glyph glyph-name="K" unicode="K" horiz-adv-x="483" 
d="M100 0h-20l25 195l56 442h20l-56 -442zM446 5v-4q-4 -4 -14 -8l-4 1q-149 179 -258 345v3l265 248l47 47h32l-316 -298q116 -177 248 -334z" />
    <glyph glyph-name="L" unicode="L" horiz-adv-x="378" 
d="M343 0h-264l25 195l55 442h20l-55 -442l-22 -175h244l3 -4z" />
    <glyph glyph-name="M" unicode="M" horiz-adv-x="742" 
d="M619 0l6 195l8 394h-4l-265 -508h-25l-133 508h-4l-90 -394l-44 -195h-21l146 637h23l26 -99l110 -428h4l231 439l46 88h24l-17 -637h-21z" />
    <glyph glyph-name="N" unicode="N" horiz-adv-x="640" 
d="M503 0h-19l-304 595h-4l-51 -396l-25 -199h-20l24 190l57 447h19l304 -595h4l77 594l20 2l-59 -462z" />
    <glyph glyph-name="O" unicode="O" horiz-adv-x="599" 
d="M513.5 577q54.5 -65 54.5 -186q0 -122 -35.5 -211t-103 -137t-162.5 -48q-102 0 -156.5 67t-54.5 191q0 121 35 208.5t102.5 134t161.5 46.5q104 0 158.5 -65zM205 578q-62 -44 -95 -126.5t-33 -195.5q0 -115 49.5 -178t141.5 -63q87 0 150 45.5t96 129t33 197.5
q0 113 -49 174t-144 61q-87 0 -149 -44z" />
    <glyph glyph-name="P" unicode="P" horiz-adv-x="464" 
d="M405 600q39 -39 39 -111q0 -113 -60 -176.5t-170 -63.5h-82l-7 -54l-25 -195h-20l25 195l55 442l133 2q73 0 112 -39zM376.5 335.5q47.5 58.5 47.5 149.5q0 62 -32.5 96.5t-93.5 37.5l-120 -1l-44 -349h112q83 8 130.5 66.5z" />
    <glyph glyph-name="Q" unicode="Q" horiz-adv-x="592" 
d="M475 -110q88 -42 187 -54l-1 -6q-9 -12 -10 -12h-4q-101 13 -192 59t-163 119q-8 -1 -25 -1q-102 0 -156.5 67t-54.5 191q0 121 35 208.5t102.5 134t161.5 46.5q104 0 158.5 -65t54.5 -186q0 -167 -65.5 -270t-184.5 -122q69 -67 157 -109zM126.5 78q49.5 -63 141.5 -63
q87 0 150 45.5t96 129t33 197.5q0 113 -49 174t-144 61q-87 0 -149 -44t-95 -126.5t-33 -195.5q0 -115 49.5 -178z" />
    <glyph glyph-name="R" unicode="R" horiz-adv-x="494" 
d="M402 348.5q-43 -58.5 -122 -82.5q60 -134 137 -261l-1 -4q-5 -5 -13 -8l-5 2q-81 137 -140 268h-125l-8 -68l-25 -195h-20l25 195l55 442l133 2q73 0 112.5 -38.5t39.5 -109.5q0 -84 -43 -142.5zM270 283q74 20 114.5 73.5t40.5 131.5q0 60 -32.5 94t-94.5 37l-120 -1
l-42 -335h134z" />
    <glyph glyph-name="S" unicode="S" horiz-adv-x="423" 
d="M398 611l-6 -18l-7 -1q-46 28 -104 28q-48 0 -86 -20.5t-59 -53.5t-21 -69q0 -33 16 -58t38.5 -42.5t62.5 -41.5q44 -26 70 -46t44 -50.5t18 -71.5q0 -46 -26.5 -85.5t-72 -62.5t-99.5 -23q-37 0 -74 12t-64 35l3 19l6 2q26 -24 61 -36t70 -12q50 0 90.5 21t63 55
t22.5 73q0 35 -16.5 61.5t-40 44.5t-64.5 43q-43 27 -68 46t-42.5 48.5t-17.5 69.5q0 45 25 82t68 58.5t96 21.5q61 0 114 -29z" />
    <glyph glyph-name="T" unicode="T" horiz-adv-x="450" 
d="M468 617h-183l-54 -422l-24 -195h-20l24 195l54 422h-185l-3 4l6 16h388l3 -4z" />
    <glyph glyph-name="U" unicode="U" horiz-adv-x="583" 
d="M500 229q-11 -111 -72.5 -172t-161.5 -61q-89 0 -137 46.5t-48 133.5q0 29 4 53l13 93l40 315h20l-53 -408q-4 -34 -4 -49q0 -79 42.5 -121.5t121.5 -42.5q91 0 146 55t69 158l51 408h20l-41 -325z" />
    <glyph glyph-name="V" unicode="V" horiz-adv-x="508" 
d="M210 0l-139 637h23l7 -43l122 -560h4l280 560l18 43h24l-317 -637h-22z" />
    <glyph glyph-name="W" unicode="W" horiz-adv-x="834" 
d="M539 0l-91 438h-4l-213 -438h-22l-135 637h23l7 -43l119 -560h4l213 437l-36 166h22l7 -43l118 -560h4l276 560l19 43h23l-314 -637h-20z" />
    <glyph glyph-name="X" unicode="X" horiz-adv-x="537" 
d="M463 0h-25l-16 38l-148 276l-215 -278l-25 -36h-27l257 331l-161 306h26l16 -35l134 -256l195 251l27 40h27l-238 -308z" />
    <glyph glyph-name="Y" unicode="Y" horiz-adv-x="469" 
d="M231 195l-24 -195h-20l24 195l7 50l-141 392h25l7 -26l120 -334h5l218 334l14 26h26l-254 -390z" />
    <glyph glyph-name="Z" unicode="Z" horiz-adv-x="482" 
d="M34 20h310l65 1l4 -5l-6 -16h-368l-34 -1l2 18l453 600h-300l-55 -1l-4 5l6 17l61 -1h286l35 1l-2 -18z" />
    <glyph glyph-name="bracketleft" unicode="[" horiz-adv-x="282" 
d="M313 627l-131 -9l-88 -723l128 -9l-1 -15l-5 -4l-145 10l47 380l47 379l147 10l3 -4z" />
    <glyph glyph-name="backslash" unicode="\" horiz-adv-x="360" 
d="M307 -106l-3 -4h-16l-204 780l3 5h16z" />
    <glyph glyph-name="bracketright" unicode="]" horiz-adv-x="282" 
d="M-24 -114l131 9l88 723l-128 9l1 15l5 4l145 -10l-47 -380l-47 -379l-147 -10l-3 4z" />
    <glyph glyph-name="asciicircum" unicode="^" horiz-adv-x="407" 
d="M367 117l-16 -5l-110 350h-4l-207 -346l-5 -3l-13 7l216 364l4 3h22l115 -366z" />
    <glyph glyph-name="underscore" unicode="_" horiz-adv-x="455" 
d="M427 -106h-480l-2 3l4 17h480l2 -3z" />
    <glyph glyph-name="grave" unicode="`" 
d="M320 532l-11 -13l-5 -1q-75 66 -144 135l-1 5l10 10l5 1q77 -79 146 -137z" />
    <glyph glyph-name="a" unicode="a" horiz-adv-x="422" 
d="M313 106l-9 -106l-25 -4l36 275h-4q-93 -177 -202 -275h-11q-27 20 -39.5 52t-12.5 89q0 85 26.5 156t78 115t122.5 49h4l65 -5l12 7l5 -3zM149.5 64q35.5 40 82.5 110t91 159l4 29l7 70l-59 5q-63 -1 -110.5 -42.5t-73 -109t-25.5 -144.5q0 -41 7 -67t16.5 -38t16.5 -12
q8 0 43.5 40z" />
    <glyph glyph-name="b" unicode="b" horiz-adv-x="423" 
d="M365 402q12 -30 12 -85q0 -86 -27.5 -157.5t-79.5 -115.5t-124 -48h-4l-69 17l-9 1l79 594l7 90l25 4l-70 -523h4q95 177 205 275h11q28 -22 40 -52zM256.5 57q48.5 41 74.5 109t26 146q0 40 -7 65.5t-16.5 37t-16.5 11.5q-8 0 -44 -39.5t-83.5 -109.5t-92.5 -159
l-10 -88l57 -14q64 0 112.5 41z" />
    <glyph glyph-name="c" unicode="c" horiz-adv-x="323" 
d="M323 430l-6 -14l-5 -3q-37 23 -64 23q-85 -1 -133 -80t-48 -215q0 -125 73 -125t125 102h6l9 -13q-31 -55 -64 -79.5t-75 -30.5h-8q-27 5 -45.5 17t-29.5 43t-11 87q0 141 54 227.5t161 86.5l56 -19z" />
    <glyph glyph-name="d" unicode="d" horiz-adv-x="423" 
d="M315 106l-9 -106l-25 -4l37 275h-5q-95 -178 -206 -275h-11q-27 19 -39 50.5t-12 86.5q0 86 27.5 157.5t79.5 115.5t124 48h4l62 -3l21 157l6 90l25 4zM148.5 64q36.5 40 84.5 111t94 161l12 95l-61 3q-64 0 -112.5 -41t-74.5 -109t-26 -146q0 -40 7 -65.5t16 -37
t16 -11.5q8 0 44.5 40z" />
    <glyph glyph-name="e" unicode="e" horiz-adv-x="354" 
d="M293 105q-30 -50 -64.5 -77t-80.5 -33h-9q-49 6 -70.5 41.5t-21.5 106.5q0 88 25.5 159t70.5 112.5t99 42.5h5q75 -6 75 -69q0 -57 -64 -111t-190 -101l-1 -28q0 -68 19.5 -100t59.5 -32q75 0 131 102h7zM163.5 405.5q-37.5 -30.5 -62 -84.5t-31.5 -123q111 41 171 90
t60 97q0 23 -14.5 37t-42.5 14q-43 0 -80.5 -30.5z" />
    <glyph glyph-name="f" unicode="f" horiz-adv-x="257" 
d="M377 670h-6q-39 15 -69 15q-104 0 -122 -134l-13 -102h116l3 -4l-4 -16h-118l-30 -237l-27 -216l-9 -106l-25 -4l41 324l30 239h-69l-4 4l4 16h72l13 102q20 154 148 154l74 -12l2 -3z" />
    <glyph glyph-name="g" unicode="g" horiz-adv-x="415" 
d="M311 133l-12 -98q-15 -116 -72 -174t-145 -58q-55 0 -90.5 27.5t-49.5 77.5l2 7l150 122v5q-35 35 -35 116q0 80 25.5 146t74 106.5t114.5 44.5h4l59 -3l11 7l5 -3zM170.5 398q-44.5 -38 -68.5 -101t-24 -135q0 -37 6.5 -60.5t15 -34t14.5 -10.5q7 0 38 36.5t75.5 102
t91.5 148.5l3 26l5 64l-53 2q-59 0 -103.5 -38zM307 286q-63 -100 -104.5 -157.5t-85.5 -97.5l-144 -117q-6 -5 -6 -10q2 -15 15 -34t38.5 -33t61.5 -14q78 0 130 53t66 155l33 255h-4z" />
    <glyph glyph-name="h" unicode="h" horiz-adv-x="446" 
d="M373 431.5q14 -23.5 13 -54.5l-1 -13l-43 -263l-12 -101l-25 -4l59 365l1 15q1 25 -10 42.5t-24 17.5q-26 0 -90 -85t-143 -231l-2 -14l-9 -106l-26 -4l82 612l6 90l26 4l-69 -518h5q64 111 114 178.5t99 99.5h11q24 -7 38 -30.5z" />
    <glyph glyph-name="i" unicode="i" horiz-adv-x="203" 
d="M88 0l-27 -4l49 366l6 90l25 4l-46 -350zM168 610q0 -20 -20 -20t-20 20t20 20t20 -20z" />
    <glyph glyph-name="j" unicode="j" horiz-adv-x="212" 
d="M105 93l-11 -75q-10 -80 -36.5 -124.5t-86.5 -85.5l-11 11l1 6q55 37 78 76t32 107l49 358l5 63h-83l-4 4l4 16h87l19 3l2 -1zM160 610q0 -20 -20 -20t-20 20t20 20t20 -20z" />
    <glyph glyph-name="k" unicode="k" horiz-adv-x="426" 
d="M226 183q70 -101 137 -183v-3l-16 -8l-4 2q-50 62 -142 190l1 9q173 95 173 189q0 28 -13.5 42.5t-28.5 14.5q-69 0 -235 -313l-2 -17l-9 -106l-26 -4l82 612l6 90l26 4l-68 -513h4q67 118 114 181.5t96 86.5l16 1q26 -5 42 -24t16 -52q0 -103 -169 -199z" />
    <glyph glyph-name="l" unicode="l" horiz-adv-x="205" 
d="M87 0l-26 -4l82 612l6 90l26 4l-79 -596z" />
    <glyph glyph-name="m" unicode="m" horiz-adv-x="693" 
d="M620 431.5q14 -23.5 13 -54.5l-1 -13l-43 -263l-12 -101l-25 -4l59 365l1 15q1 25 -10 42.5t-24 17.5q-26 0 -91 -86t-145 -234l-2 -15l-12 -101l-25 -4l60 365l1 15q0 25 -11 42.5t-24 17.5q-26 0 -89.5 -85t-142.5 -231l-2 -14l-9 -106l-25 -4l48 366l7 90l25 4
l-36 -272h5q64 112 114 179t98 99h11q24 -7 38.5 -30.5t13.5 -54.5l-1 -13l-30 -180h5q64 112 114 179t98 99h11q24 -7 38 -30.5z" />
    <glyph glyph-name="n" unicode="n" horiz-adv-x="445" 
d="M372 431.5q14 -23.5 13 -54.5l-1 -13l-43 -263l-12 -101l-25 -4l59 365l1 15q1 25 -10 42.5t-24 17.5q-26 0 -90 -85t-143 -231l-2 -14l-9 -106l-25 -4l48 366l7 90l25 4l-36 -272h5q65 112 114.5 179t98.5 99h11q24 -7 38 -30.5z" />
    <glyph glyph-name="o" unicode="o" horiz-adv-x="396" 
d="M325.5 421q22.5 -33 22.5 -101q0 -91 -24 -163.5t-69 -115.5t-106 -47h-5q-50 3 -73 36.5t-23 103.5q0 91 24.5 164.5t69.5 116t106 43.5h5q50 -4 72.5 -37zM154.5 398q-40.5 -39 -63.5 -107.5t-23 -153.5q0 -62 19.5 -92t60.5 -30q52 0 93 39.5t63.5 108.5t22.5 154
q0 62 -19 91t-60 29q-53 0 -93.5 -39z" />
    <glyph glyph-name="p" unicode="p" horiz-adv-x="422" 
d="M365 402q12 -30 12 -85q0 -86 -27 -157.5t-79.5 -115.5t-124.5 -48h-4l-58 14l-11 -89l-9 -106l-25 -4l71 551l6 90l25 4l-35 -277h4q94 176 204 275h11q28 -22 40 -52zM257 57q48 41 74 109t26 146q0 40 -6.5 65.5t-16 37t-16.5 11.5q-8 0 -44 -39.5t-83.5 -109
t-92.5 -157.5l-11 -89l58 -15q64 0 112 41z" />
    <glyph glyph-name="q" unicode="q" horiz-adv-x="421" 
d="M290 -79l-9 -106l-25 -4l59 460h-4q-94 -176 -204 -275h-11q-27 19 -39 50.5t-12 86.5q0 86 27 157.5t79.5 115.5t123.5 48h4l61 -3l13 8l5 -3zM147.5 63.5q35.5 39.5 83 109.5t92.5 158l4 31l6 70l-57 2q-63 0 -111 -41t-73.5 -109t-25.5 -146q0 -40 6.5 -65.5t15.5 -37
t16 -11.5q8 0 43.5 39.5z" />
    <glyph glyph-name="r" unicode="r" horiz-adv-x="307" 
d="M323 430l-3 -2l-11 2q-40 -7 -96 -90.5t-118 -235.5l-10 -104l-24 -4l47 366l8 90l23 4l-35 -275h5q54 123 106.5 193.5t94.5 77.5l16 -2z" />
    <glyph glyph-name="s" unicode="s" horiz-adv-x="306" 
d="M279 435l-7 -19l-6 -1q-34 20 -69 20q-31 0 -56.5 -14t-40 -36.5t-14.5 -46.5q0 -28 18 -48.5t56 -49.5q43 -32 64 -57t21 -63q0 -34 -18.5 -62.5t-52.5 -46t-78 -17.5q-48 7 -86 34l3 18l7 4q41 -35 88 -35q50 0 83 30t33 72q0 33 -19.5 55.5t-58.5 51.5t-59.5 53
t-20.5 59q0 51 40.5 85.5t100.5 33.5q42 -4 72 -20z" />
    <glyph glyph-name="t" unicode="t" horiz-adv-x="316" 
d="M104 67q0 -24 11 -37.5t29 -13.5q20 0 47.5 26.5t55.5 77.5h7l9 -13q-33 -53 -60 -80t-58 -37h-10q-24 6 -37.5 25.5t-13.5 48.5l2 22l47 276l10 67h-71l-4 4l3 16h75l19 131l22 10l3 -3l-23 -138h144l3 -4l-3 -16h-148l-57 -342z" />
    <glyph glyph-name="u" unicode="u" horiz-adv-x="454" 
d="M347 106l-9 -106l-25 -4l36 271h-5q-65 -112 -114.5 -179t-98.5 -99h-11q-24 7 -38 30.5t-13 54.5l1 13l43 263l12 101l25 4l-59 -365l-1 -15q-1 -25 10 -42.5t24 -17.5q26 0 90.5 85t142.5 230l4 32l7 90l25 4z" />
    <glyph glyph-name="v" unicode="v" horiz-adv-x="382" 
d="M365 373q0 -50 -41 -115l-164 -258h-21l-49 450l23 6l6 -74l36 -352h3l149 238q38 62 38 106q0 32 -28 70l1 5l18 6q29 -41 29 -82z" />
    <glyph glyph-name="w" unicode="w" horiz-adv-x="658" 
d="M428 0l-50 418h-4l-203 -418h-26l-55 450l22 5l4 -46l46 -379h4l182 379l21 43h24l4 -43l46 -379h4l137 238q38 66 38 106q0 32 -28 70l1 5l18 6q29 -41 29 -82q0 -46 -41 -115l-153 -258h-20z" />
    <glyph glyph-name="x" unicode="x" horiz-adv-x="414" 
d="M326 -4l-19 40l-97 177l-147 -181l-23 -32h-28l187 233l-114 215l21 8l15 -33l91 -174l138 169l24 34h28l-178 -223l123 -225z" />
    <glyph glyph-name="y" unicode="y" horiz-adv-x="378" 
d="M362 373q0 -49 -39 -115l-143 -243q-65 -111 -122 -160t-114 -49q-34 0 -68 15l-1 20l5 2q37 -17 66 -17q94 0 208 186l-80 438l23 6l12 -74l59 -340h4l134 226q36 60 36 106q0 32 -28 70l1 5l18 6q29 -41 29 -82z" />
    <glyph glyph-name="z" unicode="z" horiz-adv-x="393" 
d="M45 39l27 5q20 0 71 -17q43 -17 69 -17q103 0 112 159l9 1l10 -11q-9 -169 -133 -169q-26 0 -71 17q-50 16 -72 16q-36 0 -61 -28h-3l-9 8l323 429h-200l-42 -1l-2 4l4 17l2 2l46 -2h205l17 12l11 -9z" />
    <glyph glyph-name="braceleft" unicode="{" horiz-adv-x="282" 
d="M308 648l3 -3l-6 -17q-27 5 -39 5q-44 0 -64 -31.5t-20 -108.5l1 -95q0 -61 -20 -94.5t-61 -49.5v-2q54 -22 54 -87q0 -27 -22 -107q-23 -88 -23 -117q0 -68 62 -68q12 0 40 5l2 -17l-4 -3q-18 -5 -38 -5q-82 0 -82 87q0 20 5 44.5t11 47.5t8 31q21 74 21 100
q0 71 -83 81l2 18q57 7 82.5 38t25.5 100l-1 94q0 84 27.5 121.5t82.5 37.5q19 0 36 -5z" />
    <glyph glyph-name="bar" unicode="|" horiz-adv-x="321" 
d="M178 285l-68 -550h-17l-2 4l67 546l62 504l18 2l2 -2z" />
    <glyph glyph-name="braceright" unicode="}" horiz-adv-x="281" 
d="M-20 -142l-3 3l6 17q27 -5 39 -5q44 0 64 31.5t20 108.5l-1 95q0 61 20 94.5t61 49.5v2q-54 22 -54 87q0 27 22 107q23 88 23 117q0 68 -62 68q-12 0 -40 -5l-2 17l4 3q18 5 38 5q82 0 82 -87q0 -20 -5 -44.5t-11 -47.5t-8 -31q-21 -74 -21 -100q0 -71 83 -81l-2 -18
q-57 -7 -82.5 -38t-25.5 -100l1 -94q0 -84 -27.5 -121.5t-82.5 -37.5q-19 0 -36 5z" />
    <glyph glyph-name="asciitilde" unicode="~" horiz-adv-x="481" 
d="M103 250l-19 -17h-6l-7 9v5l64 53l6 3q12 -2 93 -22q79 -23 99 -23q8 0 18 7.5t24 20t21 18.5h6l7 -10v-4l-65 -54l-6 -2q-23 2 -101 24q-73 21 -90 21q-10 0 -44 -29z" />
    <glyph glyph-name="nonbreakingspace" unicode="&#xa0;" horiz-adv-x="150" 
 />
    <glyph glyph-name="exclamdown" unicode="&#xa1;" horiz-adv-x="249" 
d="M114 259h16l4 -5l-63 -448l-4 -3h-14l-2 3zM124 439q0 20 20 20t20 -20t-20 -20t-20 20z" />
    <glyph glyph-name="cent" unicode="&#xa2;" horiz-adv-x="379" 
d="M339 462l-5 -3q-40 23 -68 23l-18 -1l-73 -419q65 13 113 100h6l8 -11q-29 -50 -60 -74.5t-70 -32.5l-28 -158h-15l-4 4l27 151h-5q-29 5 -48.5 17t-31.5 43.5t-12 89.5q0 122 44 204t131 102l26 153h16l5 -5l-26 -145q20 2 30 2l59 -19l5 -7zM114.5 384.5
q-39.5 -75.5 -39.5 -194.5q0 -130 79 -130h1l71 417q-72 -17 -111.5 -92.5z" />
    <glyph glyph-name="sterling" unicode="&#xa3;" horiz-adv-x="383" 
d="M371 572l-5 -19l-3 -2q-39 20 -89 20q-106 0 -122 -124l-15 -119h126l2 -4l-5 -16h-125l-22 -178q-9 -74 -53 -108v-2h188l69 1l3 -5l-5 -16h-307l-3 4l5 14q34 5 55.5 34t27.5 78l22 178h-67l-3 4l5 16h67l15 119q19 144 142 144q44 0 97 -19z" />
    <glyph glyph-name="currency" unicode="&#xa4;" horiz-adv-x="436" 
d="M416 515l-72 -64q22 -30 22 -71q0 -56 -43 -96l58 -66l-1 -5l-12 -10l-5 1l-57 65q-38 -32 -86 -32t-80 32l-74 -66l-5 1l-8 10l1 5l73 65q-22 28 -22 71q0 53 43 96l-58 66l2 5l10 9h5l58 -66q38 32 86 32q46 0 80 -31l73 65l5 -1l8 -10zM188.5 460.5
q-28.5 -16.5 -46 -44.5t-17.5 -60q0 -41 28 -70t69 -29q32 0 60.5 16.5t46 44.5t17.5 60q0 41 -28 70t-69 29q-32 0 -60.5 -16.5z" />
    <glyph glyph-name="yen" unicode="&#xa5;" horiz-adv-x="458" 
d="M436 277l-5 -17h-153l-52 -75l-4 -35h195l3 -3l-5 -17h-196l-17 -130h-20l17 130h-181l-2 3l4 17h182l5 39l-29 71h-144l-2 3l4 17h134l-86 211h25l6 -21l103 -253h4l179 253l13 21h25l-147 -211h141z" />
    <glyph glyph-name="brokenbar" unicode="&#xa6;" horiz-adv-x="321" 
d="M188 368l-17 -2l-3 3l52 420l18 2l2 -2zM110 -265h-17l-2 4l51 418l17 3l3 -5z" />
    <glyph glyph-name="section" unicode="&#xa7;" horiz-adv-x="407" 
d="M380 620l-6 -19l-6 -1q-41 20 -82 20q-37 0 -65 -15.5t-43 -39.5t-15 -49q0 -31 21.5 -57.5t67.5 -66.5q50 -44 76 -77.5t26 -74.5q0 -79 -106 -133q34 -41 34 -82q0 -34 -21 -64t-57 -48t-79 -18q-64 0 -110 35l5 17l6 3q43 -35 102 -35q39 0 69.5 15.5t47 40t16.5 51.5
q0 34 -22.5 62t-69.5 69q-49 42 -74.5 74t-25.5 72t28.5 75t77.5 61q-33 40 -33 80q0 33 20 62t54 46t75 17q44 0 89 -20zM310.5 302.5q-23.5 29.5 -70.5 70.5q-42 37 -52 48q-47 -24 -73 -55.5t-26 -64.5t23.5 -61.5t68.5 -67.5q44 -39 54 -50q99 47 99 116
q0 35 -23.5 64.5z" />
    <glyph glyph-name="dieresis" unicode="&#xa8;" 
d="M185 596q0 -20 -20 -20t-20 20t20 20t20 -20zM335 596q0 -20 -20 -20t-20 20t20 20t20 -20z" />
    <glyph glyph-name="copyright" unicode="&#xa9;" horiz-adv-x="688" 
d="M504 560q66 -38 102.5 -107t36.5 -160t-36.5 -160t-102.5 -107t-153 -38t-153 38t-102 107t-36 160t36 160t102 107t153 38t153 -38zM208.5 542.5q-61.5 -35.5 -95 -100t-33.5 -149.5t33.5 -149.5t95 -100t142.5 -35.5t142.5 35.5t95.5 100t34 149.5t-34 149.5t-95.5 100
t-142.5 35.5t-142.5 -35.5zM458 436l-5 -18h-5q-36 27 -88 27q-63 0 -96.5 -38.5t-33.5 -111.5t32.5 -111.5t92.5 -38.5q55 0 99 32l4 -1l-2 -19q-52 -32 -102 -32q-70 0 -107 44t-37 126t38.5 126t111.5 44q53 0 98 -29z" />
    <glyph glyph-name="ordfeminine" unicode="&#xaa;" horiz-adv-x="299" 
d="M255 418l-5 -68l-23 -3l22 169h-4q-57 -107 -127 -169h-8q-21 13 -29.5 34t-8.5 59q0 82 39.5 139.5t109.5 63.5h3l43 -4l14 6l4 -2zM145 395.5q22 24.5 52 69t58 100.5l2 16l4 41l-40 3q-59 -1 -94.5 -53.5t-35.5 -126.5q0 -37 9 -55.5t17 -18.5q6 0 28 24.5z" />
    <glyph glyph-name="guillemotleft" unicode="&#xab;" horiz-adv-x="364" 
d="M49 231l175 165l11 -9l-1 -6l-164 -158l126 -158l-1 -6l-13 -9l-135 170zM195 231l175 165l11 -9l-1 -6l-164 -158l126 -158l-1 -6l-13 -9l-135 170z" />
    <glyph glyph-name="logicalnot" unicode="&#xac;" horiz-adv-x="480" 
d="M397 71l-17 -2l-3 3l23 188h-358l-2 3l4 17h373l5 -6z" />
    <glyph glyph-name="softhyphen" unicode="&#xad;" horiz-adv-x="312" 
d="M285 261l-250 -33l-3 4l2 16l249 33l3 -4z" />
    <glyph glyph-name="registered" unicode="&#xae;" horiz-adv-x="432" 
d="M345 654q48 -48 48 -128t-48 -128.5t-128 -48.5t-128.5 48.5t-48.5 128.5t48.5 128t128.5 48t128 -48zM331 411.5q43 43.5 43 114.5t-43 114t-114 43t-114.5 -43t-43.5 -114t43.5 -114.5t114.5 -43.5t114 43.5zM237 514q26 -41 53 -73v-3q1 0 -21 -4l-3 2q-23 30 -51 74
h-35v-13l1 -60h-22v192h59q60 0 60 -55q0 -43 -41 -60zM220 528q36 12 36 44q0 37 -43 39l-32 -1l-1 -80z" />
    <glyph glyph-name="macron" unicode="&#xaf;" 
d="M385 587h-287l-3 3l2 17h287l3 -3z" />
    <glyph glyph-name="degree" unicode="&#xb0;" horiz-adv-x="295" 
d="M275.5 611q30.5 -31 30.5 -77q0 -36 -19 -66t-50.5 -47.5t-67.5 -17.5q-47 0 -77.5 30.5t-30.5 76.5q0 36 19 66t51 48t68 18q46 0 76.5 -31zM140.5 607q-26.5 -15 -43 -40.5t-16.5 -53.5q0 -37 26.5 -63.5t64.5 -26.5q28 0 54.5 15t42.5 40t16 53q0 38 -26 64.5
t-63 26.5q-29 0 -55.5 -15z" />
    <glyph glyph-name="plusminus" unicode="&#xb1;" horiz-adv-x="479" 
d="M256 280h187l3 -3l-4 -17h-189l-23 -189l-17 -2l-3 3l23 188h-187l-3 3l4 17h189l23 189l17 2l3 -3zM404 -65h-397l-3 3l2 17h397l3 -3z" />
    <glyph glyph-name="twosuperior" unicode="&#xb2;" horiz-adv-x="336" 
d="M286.5 683.5q22.5 -18.5 22.5 -48.5q0 -31 -24.5 -65.5t-87.5 -101.5l-108 -116l2 -2h175l61 1l1 -4l-5 -17l-65 1h-169l-29 -1l-2 2l2 15l123 131q60 64 82.5 94.5t22.5 57.5q0 23 -17 38t-47 15q-62 0 -114 -57h-3l-2 17q54 59 123 59q36 0 58.5 -18.5z" />
    <glyph glyph-name="threesuperior" unicode="&#xb3;" horiz-adv-x="294" 
d="M248.5 684.5q22.5 -18.5 22.5 -49.5q0 -30 -23 -58t-60 -44v-2q38 -8 58.5 -29.5t20.5 -53.5q0 -52 -44 -85.5t-111 -33.5q-30 0 -59 6v16l2 2q32 -5 60 -5q58 0 95 27t37 72q0 33 -26 52t-74 21h-33l-2 2l3 15h29q21 0 46 12.5t42 34t17 46.5t-17.5 39.5t-46.5 14.5
q-43 0 -91 -39h-3l-2 17q51 41 100 41q37 0 59.5 -18.5z" />
    <glyph glyph-name="acute" unicode="&#xb4;" 
d="M321 658l-1 -5q-69 -69 -144 -135l-5 1l-11 13q69 58 146 137l5 -1z" />
    <glyph glyph-name="glyph119" unicode="&#xb5;" horiz-adv-x="458" 
d="M350 106l-9 -106l-25 -4l36 271h-5q-65 -112 -114.5 -179t-98.5 -99h-11q-26 8 -38 30l-13 -103l-9 -106l-25 -4l72 556l6 90l25 4l-49 -381q-3 -26 9 -43t26 -17q26 0 90.5 85t142.5 230l4 32l7 90l25 4z" />
    <glyph glyph-name="paragraph" unicode="&#xb6;" horiz-adv-x="448" 
d="M457 617h-81l-55 -449l-6 -46q-13 -109 -147 -190l-9 11l1 6q123 75 135 169l5 40l56 459h-71q-88 -5 -137 -53.5t-49 -131.5q0 -66 40 -107.5t116 -55.5l-6 -20q-82 14 -126 59t-44 120q0 98 57 153.5t159 55.5h164l3 -4z" />
    <glyph glyph-name="periodcentered" unicode="&#xb7;" horiz-adv-x="230" 
d="M136 238q0 -20 -20 -20t-20 20t20 20t20 -20z" />
    <glyph glyph-name="cedilla" unicode="&#xb8;" 
d="M176 -75q33 -21 33 -50q0 -24 -17.5 -38.5t-42.5 -14.5q-37 0 -59 33l6 18h4q10 -16 21 -23.5t28 -7.5q18 0 29 8.5t11 24.5q0 11 -5.5 17.5t-18.5 15.5l-43 28l24 75h20l-21 -66z" />
    <glyph glyph-name="onesuperior" unicode="&#xb9;" horiz-adv-x="240" 
d="M166 461l-16 -130h-20l16 126l27 222l-101 -27l-4 2l2 16l123 35l3 -4z" />
    <glyph glyph-name="ordmasculine" unicode="&#xba;" horiz-adv-x="282" 
d="M260 619q16 -22 16 -66q0 -89 -36 -146t-98 -61h-4q-35 2 -51 24.5t-16 68.5q0 89 36.5 146.5t99.5 58.5h3q34 -3 50 -25zM122.5 574q-31.5 -52 -31.5 -133q0 -77 52 -77q50 0 81.5 52.5t31.5 133.5q0 39 -12 57.5t-39 18.5q-51 0 -82.5 -52z" />
    <glyph glyph-name="guillemotright" unicode="&#xbb;" horiz-adv-x="355" 
d="M318 215l-175 -165l-11 9l1 6l164 158l-126 158l1 6l13 9l135 -170zM172 215l-175 -165l-11 9l1 6l164 158l-126 158l1 6l13 9l135 -170z" />
    <glyph glyph-name="onequarter" unicode="&#xbc;" horiz-adv-x="654" 
d="M2 -90l-8 4l-3 9l576 746l10 -5l2 -8zM61 591l2 16l123 35l3 -4l-30 -240l-16 -130h-20l16 126l27 222l-101 -27zM598 118l-50 1h-19l-13 -117l-3 -2l-16 -2l-2 2l15 119h-140l-31 -1l-3 3l2 15l203 233h19l-29 -232h69l3 -3zM537 337h-3l-174 -200h152z" />
    <glyph glyph-name="onehalf" unicode="&#xbd;" horiz-adv-x="655" 
d="M579 656l-577 -746l-8 4l-3 9l576 746l10 -5zM159 398l-16 -130h-20l16 126l27 222l-101 -27l-4 2l2 16l123 35l3 -4zM563.5 352.5q22.5 -18.5 22.5 -48.5q0 -31 -24.5 -65.5t-87.5 -101.5l-108 -116l2 -2h175l61 1l1 -4l-5 -17l-65 1h-169l-29 -1l-2 2l2 15l123 131
q60 64 82.5 94.5t22.5 57.5q0 23 -17 38t-47 15q-62 0 -114 -57h-3l-2 17q54 59 123 59q36 0 58.5 -18.5z" />
    <glyph glyph-name="threequarters" unicode="&#xbe;" horiz-adv-x="689" 
d="M37 -90l-8 4l-3 9l576 746l10 -5l2 -8zM215 299.5q-44 -33.5 -111 -33.5q-31 0 -59 6v16l2 2q32 -5 60 -5q58 0 95 27t37 72q0 33 -26 52t-74 21h-33l-2 2l3 15h29q21 0 46 12.5t42 34t17 46.5t-17.5 39.5t-46.5 14.5q-43 0 -91 -39h-3l-2 17q51 41 100 41
q37 0 59.5 -18.5t22.5 -49.5q0 -30 -23 -58t-60 -44v-2q38 -8 58.5 -29.5t20.5 -53.5q0 -52 -44 -85.5zM633 118l-50 1h-19l-13 -117l-3 -2l-16 -2l-2 2l15 119h-140l-31 -1l-3 3l2 15l203 233h19l-29 -232h69l3 -3zM572 337h-3l-174 -200h152z" />
    <glyph glyph-name="questiondown" unicode="&#xbf;" horiz-adv-x="323" 
d="M34 -152q-55 37 -55 96q0 81 94 141l104 66l2 3l8 108l17 1l2 -4l-7 -112l-6 -9l-110 -69q-83 -52 -83 -121q0 -54 51 -87t147 -39l2 -3l-7 -13l-7 -3q-97 8 -152 45zM188 439q0 20 20 20t20 -20t-20 -20t-20 20z" />
    <glyph glyph-name="Agrave" unicode="&#xc0;" horiz-adv-x="524" 
d="M447 0l-6 43l-37 170h-283l-85 -170l-20 -43h-24l319 637h21l138 -637h-23zM318 603h-3l-184 -370h268zM430 742l-7 -15l-5 -3q-107 55 -174 93l-2 5l7 12l5 2q85 -50 176 -94z" />
    <glyph glyph-name="Aacute" unicode="&#xc1;" horiz-adv-x="524" 
d="M447 0l-6 43l-37 170h-283l-85 -170l-20 -43h-24l319 637h21l138 -637h-23zM318 603h-3l-184 -370h268zM441 822l-2 -5q-67 -38 -174 -93l-5 3l-7 15q91 44 176 94l5 -2z" />
    <glyph glyph-name="Acircumflex" unicode="&#xc2;" horiz-adv-x="524" 
d="M447 0l-6 43l-37 170h-283l-85 -170l-20 -43h-24l319 637h21l138 -637h-23zM318 603h-3l-184 -370h268zM336 826h16q60 -52 91 -76l-8 -14h-5q-40 29 -87 70q-47 -35 -103 -70h-5l-5 14q44 28 106 76z" />
    <glyph glyph-name="Atilde" unicode="&#xc3;" horiz-adv-x="524" 
d="M447 0l-6 43l-37 170h-283l-85 -170l-20 -43h-24l319 637h21l138 -637h-23zM318 603h-3l-184 -370h268zM476 801l-52 -47l-6 -2q-20 2 -81 20q-64 18 -75 18q-8 0 -30 -22l-21 -19h-4l-9 11v4l52 47l6 2q20 -2 81 -20q64 -18 75 -18q8 0 30 22l21 19h4l9 -11v-4z" />
    <glyph glyph-name="Adieresis" unicode="&#xc4;" horiz-adv-x="524" 
d="M447 0l-6 43l-37 170h-283l-85 -170l-20 -43h-24l319 637h21l138 -637h-23zM318 603h-3l-184 -370h268zM282 781q0 -20 -20 -20t-20 20t20 20t20 -20zM432 781q0 -20 -20 -20t-20 20t20 20t20 -20z" />
    <glyph glyph-name="Aring" unicode="&#xc5;" horiz-adv-x="524" 
d="M447 0l-6 43l-37 170h-283l-85 -170l-20 -43h-24l319 637h21l138 -637h-23zM318 603h-3l-184 -370h268zM388 832q19 -21 19 -49q0 -31 -21.5 -50t-49.5 -19t-49 19.5t-21 50.5q0 30 19.5 49.5t50.5 19.5q33 0 52 -21zM299.5 819.5q-13.5 -13.5 -13.5 -35.5
q0 -23 14.5 -36.5t35.5 -13.5t36 13t15 36q0 21 -13.5 35.5t-37.5 14.5q-23 0 -36.5 -13.5z" />
    <glyph glyph-name="AE" unicode="&#xc6;" horiz-adv-x="744" 
d="M689 0h-286v43l-8 247l-249 -43l-135 -204l-26 -43h-27l426 637h285l2 -4l-7 -16h-258l9 -304l227 39l2 -3l-5 -17l-224 -38l8 -274h271l1 -4zM385 602h-3l-220 -332l232 40z" />
    <glyph glyph-name="Ccedilla" unicode="&#xc7;" horiz-adv-x="497" 
d="M437 625.5q42 -15.5 73 -43.5l-9 -17h-7q-59 56 -146 56q-86 0 -147.5 -44.5t-93.5 -127t-32 -196.5q0 -115 47.5 -176.5t138.5 -61.5q94 0 180 67l7 -2l-4 -18q-84 -60 -165 -66l-16 -51l31 -20q33 -21 33 -50q0 -24 -17.5 -38.5t-42.5 -14.5q-37 0 -59 33l6 18h4
q10 -16 21 -23.5t28 -7.5q18 0 29 8.5t11 24.5q0 11 -5.5 17.5t-18.5 15.5l-43 28l19 59q-99 1 -151.5 67t-52.5 189q0 121 35 208.5t101 134.5t159 47q45 0 87 -15.5z" />
    <glyph glyph-name="Egrave" unicode="&#xc8;" horiz-adv-x="432" 
d="M143 340h223l3 -4l-6 -16h-222l-16 -125l-22 -175h273l3 -4l-6 -16h-293l25 195l55 442h291l2 -4l-6 -16h-269zM422 742l-7 -15l-5 -3q-107 55 -174 93l-2 5l7 12l5 2q85 -50 176 -94z" />
    <glyph glyph-name="Eacute" unicode="&#xc9;" horiz-adv-x="432" 
d="M143 340h223l3 -4l-6 -16h-222l-16 -125l-22 -175h273l3 -4l-6 -16h-293l25 195l55 442h291l2 -4l-6 -16h-269zM433 822l-2 -5q-67 -38 -174 -93l-5 3l-7 15q91 44 176 94l5 -2z" />
    <glyph glyph-name="Ecircumflex" unicode="&#xca;" horiz-adv-x="432" 
d="M143 340h223l3 -4l-6 -16h-222l-16 -125l-22 -175h273l3 -4l-6 -16h-293l25 195l55 442h291l2 -4l-6 -16h-269zM328 826h16q60 -52 91 -76l-8 -14h-5q-40 29 -87 70q-47 -35 -103 -70h-5l-5 14q44 28 106 76z" />
    <glyph glyph-name="Edieresis" unicode="&#xcb;" horiz-adv-x="432" 
d="M143 340h223l3 -4l-6 -16h-222l-16 -125l-22 -175h273l3 -4l-6 -16h-293l25 195l55 442h291l2 -4l-6 -16h-269zM274 781q0 -20 -20 -20t-20 20t20 20t20 -20zM424 781q0 -20 -20 -20t-20 20t20 20t20 -20z" />
    <glyph glyph-name="Igrave" unicode="&#xcc;" horiz-adv-x="235" 
d="M100 0h-20l25 195l55 442h20l-55 -442zM279 742l-7 -15l-5 -3q-107 55 -174 93l-2 5l7 12l5 2q85 -50 176 -94z" />
    <glyph glyph-name="Iacute" unicode="&#xcd;" horiz-adv-x="235" 
d="M100 0h-20l25 195l55 442h20l-55 -442zM290 822l-2 -5q-67 -38 -174 -93l-5 3l-7 15q91 44 176 94l5 -2z" />
    <glyph glyph-name="Icircumflex" unicode="&#xce;" horiz-adv-x="235" 
d="M100 0h-20l25 195l55 442h20l-55 -442zM185 826h16q60 -52 91 -76l-8 -14h-5q-40 29 -87 70q-47 -35 -103 -70h-5l-5 14q44 28 106 76z" />
    <glyph glyph-name="Eth" unicode="&#xd0;" horiz-adv-x="630" 
d="M540 577.5q59 -64.5 59 -184.5q0 -121 -37.5 -210.5t-109.5 -138.5t-172 -49q-75 0 -180 5l25 195l15 124h-108l-1 3l2 17h110l37 298l190 5q111 0 170 -64.5zM441.5 61q66.5 46 101.5 130.5t35 198.5q0 112 -54 172t-156 60q-78 0 -170 -5l-35 -278h180l2 -3l-3 -17
h-182l-15 -124l-23 -176q168 -4 161 -4q92 0 158.5 46z" />
    <glyph glyph-name="Ntilde" unicode="&#xd1;" horiz-adv-x="640" 
d="M503 0h-19l-304 595h-4l-51 -396l-25 -199h-20l24 190l57 447h19l304 -595h4l77 594l20 2l-59 -462zM528 801l-52 -47l-6 -2q-20 2 -81 20q-64 18 -75 18q-8 0 -30 -22l-21 -19h-4l-9 11v4l52 47l6 2q20 -2 81 -20q64 -18 75 -18q8 0 30 22l21 19h4l9 -11v-4z" />
    <glyph glyph-name="Ograve" unicode="&#xd2;" horiz-adv-x="599" 
d="M513.5 577q54.5 -65 54.5 -186q0 -122 -35.5 -211t-103 -137t-162.5 -48q-102 0 -156.5 67t-54.5 191q0 121 35 208.5t102.5 134t161.5 46.5q104 0 158.5 -65zM205 578q-62 -44 -95 -126.5t-33 -195.5q0 -115 49.5 -178t141.5 -63q87 0 150 45.5t96 129t33 197.5
q0 113 -49 174t-144 61q-87 0 -149 -44zM461 742l-7 -15l-5 -3q-107 55 -174 93l-2 5l7 12l5 2q85 -50 176 -94z" />
    <glyph glyph-name="Oacute" unicode="&#xd3;" horiz-adv-x="599" 
d="M513.5 577q54.5 -65 54.5 -186q0 -122 -35.5 -211t-103 -137t-162.5 -48q-102 0 -156.5 67t-54.5 191q0 121 35 208.5t102.5 134t161.5 46.5q104 0 158.5 -65zM205 578q-62 -44 -95 -126.5t-33 -195.5q0 -115 49.5 -178t141.5 -63q87 0 150 45.5t96 129t33 197.5
q0 113 -49 174t-144 61q-87 0 -149 -44zM472 822l-2 -5q-67 -38 -174 -93l-5 3l-7 15q91 44 176 94l5 -2z" />
    <glyph glyph-name="Ocircumflex" unicode="&#xd4;" horiz-adv-x="599" 
d="M513.5 577q54.5 -65 54.5 -186q0 -122 -35.5 -211t-103 -137t-162.5 -48q-102 0 -156.5 67t-54.5 191q0 121 35 208.5t102.5 134t161.5 46.5q104 0 158.5 -65zM205 578q-62 -44 -95 -126.5t-33 -195.5q0 -115 49.5 -178t141.5 -63q87 0 150 45.5t96 129t33 197.5
q0 113 -49 174t-144 61q-87 0 -149 -44zM367 826h16q60 -52 91 -76l-8 -14h-5q-40 29 -87 70q-47 -35 -103 -70h-5l-5 14q44 28 106 76z" />
    <glyph glyph-name="Otilde" unicode="&#xd5;" horiz-adv-x="599" 
d="M513.5 577q54.5 -65 54.5 -186q0 -122 -35.5 -211t-103 -137t-162.5 -48q-102 0 -156.5 67t-54.5 191q0 121 35 208.5t102.5 134t161.5 46.5q104 0 158.5 -65zM205 578q-62 -44 -95 -126.5t-33 -195.5q0 -115 49.5 -178t141.5 -63q87 0 150 45.5t96 129t33 197.5
q0 113 -49 174t-144 61q-87 0 -149 -44zM507 801l-52 -47l-6 -2q-20 2 -81 20q-64 18 -75 18q-8 0 -30 -22l-21 -19h-4l-9 11v4l52 47l6 2q20 -2 81 -20q64 -18 75 -18q8 0 30 22l21 19h4l9 -11v-4z" />
    <glyph glyph-name="multiply" unicode="&#xd7;" horiz-adv-x="481" 
d="M409 403l-149 -133l116 -133v-4l-14 -11l-118 134l-150 -134l-12 11v4l150 133l-117 133l1 4l14 11l117 -134l151 134l12 -11z" />
    <glyph glyph-name="Oslash" unicode="&#xd8;" horiz-adv-x="600" 
d="M568 391q0 -122 -35.5 -211t-103 -137t-162.5 -48q-61 0 -105 24l-60 -106l-15 3l-2 4l61 109q-90 63 -90 224q0 121 35 208.5t102.5 134t161.5 46.5q71 0 118 -30l55 97l16 -3l1 -5l-56 -100q79 -64 79 -210zM157 48l306 545q-44 29 -109 29q-87 0 -149 -44t-95 -126.5
t-33 -195.5q0 -148 80 -208zM418 60.5q63 45.5 96 129t33 197.5q0 137 -69 195l-306 -544q41 -23 96 -23q87 0 150 45.5z" />
    <glyph glyph-name="Ugrave" unicode="&#xd9;" horiz-adv-x="583" 
d="M500 229q-11 -111 -72.5 -172t-161.5 -61q-89 0 -137 46.5t-48 133.5q0 29 4 53l13 93l40 315h20l-53 -408q-4 -34 -4 -49q0 -79 42.5 -121.5t121.5 -42.5q91 0 146 55t69 158l51 408h20l-41 -325zM453 742l-7 -15l-5 -3q-107 55 -174 93l-2 5l7 12l5 2q85 -50 176 -94z
" />
    <glyph glyph-name="Uacute" unicode="&#xda;" horiz-adv-x="583" 
d="M500 229q-11 -111 -72.5 -172t-161.5 -61q-89 0 -137 46.5t-48 133.5q0 29 4 53l13 93l40 315h20l-53 -408q-4 -34 -4 -49q0 -79 42.5 -121.5t121.5 -42.5q91 0 146 55t69 158l51 408h20l-41 -325zM464 822l-2 -5q-67 -38 -174 -93l-5 3l-7 15q91 44 176 94l5 -2z" />
    <glyph glyph-name="Ucircumflex" unicode="&#xdb;" horiz-adv-x="583" 
d="M500 229q-11 -111 -72.5 -172t-161.5 -61q-89 0 -137 46.5t-48 133.5q0 29 4 53l13 93l40 315h20l-53 -408q-4 -34 -4 -49q0 -79 42.5 -121.5t121.5 -42.5q91 0 146 55t69 158l51 408h20l-41 -325zM359 826h16q60 -52 91 -76l-8 -14h-5q-40 29 -87 70q-47 -35 -103 -70
h-5l-5 14q44 28 106 76z" />
    <glyph glyph-name="Udieresis" unicode="&#xdc;" horiz-adv-x="583" 
d="M500 229q-11 -111 -72.5 -172t-161.5 -61q-89 0 -137 46.5t-48 133.5q0 29 4 53l13 93l40 315h20l-53 -408q-4 -34 -4 -49q0 -79 42.5 -121.5t121.5 -42.5q91 0 146 55t69 158l51 408h20l-41 -325zM305 781q0 -20 -20 -20t-20 20t20 20t20 -20zM455 781q0 -20 -20 -20
t-20 20t20 20t20 -20z" />
    <glyph glyph-name="Thorn" unicode="&#xde;" horiz-adv-x="467" 
d="M390 477q39 -39 39 -111q0 -113 -60 -176.5t-170 -63.5h-83l-16 -126h-20l25 195l55 442h20l-15 -123l113 2q73 0 112 -39zM361.5 212.5q47.5 58.5 47.5 149.5q0 62 -32.5 96.5t-93.5 37.5l-121 -1l-37 -300l-6 -49h112q83 8 130.5 66.5z" />
    <glyph glyph-name="germandbls" unicode="&#xdf;" horiz-adv-x="516" 
d="M329.5 297.5q18.5 -24.5 54.5 -54.5q39 -35 58.5 -61t19.5 -64q0 -53 -41.5 -88t-105.5 -36q-48 7 -86 34l2 18l7 4q41 -35 89 -35q49 0 81.5 29.5t32.5 72.5q0 33 -17.5 55.5t-53.5 53.5q-39 32 -59 59t-20 68q0 38 18 63t55 58q37 32 55 57t18 63q0 46 -31 68t-82 22
q-64 0 -100 -35t-44 -95l-46 -362l-27 -216l-9 -106l-25 -4l41 324l30 239h-69l-4 4l4 16h72l13 105q9 72 52 111t113 39q60 0 96 -27t36 -81q0 -43 -20 -71.5t-59 -63.5q-34 -30 -50.5 -52.5t-16.5 -53.5q0 -33 18.5 -57.5z" />
    <glyph glyph-name="agrave" unicode="&#xe0;" horiz-adv-x="422" 
d="M313 106l-9 -106l-25 -4l36 275h-4q-93 -177 -202 -275h-11q-27 20 -39.5 52t-12.5 89q0 85 26.5 156t78 115t122.5 49h4l65 -5l12 7l5 -3zM149.5 64q35.5 40 82.5 110t91 159l4 29l7 70l-59 5q-63 -1 -110.5 -42.5t-73 -109t-25.5 -144.5q0 -41 7 -67t16.5 -38t16.5 -12
q8 0 43.5 40zM340 532l-11 -13l-5 -1q-75 66 -144 135l-1 5l10 10l5 1q77 -79 146 -137z" />
    <glyph glyph-name="aacute" unicode="&#xe1;" horiz-adv-x="422" 
d="M313 106l-9 -106l-25 -4l36 275h-4q-93 -177 -202 -275h-11q-27 20 -39.5 52t-12.5 89q0 85 26.5 156t78 115t122.5 49h4l65 -5l12 7l5 -3zM149.5 64q35.5 40 82.5 110t91 159l4 29l7 70l-59 5q-63 -1 -110.5 -42.5t-73 -109t-25.5 -144.5q0 -41 7 -67t16.5 -38t16.5 -12
q8 0 43.5 40zM353 658l-1 -5q-69 -69 -144 -135l-5 1l-11 13q69 58 146 137l5 -1z" />
    <glyph glyph-name="acircumflex" unicode="&#xe2;" horiz-adv-x="422" 
d="M313 106l-9 -106l-25 -4l36 275h-4q-93 -177 -202 -275h-11q-27 20 -39.5 52t-12.5 89q0 85 26.5 156t78 115t122.5 49h4l65 -5l12 7l5 -3zM149.5 64q35.5 40 82.5 110t91 159l4 29l7 70l-59 5q-63 -1 -110.5 -42.5t-73 -109t-25.5 -144.5q0 -41 7 -67t16.5 -38t16.5 -12
q8 0 43.5 40zM274 648h18q46 -74 86 -126l-11 -12h-5q-39 50 -81 117q-59 -68 -110 -117h-5l-8 12q37 36 116 126z" />
    <glyph glyph-name="atilde" unicode="&#xe3;" horiz-adv-x="422" 
d="M313 106l-9 -106l-25 -4l36 275h-4q-93 -177 -202 -275h-11q-27 20 -39.5 52t-12.5 89q0 85 26.5 156t78 115t122.5 49h4l65 -5l12 7l5 -3zM149.5 64q35.5 40 82.5 110t91 159l4 29l7 70l-59 5q-63 -1 -110.5 -42.5t-73 -109t-25.5 -144.5q0 -41 7 -67t16.5 -38t16.5 -12
q8 0 43.5 40zM409 616l-52 -47l-6 -2q-20 2 -81 20q-64 18 -75 18q-8 0 -30 -22l-21 -19h-4l-9 11v4l52 47l6 2q20 -2 81 -20q64 -18 75 -18q8 0 30 22l21 19h4l9 -11v-4z" />
    <glyph glyph-name="adieresis" unicode="&#xe4;" horiz-adv-x="422" 
d="M313 106l-9 -106l-25 -4l36 275h-4q-93 -177 -202 -275h-11q-27 20 -39.5 52t-12.5 89q0 85 26.5 156t78 115t122.5 49h4l65 -5l12 7l5 -3zM149.5 64q35.5 40 82.5 110t91 159l4 29l7 70l-59 5q-63 -1 -110.5 -42.5t-73 -109t-25.5 -144.5q0 -41 7 -67t16.5 -38t16.5 -12
q8 0 43.5 40zM215 596q0 -20 -20 -20t-20 20t20 20t20 -20zM365 596q0 -20 -20 -20t-20 20t20 20t20 -20z" />
    <glyph glyph-name="aring" unicode="&#xe5;" horiz-adv-x="422" 
d="M313 106l-9 -106l-25 -4l36 275h-4q-93 -177 -202 -275h-11q-27 20 -39.5 52t-12.5 89q0 85 26.5 156t78 115t122.5 49h4l65 -5l12 7l5 -3zM149.5 64q35.5 40 82.5 110t91 159l4 29l7 70l-59 5q-63 -1 -110.5 -42.5t-73 -109t-25.5 -144.5q0 -41 7 -67t16.5 -38t16.5 -12
q8 0 43.5 40zM321 647q19 -21 19 -49q0 -31 -21.5 -50t-49.5 -19t-49 19.5t-21 50.5q0 30 19.5 49.5t50.5 19.5q33 0 52 -21zM232.5 634.5q-13.5 -13.5 -13.5 -35.5q0 -23 14.5 -36.5t35.5 -13.5t36 13t15 36q0 21 -13.5 35.5t-37.5 14.5q-23 0 -36.5 -13.5z" />
    <glyph glyph-name="ae" unicode="&#xe6;" horiz-adv-x="572" 
d="M465 457h5q75 -6 75 -69q0 -57 -64 -111t-190 -101l-1 -28q0 -68 19.5 -100t59.5 -32q75 0 131 102h7l9 -13q-30 -50 -64.5 -77t-80.5 -33h-9q-49 6 -70.5 41.5t-21.5 106.5q0 50 7 89q-77 -150 -161 -236h-11q-27 20 -39.5 52t-12.5 89q0 85 26.5 156t78 115t122.5 49h4
l102 -26q37 24 79 26zM171.5 394.5q-47.5 -41.5 -73 -109t-25.5 -144.5q0 -41 7 -67t16.5 -38t16.5 -12q8 0 41 42t75.5 113t79.5 156q25 50 57 79l-84 23q-63 -1 -110.5 -42.5zM386.5 405.5q-37.5 -30.5 -62 -84.5t-31.5 -123q111 41 171 90t60 97q0 23 -14.5 37t-42.5 14
q-43 0 -80.5 -30.5z" />
    <glyph glyph-name="ccedilla" unicode="&#xe7;" horiz-adv-x="323" 
d="M317 416l-5 -3q-37 23 -64 23q-85 -1 -133 -80t-48 -215q0 -125 73 -125t125 102h6l9 -13q-51 -90 -120 -106l-17 -54l31 -20q33 -21 33 -50q0 -24 -17.5 -38.5t-42.5 -14.5q-37 0 -59 33l6 18h4q10 -16 21 -23.5t28 -7.5q18 0 29 8.5t11 24.5q0 11 -5.5 17.5t-18.5 15.5
l-43 28l19 59h-6q-27 5 -45.5 17t-29.5 43t-11 87q0 141 54 227.5t161 86.5l56 -19l5 -7z" />
    <glyph glyph-name="egrave" unicode="&#xe8;" horiz-adv-x="354" 
d="M293 105q-30 -50 -64.5 -77t-80.5 -33h-9q-49 6 -70.5 41.5t-21.5 106.5q0 88 25.5 159t70.5 112.5t99 42.5h5q75 -6 75 -69q0 -57 -64 -111t-190 -101l-1 -28q0 -68 19.5 -100t59.5 -32q75 0 131 102h7zM163.5 405.5q-37.5 -30.5 -62 -84.5t-31.5 -123q111 41 171 90
t60 97q0 23 -14.5 37t-42.5 14q-43 0 -80.5 -30.5zM321 532l-11 -13l-5 -1q-75 66 -144 135l-1 5l10 10l5 1q77 -79 146 -137z" />
    <glyph glyph-name="eacute" unicode="&#xe9;" horiz-adv-x="354" 
d="M293 105q-30 -50 -64.5 -77t-80.5 -33h-9q-49 6 -70.5 41.5t-21.5 106.5q0 88 25.5 159t70.5 112.5t99 42.5h5q75 -6 75 -69q0 -57 -64 -111t-190 -101l-1 -28q0 -68 19.5 -100t59.5 -32q75 0 131 102h7zM163.5 405.5q-37.5 -30.5 -62 -84.5t-31.5 -123q111 41 171 90
t60 97q0 23 -14.5 37t-42.5 14q-43 0 -80.5 -30.5zM334 658l-1 -5q-69 -69 -144 -135l-5 1l-11 13q69 58 146 137l5 -1z" />
    <glyph glyph-name="ecircumflex" unicode="&#xea;" horiz-adv-x="354" 
d="M293 105q-30 -50 -64.5 -77t-80.5 -33h-9q-49 6 -70.5 41.5t-21.5 106.5q0 88 25.5 159t70.5 112.5t99 42.5h5q75 -6 75 -69q0 -57 -64 -111t-190 -101l-1 -28q0 -68 19.5 -100t59.5 -32q75 0 131 102h7zM163.5 405.5q-37.5 -30.5 -62 -84.5t-31.5 -123q111 41 171 90
t60 97q0 23 -14.5 37t-42.5 14q-43 0 -80.5 -30.5zM255 648h18q46 -74 86 -126l-11 -12h-5q-39 50 -81 117q-59 -68 -110 -117h-5l-8 12q37 36 116 126z" />
    <glyph glyph-name="edieresis" unicode="&#xeb;" horiz-adv-x="354" 
d="M293 105q-30 -50 -64.5 -77t-80.5 -33h-9q-49 6 -70.5 41.5t-21.5 106.5q0 88 25.5 159t70.5 112.5t99 42.5h5q75 -6 75 -69q0 -57 -64 -111t-190 -101l-1 -28q0 -68 19.5 -100t59.5 -32q75 0 131 102h7zM163.5 405.5q-37.5 -30.5 -62 -84.5t-31.5 -123q111 41 171 90
t60 97q0 23 -14.5 37t-42.5 14q-43 0 -80.5 -30.5zM196 596q0 -20 -20 -20t-20 20t20 20t20 -20zM346 596q0 -20 -20 -20t-20 20t20 20t20 -20z" />
    <glyph glyph-name="igrave" unicode="&#xec;" horiz-adv-x="203" 
d="M88 0l-27 -4l49 366l6 90l25 4l-46 -350zM217 532l-11 -13l-5 -1q-75 66 -144 135l-1 5l10 10l5 1q77 -79 146 -137z" />
    <glyph glyph-name="iacute" unicode="&#xed;" horiz-adv-x="203" 
d="M88 0l-27 -4l49 366l6 90l25 4l-46 -350zM230 658l-1 -5q-69 -69 -144 -135l-5 1l-11 13q69 58 146 137l5 -1z" />
    <glyph glyph-name="icircumflex" unicode="&#xee;" horiz-adv-x="203" 
d="M88 0l-27 -4l49 366l6 90l25 4l-46 -350zM151 648h18q46 -74 86 -126l-11 -12h-5q-39 50 -81 117q-59 -68 -110 -117h-5l-8 12q37 36 116 126z" />
    <glyph glyph-name="eth" unicode="&#xf0;" horiz-adv-x="422" 
d="M361 320q0 -91 -24 -163.5t-69.5 -115.5t-106.5 -47h-5q-50 3 -73.5 36.5t-23.5 103.5q0 91 24.5 164.5t70 116t106.5 43.5h5q39 -3 59 -22q-23 83 -76 145l-139 -58l-3 3l-3 16l131 55q-57 57 -131 90v5l10 10h4q82 -34 139 -96l117 49l4 -3l3 -16l-110 -46
q91 -111 91 -270zM253.5 54.5q40.5 39.5 63.5 108.5t23 154q0 29 -3 57q-15 63 -77 63q-53 0 -94 -39t-64 -107.5t-23 -153.5q0 -63 19.5 -92.5t61.5 -29.5q53 0 93.5 39.5z" />
    <glyph glyph-name="ntilde" unicode="&#xf1;" horiz-adv-x="445" 
d="M372 431.5q14 -23.5 13 -54.5l-1 -13l-43 -263l-12 -101l-25 -4l59 365l1 15q1 25 -10 42.5t-24 17.5q-26 0 -90 -85t-143 -231l-2 -14l-9 -106l-25 -4l48 366l7 90l25 4l-36 -272h5q65 112 114.5 179t98.5 99h11q24 -7 38 -30.5zM412 616l-52 -47l-6 -2q-20 2 -81 20
q-64 18 -75 18q-8 0 -30 -22l-21 -19h-4l-9 11v4l52 47l6 2q20 -2 81 -20q64 -18 75 -18q8 0 30 22l21 19h4l9 -11v-4z" />
    <glyph glyph-name="ograve" unicode="&#xf2;" horiz-adv-x="396" 
d="M325.5 421q22.5 -33 22.5 -101q0 -91 -24 -163.5t-69 -115.5t-106 -47h-5q-50 3 -73 36.5t-23 103.5q0 91 24.5 164.5t69.5 116t106 43.5h5q50 -4 72.5 -37zM154.5 398q-40.5 -39 -63.5 -107.5t-23 -153.5q0 -62 19.5 -92t60.5 -30q52 0 93 39.5t63.5 108.5t22.5 154
q0 62 -19 91t-60 29q-53 0 -93.5 -39zM319 532l-11 -13l-5 -1q-75 66 -144 135l-1 5l10 10l5 1q77 -79 146 -137z" />
    <glyph glyph-name="oacute" unicode="&#xf3;" horiz-adv-x="396" 
d="M325.5 421q22.5 -33 22.5 -101q0 -91 -24 -163.5t-69 -115.5t-106 -47h-5q-50 3 -73 36.5t-23 103.5q0 91 24.5 164.5t69.5 116t106 43.5h5q50 -4 72.5 -37zM154.5 398q-40.5 -39 -63.5 -107.5t-23 -153.5q0 -62 19.5 -92t60.5 -30q52 0 93 39.5t63.5 108.5t22.5 154
q0 62 -19 91t-60 29q-53 0 -93.5 -39zM332 658l-1 -5q-69 -69 -144 -135l-5 1l-11 13q69 58 146 137l5 -1z" />
    <glyph glyph-name="ocircumflex" unicode="&#xf4;" horiz-adv-x="396" 
d="M325.5 421q22.5 -33 22.5 -101q0 -91 -24 -163.5t-69 -115.5t-106 -47h-5q-50 3 -73 36.5t-23 103.5q0 91 24.5 164.5t69.5 116t106 43.5h5q50 -4 72.5 -37zM154.5 398q-40.5 -39 -63.5 -107.5t-23 -153.5q0 -62 19.5 -92t60.5 -30q52 0 93 39.5t63.5 108.5t22.5 154
q0 62 -19 91t-60 29q-53 0 -93.5 -39zM253 648h18q46 -74 86 -126l-11 -12h-5q-39 50 -81 117q-59 -68 -110 -117h-5l-8 12q37 36 116 126z" />
    <glyph glyph-name="otilde" unicode="&#xf5;" horiz-adv-x="396" 
d="M325.5 421q22.5 -33 22.5 -101q0 -91 -24 -163.5t-69 -115.5t-106 -47h-5q-50 3 -73 36.5t-23 103.5q0 91 24.5 164.5t69.5 116t106 43.5h5q50 -4 72.5 -37zM154.5 398q-40.5 -39 -63.5 -107.5t-23 -153.5q0 -62 19.5 -92t60.5 -30q52 0 93 39.5t63.5 108.5t22.5 154
q0 62 -19 91t-60 29q-53 0 -93.5 -39zM388 616l-52 -47l-6 -2q-20 2 -81 20q-64 18 -75 18q-8 0 -30 -22l-21 -19h-4l-9 11v4l52 47l6 2q20 -2 81 -20q64 -18 75 -18q8 0 30 22l21 19h4l9 -11v-4z" />
    <glyph glyph-name="divide" unicode="&#xf7;" horiz-adv-x="479" 
d="M443 260h-397l-3 3l2 17h397l3 -3zM243 88q0 -20 -20 -20t-20 20t20 20t20 -20zM287 451q0 -20 -20 -20t-20 20t20 20t20 -20z" />
    <glyph glyph-name="oslash" unicode="&#xf8;" horiz-adv-x="396" 
d="M348 320q0 -91 -24 -163.5t-69 -115.5t-106 -47h-5q-17 1 -32 6l-46 -107l-15 3l-2 4l47 107q-48 29 -48 127q0 91 24.5 164.5t69.5 116t106 43.5h5q22 -2 35 -8l35 80l15 -2l2 -5l-35 -81q43 -29 43 -122zM104 27l176 404q-13 6 -32 6q-53 0 -93.5 -39t-63.5 -107.5
t-23 -153.5t36 -110zM241 54.5q41 39.5 63.5 108.5t22.5 154q0 78 -31 105l-175 -403q11 -4 27 -4q52 0 93 39.5z" />
    <glyph glyph-name="ugrave" unicode="&#xf9;" horiz-adv-x="454" 
d="M347 106l-9 -106l-25 -4l36 271h-5q-65 -112 -114.5 -179t-98.5 -99h-11q-24 7 -38 30.5t-13 54.5l1 13l43 263l12 101l25 4l-59 -365l-1 -15q-1 -25 10 -42.5t24 -17.5q26 0 90.5 85t142.5 230l4 32l7 90l25 4zM343 532l-11 -13l-5 -1q-75 66 -144 135l-1 5l10 10l5 1
q77 -79 146 -137z" />
    <glyph glyph-name="uacute" unicode="&#xfa;" horiz-adv-x="454" 
d="M347 106l-9 -106l-25 -4l36 271h-5q-65 -112 -114.5 -179t-98.5 -99h-11q-24 7 -38 30.5t-13 54.5l1 13l43 263l12 101l25 4l-59 -365l-1 -15q-1 -25 10 -42.5t24 -17.5q26 0 90.5 85t142.5 230l4 32l7 90l25 4zM356 658l-1 -5q-69 -69 -144 -135l-5 1l-11 13
q69 58 146 137l5 -1z" />
    <glyph glyph-name="ucircumflex" unicode="&#xfb;" horiz-adv-x="454" 
d="M347 106l-9 -106l-25 -4l36 271h-5q-65 -112 -114.5 -179t-98.5 -99h-11q-24 7 -38 30.5t-13 54.5l1 13l43 263l12 101l25 4l-59 -365l-1 -15q-1 -25 10 -42.5t24 -17.5q26 0 90.5 85t142.5 230l4 32l7 90l25 4zM277 648h18q46 -74 86 -126l-11 -12h-5q-39 50 -81 117
q-59 -68 -110 -117h-5l-8 12q37 36 116 126z" />
    <glyph glyph-name="udieresis" unicode="&#xfc;" horiz-adv-x="454" 
d="M347 106l-9 -106l-25 -4l36 271h-5q-65 -112 -114.5 -179t-98.5 -99h-11q-24 7 -38 30.5t-13 54.5l1 13l43 263l12 101l25 4l-59 -365l-1 -15q-1 -25 10 -42.5t24 -17.5q26 0 90.5 85t142.5 230l4 32l7 90l25 4zM218 596q0 -20 -20 -20t-20 20t20 20t20 -20zM368 596
q0 -20 -20 -20t-20 20t20 20t20 -20z" />
    <glyph glyph-name="thorn" unicode="&#xfe;" horiz-adv-x="429" 
d="M365 402q12 -30 12 -85q0 -86 -27 -157.5t-79.5 -115.5t-124.5 -48h-4l-58 14l-12 -91l-9 -106l-25 -4l105 799l6 90l25 4l-68 -523h4q94 176 204 275h11q28 -22 40 -52zM257 57q48 41 74 109t26 146q0 40 -6.5 65.5t-16 37t-16.5 11.5q-8 0 -44 -39.5t-83.5 -109.5
t-92.5 -158l-11 -88l58 -15q64 0 112 41z" />
    <glyph glyph-name="ydieresis" unicode="&#xff;" horiz-adv-x="378" 
d="M362 373q0 -49 -39 -115l-143 -243q-65 -111 -122 -160t-114 -49q-34 0 -68 15l-1 20l5 2q37 -17 66 -17q94 0 208 186l-80 438l23 6l12 -74l59 -340h4l134 226q36 60 36 106q0 32 -28 70l1 5l18 6q29 -41 29 -82zM180 596q0 -20 -20 -20t-20 20t20 20t20 -20zM330 596
q0 -20 -20 -20t-20 20t20 20t20 -20z" />
    <glyph glyph-name="Amacron" unicode="&#x100;" horiz-adv-x="524" 
d="M447 0l-6 43l-37 170h-283l-85 -170l-20 -43h-24l319 637h21l138 -637h-23zM318 603h-3l-184 -370h268zM482 772h-287l-3 3l2 17h287l3 -3z" />
    <glyph glyph-name="amacron" unicode="&#x101;" horiz-adv-x="422" 
d="M313 106l-9 -106l-25 -4l36 275h-4q-93 -177 -202 -275h-11q-27 20 -39.5 52t-12.5 89q0 85 26.5 156t78 115t122.5 49h4l65 -5l12 7l5 -3zM149.5 64q35.5 40 82.5 110t91 159l4 29l7 70l-59 5q-63 -1 -110.5 -42.5t-73 -109t-25.5 -144.5q0 -41 7 -67t16.5 -38t16.5 -12
q8 0 43.5 40zM415 587h-287l-3 3l2 17h287l3 -3z" />
    <glyph glyph-name="Abreve" unicode="&#x102;" horiz-adv-x="524" 
d="M447 0l-6 43l-37 170h-283l-85 -170l-20 -43h-24l319 637h21l138 -637h-23zM318 603h-3l-184 -370h268zM327 728q-37 0 -61.5 19t-30.5 55l14 11h5q8 -65 74 -65t91 65h5l12 -11q-32 -74 -109 -74z" />
    <glyph glyph-name="abreve" unicode="&#x103;" horiz-adv-x="422" 
d="M313 106l-9 -106l-25 -4l36 275h-4q-93 -177 -202 -275h-11q-27 20 -39.5 52t-12.5 89q0 85 26.5 156t78 115t122.5 49h4l65 -5l12 7l5 -3zM149.5 64q35.5 40 82.5 110t91 159l4 29l7 70l-59 5q-63 -1 -110.5 -42.5t-73 -109t-25.5 -144.5q0 -41 7 -67t16.5 -38t16.5 -12
q8 0 43.5 40zM256 522q-42 0 -63 25.5t-25 79.5l15 13h5q1 -50 18 -74t53 -24q69 0 94 98h5l12 -13q-32 -105 -114 -105z" />
    <glyph glyph-name="Aogonek" unicode="&#x104;" horiz-adv-x="524" 
d="M390 -196q-49 0 -49 49q0 15 6.5 30t29.5 43t70 74l-6 43l-37 170h-283l-85 -170l-20 -43h-24l319 637h21l138 -637q-63 -63 -85.5 -93t-22.5 -52q0 -31 31 -31q34 0 69 53h2l7 -16q-39 -57 -81 -57zM318 603h-3l-184 -370h268z" />
    <glyph glyph-name="aogonek" unicode="&#x105;" horiz-adv-x="430" 
d="M304 2l5 -1q-69 -65 -91 -92.5t-22 -47.5q0 -19 11 -28.5t27 -9.5q34 0 65 53h2l10 -16q-34 -57 -78 -57q-23 0 -40 15t-17 41q0 22 20 49t83 88l36 275h-4q-93 -177 -202 -275h-11q-27 20 -39.5 52t-12.5 89q0 85 26.5 156t78 115t122.5 49h4l65 -5l12 7l5 -3l-46 -350z
M149.5 64q35.5 40 82.5 110t91 159l4 29l7 70l-59 5q-63 -1 -110.5 -42.5t-73 -109t-25.5 -144.5q0 -41 7 -67t16.5 -38t16.5 -12q8 0 43.5 40z" />
    <glyph glyph-name="Cacute" unicode="&#x106;" horiz-adv-x="497" 
d="M437 625.5q42 -15.5 73 -43.5l-9 -17h-7q-59 56 -146 56q-86 0 -147.5 -44.5t-93.5 -127t-32 -196.5q0 -115 47.5 -176.5t138.5 -61.5q94 0 180 67l7 -2l-4 -18q-92 -67 -184 -67q-100 0 -152.5 66.5t-52.5 189.5q0 121 35 208.5t101 134.5t159 47q45 0 87 -15.5z
M457 822l-2 -5q-67 -38 -174 -93l-5 3l-7 15q91 44 176 94l5 -2z" />
    <glyph glyph-name="cacute" unicode="&#x107;" horiz-adv-x="323" 
d="M323 430l-6 -14l-5 -3q-37 23 -64 23q-85 -1 -133 -80t-48 -215q0 -125 73 -125t125 102h6l9 -13q-31 -55 -64 -79.5t-75 -30.5h-8q-27 5 -45.5 17t-29.5 43t-11 87q0 141 54 227.5t161 86.5l56 -19zM322 658l-1 -5q-69 -69 -144 -135l-5 1l-11 13q69 58 146 137l5 -1z
" />
    <glyph glyph-name="Ccircumflex" unicode="&#x108;" horiz-adv-x="497" 
d="M437 625.5q42 -15.5 73 -43.5l-9 -17h-7q-59 56 -146 56q-86 0 -147.5 -44.5t-93.5 -127t-32 -196.5q0 -115 47.5 -176.5t138.5 -61.5q94 0 180 67l7 -2l-4 -18q-92 -67 -184 -67q-100 0 -152.5 66.5t-52.5 189.5q0 121 35 208.5t101 134.5t159 47q45 0 87 -15.5z
M352 826h16q60 -52 91 -76l-8 -14h-5q-40 29 -87 70q-47 -35 -103 -70h-5l-5 14q44 28 106 76z" />
    <glyph glyph-name="ccircumflex" unicode="&#x109;" horiz-adv-x="323" 
d="M323 430l-6 -14l-5 -3q-37 23 -64 23q-85 -1 -133 -80t-48 -215q0 -125 73 -125t125 102h6l9 -13q-31 -55 -64 -79.5t-75 -30.5h-8q-27 5 -45.5 17t-29.5 43t-11 87q0 141 54 227.5t161 86.5l56 -19zM243 648h18q46 -74 86 -126l-11 -12h-5q-39 50 -81 117
q-59 -68 -110 -117h-5l-8 12q37 36 116 126z" />
    <glyph glyph-name="Cdotaccent" unicode="&#x10a;" horiz-adv-x="497" 
d="M437 625.5q42 -15.5 73 -43.5l-9 -17h-7q-59 56 -146 56q-86 0 -147.5 -44.5t-93.5 -127t-32 -196.5q0 -115 47.5 -176.5t138.5 -61.5q94 0 180 67l7 -2l-4 -18q-92 -67 -184 -67q-100 0 -152.5 66.5t-52.5 189.5q0 121 35 208.5t101 134.5t159 47q45 0 87 -15.5z
M374 795q0 -20 -20 -20t-20 20t20 20t20 -20z" />
    <glyph glyph-name="cdotaccent" unicode="&#x10b;" horiz-adv-x="323" 
d="M323 430l-6 -14l-5 -3q-37 23 -64 23q-85 -1 -133 -80t-48 -215q0 -125 73 -125t125 102h6l9 -13q-31 -55 -64 -79.5t-75 -30.5h-8q-27 5 -45.5 17t-29.5 43t-11 87q0 141 54 227.5t161 86.5l56 -19zM260 610q0 -20 -20 -20t-20 20t20 20t20 -20z" />
    <glyph glyph-name="Ccaron" unicode="&#x10c;" horiz-adv-x="497" 
d="M437 625.5q42 -15.5 73 -43.5l-9 -17h-7q-59 56 -146 56q-86 0 -147.5 -44.5t-93.5 -127t-32 -196.5q0 -115 47.5 -176.5t138.5 -61.5q94 0 180 67l7 -2l-4 -18q-92 -67 -184 -67q-100 0 -152.5 66.5t-52.5 189.5q0 121 35 208.5t101 134.5t159 47q45 0 87 -15.5z
M353 729h-16q-52 45 -92 76l8 14h5q40 -29 87 -70q47 35 103 70h5l5 -14q-37 -24 -105 -76z" />
    <glyph glyph-name="ccaron" unicode="&#x10d;" horiz-adv-x="323" 
d="M323 430l-6 -14l-5 -3q-37 23 -64 23q-85 -1 -133 -80t-48 -215q0 -125 73 -125t125 102h6l9 -13q-31 -55 -64 -79.5t-75 -30.5h-8q-27 5 -45.5 17t-29.5 43t-11 87q0 141 54 227.5t161 86.5l56 -19zM233 520h-18q-49 78 -87 126l11 12h5q39 -50 81 -117q59 68 110 117h5
l8 -12q-42 -41 -115 -126z" />
    <glyph glyph-name="Dcaron" unicode="&#x10e;" horiz-adv-x="609" 
d="M520 577.5q59 -64.5 59 -184.5q0 -121 -37.5 -210.5t-109.5 -138.5t-172 -49q-75 0 -180 5l25 195l55 442l190 5q111 0 170 -64.5zM421.5 61q66.5 46 101.5 130.5t35 198.5q0 112 -54 172t-156 60q-78 0 -170 -5l-53 -422l-23 -176q168 -4 161 -4q92 0 158.5 46zM352 729
h-16q-52 45 -92 76l8 14h5q40 -29 87 -70q47 35 103 70h5l5 -14q-37 -24 -105 -76z" />
    <glyph glyph-name="dcaron" unicode="&#x10f;" horiz-adv-x="448" 
d="M394 702l-79 -596l-9 -106l-25 -4l37 275h-5q-95 -178 -206 -275h-11q-27 19 -39 50.5t-12 86.5q0 86 27.5 157.5t79.5 115.5t124 48h4l62 -3l21 157l6 90zM471 507l-18 -2l-2 4l29 144l18 2l2 -4zM148.5 64q36.5 40 84.5 111t94 161l12 95l-61 3q-64 0 -112.5 -41
t-74.5 -109t-26 -146q0 -40 7 -65.5t16 -37t16 -11.5q8 0 44.5 40z" />
    <glyph glyph-name="Dcroat" unicode="&#x110;" horiz-adv-x="609" 
d="M520 577.5q59 -64.5 59 -184.5q0 -121 -37.5 -210.5t-109.5 -138.5t-172 -49q-75 0 -180 5l25 195l55 442l190 5q111 0 170 -64.5zM421.5 61q66.5 46 101.5 130.5t35 198.5q0 112 -54 172t-156 60q-78 0 -170 -5l-53 -422l-23 -176q168 -4 161 -4q92 0 158.5 46zM497 772
h-287l-3 3l2 17h287l3 -3z" />
    <glyph glyph-name="dcroat" unicode="&#x111;" horiz-adv-x="447" 
d="M375 561l-60 -455l-9 -106l-25 -4l37 275h-5q-95 -178 -206 -275h-11q-27 19 -39 50.5t-12 86.5q0 86 27.5 157.5t79.5 115.5t124 48h4l62 -3l15 110h-120l-3 3l2 17h123l4 27l6 90l25 4l-16 -121h88l3 -3l-2 -17h-92zM148.5 64q36.5 40 84.5 111t94 161l12 95l-61 3
q-64 0 -112.5 -41t-74.5 -109t-26 -146q0 -40 7 -65.5t16 -37t16 -11.5q8 0 44.5 40z" />
    <glyph glyph-name="Emacron" unicode="&#x112;" horiz-adv-x="432" 
d="M143 340h223l3 -4l-6 -16h-222l-16 -125l-22 -175h273l3 -4l-6 -16h-293l25 195l55 442h291l2 -4l-6 -16h-269zM474 772h-287l-3 3l2 17h287l3 -3z" />
    <glyph glyph-name="emacron" unicode="&#x113;" horiz-adv-x="354" 
d="M293 105q-30 -50 -64.5 -77t-80.5 -33h-9q-49 6 -70.5 41.5t-21.5 106.5q0 88 25.5 159t70.5 112.5t99 42.5h5q75 -6 75 -69q0 -57 -64 -111t-190 -101l-1 -28q0 -68 19.5 -100t59.5 -32q75 0 131 102h7zM163.5 405.5q-37.5 -30.5 -62 -84.5t-31.5 -123q111 41 171 90
t60 97q0 23 -14.5 37t-42.5 14q-43 0 -80.5 -30.5zM396 587h-287l-3 3l2 17h287l3 -3z" />
    <glyph glyph-name="Ebreve" unicode="&#x114;" horiz-adv-x="432" 
d="M143 340h223l3 -4l-6 -16h-222l-16 -125l-22 -175h273l3 -4l-6 -16h-293l25 195l55 442h291l2 -4l-6 -16h-269zM319 728q-37 0 -61.5 19t-30.5 55l14 11h5q8 -65 74 -65t91 65h5l12 -11q-32 -74 -109 -74z" />
    <glyph glyph-name="ebreve" unicode="&#x115;" horiz-adv-x="354" 
d="M293 105q-30 -50 -64.5 -77t-80.5 -33h-9q-49 6 -70.5 41.5t-21.5 106.5q0 88 25.5 159t70.5 112.5t99 42.5h5q75 -6 75 -69q0 -57 -64 -111t-190 -101l-1 -28q0 -68 19.5 -100t59.5 -32q75 0 131 102h7zM163.5 405.5q-37.5 -30.5 -62 -84.5t-31.5 -123q111 41 171 90
t60 97q0 23 -14.5 37t-42.5 14q-43 0 -80.5 -30.5zM237 522q-42 0 -63 25.5t-25 79.5l15 13h5q1 -50 18 -74t53 -24q69 0 94 98h5l12 -13q-32 -105 -114 -105z" />
    <glyph glyph-name="Edotaccent" unicode="&#x116;" horiz-adv-x="432" 
d="M143 340h223l3 -4l-6 -16h-222l-16 -125l-22 -175h273l3 -4l-6 -16h-293l25 195l55 442h291l2 -4l-6 -16h-269zM350 795q0 -20 -20 -20t-20 20t20 20t20 -20z" />
    <glyph glyph-name="edotaccent" unicode="&#x117;" horiz-adv-x="354" 
d="M293 105q-30 -50 -64.5 -77t-80.5 -33h-9q-49 6 -70.5 41.5t-21.5 106.5q0 88 25.5 159t70.5 112.5t99 42.5h5q75 -6 75 -69q0 -57 -64 -111t-190 -101l-1 -28q0 -68 19.5 -100t59.5 -32q75 0 131 102h7zM163.5 405.5q-37.5 -30.5 -62 -84.5t-31.5 -123q111 41 171 90
t60 97q0 23 -14.5 37t-42.5 14q-43 0 -80.5 -30.5zM272 610q0 -20 -20 -20t-20 20t20 20t20 -20z" />
    <glyph glyph-name="Eogonek" unicode="&#x118;" horiz-adv-x="432" 
d="M143 340h223l3 -4l-6 -16h-222l-16 -125l-22 -175h273l3 -4l-6 -16h-67l-53 -78q-20 -29 -20 -53q0 -21 12 -33.5t33 -12.5q42 0 81 53h2l11 -16q-44 -57 -94 -57q-29 0 -47 17.5t-18 46.5q0 30 21 61l48 72h-202l25 195l55 442h291l2 -4l-6 -16h-269z" />
    <glyph glyph-name="eogonek" unicode="&#x119;" horiz-adv-x="354" 
d="M217 20h15l-66 -98q-20 -29 -20 -53q0 -21 12 -33.5t33 -12.5q42 0 81 53h2l11 -16q-44 -57 -94 -57q-29 0 -47 17.5t-18 46.5q0 30 21 61l55 83q-23 -11 -54 -16h-9q-49 6 -70.5 41.5t-21.5 106.5q0 88 25.5 159t70.5 112.5t99 42.5h5q75 -6 75 -69q0 -57 -64 -111
t-190 -101l-1 -28q0 -68 19.5 -100t59.5 -32q75 0 131 102h7l9 -13q-37 -61 -76 -85zM163.5 405.5q-37.5 -30.5 -62 -84.5t-31.5 -123q111 41 171 90t60 97q0 23 -14.5 37t-42.5 14q-43 0 -80.5 -30.5z" />
    <glyph glyph-name="Ecaron" unicode="&#x11a;" horiz-adv-x="432" 
d="M143 340h223l3 -4l-6 -16h-222l-16 -125l-22 -175h273l3 -4l-6 -16h-293l25 195l55 442h291l2 -4l-6 -16h-269zM329 729h-16q-52 45 -92 76l8 14h5q40 -29 87 -70q47 35 103 70h5l5 -14q-37 -24 -105 -76z" />
    <glyph glyph-name="ecaron" unicode="&#x11b;" horiz-adv-x="354" 
d="M293 105q-30 -50 -64.5 -77t-80.5 -33h-9q-49 6 -70.5 41.5t-21.5 106.5q0 88 25.5 159t70.5 112.5t99 42.5h5q75 -6 75 -69q0 -57 -64 -111t-190 -101l-1 -28q0 -68 19.5 -100t59.5 -32q75 0 131 102h7zM163.5 405.5q-37.5 -30.5 -62 -84.5t-31.5 -123q111 41 171 90
t60 97q0 23 -14.5 37t-42.5 14q-43 0 -80.5 -30.5zM245 520h-18q-49 78 -87 126l11 12h5q39 -50 81 -117q59 68 110 117h5l8 -12q-42 -41 -115 -126z" />
    <glyph glyph-name="Gcircumflex" unicode="&#x11c;" horiz-adv-x="575" 
d="M542 587l-8 -18h-7q-76 52 -152 52q-94 0 -161.5 -44t-103 -127t-35.5 -198q0 -114 49 -175.5t142 -61.5q44 0 82.5 6.5t98.5 23.5l15 113l9 78l20 2l-9 -80l-17 -128q-67 -20 -108 -27t-91 -7q-103 0 -157 66t-54 188t38.5 210t111 134.5t173.5 46.5q85 0 164 -54z
M361 826h16q60 -52 91 -76l-8 -14h-5q-40 29 -87 70q-47 -35 -103 -70h-5l-5 14q44 28 106 76z" />
    <glyph glyph-name="gcircumflex" unicode="&#x11d;" horiz-adv-x="415" 
d="M311 133l-12 -98q-15 -116 -72 -174t-145 -58q-55 0 -90.5 27.5t-49.5 77.5l2 7l150 122v5q-35 35 -35 116q0 80 25.5 146t74 106.5t114.5 44.5h4l59 -3l11 7l5 -3zM170.5 398q-44.5 -38 -68.5 -101t-24 -135q0 -37 6.5 -60.5t15 -34t14.5 -10.5q7 0 38 36.5t75.5 102
t91.5 148.5l3 26l5 64l-53 2q-59 0 -103.5 -38zM307 286q-63 -100 -104.5 -157.5t-85.5 -97.5l-144 -117q-6 -5 -6 -10q2 -15 15 -34t38.5 -33t61.5 -14q78 0 130 53t66 155l33 255h-4zM259 648h18q46 -74 86 -126l-11 -12h-5q-39 50 -81 117q-59 -68 -110 -117h-5l-8 12
q37 36 116 126z" />
    <glyph glyph-name="Gbreve" unicode="&#x11e;" horiz-adv-x="575" 
d="M542 587l-8 -18h-7q-76 52 -152 52q-94 0 -161.5 -44t-103 -127t-35.5 -198q0 -114 49 -175.5t142 -61.5q44 0 82.5 6.5t98.5 23.5l15 113l9 78l20 2l-9 -80l-17 -128q-67 -20 -108 -27t-91 -7q-103 0 -157 66t-54 188t38.5 210t111 134.5t173.5 46.5q85 0 164 -54z
M352 728q-37 0 -61.5 19t-30.5 55l14 11h5q8 -65 74 -65t91 65h5l12 -11q-32 -74 -109 -74z" />
    <glyph glyph-name="gbreve" unicode="&#x11f;" horiz-adv-x="415" 
d="M311 133l-12 -98q-15 -116 -72 -174t-145 -58q-55 0 -90.5 27.5t-49.5 77.5l2 7l150 122v5q-35 35 -35 116q0 80 25.5 146t74 106.5t114.5 44.5h4l59 -3l11 7l5 -3zM170.5 398q-44.5 -38 -68.5 -101t-24 -135q0 -37 6.5 -60.5t15 -34t14.5 -10.5q7 0 38 36.5t75.5 102
t91.5 148.5l3 26l5 64l-53 2q-59 0 -103.5 -38zM307 286q-63 -100 -104.5 -157.5t-85.5 -97.5l-144 -117q-6 -5 -6 -10q2 -15 15 -34t38.5 -33t61.5 -14q78 0 130 53t66 155l33 255h-4zM241 522q-42 0 -63 25.5t-25 79.5l15 13h5q1 -50 18 -74t53 -24q69 0 94 98h5l12 -13
q-32 -105 -114 -105z" />
    <glyph glyph-name="Gdotaccent" unicode="&#x120;" horiz-adv-x="575" 
d="M542 587l-8 -18h-7q-76 52 -152 52q-94 0 -161.5 -44t-103 -127t-35.5 -198q0 -114 49 -175.5t142 -61.5q44 0 82.5 6.5t98.5 23.5l15 113l9 78l20 2l-9 -80l-17 -128q-67 -20 -108 -27t-91 -7q-103 0 -157 66t-54 188t38.5 210t111 134.5t173.5 46.5q85 0 164 -54z
M383 795q0 -20 -20 -20t-20 20t20 20t20 -20z" />
    <glyph glyph-name="gdotaccent" unicode="&#x121;" horiz-adv-x="415" 
d="M311 133l-12 -98q-15 -116 -72 -174t-145 -58q-55 0 -90.5 27.5t-49.5 77.5l2 7l150 122v5q-35 35 -35 116q0 80 25.5 146t74 106.5t114.5 44.5h4l59 -3l11 7l5 -3zM170.5 398q-44.5 -38 -68.5 -101t-24 -135q0 -37 6.5 -60.5t15 -34t14.5 -10.5q7 0 38 36.5t75.5 102
t91.5 148.5l3 26l5 64l-53 2q-59 0 -103.5 -38zM307 286q-63 -100 -104.5 -157.5t-85.5 -97.5l-144 -117q-6 -5 -6 -10q2 -15 15 -34t38.5 -33t61.5 -14q78 0 130 53t66 155l33 255h-4zM276 610q0 -20 -20 -20t-20 20t20 20t20 -20z" />
    <glyph glyph-name="Gcommaaccent" unicode="&#x122;" horiz-adv-x="575" 
d="M542 587l-8 -18h-7q-76 52 -152 52q-94 0 -161.5 -44t-103 -127t-35.5 -198q0 -114 49 -175.5t142 -61.5q44 0 82.5 6.5t98.5 23.5l15 113l9 78l20 2l-9 -80l-17 -128q-67 -20 -108 -27t-91 -7q-103 0 -157 66t-54 188t38.5 210t111 134.5t173.5 46.5q85 0 164 -54z
M340 -119q0 -42 -66 -93l-10 11l1 3q54 40 54 78q0 20 -30 34v4q5 7 13 11q38 -17 38 -48z" />
    <glyph glyph-name="gcommaaccent" unicode="&#x123;" horiz-adv-x="415" 
d="M266 575q0 46 53 102l13 -11v-4q-44 -47 -44 -83q0 -30 38 -39v-4q-1 -3 -10 -16q-50 12 -50 55zM311 133l-12 -98q-15 -116 -72 -174t-145 -58q-55 0 -90.5 27.5t-49.5 77.5l2 7l150 122v5q-35 35 -35 116q0 80 25.5 146t74 106.5t114.5 44.5h4l59 -3l11 7l5 -3z
M170.5 398q-44.5 -38 -68.5 -101t-24 -135q0 -37 6.5 -60.5t15 -34t14.5 -10.5q7 0 38 36.5t75.5 102t91.5 148.5l3 26l5 64l-53 2q-59 0 -103.5 -38zM307 286q-63 -100 -104.5 -157.5t-85.5 -97.5l-144 -117q-6 -5 -6 -10q2 -15 15 -34t38.5 -33t61.5 -14q78 0 130 53
t66 155l33 255h-4z" />
    <glyph glyph-name="Hcircumflex" unicode="&#x124;" horiz-adv-x="640" 
d="M530 195l-25 -195h-20l25 195l15 119h-385l-15 -119l-25 -195h-20l25 195l55 442h20l-38 -303h385l38 303h20zM388 826h16q60 -52 91 -76l-8 -14h-5q-40 29 -87 70q-47 -35 -103 -70h-5l-5 14q44 28 106 76z" />
    <glyph glyph-name="hcircumflex" unicode="&#x125;" horiz-adv-x="446" 
d="M373 431.5q14 -23.5 13 -54.5l-1 -13l-43 -263l-12 -101l-25 -4l59 365l1 15q1 25 -10 42.5t-24 17.5q-26 0 -90 -85t-143 -231l-2 -14l-9 -106l-26 -4l82 612l6 90l26 4l-69 -518h5q64 111 114 178.5t99 99.5h11q24 -7 38 -30.5zM178 889h16q60 -52 91 -76l-8 -14h-5
q-40 29 -87 70q-47 -35 -103 -70h-5l-5 14q44 28 106 76z" />
    <glyph glyph-name="Hbar" unicode="&#x126;" horiz-adv-x="661" 
d="M575 484l-36 -289l-25 -195h-20l25 195l15 119h-385l-15 -119l-25 -195h-20l25 195l36 289h-61l-3 3l2 17h64l17 133h20l-17 -133h385l17 133h20l-17 -133h62l3 -3l-2 -17h-65zM170 484l-19 -150h385l19 150h-385z" />
    <glyph glyph-name="hbar" unicode="&#x127;" horiz-adv-x="515" 
d="M414 431.5q14 -23.5 13 -54.5l-1 -13l-43 -263l-12 -101l-25 -4l59 365l1 15q1 25 -10 42.5t-24 17.5q-26 0 -90 -85t-143 -231l-2 -14l-9 -106l-26 -4l76 565h-78l-3 3l2 17h81l4 27l6 90l26 4l-16 -121h129l3 -3l-2 -17h-133l-50 -377h5q64 111 114 178.5t99 99.5h11
q24 -7 38 -30.5z" />
    <glyph glyph-name="Imacron" unicode="&#x12a;" horiz-adv-x="235" 
d="M100 0h-20l25 195l55 442h20l-55 -442zM289 772h-207l-3 3l2 17h207l3 -3z" />
    <glyph glyph-name="imacron" unicode="&#x12b;" horiz-adv-x="203" 
d="M88 0l-27 -4l49 366l6 90l25 4l-46 -350zM250 587h-207l-3 3l2 17h207l3 -3z" />
    <glyph glyph-name="Ibreve" unicode="&#x12c;" horiz-adv-x="235" 
d="M100 0h-20l25 195l55 442h20l-55 -442zM176 728q-37 0 -61.5 19t-30.5 55l14 11h5q8 -65 74 -65t91 65h5l12 -11q-32 -74 -109 -74z" />
    <glyph glyph-name="ibreve" unicode="&#x12d;" horiz-adv-x="203" 
d="M88 0l-27 -4l49 366l6 90l25 4l-46 -350zM133 522q-42 0 -63 25.5t-25 79.5l15 13h5q1 -50 18 -74t53 -24q69 0 94 98h5l12 -13q-32 -105 -114 -105z" />
    <glyph glyph-name="Iogonek" unicode="&#x12e;" horiz-adv-x="235" 
d="M125 195l-25 -195q-57 -73 -77.5 -103t-20.5 -48q0 -11 6.5 -18.5t18.5 -7.5q30 0 50 43h2l12 -15q-27 -48 -66 -48q-21 0 -32 12.5t-11 31.5q0 23 19 52t80 107l24 189l55 442h20z" />
    <glyph glyph-name="iogonek" unicode="&#x12f;" horiz-adv-x="203" 
d="M168 610q0 -20 -20 -20t-20 20t20 20t20 -20zM141 456l-46 -350l-7 -106q-57 -73 -77.5 -103t-20.5 -48q0 -11 6.5 -18.5t18.5 -7.5q30 0 50 43h2l12 -15q-27 -48 -66 -48q-21 0 -32 12.5t-11 31.5q0 21 17 48t74 102l49 365l6 90z" />
    <glyph glyph-name="Idotaccent" unicode="&#x130;" horiz-adv-x="235" 
d="M100 0h-20l25 195l55 442h20l-55 -442zM207 795q0 -20 -20 -20t-20 20t20 20t20 -20z" />
    <glyph glyph-name="dotlessi" unicode="&#x131;" horiz-adv-x="203" 
d="M88 0l-27 -4l49 366l6 90l25 4l-46 -350z" />
    <glyph glyph-name="IJ" unicode="&#x132;" horiz-adv-x="495" 
d="M100 0h-20l25 195l55 442h20l-55 -442zM382 212l-12 -97q-9 -70 -44 -118.5t-109 -94.5l-9 11v6q68 42 102 88t41 108l11 93l51 409h-125l-4 4l5 16h146z" />
    <glyph glyph-name="ij" unicode="&#x133;" horiz-adv-x="415" 
d="M168 610q0 -20 -20 -20t-20 20t20 20t20 -20zM363 610q0 -20 -20 -20t-20 20t20 20t20 -20zM88 0l-27 -4l49 366l6 90l25 4l-46 -350zM308 93l-11 -75q-10 -80 -36.5 -124.5t-86.5 -85.5l-11 11l1 6q55 37 78 76t32 107l49 358l5 63h-83l-4 4l4 16h87l19 3l2 -1z" />
    <glyph glyph-name="Jcircumflex" unicode="&#x134;" horiz-adv-x="260" 
d="M147 212l-12 -97q-9 -70 -44 -118.5t-109 -94.5l-9 11v6q68 42 102 88t41 108l11 93l51 409h-125l-4 4l5 16h146zM148 826h16q60 -52 91 -76l-8 -14h-5q-40 29 -87 70q-47 -35 -103 -70h-5l-5 14q44 28 106 76z" />
    <glyph glyph-name="jcircumflex" unicode="&#x135;" horiz-adv-x="212" 
d="M105 93l-11 -75q-10 -80 -36.5 -124.5t-86.5 -85.5l-11 11l1 6q55 37 78 76t32 107l49 358l5 63h-83l-4 4l4 16h87l19 3l2 -1zM143 648h18q46 -74 86 -126l-11 -12h-5q-39 50 -81 117q-59 -68 -110 -117h-5l-8 12q37 36 116 126z" />
    <glyph glyph-name="Kcommaaccent" unicode="&#x136;" horiz-adv-x="483" 
d="M100 0h-20l25 195l56 442h20l-56 -442zM446 5v-4q-4 -4 -14 -8l-4 1q-149 179 -258 345v3l265 248l47 47h32l-316 -298q116 -177 248 -334zM286 -119q0 -42 -66 -93l-10 11l1 3q54 40 54 78q0 20 -30 34v4q5 7 13 11q38 -17 38 -48z" />
    <glyph glyph-name="kcommaaccent" unicode="&#x137;" horiz-adv-x="426" 
d="M226 183q70 -101 137 -183v-3l-16 -8l-4 2q-50 62 -142 190l1 9q173 95 173 189q0 28 -13.5 42.5t-28.5 14.5q-69 0 -235 -313l-2 -17l-9 -106l-26 -4l82 612l6 90l26 4l-68 -513h4q67 118 114 181.5t96 86.5l16 1q26 -5 42 -24t16 -52q0 -103 -169 -199zM215 -119
q0 -42 -66 -93l-10 11l1 3q54 40 54 78q0 20 -30 34v4q5 7 13 11q38 -17 38 -48z" />
    <glyph glyph-name="kgreenlandic" unicode="&#x138;" horiz-adv-x="429" 
d="M229 183q65 -93 138 -183v-3l-16 -8l-4 2q-59 73 -143 190l1 9q174 96 174 189q0 28 -13.5 42.5t-28.5 14.5q-70 0 -241 -321l-1 -9l-7 -106l-27 -4l49 366l6 90l25 4l-35 -267h7q69 119 115.5 182t95.5 86l16 1q59 -10 59 -76q0 -103 -170 -199z" />
    <glyph glyph-name="Lacute" unicode="&#x139;" horiz-adv-x="378" 
d="M343 0h-264l25 195l55 442h20l-55 -442l-22 -175h244l3 -4zM293 822l-2 -5q-67 -38 -174 -93l-5 3l-7 15q91 44 176 94l5 -2z" />
    <glyph glyph-name="lacute" unicode="&#x13a;" horiz-adv-x="205" 
d="M87 0l-26 -4l82 612l6 90l26 4l-79 -596zM284 885l-2 -5q-67 -38 -174 -93l-5 3l-7 15q91 44 176 94l5 -2z" />
    <glyph glyph-name="Lcommaaccent" unicode="&#x13b;" horiz-adv-x="378" 
d="M343 0h-264l25 195l55 442h20l-55 -442l-22 -175h244l3 -4zM220 -119q0 -42 -66 -93l-10 11l1 3q54 40 54 78q0 20 -30 34v4q5 7 13 11q38 -17 38 -48z" />
    <glyph glyph-name="lcommaaccent" unicode="&#x13c;" horiz-adv-x="205" 
d="M87 0l-26 -4l82 612l6 90l26 4l-79 -596zM94 -119q0 -42 -66 -93l-10 11l1 3q54 40 54 78q0 20 -30 34v4q5 7 13 11q38 -17 38 -48z" />
    <glyph glyph-name="Lcaron" unicode="&#x13d;" horiz-adv-x="389" 
d="M349 16l-6 -16h-264l25 195l55 442h20l-55 -442l-22 -175h244zM358 429l-18 -2l-2 4l29 144l18 2l2 -4z" />
    <glyph glyph-name="lcaron" unicode="&#x13e;" horiz-adv-x="212" 
d="M87 0l-26 -4l82 612l6 90l26 4l-79 -596zM247 499l-18 -2l-2 4l29 144l18 2l2 -4z" />
    <glyph glyph-name="Ldot" unicode="&#x13f;" horiz-adv-x="378" 
d="M343 0h-264l25 195l55 442h20l-55 -442l-22 -175h244l3 -4zM320 367q0 -20 -20 -20t-20 20t20 20t20 -20z" />
    <glyph glyph-name="ldot" unicode="&#x140;" horiz-adv-x="214" 
d="M87 0l-26 -4l82 612l6 90l26 4l-79 -596zM234 270q0 -20 -20 -20t-20 20t20 20t20 -20z" />
    <glyph glyph-name="Lslash" unicode="&#x141;" horiz-adv-x="387" 
d="M351 0h-264l25 195l17 140l-90 -49l-5 3l-3 15l101 54l35 279h20l-33 -267l157 84l5 -2l4 -15l-169 -91l-19 -151l-22 -175h244l3 -4z" />
    <glyph glyph-name="lslash" unicode="&#x142;" horiz-adv-x="212" 
d="M97 106l-9 -106l-26 -4l51 378l-97 -49l-5 3l-3 15l108 54l28 211l6 90l26 4l-39 -296l98 50l5 -2l3 -15l-109 -56z" />
    <glyph glyph-name="Nacute" unicode="&#x143;" horiz-adv-x="640" 
d="M503 0h-19l-304 595h-4l-51 -396l-25 -199h-20l24 190l57 447h19l304 -595h4l77 594l20 2l-59 -462zM493 822l-2 -5q-67 -38 -174 -93l-5 3l-7 15q91 44 176 94l5 -2z" />
    <glyph glyph-name="nacute" unicode="&#x144;" horiz-adv-x="445" 
d="M372 431.5q14 -23.5 13 -54.5l-1 -13l-43 -263l-12 -101l-25 -4l59 365l1 15q1 25 -10 42.5t-24 17.5q-26 0 -90 -85t-143 -231l-2 -14l-9 -106l-25 -4l48 366l7 90l25 4l-36 -272h5q65 112 114.5 179t98.5 99h11q24 -7 38 -30.5zM356 658l-1 -5q-69 -69 -144 -135l-5 1
l-11 13q69 58 146 137l5 -1z" />
    <glyph glyph-name="Ncommaaccent" unicode="&#x145;" horiz-adv-x="640" 
d="M503 0h-19l-304 595h-4l-51 -396l-25 -199h-20l24 190l57 447h19l304 -595h4l77 594l20 2l-59 -462zM313 -119q0 -42 -66 -93l-10 11l1 3q54 40 54 78q0 20 -30 34v4q5 7 13 11q38 -17 38 -48z" />
    <glyph glyph-name="ncommaaccent" unicode="&#x146;" horiz-adv-x="445" 
d="M372 431.5q14 -23.5 13 -54.5l-1 -13l-43 -263l-12 -101l-25 -4l59 365l1 15q1 25 -10 42.5t-24 17.5q-26 0 -90 -85t-143 -231l-2 -14l-9 -106l-25 -4l48 366l7 90l25 4l-36 -272h5q65 112 114.5 179t98.5 99h11q24 -7 38 -30.5zM219 -119q0 -42 -66 -93l-10 11l1 3
q54 40 54 78q0 20 -30 34v4q5 7 13 11q38 -17 38 -48z" />
    <glyph glyph-name="Ncaron" unicode="&#x147;" horiz-adv-x="640" 
d="M503 0h-19l-304 595h-4l-51 -396l-25 -199h-20l24 190l57 447h19l304 -595h4l77 594l20 2l-59 -462zM389 729h-16q-52 45 -92 76l8 14h5q40 -29 87 -70q47 35 103 70h5l5 -14q-37 -24 -105 -76z" />
    <glyph glyph-name="ncaron" unicode="&#x148;" horiz-adv-x="445" 
d="M372 431.5q14 -23.5 13 -54.5l-1 -13l-43 -263l-12 -101l-25 -4l59 365l1 15q1 25 -10 42.5t-24 17.5q-26 0 -90 -85t-143 -231l-2 -14l-9 -106l-25 -4l48 366l7 90l25 4l-36 -272h5q65 112 114.5 179t98.5 99h11q24 -7 38 -30.5zM267 520h-18q-49 78 -87 126l11 12h5
q39 -50 81 -117q59 68 110 117h5l8 -12q-42 -41 -115 -126z" />
    <glyph glyph-name="Eng" unicode="&#x14a;" horiz-adv-x="648" 
d="M512 39q-7 -59 -39.5 -100t-106.5 -83l-10 11l1 6q58 33 87.5 63.5t41.5 68.5l-309 590h-4l-49 -396l-24 -199h-20l23 190l56 447h19l311 -595h4l75 594l20 2l-58 -462z" />
    <glyph glyph-name="eng" unicode="&#x14b;" horiz-adv-x="455" 
d="M374 431.5q14 -23.5 13 -54.5l-1 -13l-44 -271l-12 -75q-12 -80 -38 -124.5t-84 -85.5l-9 11l1 6q52 37 74.5 75.5t33.5 107.5l57 353l1 15q1 25 -10 42.5t-24 17.5q-26 0 -91 -86t-143 -232l-2 -12l-9 -106l-25 -4l48 366l7 90l25 4l-36 -272h6q65 112 114.5 179
t98.5 99h11q24 -7 38 -30.5z" />
    <glyph glyph-name="Omacron" unicode="&#x14c;" horiz-adv-x="599" 
d="M513.5 577q54.5 -65 54.5 -186q0 -122 -35.5 -211t-103 -137t-162.5 -48q-102 0 -156.5 67t-54.5 191q0 121 35 208.5t102.5 134t161.5 46.5q104 0 158.5 -65zM205 578q-62 -44 -95 -126.5t-33 -195.5q0 -115 49.5 -178t141.5 -63q87 0 150 45.5t96 129t33 197.5
q0 113 -49 174t-144 61q-87 0 -149 -44zM513 772h-287l-3 3l2 17h287l3 -3z" />
    <glyph glyph-name="omacron" unicode="&#x14d;" horiz-adv-x="396" 
d="M325.5 421q22.5 -33 22.5 -101q0 -91 -24 -163.5t-69 -115.5t-106 -47h-5q-50 3 -73 36.5t-23 103.5q0 91 24.5 164.5t69.5 116t106 43.5h5q50 -4 72.5 -37zM154.5 398q-40.5 -39 -63.5 -107.5t-23 -153.5q0 -62 19.5 -92t60.5 -30q52 0 93 39.5t63.5 108.5t22.5 154
q0 62 -19 91t-60 29q-53 0 -93.5 -39zM394 587h-287l-3 3l2 17h287l3 -3z" />
    <glyph glyph-name="Obreve" unicode="&#x14e;" horiz-adv-x="599" 
d="M513.5 577q54.5 -65 54.5 -186q0 -122 -35.5 -211t-103 -137t-162.5 -48q-102 0 -156.5 67t-54.5 191q0 121 35 208.5t102.5 134t161.5 46.5q104 0 158.5 -65zM205 578q-62 -44 -95 -126.5t-33 -195.5q0 -115 49.5 -178t141.5 -63q87 0 150 45.5t96 129t33 197.5
q0 113 -49 174t-144 61q-87 0 -149 -44zM358 728q-37 0 -61.5 19t-30.5 55l14 11h5q8 -65 74 -65t91 65h5l12 -11q-32 -74 -109 -74z" />
    <glyph glyph-name="obreve" unicode="&#x14f;" horiz-adv-x="396" 
d="M325.5 421q22.5 -33 22.5 -101q0 -91 -24 -163.5t-69 -115.5t-106 -47h-5q-50 3 -73 36.5t-23 103.5q0 91 24.5 164.5t69.5 116t106 43.5h5q50 -4 72.5 -37zM154.5 398q-40.5 -39 -63.5 -107.5t-23 -153.5q0 -62 19.5 -92t60.5 -30q52 0 93 39.5t63.5 108.5t22.5 154
q0 62 -19 91t-60 29q-53 0 -93.5 -39zM235 522q-42 0 -63 25.5t-25 79.5l15 13h5q1 -50 18 -74t53 -24q69 0 94 98h5l12 -13q-32 -105 -114 -105z" />
    <glyph glyph-name="Ohungarumlaut" unicode="&#x150;" horiz-adv-x="599" 
d="M513.5 577q54.5 -65 54.5 -186q0 -122 -35.5 -211t-103 -137t-162.5 -48q-102 0 -156.5 67t-54.5 191q0 121 35 208.5t102.5 134t161.5 46.5q104 0 158.5 -65zM205 578q-62 -44 -95 -126.5t-33 -195.5q0 -115 49.5 -178t141.5 -63q87 0 150 45.5t96 129t33 197.5
q0 113 -49 174t-144 61q-87 0 -149 -44zM263 757q75 70 89 84l5 -1l10 -10l-1 -5q-35 -35 -112 -105l-5 1l-11 13zM393 757q75 70 89 84l5 -1l10 -10l-1 -5q-35 -35 -112 -105l-5 1l-11 13z" />
    <glyph glyph-name="ohungarumlaut" unicode="&#x151;" horiz-adv-x="396" 
d="M325.5 421q22.5 -33 22.5 -101q0 -91 -24 -163.5t-69 -115.5t-106 -47h-5q-50 3 -73 36.5t-23 103.5q0 91 24.5 164.5t69.5 116t106 43.5h5q50 -4 72.5 -37zM154.5 398q-40.5 -39 -63.5 -107.5t-23 -153.5q0 -62 19.5 -92t60.5 -30q52 0 93 39.5t63.5 108.5t22.5 154
q0 62 -19 91t-60 29q-53 0 -93.5 -39zM278 667l5 -1l10 -10l-1 -5q-70 -69 -144 -135l-5 1l-11 13q77 68 146 137zM408 667l5 -1l10 -10l-1 -5q-70 -69 -144 -135l-5 1l-11 13q77 68 146 137z" />
    <glyph glyph-name="OE" unicode="&#x152;" horiz-adv-x="789" 
d="M465 643q46 -6 73 -6h269l3 -4l-6 -16h-270l-34 -277h222l2 -4l-6 -16h-222l-16 -132l-21 -168h274l3 -4l-6 -16h-273q-29 0 -83 -6q-52 -6 -73 -6q-118 0 -181.5 72t-63.5 200q0 119 40.5 206.5t117 135t181.5 47.5q26 0 70 -6zM223 584.5q-71 -44.5 -109 -127.5
t-38 -195q0 -121 59.5 -187.5t173.5 -66.5q42 0 102 10q17 3 23 8t8 17l66 543q1 8 1 18q0 13 -10 14q-59 11 -107 11q-98 0 -169 -44.5z" />
    <glyph glyph-name="oe" unicode="&#x153;" horiz-adv-x="621" 
d="M565 105q-30 -50 -64.5 -77t-80.5 -33h-9q-47 6 -68 38.5t-23 98.5q-25 -62 -67.5 -98t-98.5 -40h-5q-50 3 -73.5 36.5t-23.5 103.5q0 91 24.5 164.5t70 116t106.5 43.5h5q51 -4 73 -36.5t22 -99.5q26 61 68.5 97.5t92.5 37.5h5q75 -6 75 -69q0 -57 -64 -111t-190 -101
l-1 -28q0 -68 19.5 -100t59.5 -32q75 0 131 102h7zM246.5 54.5q40.5 39.5 63.5 108.5t23 154q0 62 -19 91t-61 29q-53 0 -94 -39t-64 -107.5t-23 -153.5q0 -63 19.5 -92.5t61.5 -29.5q53 0 93.5 39.5zM412 382.5q-46 -53.5 -64 -140.5q-1 -12 -5 -34l-1 -10q111 41 171 90
t60 97q0 23 -14.5 37t-42.5 14q-58 0 -104 -53.5z" />
    <glyph glyph-name="Racute" unicode="&#x154;" horiz-adv-x="494" 
d="M402 348.5q-43 -58.5 -122 -82.5q60 -134 137 -261l-1 -4q-5 -5 -13 -8l-5 2q-81 137 -140 268h-125l-8 -68l-25 -195h-20l25 195l55 442l133 2q73 0 112.5 -38.5t39.5 -109.5q0 -84 -43 -142.5zM270 283q74 20 114.5 73.5t40.5 131.5q0 60 -32.5 94t-94.5 37l-120 -1
l-42 -335h134zM398 843l-1 -5q-69 -69 -144 -135l-5 1l-11 13q69 58 146 137l5 -1z" />
    <glyph glyph-name="racute" unicode="&#x155;" horiz-adv-x="307" 
d="M323 430l-3 -2l-11 2q-40 -7 -96 -90.5t-118 -235.5l-10 -104l-24 -4l47 366l8 90l23 4l-35 -275h5q54 123 106.5 193.5t94.5 77.5l16 -2zM317 658l-1 -5q-69 -69 -144 -135l-5 1l-11 13q69 58 146 137l5 -1z" />
    <glyph glyph-name="Rcommaaccent" unicode="&#x156;" horiz-adv-x="494" 
d="M402 348.5q-43 -58.5 -122 -82.5q60 -134 137 -261l-1 -4q-5 -5 -13 -8l-5 2q-81 137 -140 268h-125l-8 -68l-25 -195h-20l25 195l55 442l133 2q73 0 112.5 -38.5t39.5 -109.5q0 -84 -43 -142.5zM270 283q74 20 114.5 73.5t40.5 131.5q0 60 -32.5 94t-94.5 37l-120 -1
l-42 -335h134zM239 -119q0 -42 -66 -93l-10 11l1 3q54 40 54 78q0 20 -30 34v4q5 7 13 11q38 -17 38 -48z" />
    <glyph glyph-name="rcommaaccent" unicode="&#x157;" horiz-adv-x="307" 
d="M323 430l-3 -2l-11 2q-40 -7 -96 -90.5t-118 -235.5l-10 -104l-24 -4l47 366l8 90l23 4l-35 -275h5q54 123 106.5 193.5t94.5 77.5l16 -2zM94 -119q0 -42 -66 -93l-10 11l1 3q54 40 54 78q0 20 -30 34v4q5 7 13 11q38 -17 38 -48z" />
    <glyph glyph-name="Rcaron" unicode="&#x158;" horiz-adv-x="494" 
d="M402 348.5q-43 -58.5 -122 -82.5q60 -134 137 -261l-1 -4q-5 -5 -13 -8l-5 2q-81 137 -140 268h-125l-8 -68l-25 -195h-20l25 195l55 442l133 2q73 0 112.5 -38.5t39.5 -109.5q0 -84 -43 -142.5zM270 283q74 20 114.5 73.5t40.5 131.5q0 60 -32.5 94t-94.5 37l-120 -1
l-42 -335h134zM309 705h-18q-49 78 -87 126l11 12h5q39 -50 81 -117q59 68 110 117h5l8 -12q-42 -41 -115 -126z" />
    <glyph glyph-name="rcaron" unicode="&#x159;" horiz-adv-x="307" 
d="M323 430l-3 -2l-11 2q-40 -7 -96 -90.5t-118 -235.5l-10 -104l-24 -4l47 366l8 90l23 4l-35 -275h5q54 123 106.5 193.5t94.5 77.5l16 -2zM228 520h-18q-49 78 -87 126l11 12h5q39 -50 81 -117q59 68 110 117h5l8 -12q-42 -41 -115 -126z" />
    <glyph glyph-name="Sacute" unicode="&#x15a;" horiz-adv-x="423" 
d="M398 611l-6 -18l-7 -1q-46 28 -104 28q-48 0 -86 -20.5t-59 -53.5t-21 -69q0 -33 16 -58t38.5 -42.5t62.5 -41.5q44 -26 70 -46t44 -50.5t18 -71.5q0 -46 -26.5 -85.5t-72 -62.5t-99.5 -23q-37 0 -74 12t-64 35l3 19l6 2q26 -24 61 -36t70 -12q50 0 90.5 21t63 55
t22.5 73q0 35 -16.5 61.5t-40 44.5t-64.5 43q-43 27 -68 46t-42.5 48.5t-17.5 69.5q0 45 25 82t68 58.5t96 21.5q61 0 114 -29zM363 843l-1 -5q-69 -69 -144 -135l-5 1l-11 13q69 58 146 137l5 -1z" />
    <glyph glyph-name="sacute" unicode="&#x15b;" horiz-adv-x="306" 
d="M279 435l-7 -19l-6 -1q-34 20 -69 20q-31 0 -56.5 -14t-40 -36.5t-14.5 -46.5q0 -28 18 -48.5t56 -49.5q43 -32 64 -57t21 -63q0 -34 -18.5 -62.5t-52.5 -46t-78 -17.5q-48 7 -86 34l3 18l7 4q41 -35 88 -35q50 0 83 30t33 72q0 33 -19.5 55.5t-58.5 51.5t-59.5 53
t-20.5 59q0 51 40.5 85.5t100.5 33.5q42 -4 72 -20zM289 658l-1 -5q-69 -69 -144 -135l-5 1l-11 13q69 58 146 137l5 -1z" />
    <glyph glyph-name="Scircumflex" unicode="&#x15c;" horiz-adv-x="423" 
d="M398 611l-6 -18l-7 -1q-46 28 -104 28q-48 0 -86 -20.5t-59 -53.5t-21 -69q0 -33 16 -58t38.5 -42.5t62.5 -41.5q44 -26 70 -46t44 -50.5t18 -71.5q0 -46 -26.5 -85.5t-72 -62.5t-99.5 -23q-37 0 -74 12t-64 35l3 19l6 2q26 -24 61 -36t70 -12q50 0 90.5 21t63 55
t22.5 73q0 35 -16.5 61.5t-40 44.5t-64.5 43q-43 27 -68 46t-42.5 48.5t-17.5 69.5q0 45 25 82t68 58.5t96 21.5q61 0 114 -29zM284 833h18q46 -74 86 -126l-11 -12h-5q-39 50 -81 117q-59 -68 -110 -117h-5l-8 12q37 36 116 126z" />
    <glyph glyph-name="scircumflex" unicode="&#x15d;" horiz-adv-x="306" 
d="M279 435l-7 -19l-6 -1q-34 20 -69 20q-31 0 -56.5 -14t-40 -36.5t-14.5 -46.5q0 -28 18 -48.5t56 -49.5q43 -32 64 -57t21 -63q0 -34 -18.5 -62.5t-52.5 -46t-78 -17.5q-48 7 -86 34l3 18l7 4q41 -35 88 -35q50 0 83 30t33 72q0 33 -19.5 55.5t-58.5 51.5t-59.5 53
t-20.5 59q0 51 40.5 85.5t100.5 33.5q42 -4 72 -20zM210 648h18q46 -74 86 -126l-11 -12h-5q-39 50 -81 117q-59 -68 -110 -117h-5l-8 12q37 36 116 126z" />
    <glyph glyph-name="Scedilla" unicode="&#x15e;" horiz-adv-x="423" 
d="M398 611l-6 -18l-7 -1q-46 28 -104 28q-48 0 -86 -20.5t-59 -53.5t-21 -69q0 -33 16 -58t38.5 -42.5t62.5 -41.5q44 -26 70 -46t44 -50.5t18 -71.5q0 -43 -23.5 -80.5t-64.5 -61.5t-91 -28l-16 -52l31 -20q33 -21 33 -50q0 -24 -17.5 -38.5t-42.5 -14.5q-37 0 -59 33
l6 18h4q10 -16 21 -23.5t28 -7.5q18 0 29 8.5t11 24.5q0 11 -5.5 17.5t-18.5 15.5l-43 28l19 60q-81 0 -137 47l3 19l6 2q26 -24 61 -36t70 -12q50 0 90.5 21t63 55t22.5 73q0 35 -16.5 61.5t-40 44.5t-64.5 43q-43 27 -68 46t-42.5 48.5t-17.5 69.5q0 45 25 82t68 58.5
t96 21.5q61 0 114 -29z" />
    <glyph glyph-name="scedilla" unicode="&#x15f;" horiz-adv-x="306" 
d="M279 435l-7 -19l-6 -1q-34 20 -69 20q-31 0 -56.5 -14t-40 -36.5t-14.5 -46.5q0 -28 18 -48.5t56 -49.5q43 -32 64 -57t21 -63q0 -45 -31 -79t-83 -44l-17 -52l31 -20q33 -21 33 -50q0 -24 -17.5 -38.5t-42.5 -14.5q-37 0 -59 33l6 18h4q10 -16 21 -23.5t28 -7.5
q18 0 29 8.5t11 24.5q0 11 -5.5 17.5t-18.5 15.5l-43 28l19 59l-14 -1q-48 7 -86 34l3 18l7 4q41 -35 88 -35q50 0 83 30t33 72q0 33 -19.5 55.5t-58.5 51.5t-59.5 53t-20.5 59q0 51 40.5 85.5t100.5 33.5q42 -4 72 -20z" />
    <glyph glyph-name="Scaron" unicode="&#x160;" horiz-adv-x="423" 
d="M398 611l-6 -18l-7 -1q-46 28 -104 28q-48 0 -86 -20.5t-59 -53.5t-21 -69q0 -33 16 -58t38.5 -42.5t62.5 -41.5q44 -26 70 -46t44 -50.5t18 -71.5q0 -46 -26.5 -85.5t-72 -62.5t-99.5 -23q-37 0 -74 12t-64 35l3 19l6 2q26 -24 61 -36t70 -12q50 0 90.5 21t63 55
t22.5 73q0 35 -16.5 61.5t-40 44.5t-64.5 43q-43 27 -68 46t-42.5 48.5t-17.5 69.5q0 45 25 82t68 58.5t96 21.5q61 0 114 -29zM274 705h-18q-49 78 -87 126l11 12h5q39 -50 81 -117q59 68 110 117h5l8 -12q-42 -41 -115 -126z" />
    <glyph glyph-name="scaron" unicode="&#x161;" horiz-adv-x="306" 
d="M279 435l-7 -19l-6 -1q-34 20 -69 20q-31 0 -56.5 -14t-40 -36.5t-14.5 -46.5q0 -28 18 -48.5t56 -49.5q43 -32 64 -57t21 -63q0 -34 -18.5 -62.5t-52.5 -46t-78 -17.5q-48 7 -86 34l3 18l7 4q41 -35 88 -35q50 0 83 30t33 72q0 33 -19.5 55.5t-58.5 51.5t-59.5 53
t-20.5 59q0 51 40.5 85.5t100.5 33.5q42 -4 72 -20zM200 520h-18q-49 78 -87 126l11 12h5q39 -50 81 -117q59 68 110 117h5l8 -12q-42 -41 -115 -126z" />
    <glyph glyph-name="Tcedilla" unicode="&#x162;" horiz-adv-x="450" 
d="M468 617h-183l-54 -422l-24 -195l-17 -55l29 -20q31 -22 31 -50q0 -24 -17 -38.5t-40 -14.5q-34 0 -56 33l6 18h4q10 -16 19.5 -23.5t26.5 -7.5t27 8.5t10 24.5q0 11 -5 17.5t-17 15.5l-41 28l20 64l24 195l54 422h-185l-3 4l6 16h388l3 -4z" />
    <glyph glyph-name="tcedilla" unicode="&#x163;" horiz-adv-x="316" 
d="M104 67q0 -24 11 -37.5t29 -13.5q20 0 47.5 26.5t55.5 77.5h7l9 -13q-56 -89 -103 -111l-16 -51l31 -20q33 -21 33 -50q0 -24 -17.5 -38.5t-42.5 -14.5q-37 0 -59 33l6 18h4q10 -16 21 -23.5t28 -7.5q18 0 29 8.5t11 24.5q0 11 -5.5 17.5t-18.5 15.5l-43 28l17 54h-3
q-24 6 -37.5 25.5t-13.5 48.5l2 22l47 276l10 67h-71l-4 4l3 16h75l19 131l22 10l3 -3l-23 -138h144l3 -4l-3 -16h-148l-57 -342z" />
    <glyph glyph-name="Tcaron" unicode="&#x164;" horiz-adv-x="450" 
d="M468 617h-183l-54 -422l-24 -195h-20l24 195l54 422h-185l-3 4l6 16h388l3 -4zM288 705h-18q-49 78 -87 126l11 12h5q39 -50 81 -117q59 68 110 117h5l8 -12q-42 -41 -115 -126z" />
    <glyph glyph-name="tcaron" unicode="&#x165;" horiz-adv-x="316" 
d="M104 67q0 -24 11 -37.5t29 -13.5q20 0 47.5 26.5t55.5 77.5h7l9 -13q-33 -53 -60 -80t-58 -37h-10q-24 6 -37.5 25.5t-13.5 48.5l2 22l47 276l10 67h-71l-4 4l3 16h75l19 131l22 10l3 -3l-23 -138h144l3 -4l-3 -16h-148l-57 -342zM274 507l-18 -2l-2 4l29 144l18 2l2 -4z
" />
    <glyph glyph-name="Tbar" unicode="&#x166;" horiz-adv-x="450" 
d="M468 617h-183l-34 -267h93l3 -3l-2 -17h-97l-17 -135l-24 -195h-20l24 195l17 135h-93l-3 3l2 17h97l34 267h-185l-3 4l6 16h388l3 -4z" />
    <glyph glyph-name="tbar" unicode="&#x167;" horiz-adv-x="323" 
d="M144 284h118l3 -3l-4 -17h-120l-30 -177l-2 -20q0 -24 11 -37.5t29 -13.5q20 0 47.5 26.5t55.5 77.5h7l9 -13q-33 -53 -60 -80t-58 -37h-10q-24 6 -37.5 25.5t-13.5 48.5l2 22l30 178h-75l-3 3l4 17h78l13 78l10 67h-71l-4 4l3 16h75l19 131l22 10l3 -3l-23 -138h144
l3 -4l-3 -16h-148z" />
    <glyph glyph-name="Umacron" unicode="&#x16a;" horiz-adv-x="583" 
d="M500 229q-11 -111 -72.5 -172t-161.5 -61q-89 0 -137 46.5t-48 133.5q0 29 4 53l13 93l40 315h20l-53 -408q-4 -34 -4 -49q0 -79 42.5 -121.5t121.5 -42.5q91 0 146 55t69 158l51 408h20l-41 -325zM505 772h-287l-3 3l2 17h287l3 -3z" />
    <glyph glyph-name="umacron" unicode="&#x16b;" horiz-adv-x="454" 
d="M347 106l-9 -106l-25 -4l36 271h-5q-65 -112 -114.5 -179t-98.5 -99h-11q-24 7 -38 30.5t-13 54.5l1 13l43 263l12 101l25 4l-59 -365l-1 -15q-1 -25 10 -42.5t24 -17.5q26 0 90.5 85t142.5 230l4 32l7 90l25 4zM418 587h-287l-3 3l2 17h287l3 -3z" />
    <glyph glyph-name="Ubreve" unicode="&#x16c;" horiz-adv-x="583" 
d="M500 229q-11 -111 -72.5 -172t-161.5 -61q-89 0 -137 46.5t-48 133.5q0 29 4 53l13 93l40 315h20l-53 -408q-4 -34 -4 -49q0 -79 42.5 -121.5t121.5 -42.5q91 0 146 55t69 158l51 408h20l-41 -325zM346 707q-42 0 -63 25.5t-25 79.5l15 13h5q1 -50 18 -74t53 -24
q69 0 94 98h5l12 -13q-32 -105 -114 -105z" />
    <glyph glyph-name="ubreve" unicode="&#x16d;" horiz-adv-x="454" 
d="M347 106l-9 -106l-25 -4l36 271h-5q-65 -112 -114.5 -179t-98.5 -99h-11q-24 7 -38 30.5t-13 54.5l1 13l43 263l12 101l25 4l-59 -365l-1 -15q-1 -25 10 -42.5t24 -17.5q26 0 90.5 85t142.5 230l4 32l7 90l25 4zM259 522q-42 0 -63 25.5t-25 79.5l15 13h5q1 -50 18 -74
t53 -24q69 0 94 98h5l12 -13q-32 -105 -114 -105z" />
    <glyph glyph-name="Uring" unicode="&#x16e;" horiz-adv-x="583" 
d="M500 229q-11 -111 -72.5 -172t-161.5 -61q-89 0 -137 46.5t-48 133.5q0 29 4 53l13 93l40 315h20l-53 -408q-4 -34 -4 -49q0 -79 42.5 -121.5t121.5 -42.5q91 0 146 55t69 158l51 408h20l-41 -325zM411 832q19 -21 19 -49q0 -31 -21.5 -50t-49.5 -19t-49 19.5t-21 50.5
q0 30 19.5 49.5t50.5 19.5q33 0 52 -21zM322.5 819.5q-13.5 -13.5 -13.5 -35.5q0 -23 14.5 -36.5t35.5 -13.5t36 13t15 36q0 21 -13.5 35.5t-37.5 14.5q-23 0 -36.5 -13.5z" />
    <glyph glyph-name="uring" unicode="&#x16f;" horiz-adv-x="454" 
d="M347 106l-9 -106l-25 -4l36 271h-5q-65 -112 -114.5 -179t-98.5 -99h-11q-24 7 -38 30.5t-13 54.5l1 13l43 263l12 101l25 4l-59 -365l-1 -15q-1 -25 10 -42.5t24 -17.5q26 0 90.5 85t142.5 230l4 32l7 90l25 4zM324 647q19 -21 19 -49q0 -31 -21.5 -50t-49.5 -19
t-49 19.5t-21 50.5q0 30 19.5 49.5t50.5 19.5q33 0 52 -21zM235.5 634.5q-13.5 -13.5 -13.5 -35.5q0 -23 14.5 -36.5t35.5 -13.5t36 13t15 36q0 21 -13.5 35.5t-37.5 14.5q-23 0 -36.5 -13.5z" />
    <glyph glyph-name="Uhungarumlaut" unicode="&#x170;" horiz-adv-x="583" 
d="M500 229q-11 -111 -72.5 -172t-161.5 -61q-89 0 -137 46.5t-48 133.5q0 29 4 53l13 93l40 315h20l-53 -408q-4 -34 -4 -49q0 -79 42.5 -121.5t121.5 -42.5q91 0 146 55t69 158l51 408h20l-41 -325zM255 757q75 70 89 84l5 -1l10 -10l-1 -5q-35 -35 -112 -105l-5 1l-11 13
zM385 757q75 70 89 84l5 -1l10 -10l-1 -5q-35 -35 -112 -105l-5 1l-11 13z" />
    <glyph glyph-name="uhungarumlaut" unicode="&#x171;" horiz-adv-x="454" 
d="M347 106l-9 -106l-25 -4l36 271h-5q-65 -112 -114.5 -179t-98.5 -99h-11q-24 7 -38 30.5t-13 54.5l1 13l43 263l12 101l25 4l-59 -365l-1 -15q-1 -25 10 -42.5t24 -17.5q26 0 90.5 85t142.5 230l4 32l7 90l25 4zM302 667l5 -1l10 -10l-1 -5q-70 -69 -144 -135l-5 1
l-11 13q77 68 146 137zM432 667l5 -1l10 -10l-1 -5q-70 -69 -144 -135l-5 1l-11 13q77 68 146 137z" />
    <glyph glyph-name="Uogonek" unicode="&#x172;" horiz-adv-x="582" 
d="M510 312l-10 -83q-15 -147 -114 -204l-66 -103q-19 -30 -19 -54q0 -20 11 -32.5t30 -12.5q20 0 40 14t36 39h2l11 -16q-42 -57 -89 -57q-28 0 -44.5 17.5t-16.5 47.5q0 31 20 60l53 83q-39 -15 -88 -15q-89 0 -137 46.5t-48 133.5q0 29 4 53l13 93l40 315h20l-53 -408
q-4 -34 -4 -49q0 -79 42.5 -121.5t121.5 -42.5q91 0 146 55t69 158l51 408h20z" />
    <glyph glyph-name="uogonek" unicode="&#x173;" horiz-adv-x="454" 
d="M246.5 -91.5q-21.5 -27.5 -21.5 -47.5q0 -19 11 -28.5t27 -9.5q34 0 65 53h2l10 -16q-34 -57 -78 -57q-23 0 -40 15t-17 41q0 23 21 50.5t88 91.5l35 266h-5q-65 -112 -114.5 -179t-98.5 -99h-11q-24 7 -38 30.5t-13 54.5l1 13l43 263l12 101l25 4l-59 -365l-1 -15
q-1 -25 10 -42.5t24 -17.5q26 0 90.5 85t142.5 230l4 32l7 90l25 4l-46 -350l-9 -106h-1q-69 -64 -90.5 -91.5z" />
    <glyph glyph-name="Wcircumflex" unicode="&#x174;" horiz-adv-x="834" 
d="M539 0l-91 438h-4l-213 -438h-22l-135 637h23l7 -43l119 -560h4l213 437l-36 166h22l7 -43l118 -560h4l276 560l19 43h23l-314 -637h-20zM464 826h16q60 -52 91 -76l-8 -14h-5q-40 29 -87 70q-47 -35 -103 -70h-5l-5 14q44 28 106 76z" />
    <glyph glyph-name="wcircumflex" unicode="&#x175;" horiz-adv-x="658" 
d="M428 0l-50 418h-4l-203 -418h-26l-55 450l22 5l4 -46l46 -379h4l182 379l21 43h24l4 -43l46 -379h4l137 238q38 66 38 106q0 32 -28 70l1 5l18 6q29 -41 29 -82q0 -46 -41 -115l-153 -258h-20zM379 648h18q46 -74 86 -126l-11 -12h-5q-39 50 -81 117q-59 -68 -110 -117
h-5l-8 12q37 36 116 126z" />
    <glyph glyph-name="Ycircumflex" unicode="&#x176;" horiz-adv-x="469" 
d="M231 195l-24 -195h-20l24 195l7 50l-141 392h25l7 -26l120 -334h5l218 334l14 26h26l-254 -390zM302 826h16q60 -52 91 -76l-8 -14h-5q-40 29 -87 70q-47 -35 -103 -70h-5l-5 14q44 28 106 76z" />
    <glyph glyph-name="ycircumflex" unicode="&#x177;" horiz-adv-x="378" 
d="M362 373q0 -49 -39 -115l-143 -243q-65 -111 -122 -160t-114 -49q-34 0 -68 15l-1 20l5 2q37 -17 66 -17q94 0 208 186l-80 438l23 6l12 -74l59 -340h4l134 226q36 60 36 106q0 32 -28 70l1 5l18 6q29 -41 29 -82zM239 648h18q46 -74 86 -126l-11 -12h-5q-39 50 -81 117
q-59 -68 -110 -117h-5l-8 12q37 36 116 126z" />
    <glyph glyph-name="Ydieresis" unicode="&#x178;" horiz-adv-x="469" 
d="M231 195l-24 -195h-20l24 195l7 50l-141 392h25l7 -26l120 -334h5l218 334l14 26h26l-254 -390zM248 781q0 -20 -20 -20t-20 20t20 20t20 -20zM398 781q0 -20 -20 -20t-20 20t20 20t20 -20z" />
    <glyph glyph-name="Zacute" unicode="&#x179;" horiz-adv-x="482" 
d="M34 20h310l65 1l4 -5l-6 -16h-368l-34 -1l2 18l453 600h-300l-55 -1l-4 5l6 17l61 -1h286l35 1l-2 -18zM385 822l-2 -5q-67 -38 -174 -93l-5 3l-7 15q91 44 176 94l5 -2z" />
    <glyph glyph-name="zacute" unicode="&#x17a;" horiz-adv-x="393" 
d="M45 39l27 5q20 0 71 -17q43 -17 69 -17q103 0 112 159l9 1l10 -11q-9 -169 -133 -169q-26 0 -71 17q-50 16 -72 16q-36 0 -61 -28h-3l-9 8l323 429h-200l-42 -1l-2 4l4 17l2 2l46 -2h205l17 12l11 -9zM326 658l-1 -5q-69 -69 -144 -135l-5 1l-11 13q69 58 146 137l5 -1z
" />
    <glyph glyph-name="Zdotaccent" unicode="&#x17b;" horiz-adv-x="482" 
d="M34 20h310l65 1l4 -5l-6 -16h-368l-34 -1l2 18l453 600h-300l-55 -1l-4 5l6 17l61 -1h286l35 1l-2 -18zM302 795q0 -20 -20 -20t-20 20t20 20t20 -20z" />
    <glyph glyph-name="zdotaccent" unicode="&#x17c;" horiz-adv-x="393" 
d="M45 39l27 5q20 0 71 -17q43 -17 69 -17q103 0 112 159l9 1l10 -11q-9 -169 -133 -169q-26 0 -71 17q-50 16 -72 16q-36 0 -61 -28h-3l-9 8l323 429h-200l-42 -1l-2 4l4 17l2 2l46 -2h205l17 12l11 -9zM264 610q0 -20 -20 -20t-20 20t20 20t20 -20z" />
    <glyph glyph-name="Zcaron" unicode="&#x17d;" horiz-adv-x="482" 
d="M34 20h310l65 1l4 -5l-6 -16h-368l-34 -1l2 18l453 600h-300l-55 -1l-4 5l6 17l61 -1h286l35 1l-2 -18zM281 729h-16q-52 45 -92 76l8 14h5q40 -29 87 -70q47 35 103 70h5l5 -14q-37 -24 -105 -76z" />
    <glyph glyph-name="zcaron" unicode="&#x17e;" horiz-adv-x="393" 
d="M45 39l27 5q20 0 71 -17q43 -17 69 -17q103 0 112 159l9 1l10 -11q-9 -169 -133 -169q-26 0 -71 17q-50 16 -72 16q-36 0 -61 -28h-3l-9 8l323 429h-200l-42 -1l-2 4l4 17l2 2l46 -2h205l17 12l11 -9zM237 520h-18q-49 78 -87 126l11 12h5q39 -50 81 -117q59 68 110 117
h5l8 -12q-42 -41 -115 -126z" />
    <glyph glyph-name="florin" unicode="&#x192;" horiz-adv-x="234" 
d="M330 603l-5 -19l-3 -2q-23 9 -53 9q-100 0 -115 -115l-14 -111h114l3 -4l-2 -16h-117l-38 -304q-7 -65 -27 -103t-72 -87l-12 10l1 5q47 46 65 81t25 92l18 146l20 160h-63l-4 4l2 16h67l14 111q7 65 42 100t92 35q24 0 62 -8z" />
    <glyph glyph-name="Ohorn" unicode="&#x1a0;" horiz-adv-x="601" 
d="M616 733q10 -20 10 -47q0 -48 -34 -74.5t-88 -24.5q63 -63 63 -205q0 -115 -36 -202.5t-103.5 -136t-159.5 -48.5q-212 0 -212 270q0 112 35 197t103 132.5t164 47.5q53 0 106 -22q36 -14 55 -14q34 0 60 19.5t26 53.5q0 33 -23 64l2 5q9 5 13 5q9 0 19 -20zM204 577
q-62 -45 -95 -125.5t-33 -185.5q0 -251 194 -251q85 0 148 46t96 127.5t33 186.5q0 247 -195 247q-86 0 -148 -45z" />
    <glyph glyph-name="ohorn" unicode="&#x1a1;" horiz-adv-x="409" 
d="M431.5 557.5q9.5 -10.5 16 -28t6.5 -37.5q0 -38 -26 -63.5t-66 -25.5q-7 0 -23 2q15 -31 15 -91q0 -87 -24 -158.5t-69.5 -115t-106.5 -46.5h-5q-54 4 -75.5 39t-21.5 107q0 85 24.5 157.5t70 116t106.5 44.5h5q28 -2 60 -21q26 -15 46 -15q29 0 50 18t21 47q0 35 -33 71
l2 5q7 5 12 5q6 0 15.5 -10.5zM246 54.5q41 39.5 64 107t23 148.5q0 67 -18.5 97t-61.5 30q-53 0 -94 -39.5t-64 -106.5t-23 -147q0 -68 19 -98.5t62 -30.5q52 0 93 39.5z" />
    <glyph glyph-name="Uhorn" unicode="&#x1af;" horiz-adv-x="593" 
d="M605.5 639q-21.5 -20 -56.5 -22l-39 -305l-10 -83q-11 -111 -72.5 -172t-161.5 -61q-89 0 -137 46.5t-48 133.5q0 29 4 53l13 93l40 315h20l-53 -408q-4 -34 -4 -49q0 -79 42.5 -121.5t121.5 -42.5q91 0 146 55t69 158l51 408h11q30 0 47.5 14.5t17.5 38.5q0 27 -31 61
l2 5q6 5 12 5t15 -10t15.5 -26t6.5 -35q0 -31 -21.5 -51z" />
    <glyph glyph-name="uhorn" unicode="&#x1b0;" horiz-adv-x="456" 
d="M391 439l-44 -333l-9 -106l-25 -4l36 271h-5q-65 -112 -114.5 -179t-98.5 -99h-11q-24 7 -38 30.5t-13 54.5l1 13l43 263l12 101l25 4l-59 -365l-1 -15q-1 -25 10 -42.5t24 -17.5q26 0 90.5 85t142.5 230l4 32l7 90l16 3q80 16 80 66q0 36 -33 70l2 5q8 5 13 5
q6 0 15.5 -10.5t16 -27.5t6.5 -37q0 -67 -93 -87z" />
    <glyph glyph-name="Acaron" unicode="&#x1cd;" horiz-adv-x="524" 
d="M447 0l-6 43l-37 170h-283l-85 -170l-20 -43h-24l319 637h21l138 -637h-23zM318 603h-3l-184 -370h268zM337 729h-16q-52 45 -92 76l8 14h5q40 -29 87 -70q47 35 103 70h5l5 -14q-37 -24 -105 -76z" />
    <glyph glyph-name="acaron" unicode="&#x1ce;" horiz-adv-x="422" 
d="M313 106l-9 -106l-25 -4l36 275h-4q-93 -177 -202 -275h-11q-27 20 -39.5 52t-12.5 89q0 85 26.5 156t78 115t122.5 49h4l65 -5l12 7l5 -3zM149.5 64q35.5 40 82.5 110t91 159l4 29l7 70l-59 5q-63 -1 -110.5 -42.5t-73 -109t-25.5 -144.5q0 -41 7 -67t16.5 -38t16.5 -12
q8 0 43.5 40zM264 520h-18q-49 78 -87 126l11 12h5q39 -50 81 -117q59 68 110 117h5l8 -12q-42 -41 -115 -126z" />
    <glyph glyph-name="Icaron" unicode="&#x1cf;" horiz-adv-x="235" 
d="M100 0h-20l25 195l55 442h20l-55 -442zM186 729h-16q-52 45 -92 76l8 14h5q40 -29 87 -70q47 35 103 70h5l5 -14q-37 -24 -105 -76z" />
    <glyph glyph-name="icaron" unicode="&#x1d0;" horiz-adv-x="203" 
d="M88 0l-27 -4l49 366l6 90l25 4l-46 -350zM141 520h-18q-49 78 -87 126l11 12h5q39 -50 81 -117q59 68 110 117h5l8 -12q-42 -41 -115 -126z" />
    <glyph glyph-name="Ocaron" unicode="&#x1d1;" horiz-adv-x="599" 
d="M513.5 577q54.5 -65 54.5 -186q0 -122 -35.5 -211t-103 -137t-162.5 -48q-102 0 -156.5 67t-54.5 191q0 121 35 208.5t102.5 134t161.5 46.5q104 0 158.5 -65zM205 578q-62 -44 -95 -126.5t-33 -195.5q0 -115 49.5 -178t141.5 -63q87 0 150 45.5t96 129t33 197.5
q0 113 -49 174t-144 61q-87 0 -149 -44zM368 729h-16q-52 45 -92 76l8 14h5q40 -29 87 -70q47 35 103 70h5l5 -14q-37 -24 -105 -76z" />
    <glyph glyph-name="ocaron" unicode="&#x1d2;" horiz-adv-x="396" 
d="M325.5 421q22.5 -33 22.5 -101q0 -91 -24 -163.5t-69 -115.5t-106 -47h-5q-50 3 -73 36.5t-23 103.5q0 91 24.5 164.5t69.5 116t106 43.5h5q50 -4 72.5 -37zM154.5 398q-40.5 -39 -63.5 -107.5t-23 -153.5q0 -62 19.5 -92t60.5 -30q52 0 93 39.5t63.5 108.5t22.5 154
q0 62 -19 91t-60 29q-53 0 -93.5 -39zM243 520h-18q-49 78 -87 126l11 12h5q39 -50 81 -117q59 68 110 117h5l8 -12q-42 -41 -115 -126z" />
    <glyph glyph-name="Ucaron" unicode="&#x1d3;" horiz-adv-x="583" 
d="M500 229q-11 -111 -72.5 -172t-161.5 -61q-89 0 -137 46.5t-48 133.5q0 29 4 53l13 93l40 315h20l-53 -408q-4 -34 -4 -49q0 -79 42.5 -121.5t121.5 -42.5q91 0 146 55t69 158l51 408h20l-41 -325zM354 705h-18q-49 78 -87 126l11 12h5q39 -50 81 -117q59 68 110 117h5
l8 -12q-42 -41 -115 -126z" />
    <glyph glyph-name="ucaron" unicode="&#x1d4;" horiz-adv-x="454" 
d="M347 106l-9 -106l-25 -4l36 271h-5q-65 -112 -114.5 -179t-98.5 -99h-11q-24 7 -38 30.5t-13 54.5l1 13l43 263l12 101l25 4l-59 -365l-1 -15q-1 -25 10 -42.5t24 -17.5q26 0 90.5 85t142.5 230l4 32l7 90l25 4zM267 520h-18q-49 78 -87 126l11 12h5q39 -50 81 -117
q59 68 110 117h5l8 -12q-42 -41 -115 -126z" />
    <glyph glyph-name="Udieresismacron" unicode="&#x1d5;" horiz-adv-x="583" 
d="M500 229q-11 -111 -72.5 -172t-161.5 -61q-89 0 -137 46.5t-48 133.5q0 29 4 53l13 93l40 315h20l-53 -408q-4 -34 -4 -49q0 -79 42.5 -121.5t121.5 -42.5q91 0 146 55t69 158l51 408h20l-41 -325zM496 856h-237l-3 3l2 17h237l3 -3zM318 760q0 -20 -20 -20t-20 20t20 20
t20 -20zM458 760q0 -20 -20 -20t-20 20t20 20t20 -20z" />
    <glyph glyph-name="udieresismacron" unicode="&#x1d6;" horiz-adv-x="454" 
d="M347 106l-9 -106l-25 -4l36 271h-5q-65 -112 -114.5 -179t-98.5 -99h-11q-24 7 -38 30.5t-13 54.5l1 13l43 263l12 101l25 4l-59 -365l-1 -15q-1 -25 10 -42.5t24 -17.5q26 0 90.5 85t142.5 230l4 32l7 90l25 4zM409 671h-237l-3 3l2 17h237l3 -3zM231 575q0 -20 -20 -20
t-20 20t20 20t20 -20zM371 575q0 -20 -20 -20t-20 20t20 20t20 -20z" />
    <glyph glyph-name="Udieresisacute" unicode="&#x1d7;" horiz-adv-x="583" 
d="M500 229q-11 -111 -72.5 -172t-161.5 -61q-89 0 -137 46.5t-48 133.5q0 29 4 53l13 93l40 315h20l-53 -408q-4 -34 -4 -49q0 -79 42.5 -121.5t121.5 -42.5q91 0 146 55t69 158l51 408h20l-41 -325zM468 905l-3 -5q-80 -29 -187 -61l-5 4l-4 16q93 26 190 62l4 -3z
M306 760q0 -20 -20 -20t-20 20t20 20t20 -20zM446 760q0 -20 -20 -20t-20 20t20 20t20 -20z" />
    <glyph glyph-name="udieresisacute" unicode="&#x1d8;" horiz-adv-x="454" 
d="M347 106l-9 -106l-25 -4l36 271h-5q-65 -112 -114.5 -179t-98.5 -99h-11q-24 7 -38 30.5t-13 54.5l1 13l43 263l12 101l25 4l-59 -365l-1 -15q-1 -25 10 -42.5t24 -17.5q26 0 90.5 85t142.5 230l4 32l7 90l25 4zM381 720l-3 -5q-80 -29 -187 -61l-5 4l-4 16q93 26 190 62
l4 -3zM219 575q0 -20 -20 -20t-20 20t20 20t20 -20zM359 575q0 -20 -20 -20t-20 20t20 20t20 -20z" />
    <glyph glyph-name="Udieresiscaron" unicode="&#x1d9;" horiz-adv-x="583" 
d="M500 229q-11 -111 -72.5 -172t-161.5 -61q-89 0 -137 46.5t-48 133.5q0 29 4 53l13 93l40 315h20l-53 -408q-4 -34 -4 -49q0 -79 42.5 -121.5t121.5 -42.5q91 0 146 55t69 158l51 408h20l-41 -325zM365 813h-16q-52 45 -92 76l8 14h5q40 -29 87 -70q47 35 103 70h5l5 -14
q-37 -24 -105 -76zM304 760q0 -20 -20 -20t-20 20t20 20t20 -20zM444 760q0 -20 -20 -20t-20 20t20 20t20 -20z" />
    <glyph glyph-name="udieresiscaron" unicode="&#x1da;" horiz-adv-x="454" 
d="M347 106l-9 -106l-25 -4l36 271h-5q-65 -112 -114.5 -179t-98.5 -99h-11q-24 7 -38 30.5t-13 54.5l1 13l43 263l12 101l25 4l-59 -365l-1 -15q-1 -25 10 -42.5t24 -17.5q26 0 90.5 85t142.5 230l4 32l7 90l25 4zM278 628h-16q-52 45 -92 76l8 14h5q40 -29 87 -70
q47 35 103 70h5l5 -14q-37 -24 -105 -76zM217 575q0 -20 -20 -20t-20 20t20 20t20 -20zM357 575q0 -20 -20 -20t-20 20t20 20t20 -20z" />
    <glyph glyph-name="Udieresisgrave" unicode="&#x1db;" horiz-adv-x="583" 
d="M500 229q-11 -111 -72.5 -172t-161.5 -61q-89 0 -137 46.5t-48 133.5q0 29 4 53l13 93l40 315h20l-53 -408q-4 -34 -4 -49q0 -79 42.5 -121.5t121.5 -42.5q91 0 146 55t69 158l51 408h20l-41 -325zM469 859l-6 -16l-6 -4q-108 34 -179 61l-3 5l7 13l4 3q92 -36 183 -62z
M299 763q0 -10 -6.5 -16.5t-16.5 -6.5q-18 0 -18 17q0 10 6.5 16.5t16.5 6.5q18 0 18 -17zM439 763q0 -10 -6.5 -16.5t-16.5 -6.5q-18 0 -18 17q0 10 6.5 16.5t16.5 6.5q18 0 18 -17z" />
    <glyph glyph-name="udieresisgrave" unicode="&#x1dc;" horiz-adv-x="454" 
d="M347 106l-9 -106l-25 -4l36 271h-5q-65 -112 -114.5 -179t-98.5 -99h-11q-24 7 -38 30.5t-13 54.5l1 13l43 263l12 101l25 4l-59 -365l-1 -15q-1 -25 10 -42.5t24 -17.5q26 0 90.5 85t142.5 230l4 32l7 90l25 4zM382 674l-6 -16l-6 -4q-108 34 -179 61l-3 5l7 13l4 3
q92 -36 183 -62zM212 578q0 -10 -6.5 -16.5t-16.5 -6.5q-18 0 -18 17q0 10 6.5 16.5t16.5 6.5q18 0 18 -17zM352 578q0 -10 -6.5 -16.5t-16.5 -6.5q-18 0 -18 17q0 10 6.5 16.5t16.5 6.5q18 0 18 -17z" />
    <glyph glyph-name="Oogonek" unicode="&#x1ea;" horiz-adv-x="599" 
d="M302 -131q0 -21 12 -33.5t33 -12.5q42 0 81 53h2l11 -16q-44 -57 -94 -57q-29 0 -47 17.5t-18 46.5q0 30 21 61l53 79q-42 -12 -89 -12q-102 0 -156.5 67t-54.5 191q0 121 35 208.5t102.5 134t161.5 46.5q104 0 158.5 -65t54.5 -186q0 -141 -46.5 -237t-134.5 -135
l-65 -97q-20 -29 -20 -53zM126.5 78q49.5 -63 141.5 -63q87 0 150 45.5t96 129t33 197.5q0 113 -49 174t-144 61q-87 0 -149 -44t-95 -126.5t-33 -195.5q0 -115 49.5 -178z" />
    <glyph glyph-name="oogonek" unicode="&#x1eb;" horiz-adv-x="412" 
d="M298 -141q-44 -57 -94 -57q-29 0 -47 17.5t-18 46.5t21 61l60 88q-33 -18 -71 -21h-5q-50 3 -73 36.5t-23 103.5q0 91 24.5 164.5t69.5 116t106 43.5h5q50 -4 72.5 -37t22.5 -101q0 -90 -23.5 -162t-66.5 -115l6 4l-85 -126q-20 -31 -20 -53q0 -21 12 -33.5t33 -12.5
q42 0 81 53h2zM241 54.5q41 39.5 63.5 108.5t22.5 154q0 62 -19 91t-60 29q-53 0 -93.5 -39t-63.5 -107.5t-23 -153.5q0 -62 19.5 -92t60.5 -30q52 0 93 39.5z" />
    <glyph glyph-name="Aringacute" unicode="&#x1fa;" horiz-adv-x="524" 
d="M258 792q99 28 189 62l5 -3l5 -13l-3 -4q-69 -25 -188 -62l-4 4zM447 0l-7 43l-37 170h-283l-85 -170l-19 -43h-24l311 618q-21 7 -34 24.5t-13 41.5q0 30 19.5 49.5t50.5 19.5q33 0 52 -21t19 -49t-17.5 -46t-42.5 -22l133 -615h-23zM290.5 647.5q14.5 -13.5 35.5 -13.5
t36 13t15 36q0 21 -13.5 35.5t-37.5 14.5q-23 0 -36.5 -13.5t-13.5 -35.5q0 -23 14.5 -36.5zM318 603h-3l-185 -370h269z" />
    <glyph glyph-name="aringacute" unicode="&#x1fb;" horiz-adv-x="422" 
d="M313 106l-9 -106l-25 -4l36 275h-4q-93 -177 -202 -275h-11q-27 20 -39.5 52t-12.5 89q0 85 26.5 156t78 115t122.5 49h4l65 -5l12 7l5 -3zM149.5 64q35.5 40 82.5 110t91 159l4 29l7 70l-59 5q-63 -1 -110.5 -42.5t-73 -109t-25.5 -144.5q0 -41 7 -67t16.5 -38t16.5 -12
q8 0 43.5 40zM392 731l-3 -4q-69 -25 -188 -62l-4 4l-4 16q99 28 189 62l5 -3zM313 625q19 -21 19 -49q0 -31 -21.5 -50t-49.5 -19t-49 19.5t-21 50.5q0 30 19.5 49.5t50.5 19.5q33 0 52 -21zM224.5 612.5q-13.5 -13.5 -13.5 -35.5q0 -23 14.5 -36.5t35.5 -13.5t36 13t15 36
q0 21 -13.5 35.5t-37.5 14.5q-23 0 -36.5 -13.5z" />
    <glyph glyph-name="AEacute" unicode="&#x1fc;" horiz-adv-x="744" 
d="M689 0h-286v43l-8 247l-249 -43l-135 -204l-26 -43h-27l426 637h285l2 -4l-7 -16h-258l9 -304l227 39l2 -3l-5 -17l-224 -38l8 -274h271l1 -4zM385 602h-3l-220 -332l232 40zM638 822l-2 -5q-67 -38 -174 -93l-5 3l-7 15q91 44 176 94l5 -2z" />
    <glyph glyph-name="aeacute" unicode="&#x1fd;" horiz-adv-x="572" 
d="M465 457h5q75 -6 75 -69q0 -57 -64 -111t-190 -101l-1 -28q0 -68 19.5 -100t59.5 -32q75 0 131 102h7l9 -13q-30 -50 -64.5 -77t-80.5 -33h-9q-49 6 -70.5 41.5t-21.5 106.5q0 50 7 89q-77 -150 -161 -236h-11q-27 20 -39.5 52t-12.5 89q0 85 26.5 156t78 115t122.5 49h4
l102 -26q37 24 79 26zM171.5 394.5q-47.5 -41.5 -73 -109t-25.5 -144.5q0 -41 7 -67t16.5 -38t16.5 -12q8 0 41 42t75.5 113t79.5 156q25 50 57 79l-84 23q-63 -1 -110.5 -42.5zM386.5 405.5q-37.5 -30.5 -62 -84.5t-31.5 -123q111 41 171 90t60 97q0 23 -14.5 37t-42.5 14
q-43 0 -80.5 -30.5zM450 658l-1 -5q-69 -69 -144 -135l-5 1l-11 13q69 58 146 137l5 -1z" />
    <glyph glyph-name="Oslashacute" unicode="&#x1fe;" horiz-adv-x="600" 
d="M568 391q0 -122 -35.5 -211t-103 -137t-162.5 -48q-61 0 -105 24l-60 -106l-15 3l-2 4l61 109q-90 63 -90 224q0 121 35 208.5t102.5 134t161.5 46.5q71 0 118 -30l55 97l16 -3l1 -5l-56 -100q79 -64 79 -210zM157 48l306 545q-44 29 -109 29q-87 0 -149 -44t-95 -126.5
t-33 -195.5q0 -148 80 -208zM418 60.5q63 45.5 96 129t33 197.5q0 137 -69 195l-306 -544q41 -23 96 -23q87 0 150 45.5zM472 822l-2 -5q-67 -38 -174 -93l-5 3l-7 15q91 44 176 94l5 -2z" />
    <glyph glyph-name="oslashacute" unicode="&#x1ff;" horiz-adv-x="396" 
d="M348 320q0 -91 -24 -163.5t-69 -115.5t-106 -47h-5q-17 1 -32 6l-46 -107l-15 3l-2 4l47 107q-48 29 -48 127q0 91 24.5 164.5t69.5 116t106 43.5h5q22 -2 35 -8l35 80l15 -2l2 -5l-35 -81q43 -29 43 -122zM104 27l176 404q-13 6 -32 6q-53 0 -93.5 -39t-63.5 -107.5
t-23 -153.5t36 -110zM241 54.5q41 39.5 63.5 108.5t22.5 154q0 78 -31 105l-175 -403q11 -4 27 -4q52 0 93 39.5zM349 658l-1 -5q-69 -69 -144 -135l-5 1l-11 13q69 58 146 137l5 -1z" />
    <glyph glyph-name="Scommaaccent" unicode="&#x218;" horiz-adv-x="423" 
d="M398 611l-6 -18l-7 -1q-46 28 -104 28q-48 0 -86 -20.5t-59 -53.5t-21 -69q0 -33 16 -58t38.5 -42.5t62.5 -41.5q44 -26 70 -46t44 -50.5t18 -71.5q0 -46 -26.5 -85.5t-72 -62.5t-99.5 -23q-37 0 -74 12t-64 35l3 19l6 2q26 -24 61 -36t70 -12q50 0 90.5 21t63 55
t22.5 73q0 35 -16.5 61.5t-40 44.5t-64.5 43q-43 27 -68 46t-42.5 48.5t-17.5 69.5q0 45 25 82t68 58.5t96 21.5q61 0 114 -29zM204 -119q0 -42 -66 -93l-10 11l1 3q54 40 54 78q0 20 -30 34v4q5 7 13 11q38 -17 38 -48z" />
    <glyph glyph-name="scommaaccent" unicode="&#x219;" horiz-adv-x="306" 
d="M279 435l-7 -19l-6 -1q-34 20 -69 20q-31 0 -56.5 -14t-40 -36.5t-14.5 -46.5q0 -28 18 -48.5t56 -49.5q43 -32 64 -57t21 -63q0 -34 -18.5 -62.5t-52.5 -46t-78 -17.5q-48 7 -86 34l3 18l7 4q41 -35 88 -35q50 0 83 30t33 72q0 33 -19.5 55.5t-58.5 51.5t-59.5 53
t-20.5 59q0 51 40.5 85.5t100.5 33.5q42 -4 72 -20zM149 -119q0 -42 -66 -93l-10 11l1 3q54 40 54 78q0 20 -30 34v4q5 7 13 11q38 -17 38 -48z" />
    <glyph glyph-name="uni021A" unicode="&#x21a;" horiz-adv-x="450" 
d="M468 617h-183l-54 -422l-24 -195h-20l24 195l54 422h-185l-3 4l6 16h388l3 -4zM218 -119q0 -42 -66 -93l-10 11l1 3q54 40 54 78q0 20 -30 34v4q5 7 13 11q38 -17 38 -48z" />
    <glyph glyph-name="uni021B" unicode="&#x21b;" horiz-adv-x="316" 
d="M104 67q0 -24 11 -37.5t29 -13.5q20 0 47.5 26.5t55.5 77.5h7l9 -13q-33 -53 -60 -80t-58 -37h-10q-24 6 -37.5 25.5t-13.5 48.5l2 22l47 276l10 67h-71l-4 4l3 16h75l19 131l22 10l3 -3l-23 -138h144l3 -4l-3 -16h-148l-57 -342zM179 -119q0 -42 -66 -93l-10 11l1 3
q54 40 54 78q0 20 -30 34v4q5 7 13 11q38 -17 38 -48z" />
    <glyph glyph-name="dotlessj" unicode="&#x237;" horiz-adv-x="212" 
d="M105 93l-11 -75q-10 -80 -36.5 -124.5t-86.5 -85.5l-11 11l1 6q55 37 78 76t32 107l49 358l5 63h-83l-4 4l4 16h87l19 3l2 -1z" />
    <glyph glyph-name="circumflex" unicode="&#x2c6;" 
d="M237 648h18q46 -74 86 -126l-11 -12h-5q-39 50 -81 117q-59 -68 -110 -117h-5l-8 12q37 36 116 126z" />
    <glyph glyph-name="caron" unicode="&#x2c7;" 
d="M242 520h-18q-49 78 -87 126l11 12h5q39 -50 81 -117q59 68 110 117h5l8 -12q-42 -41 -115 -126z" />
    <glyph glyph-name="firsttonechinese" unicode="&#x2c9;" 
d="M383 587h-287l-3 3l2 17h287l3 -3z" />
    <glyph glyph-name="breve" unicode="&#x2d8;" 
d="M232 522q-42 0 -63 25.5t-25 79.5l15 13h5q1 -50 18 -74t53 -24q69 0 94 98h5l12 -13q-32 -105 -114 -105z" />
    <glyph glyph-name="dotaccent" unicode="&#x2d9;" 
d="M261 610q0 -20 -20 -20t-20 20t20 20t20 -20z" />
    <glyph glyph-name="ring" unicode="&#x2da;" 
d="M291 647q19 -21 19 -49q0 -31 -21.5 -50t-49.5 -19t-49 19.5t-21 50.5q0 30 19.5 49.5t50.5 19.5q33 0 52 -21zM202.5 634.5q-13.5 -13.5 -13.5 -35.5q0 -23 14.5 -36.5t35.5 -13.5t36 13t15 36q0 21 -13.5 35.5t-37.5 14.5q-23 0 -36.5 -13.5z" />
    <glyph glyph-name="ogonek" unicode="&#x2db;" 
d="M91 -131q0 -21 12 -33.5t33 -12.5q42 0 81 53h2l11 -16q-44 -57 -94 -57q-29 0 -47 17.5t-18 46.5q0 30 21 61l61 92h24l-66 -98q-20 -29 -20 -53z" />
    <glyph glyph-name="tilde" unicode="&#x2dc;" 
d="M379 616l-52 -47l-6 -2q-20 2 -81 20q-64 18 -75 18q-8 0 -30 -22l-21 -19h-4l-9 11v4l52 47l6 2q20 -2 81 -20q64 -18 75 -18q8 0 30 22l21 19h4l9 -11v-4z" />
    <glyph glyph-name="hungarumlaut" unicode="&#x2dd;" 
d="M240 667l5 -1l10 -10l-1 -5q-70 -69 -144 -135l-5 1l-11 13q77 68 146 137zM370 667l5 -1l10 -10l-1 -5q-70 -69 -144 -135l-5 1l-11 13q77 68 146 137z" />
    <glyph glyph-name="tildecomb" unicode="&#x303;" horiz-adv-x="0" 
d="M379 616l-53 -48l-6 -2q-24 3 -81 21q-62 18 -74 18q-8 0 -30 -22l-21 -19h-4l-9 11v4l53 48l6 2q24 -3 81 -21q62 -18 74 -18q8 0 30 22l21 19h4l9 -11v-4z" />
    <glyph glyph-name="dotbelowcomb" unicode="&#x323;" horiz-adv-x="0" 
d="M174 -107q0 -20 -20 -20t-20 20t20 20t20 -20z" />
    <glyph glyph-name="commaaccentcomb" unicode="&#x326;" horiz-adv-x="0" 
d="M184 -119q0 -42 -66 -93l-10 11l1 3q54 40 54 78q0 20 -30 34v4q5 7 13 11q38 -17 38 -48z" />
    <glyph glyph-name="Delta" unicode="&#x394;" horiz-adv-x="524" 
d="M-8 0l318 637h21l139 -637h-478zM23 20h422l-126 583h-4z" />
    <glyph glyph-name="Omega" unicode="&#x3a9;" horiz-adv-x="693" 
d="M562 579.5q56 -62.5 56 -178.5q0 -120 -50.5 -218.5t-141.5 -159.5l-1 -3h119l72 1l3 -4l-6 -18l-78 1h-114l-38 -1l-2 2l2 16q102 60 158 159t56 222q0 108 -50.5 166t-145.5 58q-85 0 -146.5 -39t-94 -112.5t-32.5 -174.5q0 -89 34.5 -162t97.5 -117l-2 -16l-2 -2
l-37 1h-121l-72 -1l-3 4l6 18l76 -1h114l1 3q-54 44 -83 114.5t-29 155.5q0 164 77 256.5t217 92.5q104 0 160 -62.5z" />
    <glyph glyph-name="mu" unicode="&#x3bc;" horiz-adv-x="458" 
d="M350 106l-9 -106l-25 -4l36 271h-5q-65 -112 -114.5 -179t-98.5 -99h-11q-26 8 -38 30l-13 -103l-9 -106l-25 -4l72 556l6 90l25 4l-49 -381q-3 -26 9 -43t26 -17q26 0 90.5 85t142.5 230l4 32l7 90l25 4z" />
    <glyph glyph-name="pi" unicode="&#x3c0;" horiz-adv-x="566" 
d="M383 56q0 -39 29 -39q24 0 43 15l5 -3l-6 -18q-22 -14 -46 -14q-44 0 -44 53q0 18 2 29l49 392h-207l-72 -569h-20l72 569h-59q-14 0 -77 -52h-6l-6 9l1 5l70 55l15 3h432l3 -4l-6 -16h-120l-50 -392q-2 -18 -2 -23z" />
    <glyph glyph-name="Wgrave" unicode="&#x1e80;" horiz-adv-x="834" 
d="M539 0l-91 438h-4l-213 -438h-22l-135 637h23l7 -43l119 -560h4l213 437l-36 166h22l7 -43l118 -560h4l276 560l19 43h23l-314 -637h-20zM558 742l-7 -15l-5 -3q-107 55 -174 93l-2 5l7 12l5 2q85 -50 176 -94z" />
    <glyph glyph-name="wgrave" unicode="&#x1e81;" horiz-adv-x="658" 
d="M428 0l-50 418h-4l-203 -418h-26l-55 450l22 5l4 -46l46 -379h4l182 379l21 43h24l4 -43l46 -379h4l137 238q38 66 38 106q0 32 -28 70l1 5l18 6q29 -41 29 -82q0 -46 -41 -115l-153 -258h-20zM445 532l-11 -13l-5 -1q-75 66 -144 135l-1 5l10 10l5 1q77 -79 146 -137z
" />
    <glyph glyph-name="Wacute" unicode="&#x1e82;" horiz-adv-x="834" 
d="M539 0l-91 438h-4l-213 -438h-22l-135 637h23l7 -43l119 -560h4l213 437l-36 166h22l7 -43l118 -560h4l276 560l19 43h23l-314 -637h-20zM569 822l-2 -5q-67 -38 -174 -93l-5 3l-7 15q91 44 176 94l5 -2z" />
    <glyph glyph-name="wacute" unicode="&#x1e83;" horiz-adv-x="658" 
d="M428 0l-50 418h-4l-203 -418h-26l-55 450l22 5l4 -46l46 -379h4l182 379l21 43h24l4 -43l46 -379h4l137 238q38 66 38 106q0 32 -28 70l1 5l18 6q29 -41 29 -82q0 -46 -41 -115l-153 -258h-20zM458 658l-1 -5q-69 -69 -144 -135l-5 1l-11 13q69 58 146 137l5 -1z" />
    <glyph glyph-name="Wdieresis" unicode="&#x1e84;" horiz-adv-x="834" 
d="M539 0l-91 438h-4l-213 -438h-22l-135 637h23l7 -43l119 -560h4l213 437l-36 166h22l7 -43l118 -560h4l276 560l19 43h23l-314 -637h-20zM410 781q0 -20 -20 -20t-20 20t20 20t20 -20zM560 781q0 -20 -20 -20t-20 20t20 20t20 -20z" />
    <glyph glyph-name="wdieresis" unicode="&#x1e85;" horiz-adv-x="658" 
d="M428 0l-50 418h-4l-203 -418h-26l-55 450l22 5l4 -46l46 -379h4l182 379l21 43h24l4 -43l46 -379h4l137 238q38 66 38 106q0 32 -28 70l1 5l18 6q29 -41 29 -82q0 -46 -41 -115l-153 -258h-20zM320 596q0 -20 -20 -20t-20 20t20 20t20 -20zM470 596q0 -20 -20 -20t-20 20
t20 20t20 -20z" />
    <glyph glyph-name="uni1E9E" unicode="&#x1e9e;" horiz-adv-x="564" 
d="M523 586l2 -11l-209 -231q97 -11 148 -52t51 -109q0 -53 -25.5 -96t-69 -67t-94.5 -24q-37 0 -76 12.5t-66 34.5l5 19l5 2q25 -23 61.5 -35.5t71.5 -12.5q47 0 85.5 22.5t60.5 60t22 81.5q0 127 -206 145l-1 15l211 235q-78 45 -159 45q-83 0 -139.5 -51t-66.5 -135
l-30 -238l-25 -196h-20l25 190l30 243q8 61 39.5 108t80.5 73t109 26q87 0 180 -54z" />
    <glyph glyph-name="Adotbelow" unicode="&#x1ea0;" horiz-adv-x="524" 
d="M447 0l-6 43l-37 170h-283l-85 -170l-20 -43h-24l319 637h21l138 -637h-23zM318 603h-3l-184 -370h268zM236 -107q0 -20 -20 -20t-20 20t20 20t20 -20z" />
    <glyph glyph-name="adotbelow" unicode="&#x1ea1;" horiz-adv-x="422" 
d="M313 106l-9 -106l-25 -4l36 275h-4q-93 -177 -202 -275h-11q-27 20 -39.5 52t-12.5 89q0 85 26.5 156t78 115t122.5 49h4l65 -5l12 7l5 -3zM149.5 64q35.5 40 82.5 110t91 159l4 29l7 70l-59 5q-63 -1 -110.5 -42.5t-73 -109t-25.5 -144.5q0 -41 7 -67t16.5 -38t16.5 -12
q8 0 43.5 40zM209 -107q0 -20 -20 -20t-20 20t20 20t20 -20z" />
    <glyph glyph-name="Ahookabove" unicode="&#x1ea2;" horiz-adv-x="524" 
d="M447 0l-6 43l-37 170h-283l-85 -170l-20 -43h-24l319 637h21l138 -637h-23zM318 603h-3l-184 -370h268zM357.5 851q12.5 -11 12.5 -27q0 -29 -48 -65l16 -29l-17 -7l-22 41q51 34 51 58q0 20 -26 20t-54 -23l-8 14q34 29 64 29q19 0 31.5 -11z" />
    <glyph glyph-name="ahookabove" unicode="&#x1ea3;" horiz-adv-x="422" 
d="M313 106l-9 -106l-25 -4l36 275h-4q-93 -177 -202 -275h-11q-27 20 -39.5 52t-12.5 89q0 85 26.5 156t78 115t122.5 49h4l65 -5l12 7l5 -3zM149.5 64q35.5 40 82.5 110t91 159l4 29l7 70l-59 5q-63 -1 -110.5 -42.5t-73 -109t-25.5 -144.5q0 -41 7 -67t16.5 -38t16.5 -12
q8 0 43.5 40zM290.5 666q12.5 -11 12.5 -27q0 -29 -48 -65l16 -29l-17 -7l-22 41q51 34 51 58q0 20 -26 20t-54 -23l-8 14q34 29 64 29q19 0 31.5 -11z" />
    <glyph glyph-name="Acircumflexacute" unicode="&#x1ea4;" horiz-adv-x="524" 
d="M447 0l-6 43l-37 170h-283l-85 -170l-20 -43h-24l319 637h21l138 -637h-23zM318 603h-3l-184 -370h268zM467 886l-1 -5l-68 -76h-6l-11 11l70 80l5 -1zM435 731l-8 -14h-5q-40 29 -87 70q-47 -35 -103 -70h-5l-5 14q44 28 106 76h16q60 -52 91 -76z" />
    <glyph glyph-name="acircumflexacute" unicode="&#x1ea5;" horiz-adv-x="422" 
d="M313 106l-9 -106l-25 -4l36 275h-4q-93 -177 -202 -275h-11q-27 20 -39.5 52t-12.5 89q0 85 26.5 156t78 115t122.5 49h4l65 -5l12 7l5 -3zM149.5 64q35.5 40 82.5 110t91 159l4 29l7 70l-59 5q-63 -1 -110.5 -42.5t-73 -109t-25.5 -144.5q0 -41 7 -67t16.5 -38t16.5 -12
q8 0 43.5 40zM400 701l-1 -5l-68 -76h-6l-11 11l70 80l5 -1zM368 546l-8 -14h-5q-40 29 -87 70q-47 -35 -103 -70h-5l-5 14q44 28 106 76h16q60 -52 91 -76z" />
    <glyph glyph-name="Acircumflexgrave" unicode="&#x1ea6;" horiz-adv-x="524" 
d="M447 0l-6 43l-37 170h-283l-85 -170l-20 -43h-24l319 637h21l138 -637h-23zM318 603h-3l-184 -370h268zM437 804h-6l-68 76l-1 5l11 9l5 1l70 -80zM437 732l-8 -14h-5q-40 29 -87 70q-47 -35 -103 -70h-5l-5 14q44 28 106 76h16q60 -52 91 -76z" />
    <glyph glyph-name="acircumflexgrave" unicode="&#x1ea7;" horiz-adv-x="422" 
d="M313 106l-9 -106l-25 -4l36 275h-4q-93 -177 -202 -275h-11q-27 20 -39.5 52t-12.5 89q0 85 26.5 156t78 115t122.5 49h4l65 -5l12 7l5 -3zM149.5 64q35.5 40 82.5 110t91 159l4 29l7 70l-59 5q-63 -1 -110.5 -42.5t-73 -109t-25.5 -144.5q0 -41 7 -67t16.5 -38t16.5 -12
q8 0 43.5 40zM370 619h-6l-68 76l-1 5l11 9l5 1l70 -80zM370 547l-8 -14h-5q-40 29 -87 70q-47 -35 -103 -70h-5l-5 14q44 28 106 76h16q60 -52 91 -76z" />
    <glyph glyph-name="Acircumflexhookabove" unicode="&#x1ea8;" horiz-adv-x="524" 
d="M447 0l-6 43l-37 170h-283l-85 -170l-20 -43h-24l319 637h21l138 -637h-23zM318 603h-3l-184 -370h268zM446 911q12 -11 12 -26q0 -28 -46 -62l15 -27l-16 -7l-21 39q49 32 49 55q0 19 -25 19t-51 -21l-8 13q33 28 61 28q18 0 30 -11zM435 732l-8 -14h-5q-40 29 -87 70
q-47 -35 -103 -70h-5l-5 14q44 28 106 76h16q60 -52 91 -76z" />
    <glyph glyph-name="acircumflexhookabove" unicode="&#x1ea9;" horiz-adv-x="422" 
d="M313 106l-9 -106l-25 -4l36 275h-4q-93 -177 -202 -275h-11q-27 20 -39.5 52t-12.5 89q0 85 26.5 156t78 115t122.5 49h4l65 -5l12 7l5 -3zM149.5 64q35.5 40 82.5 110t91 159l4 29l7 70l-59 5q-63 -1 -110.5 -42.5t-73 -109t-25.5 -144.5q0 -41 7 -67t16.5 -38t16.5 -12
q8 0 43.5 40zM379 726q12 -11 12 -26q0 -28 -46 -62l15 -27l-16 -7l-21 39q49 32 49 55q0 19 -25 19t-51 -21l-8 13q33 28 61 28q18 0 30 -11zM368 547l-8 -14h-5q-40 29 -87 70q-47 -35 -103 -70h-5l-5 14q44 28 106 76h16q60 -52 91 -76z" />
    <glyph glyph-name="Acircumflextilde" unicode="&#x1eaa;" horiz-adv-x="524" 
d="M447 0l-6 43l-37 170h-283l-85 -170l-20 -43h-24l319 637h21l138 -637h-23zM318 603h-3l-184 -370h268zM491 892l-50 -47l-5 -2q-18 2 -78 20t-71 18q-7 0 -30 -23l-18 -18h-4l-9 11v4l50 47l5 2q18 -2 78 -20t71 -18q7 0 30 23l18 18h4l9 -11v-4zM435 735l-8 -14h-5
q-40 29 -87 70q-47 -35 -103 -70h-5l-5 14q44 28 106 76h16q60 -52 91 -76z" />
    <glyph glyph-name="acircumflextilde" unicode="&#x1eab;" horiz-adv-x="422" 
d="M313 106l-9 -106l-25 -4l36 275h-4q-93 -177 -202 -275h-11q-27 20 -39.5 52t-12.5 89q0 85 26.5 156t78 115t122.5 49h4l65 -5l12 7l5 -3zM149.5 64q35.5 40 82.5 110t91 159l4 29l7 70l-59 5q-63 -1 -110.5 -42.5t-73 -109t-25.5 -144.5q0 -41 7 -67t16.5 -38t16.5 -12
q8 0 43.5 40zM424 707l-50 -47l-5 -2q-18 2 -78 20t-71 18q-7 0 -30 -23l-18 -18h-4l-9 11v4l50 47l5 2q18 -2 78 -20t71 -18q7 0 30 23l18 18h4l9 -11v-4zM368 550l-8 -14h-5q-40 29 -87 70q-47 -35 -103 -70h-5l-5 14q44 28 106 76h16q60 -52 91 -76z" />
    <glyph glyph-name="Acircumflexdotbelow" unicode="&#x1eac;" horiz-adv-x="524" 
d="M230 750q44 28 106 76h16q60 -52 91 -76l-8 -14h-5q-40 29 -87 70q-47 -35 -103 -70h-5zM447 0l-6 43l-37 170h-283l-85 -170l-20 -43h-24l319 637h21l138 -637h-23zM318 603h-3l-184 -370h268zM236 -107q0 -20 -20 -20t-20 20t20 20t20 -20z" />
    <glyph glyph-name="acircumflexdotbelow" unicode="&#x1ead;" horiz-adv-x="422" 
d="M385 522l-11 -12h-5q-39 50 -81 117q-59 -68 -110 -117h-5l-8 12q37 36 116 126h18q46 -74 86 -126zM359 456l-46 -350l-9 -106l-25 -4l36 275h-4q-93 -177 -202 -275h-11q-27 20 -39.5 52t-12.5 89q0 85 26.5 156t78 115t122.5 49h4l65 -5l12 7zM149.5 64
q35.5 40 82.5 110t91 159l4 29l7 70l-59 5q-63 -1 -110.5 -42.5t-73 -109t-25.5 -144.5q0 -41 7 -67t16.5 -38t16.5 -12q8 0 43.5 40zM209 -107q0 -20 -20 -20t-20 20t20 20t20 -20z" />
    <glyph glyph-name="Abreveacute" unicode="&#x1eae;" horiz-adv-x="524" 
d="M447 0l-6 43l-37 170h-283l-85 -170l-20 -43h-24l319 637h21l138 -637h-23zM318 603h-3l-184 -370h268zM400 881q-30 -35 -61 -67l-20 -21l-5 1l-12 12q26 27 83 90h5l11 -10zM327 708q-37 0 -61.5 19t-30.5 55l14 11h5q8 -65 74 -65t91 65h5l12 -11q-32 -74 -109 -74z
" />
    <glyph glyph-name="abreveacute" unicode="&#x1eaf;" horiz-adv-x="422" 
d="M313 106l-9 -106l-25 -4l36 275h-4q-93 -177 -202 -275h-11q-27 20 -39.5 52t-12.5 89q0 85 26.5 156t78 115t122.5 49h4l65 -5l12 7l5 -3zM149.5 64q35.5 40 82.5 110t91 159l4 29l7 70l-59 5q-63 -1 -110.5 -42.5t-73 -109t-25.5 -144.5q0 -41 7 -67t16.5 -38t16.5 -12
q8 0 43.5 40zM333 696q-30 -35 -61 -67l-20 -21l-5 1l-12 12q26 27 83 90h5l11 -10zM260 523q-37 0 -61.5 19t-30.5 55l14 11h5q8 -65 74 -65t91 65h5l12 -11q-32 -74 -109 -74z" />
    <glyph glyph-name="Abrevegrave" unicode="&#x1eb0;" horiz-adv-x="524" 
d="M447 0l-6 43l-37 170h-283l-85 -170l-20 -43h-24l319 637h21l138 -637h-23zM318 603h-3l-184 -370h268zM340 793l-20 21q-31 32 -61 67l-1 5l11 10h5q57 -63 83 -90l-12 -12zM327 709q-37 0 -61.5 19t-30.5 55l14 11h5q8 -65 74 -65t91 65h5l12 -11q-32 -74 -109 -74z
" />
    <glyph glyph-name="abrevegrave" unicode="&#x1eb1;" horiz-adv-x="422" 
d="M313 106l-9 -106l-25 -4l36 275h-4q-93 -177 -202 -275h-11q-27 20 -39.5 52t-12.5 89q0 85 26.5 156t78 115t122.5 49h4l65 -5l12 7l5 -3zM149.5 64q35.5 40 82.5 110t91 159l4 29l7 70l-59 5q-63 -1 -110.5 -42.5t-73 -109t-25.5 -144.5q0 -41 7 -67t16.5 -38t16.5 -12
q8 0 43.5 40zM273 608l-20 21q-31 32 -61 67l-1 5l11 10h5q57 -63 83 -90l-12 -12zM260 524q-37 0 -61.5 19t-30.5 55l14 11h5q8 -65 74 -65t91 65h5l12 -11q-32 -74 -109 -74z" />
    <glyph glyph-name="Abrevehookabove" unicode="&#x1eb2;" horiz-adv-x="524" 
d="M447 0l-6 43l-37 170h-283l-85 -170l-20 -43h-24l319 637h21l138 -637h-23zM318 603h-3l-184 -370h268zM369.5 921q12.5 -11 12.5 -27q0 -29 -48 -65l16 -29l-17 -7l-22 41q51 34 51 58q0 20 -26 20t-54 -23l-8 14q34 29 64 29q19 0 31.5 -11zM327 708q-37 0 -61.5 19
t-30.5 55l14 11h5q8 -65 74 -65t91 65h5l12 -11q-32 -74 -109 -74z" />
    <glyph glyph-name="abrevehookabove" unicode="&#x1eb3;" horiz-adv-x="422" 
d="M313 106l-9 -106l-25 -4l36 275h-4q-93 -177 -202 -275h-11q-27 20 -39.5 52t-12.5 89q0 85 26.5 156t78 115t122.5 49h4l65 -5l12 7l5 -3zM149.5 64q35.5 40 82.5 110t91 159l4 29l7 70l-59 5q-63 -1 -110.5 -42.5t-73 -109t-25.5 -144.5q0 -41 7 -67t16.5 -38t16.5 -12
q8 0 43.5 40zM302.5 736q12.5 -11 12.5 -27q0 -29 -48 -65l16 -29l-17 -7l-22 41q51 34 51 58q0 20 -26 20t-54 -23l-8 14q34 29 64 29q19 0 31.5 -11zM260 523q-37 0 -61.5 19t-30.5 55l14 11h5q8 -65 74 -65t91 65h5l12 -11q-32 -74 -109 -74z" />
    <glyph glyph-name="Abrevetilde" unicode="&#x1eb4;" horiz-adv-x="524" 
d="M447 0l-6 43l-37 170h-283l-85 -170l-20 -43h-24l319 637h21l138 -637h-23zM318 603h-3l-184 -370h268zM485 892l-50 -47l-5 -2q-18 2 -78 20t-71 18q-7 0 -30 -23l-18 -18h-4l-9 11v4l50 47l5 2q18 -2 78 -20t71 -18q7 0 30 23l18 18h4l9 -11v-4zM324 708
q-37 0 -61.5 19t-30.5 55l14 11h5q8 -65 74 -65t91 65h5l12 -11q-32 -74 -109 -74z" />
    <glyph glyph-name="abrevetilde" unicode="&#x1eb5;" horiz-adv-x="422" 
d="M313 106l-9 -106l-25 -4l36 275h-4q-93 -177 -202 -275h-11q-27 20 -39.5 52t-12.5 89q0 85 26.5 156t78 115t122.5 49h4l65 -5l12 7l5 -3zM149.5 64q35.5 40 82.5 110t91 159l4 29l7 70l-59 5q-63 -1 -110.5 -42.5t-73 -109t-25.5 -144.5q0 -41 7 -67t16.5 -38t16.5 -12
q8 0 43.5 40zM418 707l-50 -47l-5 -2q-18 2 -78 20t-71 18q-7 0 -30 -23l-18 -18h-4l-9 11v4l50 47l5 2q18 -2 78 -20t71 -18q7 0 30 23l18 18h4l9 -11v-4zM257 523q-37 0 -61.5 19t-30.5 55l14 11h5q8 -65 74 -65t91 65h5l12 -11q-32 -74 -109 -74z" />
    <glyph glyph-name="Abrevedotbelow" unicode="&#x1eb6;" horiz-adv-x="524" 
d="M265.5 747q-24.5 19 -30.5 55l14 11h5q8 -65 74 -65t91 65h5l12 -11q-32 -74 -109 -74q-37 0 -61.5 19zM447 0l-6 43l-37 170h-283l-85 -170l-20 -43h-24l319 637h21l138 -637h-23zM318 603h-3l-184 -370h268zM236 -107q0 -20 -20 -20t-20 20t20 20t20 -20z" />
    <glyph glyph-name="abrevedotbelow" unicode="&#x1eb7;" horiz-adv-x="422" 
d="M200 547.5q-21 25.5 -25 79.5l15 13h5q1 -50 18 -74t53 -24q69 0 94 98h5l12 -13q-32 -105 -114 -105q-42 0 -63 25.5zM359 456l-46 -350l-9 -106l-25 -4l36 275h-4q-93 -177 -202 -275h-11q-27 20 -39.5 52t-12.5 89q0 85 26.5 156t78 115t122.5 49h4l65 -5l12 7z
M149.5 64q35.5 40 82.5 110t91 159l4 29l7 70l-59 5q-63 -1 -110.5 -42.5t-73 -109t-25.5 -144.5q0 -41 7 -67t16.5 -38t16.5 -12q8 0 43.5 40zM209 -107q0 -20 -20 -20t-20 20t20 20t20 -20z" />
    <glyph glyph-name="Edotbelow" unicode="&#x1eb8;" horiz-adv-x="432" 
d="M143 340h223l3 -4l-6 -16h-222l-16 -125l-22 -175h273l3 -4l-6 -16h-293l25 195l55 442h291l2 -4l-6 -16h-269zM258 -107q0 -20 -20 -20t-20 20t20 20t20 -20z" />
    <glyph glyph-name="edotbelow" unicode="&#x1eb9;" horiz-adv-x="354" 
d="M293 105q-30 -50 -64.5 -77t-80.5 -33h-9q-49 6 -70.5 41.5t-21.5 106.5q0 88 25.5 159t70.5 112.5t99 42.5h5q75 -6 75 -69q0 -57 -64 -111t-190 -101l-1 -28q0 -68 19.5 -100t59.5 -32q75 0 131 102h7zM163.5 405.5q-37.5 -30.5 -62 -84.5t-31.5 -123q111 41 171 90
t60 97q0 23 -14.5 37t-42.5 14q-43 0 -80.5 -30.5zM163 -107q0 -20 -20 -20t-20 20t20 20t20 -20z" />
    <glyph glyph-name="Ehookabove" unicode="&#x1eba;" horiz-adv-x="432" 
d="M143 340h223l3 -4l-6 -16h-222l-16 -125l-22 -175h273l3 -4l-6 -16h-293l25 195l55 442h291l2 -4l-6 -16h-269zM349.5 851q12.5 -11 12.5 -27q0 -29 -48 -65l16 -29l-17 -7l-22 41q51 34 51 58q0 20 -26 20t-54 -23l-8 14q34 29 64 29q19 0 31.5 -11z" />
    <glyph glyph-name="ehookabove" unicode="&#x1ebb;" horiz-adv-x="354" 
d="M293 105q-30 -50 -64.5 -77t-80.5 -33h-9q-49 6 -70.5 41.5t-21.5 106.5q0 88 25.5 159t70.5 112.5t99 42.5h5q75 -6 75 -69q0 -57 -64 -111t-190 -101l-1 -28q0 -68 19.5 -100t59.5 -32q75 0 131 102h7zM163.5 405.5q-37.5 -30.5 -62 -84.5t-31.5 -123q111 41 171 90
t60 97q0 23 -14.5 37t-42.5 14q-43 0 -80.5 -30.5zM271.5 666q12.5 -11 12.5 -27q0 -29 -48 -65l16 -29l-17 -7l-22 41q51 34 51 58q0 20 -26 20t-54 -23l-8 14q34 29 64 29q19 0 31.5 -11z" />
    <glyph glyph-name="Ecircumflexacute" unicode="&#x1ebe;" horiz-adv-x="432" 
d="M143 340h223l3 -4l-6 -16h-222l-16 -125l-22 -175h273l3 -4l-6 -16h-293l25 195l55 442h291l2 -4l-6 -16h-269zM459 886l-1 -5l-68 -76h-6l-11 11l70 80l5 -1zM427 731l-8 -14h-5q-40 29 -87 70q-47 -35 -103 -70h-5l-5 14q44 28 106 76h16q60 -52 91 -76z" />
    <glyph glyph-name="ecircumflexacute" unicode="&#x1ebf;" horiz-adv-x="354" 
d="M293 105q-30 -50 -64.5 -77t-80.5 -33h-9q-49 6 -70.5 41.5t-21.5 106.5q0 88 25.5 159t70.5 112.5t99 42.5h5q75 -6 75 -69q0 -57 -64 -111t-190 -101l-1 -28q0 -68 19.5 -100t59.5 -32q75 0 131 102h7zM163.5 405.5q-37.5 -30.5 -62 -84.5t-31.5 -123q111 41 171 90
t60 97q0 23 -14.5 37t-42.5 14q-43 0 -80.5 -30.5zM381 701l-1 -5l-68 -76h-6l-11 11l70 80l5 -1zM349 546l-8 -14h-5q-40 29 -87 70q-47 -35 -103 -70h-5l-5 14q44 28 106 76h16q60 -52 91 -76z" />
    <glyph glyph-name="Ecircumflexgrave" unicode="&#x1ec0;" horiz-adv-x="432" 
d="M143 340h223l3 -4l-6 -16h-222l-16 -125l-22 -175h273l3 -4l-6 -16h-293l25 195l55 442h291l2 -4l-6 -16h-269zM429 804h-6l-68 76l-1 5l11 9l5 1l70 -80zM429 732l-8 -14h-5q-40 29 -87 70q-47 -35 -103 -70h-5l-5 14q44 28 106 76h16q60 -52 91 -76z" />
    <glyph glyph-name="ecircumflexgrave" unicode="&#x1ec1;" horiz-adv-x="354" 
d="M293 105q-30 -50 -64.5 -77t-80.5 -33h-9q-49 6 -70.5 41.5t-21.5 106.5q0 88 25.5 159t70.5 112.5t99 42.5h5q75 -6 75 -69q0 -57 -64 -111t-190 -101l-1 -28q0 -68 19.5 -100t59.5 -32q75 0 131 102h7zM163.5 405.5q-37.5 -30.5 -62 -84.5t-31.5 -123q111 41 171 90
t60 97q0 23 -14.5 37t-42.5 14q-43 0 -80.5 -30.5zM351 619h-6l-68 76l-1 5l11 9l5 1l70 -80zM351 547l-8 -14h-5q-40 29 -87 70q-47 -35 -103 -70h-5l-5 14q44 28 106 76h16q60 -52 91 -76z" />
    <glyph glyph-name="Ecircumflexhookabove" unicode="&#x1ec2;" horiz-adv-x="432" 
d="M143 340h223l3 -4l-6 -16h-222l-16 -125l-22 -175h273l3 -4l-6 -16h-293l25 195l55 442h291l2 -4l-6 -16h-269zM438 911q12 -11 12 -26q0 -28 -46 -62l15 -27l-16 -7l-21 39q49 32 49 55q0 19 -25 19t-51 -21l-8 13q33 28 61 28q18 0 30 -11zM427 732l-8 -14h-5
q-40 29 -87 70q-47 -35 -103 -70h-5l-5 14q44 28 106 76h16q60 -52 91 -76z" />
    <glyph glyph-name="ecircumflexhookabove" unicode="&#x1ec3;" horiz-adv-x="354" 
d="M293 105q-30 -50 -64.5 -77t-80.5 -33h-9q-49 6 -70.5 41.5t-21.5 106.5q0 88 25.5 159t70.5 112.5t99 42.5h5q75 -6 75 -69q0 -57 -64 -111t-190 -101l-1 -28q0 -68 19.5 -100t59.5 -32q75 0 131 102h7zM163.5 405.5q-37.5 -30.5 -62 -84.5t-31.5 -123q111 41 171 90
t60 97q0 23 -14.5 37t-42.5 14q-43 0 -80.5 -30.5zM360 726q12 -11 12 -26q0 -28 -46 -62l15 -27l-16 -7l-21 39q49 32 49 55q0 19 -25 19t-51 -21l-8 13q33 28 61 28q18 0 30 -11zM349 547l-8 -14h-5q-40 29 -87 70q-47 -35 -103 -70h-5l-5 14q44 28 106 76h16
q60 -52 91 -76z" />
    <glyph glyph-name="Ecircumflextilde" unicode="&#x1ec4;" horiz-adv-x="432" 
d="M143 340h223l3 -4l-6 -16h-222l-16 -125l-22 -175h273l3 -4l-6 -16h-293l25 195l55 442h291l2 -4l-6 -16h-269zM429 804h-6l-68 76l-1 5l11 9l5 1l70 -80zM429 732l-8 -14h-5q-40 29 -87 70q-47 -35 -103 -70h-5l-5 14q44 28 106 76h16q60 -52 91 -76z" />
    <glyph glyph-name="ecircumflextilde" unicode="&#x1ec5;" horiz-adv-x="354" 
d="M293 105q-30 -50 -64.5 -77t-80.5 -33h-9q-49 6 -70.5 41.5t-21.5 106.5q0 88 25.5 159t70.5 112.5t99 42.5h5q75 -6 75 -69q0 -57 -64 -111t-190 -101l-1 -28q0 -68 19.5 -100t59.5 -32q75 0 131 102h7zM163.5 405.5q-37.5 -30.5 -62 -84.5t-31.5 -123q111 41 171 90
t60 97q0 23 -14.5 37t-42.5 14q-43 0 -80.5 -30.5zM405 707l-50 -47l-5 -2q-18 2 -78 20t-71 18q-7 0 -30 -23l-18 -18h-4l-9 11v4l50 47l5 2q18 -2 78 -20t71 -18q7 0 30 23l18 18h4l9 -11v-4zM349 550l-8 -14h-5q-40 29 -87 70q-47 -35 -103 -70h-5l-5 14q44 28 106 76h16
q60 -52 91 -76z" />
    <glyph glyph-name="Ecircumflexdotbelow" unicode="&#x1ec6;" horiz-adv-x="432" 
d="M143 340h223l3 -4l-6 -16h-222l-16 -125l-22 -175h273l3 -4l-6 -16h-293l25 195l55 442h291l2 -4l-6 -16h-269zM258 -107q0 -20 -20 -20t-20 20t20 20t20 -20zM328 826h16q60 -52 91 -76l-8 -14h-5q-40 29 -87 70q-47 -35 -103 -70h-5l-5 14q44 28 106 76z" />
    <glyph glyph-name="ecircumflexdotbelow" unicode="&#x1ec7;" horiz-adv-x="354" 
d="M293 105q-30 -50 -64.5 -77t-80.5 -33h-9q-49 6 -70.5 41.5t-21.5 106.5q0 88 25.5 159t70.5 112.5t99 42.5h5q75 -6 75 -69q0 -57 -64 -111t-190 -101l-1 -28q0 -68 19.5 -100t59.5 -32q75 0 131 102h7zM163.5 405.5q-37.5 -30.5 -62 -84.5t-31.5 -123q111 41 171 90
t60 97q0 23 -14.5 37t-42.5 14q-43 0 -80.5 -30.5zM163 -107q0 -20 -20 -20t-20 20t20 20t20 -20zM255 648h18q46 -74 86 -126l-11 -12h-5q-39 50 -81 117q-59 -68 -110 -117h-5l-8 12q37 36 116 126z" />
    <glyph glyph-name="Ihookabove" unicode="&#x1ec8;" horiz-adv-x="235" 
d="M100 0h-20l25 195l55 442h20l-55 -442zM206.5 851q12.5 -11 12.5 -27q0 -29 -48 -65l16 -29l-17 -7l-22 41q51 34 51 58q0 20 -26 20t-54 -23l-8 14q34 29 64 29q19 0 31.5 -11z" />
    <glyph glyph-name="ihookabove" unicode="&#x1ec9;" horiz-adv-x="203" 
d="M88 0l-27 -4l49 366l6 90l25 4l-46 -350zM167.5 666q12.5 -11 12.5 -27q0 -29 -48 -65l16 -29l-17 -7l-22 41q51 34 51 58q0 20 -26 20t-54 -23l-8 14q34 29 64 29q19 0 31.5 -11z" />
    <glyph glyph-name="Idotbelow" unicode="&#x1eca;" horiz-adv-x="235" 
d="M100 0h-20l25 195l55 442h20l-55 -442zM104 -107q0 -20 -20 -20t-20 20t20 20t20 -20z" />
    <glyph glyph-name="idotbelow" unicode="&#x1ecb;" horiz-adv-x="203" 
d="M168 610q0 -20 -20 -20t-20 20t20 20t20 -20zM88 0l-27 -4l49 366l6 90l25 4l-46 -350zM85 -107q0 -20 -20 -20t-20 20t20 20t20 -20z" />
    <glyph glyph-name="Odotbelow" unicode="&#x1ecc;" horiz-adv-x="599" 
d="M513.5 577q54.5 -65 54.5 -186q0 -122 -35.5 -211t-103 -137t-162.5 -48q-102 0 -156.5 67t-54.5 191q0 121 35 208.5t102.5 134t161.5 46.5q104 0 158.5 -65zM205 578q-62 -44 -95 -126.5t-33 -195.5q0 -115 49.5 -178t141.5 -63q87 0 150 45.5t96 129t33 197.5
q0 113 -49 174t-144 61q-87 0 -149 -44zM308 -107q0 -20 -20 -20t-20 20t20 20t20 -20z" />
    <glyph glyph-name="odotbelow" unicode="&#x1ecd;" horiz-adv-x="396" 
d="M325.5 421q22.5 -33 22.5 -101q0 -91 -24 -163.5t-69 -115.5t-106 -47h-5q-50 3 -73 36.5t-23 103.5q0 91 24.5 164.5t69.5 116t106 43.5h5q50 -4 72.5 -37zM154.5 398q-40.5 -39 -63.5 -107.5t-23 -153.5q0 -62 19.5 -92t60.5 -30q52 0 93 39.5t63.5 108.5t22.5 154
q0 62 -19 91t-60 29q-53 0 -93.5 -39zM170 -107q0 -20 -20 -20t-20 20t20 20t20 -20z" />
    <glyph glyph-name="Ohookabove" unicode="&#x1ece;" horiz-adv-x="599" 
d="M513.5 577q54.5 -65 54.5 -186q0 -122 -35.5 -211t-103 -137t-162.5 -48q-102 0 -156.5 67t-54.5 191q0 121 35 208.5t102.5 134t161.5 46.5q104 0 158.5 -65zM205 578q-62 -44 -95 -126.5t-33 -195.5q0 -115 49.5 -178t141.5 -63q87 0 150 45.5t96 129t33 197.5
q0 113 -49 174t-144 61q-87 0 -149 -44zM388.5 851q12.5 -11 12.5 -27q0 -29 -48 -65l16 -29l-17 -7l-22 41q51 34 51 58q0 20 -26 20t-54 -23l-8 14q34 29 64 29q19 0 31.5 -11z" />
    <glyph glyph-name="ohookabove" unicode="&#x1ecf;" horiz-adv-x="396" 
d="M325.5 421q22.5 -33 22.5 -101q0 -91 -24 -163.5t-69 -115.5t-106 -47h-5q-50 3 -73 36.5t-23 103.5q0 91 24.5 164.5t69.5 116t106 43.5h5q50 -4 72.5 -37zM154.5 398q-40.5 -39 -63.5 -107.5t-23 -153.5q0 -62 19.5 -92t60.5 -30q52 0 93 39.5t63.5 108.5t22.5 154
q0 62 -19 91t-60 29q-53 0 -93.5 -39zM269.5 666q12.5 -11 12.5 -27q0 -29 -48 -65l16 -29l-17 -7l-22 41q51 34 51 58q0 20 -26 20t-54 -23l-8 14q34 29 64 29q19 0 31.5 -11z" />
    <glyph glyph-name="Ocircumflexacute" unicode="&#x1ed0;" horiz-adv-x="599" 
d="M513.5 577q54.5 -65 54.5 -186q0 -122 -35.5 -211t-103 -137t-162.5 -48q-102 0 -156.5 67t-54.5 191q0 121 35 208.5t102.5 134t161.5 46.5q104 0 158.5 -65zM205 578q-62 -44 -95 -126.5t-33 -195.5q0 -115 49.5 -178t141.5 -63q87 0 150 45.5t96 129t33 197.5
q0 113 -49 174t-144 61q-87 0 -149 -44zM498 886l-1 -5l-68 -76h-6l-11 11l70 80l5 -1zM466 731l-8 -14h-5q-40 29 -87 70q-47 -35 -103 -70h-5l-5 14q44 28 106 76h16q60 -52 91 -76z" />
    <glyph glyph-name="ocircumflexacute" unicode="&#x1ed1;" horiz-adv-x="396" 
d="M325.5 421q22.5 -33 22.5 -101q0 -91 -24 -163.5t-69 -115.5t-106 -47h-5q-50 3 -73 36.5t-23 103.5q0 91 24.5 164.5t69.5 116t106 43.5h5q50 -4 72.5 -37zM154.5 398q-40.5 -39 -63.5 -107.5t-23 -153.5q0 -62 19.5 -92t60.5 -30q52 0 93 39.5t63.5 108.5t22.5 154
q0 62 -19 91t-60 29q-53 0 -93.5 -39zM379 701l-1 -5l-68 -76h-6l-11 11l70 80l5 -1zM347 546l-8 -14h-5q-40 29 -87 70q-47 -35 -103 -70h-5l-5 14q44 28 106 76h16q60 -52 91 -76z" />
    <glyph glyph-name="Ocircumflexgrave" unicode="&#x1ed2;" horiz-adv-x="599" 
d="M513.5 577q54.5 -65 54.5 -186q0 -122 -35.5 -211t-103 -137t-162.5 -48q-102 0 -156.5 67t-54.5 191q0 121 35 208.5t102.5 134t161.5 46.5q104 0 158.5 -65zM205 578q-62 -44 -95 -126.5t-33 -195.5q0 -115 49.5 -178t141.5 -63q87 0 150 45.5t96 129t33 197.5
q0 113 -49 174t-144 61q-87 0 -149 -44zM468 804h-6l-68 76l-1 5l11 9l5 1l70 -80zM468 732l-8 -14h-5q-40 29 -87 70q-47 -35 -103 -70h-5l-5 14q44 28 106 76h16q60 -52 91 -76z" />
    <glyph glyph-name="ocircumflexgrave" unicode="&#x1ed3;" horiz-adv-x="396" 
d="M325.5 421q22.5 -33 22.5 -101q0 -91 -24 -163.5t-69 -115.5t-106 -47h-5q-50 3 -73 36.5t-23 103.5q0 91 24.5 164.5t69.5 116t106 43.5h5q50 -4 72.5 -37zM154.5 398q-40.5 -39 -63.5 -107.5t-23 -153.5q0 -62 19.5 -92t60.5 -30q52 0 93 39.5t63.5 108.5t22.5 154
q0 62 -19 91t-60 29q-53 0 -93.5 -39zM349 619h-6l-68 76l-1 5l11 9l5 1l70 -80zM349 547l-8 -14h-5q-40 29 -87 70q-47 -35 -103 -70h-5l-5 14q44 28 106 76h16q60 -52 91 -76z" />
    <glyph glyph-name="Ocircumflexhookabove" unicode="&#x1ed4;" horiz-adv-x="599" 
d="M513.5 577q54.5 -65 54.5 -186q0 -122 -35.5 -211t-103 -137t-162.5 -48q-102 0 -156.5 67t-54.5 191q0 121 35 208.5t102.5 134t161.5 46.5q104 0 158.5 -65zM205 578q-62 -44 -95 -126.5t-33 -195.5q0 -115 49.5 -178t141.5 -63q87 0 150 45.5t96 129t33 197.5
q0 113 -49 174t-144 61q-87 0 -149 -44zM477 911q12 -11 12 -26q0 -28 -46 -62l15 -27l-16 -7l-21 39q49 32 49 55q0 19 -25 19t-51 -21l-8 13q33 28 61 28q18 0 30 -11zM466 732l-8 -14h-5q-40 29 -87 70q-47 -35 -103 -70h-5l-5 14q44 28 106 76h16q60 -52 91 -76z" />
    <glyph glyph-name="ocircumflexhookabove" unicode="&#x1ed5;" horiz-adv-x="396" 
d="M325.5 421q22.5 -33 22.5 -101q0 -91 -24 -163.5t-69 -115.5t-106 -47h-5q-50 3 -73 36.5t-23 103.5q0 91 24.5 164.5t69.5 116t106 43.5h5q50 -4 72.5 -37zM154.5 398q-40.5 -39 -63.5 -107.5t-23 -153.5q0 -62 19.5 -92t60.5 -30q52 0 93 39.5t63.5 108.5t22.5 154
q0 62 -19 91t-60 29q-53 0 -93.5 -39zM358 726q12 -11 12 -26q0 -28 -46 -62l15 -27l-16 -7l-21 39q49 32 49 55q0 19 -25 19t-51 -21l-8 13q33 28 61 28q18 0 30 -11zM347 547l-8 -14h-5q-40 29 -87 70q-47 -35 -103 -70h-5l-5 14q44 28 106 76h16q60 -52 91 -76z" />
    <glyph glyph-name="Ocircumflextilde" unicode="&#x1ed6;" horiz-adv-x="599" 
d="M513.5 577q54.5 -65 54.5 -186q0 -122 -35.5 -211t-103 -137t-162.5 -48q-102 0 -156.5 67t-54.5 191q0 121 35 208.5t102.5 134t161.5 46.5q104 0 158.5 -65zM205 578q-62 -44 -95 -126.5t-33 -195.5q0 -115 49.5 -178t141.5 -63q87 0 150 45.5t96 129t33 197.5
q0 113 -49 174t-144 61q-87 0 -149 -44zM522 892l-50 -47l-5 -2q-18 2 -78 20t-71 18q-7 0 -30 -23l-18 -18h-4l-9 11v4l50 47l5 2q18 -2 78 -20t71 -18q7 0 30 23l18 18h4l9 -11v-4zM466 735l-8 -14h-5q-40 29 -87 70q-47 -35 -103 -70h-5l-5 14q44 28 106 76h16
q60 -52 91 -76z" />
    <glyph glyph-name="ocircumflextilde" unicode="&#x1ed7;" horiz-adv-x="396" 
d="M325.5 421q22.5 -33 22.5 -101q0 -91 -24 -163.5t-69 -115.5t-106 -47h-5q-50 3 -73 36.5t-23 103.5q0 91 24.5 164.5t69.5 116t106 43.5h5q50 -4 72.5 -37zM154.5 398q-40.5 -39 -63.5 -107.5t-23 -153.5q0 -62 19.5 -92t60.5 -30q52 0 93 39.5t63.5 108.5t22.5 154
q0 62 -19 91t-60 29q-53 0 -93.5 -39zM403 707l-50 -47l-5 -2q-18 2 -78 20t-71 18q-7 0 -30 -23l-18 -18h-4l-9 11v4l50 47l5 2q18 -2 78 -20t71 -18q7 0 30 23l18 18h4l9 -11v-4zM347 550l-8 -14h-5q-40 29 -87 70q-47 -35 -103 -70h-5l-5 14q44 28 106 76h16
q60 -52 91 -76z" />
    <glyph glyph-name="Ocircumflexdotbelow" unicode="&#x1ed8;" horiz-adv-x="599" 
d="M367 826h16q60 -52 91 -76l-8 -14h-5q-40 29 -87 70q-47 -35 -103 -70h-5l-5 14q44 28 106 76zM513.5 577q54.5 -65 54.5 -186q0 -122 -35.5 -211t-103 -137t-162.5 -48q-102 0 -156.5 67t-54.5 191q0 121 35 208.5t102.5 134t161.5 46.5q104 0 158.5 -65zM205 578
q-62 -44 -95 -126.5t-33 -195.5q0 -115 49.5 -178t141.5 -63q87 0 150 45.5t96 129t33 197.5q0 113 -49 174t-144 61q-87 0 -149 -44zM308 -107q0 -20 -20 -20t-20 20t20 20t20 -20z" />
    <glyph glyph-name="ocircumflexdotbelow" unicode="&#x1ed9;" horiz-adv-x="396" 
d="M258 648h18q46 -74 86 -126l-11 -12h-5q-39 50 -81 117q-59 -68 -110 -117h-5l-8 12q37 36 116 126zM325.5 421q22.5 -33 22.5 -101q0 -91 -24 -163.5t-69 -115.5t-106 -47h-5q-50 3 -73 36.5t-23 103.5q0 91 24.5 164.5t69.5 116t106 43.5h5q50 -4 72.5 -37zM154.5 398
q-40.5 -39 -63.5 -107.5t-23 -153.5q0 -62 19.5 -92t60.5 -30q52 0 93 39.5t63.5 108.5t22.5 154q0 62 -19 91t-60 29q-53 0 -93.5 -39zM170 -107q0 -20 -20 -20t-20 20t20 20t20 -20z" />
    <glyph glyph-name="Ohornacute" unicode="&#x1eda;" horiz-adv-x="601" 
d="M616 733q10 -20 10 -47q0 -48 -34 -74.5t-88 -24.5q63 -63 63 -205q0 -115 -36 -202.5t-103.5 -136t-159.5 -48.5q-212 0 -212 270q0 112 35 197t103 132.5t164 47.5q53 0 106 -22q36 -14 55 -14q34 0 60 19.5t26 53.5q0 33 -23 64l2 5q9 5 13 5q9 0 19 -20zM204 577
q-62 -45 -95 -125.5t-33 -185.5q0 -251 194 -251q85 0 148 46t96 127.5t33 186.5q0 247 -195 247q-86 0 -148 -45zM472 822l-2 -5q-67 -38 -174 -93l-5 3l-7 15q91 44 176 94l5 -2z" />
    <glyph glyph-name="ohornacute" unicode="&#x1edb;" horiz-adv-x="409" 
d="M431.5 557.5q9.5 -10.5 16 -28t6.5 -37.5q0 -38 -26 -63.5t-66 -25.5q-7 0 -23 2q15 -31 15 -91q0 -87 -24 -158.5t-69.5 -115t-106.5 -46.5h-5q-54 4 -75.5 39t-21.5 107q0 85 24.5 157.5t70 116t106.5 44.5h5q28 -2 60 -21q26 -15 46 -15q29 0 50 18t21 47q0 35 -33 71
l2 5q7 5 12 5q6 0 15.5 -10.5zM246 54.5q41 39.5 64 107t23 148.5q0 67 -18.5 97t-61.5 30q-53 0 -94 -39.5t-64 -106.5t-23 -147q0 -68 19 -98.5t62 -30.5q52 0 93 39.5zM347 658l-1 -5q-69 -69 -144 -135l-5 1l-11 13q69 58 146 137l5 -1z" />
    <glyph glyph-name="Ohorngrave" unicode="&#x1edc;" horiz-adv-x="601" 
d="M616 733q10 -20 10 -47q0 -48 -34 -74.5t-88 -24.5q63 -63 63 -205q0 -115 -36 -202.5t-103.5 -136t-159.5 -48.5q-212 0 -212 270q0 112 35 197t103 132.5t164 47.5q53 0 106 -22q36 -14 55 -14q34 0 60 19.5t26 53.5q0 33 -23 64l2 5q9 5 13 5q9 0 19 -20zM204 577
q-62 -45 -95 -125.5t-33 -185.5q0 -251 194 -251q85 0 148 46t96 127.5t33 186.5q0 247 -195 247q-86 0 -148 -45zM461 742l-7 -15l-5 -3q-107 55 -174 93l-2 5l7 12l5 2q85 -50 176 -94z" />
    <glyph glyph-name="ohorngrave" unicode="&#x1edd;" horiz-adv-x="409" 
d="M174 653l-1 5l10 10l5 1q77 -79 146 -137l-11 -13l-5 -1q-75 66 -144 135zM431.5 557.5q9.5 -10.5 16 -28t6.5 -37.5q0 -38 -26 -63.5t-66 -25.5q-7 0 -23 2q15 -31 15 -91q0 -87 -24 -158.5t-69.5 -115t-106.5 -46.5h-5q-54 4 -75.5 39t-21.5 107q0 85 24.5 157.5
t70 116t106.5 44.5h5q28 -2 60 -21q26 -15 46 -15q29 0 50 18t21 47q0 35 -33 71l2 5q7 5 12 5q6 0 15.5 -10.5zM246 54.5q41 39.5 64 107t23 148.5q0 67 -18.5 97t-61.5 30q-53 0 -94 -39.5t-64 -106.5t-23 -147q0 -68 19 -98.5t62 -30.5q52 0 93 39.5z" />
    <glyph glyph-name="Ohornhookabove" unicode="&#x1ede;" horiz-adv-x="601" 
d="M616 733q10 -20 10 -47q0 -48 -34 -74.5t-88 -24.5q63 -63 63 -205q0 -115 -36 -202.5t-103.5 -136t-159.5 -48.5q-212 0 -212 270q0 112 35 197t103 132.5t164 47.5q53 0 106 -22q36 -14 55 -14q34 0 60 19.5t26 53.5q0 33 -23 64l2 5q9 5 13 5q9 0 19 -20zM204 577
q-62 -45 -95 -125.5t-33 -185.5q0 -251 194 -251q85 0 148 46t96 127.5t33 186.5q0 247 -195 247q-86 0 -148 -45zM388.5 851q12.5 -11 12.5 -27q0 -29 -48 -65l16 -29l-17 -7l-22 41q51 34 51 58q0 20 -26 20t-54 -23l-8 14q34 29 64 29q19 0 31.5 -11z" />
    <glyph glyph-name="ohornhookabove" unicode="&#x1edf;" horiz-adv-x="409" 
d="M431.5 557.5q9.5 -10.5 16 -28t6.5 -37.5q0 -38 -26 -63.5t-66 -25.5q-7 0 -23 2q15 -31 15 -91q0 -87 -24 -158.5t-69.5 -115t-106.5 -46.5h-5q-54 4 -75.5 39t-21.5 107q0 85 24.5 157.5t70 116t106.5 44.5h5q28 -2 60 -21q26 -15 46 -15q29 0 50 18t21 47q0 35 -33 71
l2 5q7 5 12 5q6 0 15.5 -10.5zM246 54.5q41 39.5 64 107t23 148.5q0 67 -18.5 97t-61.5 30q-53 0 -94 -39.5t-64 -106.5t-23 -147q0 -68 19 -98.5t62 -30.5q52 0 93 39.5zM284.5 666q12.5 -11 12.5 -27q0 -29 -48 -65l16 -29l-17 -7l-22 41q51 34 51 58q0 20 -26 20t-54 -23
l-8 14q34 29 64 29q19 0 31.5 -11z" />
    <glyph glyph-name="Ohorntilde" unicode="&#x1ee0;" horiz-adv-x="601" 
d="M616 733q10 -20 10 -47q0 -48 -34 -74.5t-88 -24.5q63 -63 63 -205q0 -115 -36 -202.5t-103.5 -136t-159.5 -48.5q-212 0 -212 270q0 112 35 197t103 132.5t164 47.5q53 0 106 -22q36 -14 55 -14q34 0 60 19.5t26 53.5q0 33 -23 64l2 5q9 5 13 5q9 0 19 -20zM204 577
q-62 -45 -95 -125.5t-33 -185.5q0 -251 194 -251q85 0 148 46t96 127.5t33 186.5q0 247 -195 247q-86 0 -148 -45zM507 801l-52 -47l-6 -2q-20 2 -81 20q-64 18 -75 18q-8 0 -30 -22l-21 -19h-4l-9 11v4l52 47l6 2q20 -2 81 -20q64 -18 75 -18q8 0 30 22l21 19h4l9 -11v-4z
" />
    <glyph glyph-name="ohorntilde" unicode="&#x1ee1;" horiz-adv-x="409" 
d="M431.5 557.5q9.5 -10.5 16 -28t6.5 -37.5q0 -38 -26 -63.5t-66 -25.5q-7 0 -23 2q15 -31 15 -91q0 -87 -24 -158.5t-69.5 -115t-106.5 -46.5h-5q-54 4 -75.5 39t-21.5 107q0 85 24.5 157.5t70 116t106.5 44.5h5q28 -2 60 -21q26 -15 46 -15q29 0 50 18t21 47q0 35 -33 71
l2 5q7 5 12 5q6 0 15.5 -10.5zM246 54.5q41 39.5 64 107t23 148.5q0 67 -18.5 97t-61.5 30q-53 0 -94 -39.5t-64 -106.5t-23 -147q0 -68 19 -98.5t62 -30.5q52 0 93 39.5zM387 613l-47 -47l-6 -2q-16 2 -72 20q-54 18 -65 18q-8 0 -30 -24l-16 -16h-3l-9 11v4l47 47l6 2
q16 -2 72 -20q54 -18 65 -18q8 0 27 21l19 19h3l9 -11v-4z" />
    <glyph glyph-name="Ohorndotbelow" unicode="&#x1ee2;" horiz-adv-x="601" 
d="M616 733q10 -20 10 -47q0 -48 -34 -74.5t-88 -24.5q63 -63 63 -205q0 -115 -36 -202.5t-103.5 -136t-159.5 -48.5q-212 0 -212 270q0 112 35 197t103 132.5t164 47.5q53 0 106 -22q36 -14 55 -14q34 0 60 19.5t26 53.5q0 33 -23 64l2 5q9 5 13 5q9 0 19 -20zM204 577
q-62 -45 -95 -125.5t-33 -185.5q0 -251 194 -251q85 0 148 46t96 127.5t33 186.5q0 247 -195 247q-86 0 -148 -45zM308 -107q0 -20 -20 -20t-20 20t20 20t20 -20z" />
    <glyph glyph-name="ohorndotbelow" unicode="&#x1ee3;" horiz-adv-x="409" 
d="M431.5 557.5q9.5 -10.5 16 -28t6.5 -37.5q0 -38 -26 -63.5t-66 -25.5q-7 0 -23 2q15 -31 15 -91q0 -87 -24 -158.5t-69.5 -115t-106.5 -46.5h-5q-54 4 -75.5 39t-21.5 107q0 85 24.5 157.5t70 116t106.5 44.5h5q28 -2 60 -21q26 -15 46 -15q29 0 50 18t21 47q0 35 -33 71
l2 5q7 5 12 5q6 0 15.5 -10.5zM246 54.5q41 39.5 64 107t23 148.5q0 67 -18.5 97t-61.5 30q-53 0 -94 -39.5t-64 -106.5t-23 -147q0 -68 19 -98.5t62 -30.5q52 0 93 39.5zM170 -107q0 -20 -20 -20t-20 20t20 20t20 -20z" />
    <glyph glyph-name="Udotbelow" unicode="&#x1ee4;" horiz-adv-x="583" 
d="M500 229q-11 -111 -72.5 -172t-161.5 -61q-89 0 -137 46.5t-48 133.5q0 29 4 53l13 93l40 315h20l-53 -408q-4 -34 -4 -49q0 -79 42.5 -121.5t121.5 -42.5q91 0 146 55t69 158l51 408h20l-41 -325zM287 -107q0 -20 -20 -20t-20 20t20 20t20 -20z" />
    <glyph glyph-name="udotbelow" unicode="&#x1ee5;" horiz-adv-x="454" 
d="M347 106l-9 -106l-25 -4l36 271h-5q-65 -112 -114.5 -179t-98.5 -99h-11q-24 7 -38 30.5t-13 54.5l1 13l43 263l12 101l25 4l-59 -365l-1 -15q-1 -25 10 -42.5t24 -17.5q26 0 90.5 85t142.5 230l4 32l7 90l25 4zM222 -107q0 -20 -20 -20t-20 20t20 20t20 -20z" />
    <glyph glyph-name="Uhookabove" unicode="&#x1ee6;" horiz-adv-x="583" 
d="M500 229q-11 -111 -72.5 -172t-161.5 -61q-89 0 -137 46.5t-48 133.5q0 29 4 53l13 93l40 315h20l-53 -408q-4 -34 -4 -49q0 -79 42.5 -121.5t121.5 -42.5q91 0 146 55t69 158l51 408h20l-41 -325zM380.5 851q12.5 -11 12.5 -27q0 -29 -48 -65l16 -29l-17 -7l-22 41
q51 34 51 58q0 20 -26 20t-54 -23l-8 14q34 29 64 29q19 0 31.5 -11z" />
    <glyph glyph-name="uhookabove" unicode="&#x1ee7;" horiz-adv-x="454" 
d="M347 106l-9 -106l-25 -4l36 271h-5q-65 -112 -114.5 -179t-98.5 -99h-11q-24 7 -38 30.5t-13 54.5l1 13l43 263l12 101l25 4l-59 -365l-1 -15q-1 -25 10 -42.5t24 -17.5q26 0 90.5 85t142.5 230l4 32l7 90l25 4zM293.5 666q12.5 -11 12.5 -27q0 -29 -48 -65l16 -29
l-17 -7l-22 41q51 34 51 58q0 20 -26 20t-54 -23l-8 14q34 29 64 29q19 0 31.5 -11z" />
    <glyph glyph-name="Uhornacute" unicode="&#x1ee8;" horiz-adv-x="593" 
d="M605.5 639q-21.5 -20 -56.5 -22l-39 -305l-10 -83q-11 -111 -72.5 -172t-161.5 -61q-89 0 -137 46.5t-48 133.5q0 29 4 53l13 93l40 315h20l-53 -408q-4 -34 -4 -49q0 -79 42.5 -121.5t121.5 -42.5q91 0 146 55t69 158l51 408h11q30 0 47.5 14.5t17.5 38.5q0 27 -31 61
l2 5q6 5 12 5t15 -10t15.5 -26t6.5 -35q0 -31 -21.5 -51zM461 822l-2 -5q-67 -38 -174 -93l-5 3l-7 15q91 44 176 94l5 -2z" />
    <glyph glyph-name="uhornacute" unicode="&#x1ee9;" horiz-adv-x="456" 
d="M391 439l-44 -333l-9 -106l-25 -4l36 271h-5q-65 -112 -114.5 -179t-98.5 -99h-11q-24 7 -38 30.5t-13 54.5l1 13l43 263l12 101l25 4l-59 -365l-1 -15q-1 -25 10 -42.5t24 -17.5q26 0 90.5 85t142.5 230l4 32l7 90l16 3q80 16 80 66q0 36 -33 70l2 5q8 5 13 5
q6 0 15.5 -10.5t16 -27.5t6.5 -37q0 -67 -93 -87zM370 658l-1 -5q-69 -69 -144 -135l-5 1l-11 13q69 58 146 137l5 -1z" />
    <glyph glyph-name="Uhorngrave" unicode="&#x1eea;" horiz-adv-x="593" 
d="M605.5 639q-21.5 -20 -56.5 -22l-39 -305l-10 -83q-11 -111 -72.5 -172t-161.5 -61q-89 0 -137 46.5t-48 133.5q0 29 4 53l13 93l40 315h20l-53 -408q-4 -34 -4 -49q0 -79 42.5 -121.5t121.5 -42.5q91 0 146 55t69 158l51 408h11q30 0 47.5 14.5t17.5 38.5q0 27 -31 61
l2 5q6 5 12 5t15 -10t15.5 -26t6.5 -35q0 -31 -21.5 -51zM450 742l-7 -15l-5 -3q-107 55 -174 93l-2 5l7 12l5 2q85 -50 176 -94z" />
    <glyph glyph-name="uhorngrave" unicode="&#x1eeb;" horiz-adv-x="456" 
d="M391 439l-44 -333l-9 -106l-25 -4l36 271h-5q-65 -112 -114.5 -179t-98.5 -99h-11q-24 7 -38 30.5t-13 54.5l1 13l43 263l12 101l25 4l-59 -365l-1 -15q-1 -25 10 -42.5t24 -17.5q26 0 90.5 85t142.5 230l4 32l7 90l16 3q80 16 80 66q0 36 -33 70l2 5q8 5 13 5
q6 0 15.5 -10.5t16 -27.5t6.5 -37q0 -67 -93 -87zM357 532l-11 -13l-5 -1q-75 66 -144 135l-1 5l10 10l5 1q77 -79 146 -137z" />
    <glyph glyph-name="Uhornhookabove" unicode="&#x1eec;" horiz-adv-x="593" 
d="M605.5 639q-21.5 -20 -56.5 -22l-39 -305l-10 -83q-11 -111 -72.5 -172t-161.5 -61q-89 0 -137 46.5t-48 133.5q0 29 4 53l13 93l40 315h20l-53 -408q-4 -34 -4 -49q0 -79 42.5 -121.5t121.5 -42.5q91 0 146 55t69 158l51 408h11q30 0 47.5 14.5t17.5 38.5q0 27 -31 61
l2 5q6 5 12 5t15 -10t15.5 -26t6.5 -35q0 -31 -21.5 -51zM377.5 851q12.5 -11 12.5 -27q0 -29 -48 -65l16 -29l-17 -7l-22 41q51 34 51 58q0 20 -26 20t-54 -23l-8 14q34 29 64 29q19 0 31.5 -11z" />
    <glyph glyph-name="uhornhookabove" unicode="&#x1eed;" horiz-adv-x="456" 
d="M391 439l-44 -333l-9 -106l-25 -4l36 271h-5q-65 -112 -114.5 -179t-98.5 -99h-11q-24 7 -38 30.5t-13 54.5l1 13l43 263l12 101l25 4l-59 -365l-1 -15q-1 -25 10 -42.5t24 -17.5q26 0 90.5 85t142.5 230l4 32l7 90l16 3q80 16 80 66q0 36 -33 70l2 5q8 5 13 5
q6 0 15.5 -10.5t16 -27.5t6.5 -37q0 -67 -93 -87zM307.5 666q12.5 -11 12.5 -27q0 -29 -48 -65l16 -29l-17 -7l-22 41q51 34 51 58q0 20 -26 20t-54 -23l-8 14q34 29 64 29q19 0 31.5 -11z" />
    <glyph glyph-name="Uhorntilde" unicode="&#x1eee;" horiz-adv-x="593" 
d="M605.5 639q-21.5 -20 -56.5 -22l-39 -305l-10 -83q-11 -111 -72.5 -172t-161.5 -61q-89 0 -137 46.5t-48 133.5q0 29 4 53l13 93l40 315h20l-53 -408q-4 -34 -4 -49q0 -79 42.5 -121.5t121.5 -42.5q91 0 146 55t69 158l51 408h11q30 0 47.5 14.5t17.5 38.5q0 27 -31 61
l2 5q6 5 12 5t15 -10t15.5 -26t6.5 -35q0 -31 -21.5 -51zM496 801l-52 -47l-6 -2q-20 2 -81 20q-64 18 -75 18q-8 0 -30 -22l-21 -19h-4l-9 11v4l52 47l6 2q20 -2 81 -20q64 -18 75 -18q8 0 30 22l21 19h4l9 -11v-4z" />
    <glyph glyph-name="uhorntilde" unicode="&#x1eef;" horiz-adv-x="456" 
d="M391 439l-44 -333l-9 -106l-25 -4l36 271h-5q-65 -112 -114.5 -179t-98.5 -99h-11q-24 7 -38 30.5t-13 54.5l1 13l43 263l12 101l25 4l-59 -365l-1 -15q-1 -25 10 -42.5t24 -17.5q26 0 90.5 85t142.5 230l4 32l7 90l16 3q80 16 80 66q0 36 -33 70l2 5q8 5 13 5
q6 0 15.5 -10.5t16 -27.5t6.5 -37q0 -67 -93 -87zM410 613l-47 -47l-6 -2q-16 2 -72 20q-54 18 -65 18q-8 0 -30 -24l-16 -16h-3l-9 11v4l47 47l6 2q16 -2 72 -20q54 -18 65 -18q8 0 27 21l19 19h3l9 -11v-4z" />
    <glyph glyph-name="Uhorndotbelow" unicode="&#x1ef0;" horiz-adv-x="593" 
d="M605.5 639q-21.5 -20 -56.5 -22l-39 -305l-10 -83q-11 -111 -72.5 -172t-161.5 -61q-89 0 -137 46.5t-48 133.5q0 29 4 53l13 93l40 315h20l-53 -408q-4 -34 -4 -49q0 -79 42.5 -121.5t121.5 -42.5q91 0 146 55t69 158l51 408h11q30 0 47.5 14.5t17.5 38.5q0 27 -31 61
l2 5q6 5 12 5t15 -10t15.5 -26t6.5 -35q0 -31 -21.5 -51zM273 -109q0 -20 -20 -20t-20 20t20 20t20 -20z" />
    <glyph glyph-name="uhorndotbelow" unicode="&#x1ef1;" horiz-adv-x="456" 
d="M391 439l-44 -333l-9 -106l-25 -4l36 271h-5q-65 -112 -114.5 -179t-98.5 -99h-11q-24 7 -38 30.5t-13 54.5l1 13l43 263l12 101l25 4l-59 -365l-1 -15q-1 -25 10 -42.5t24 -17.5q26 0 90.5 85t142.5 230l4 32l7 90l16 3q80 16 80 66q0 36 -33 70l2 5q8 5 13 5
q6 0 15.5 -10.5t16 -27.5t6.5 -37q0 -67 -93 -87zM222 -107q0 -20 -20 -20t-20 20t20 20t20 -20z" />
    <glyph glyph-name="Ygrave" unicode="&#x1ef2;" horiz-adv-x="469" 
d="M231 195l-24 -195h-20l24 195l7 50l-141 392h25l7 -26l120 -334h5l218 334l14 26h26l-254 -390zM396 742l-7 -15l-5 -3q-107 55 -174 93l-2 5l7 12l5 2q85 -50 176 -94z" />
    <glyph glyph-name="ygrave" unicode="&#x1ef3;" horiz-adv-x="378" 
d="M362 373q0 -49 -39 -115l-143 -243q-65 -111 -122 -160t-114 -49q-34 0 -68 15l-1 20l5 2q37 -17 66 -17q94 0 208 186l-80 438l23 6l12 -74l59 -340h4l134 226q36 60 36 106q0 32 -28 70l1 5l18 6q29 -41 29 -82zM305 532l-11 -13l-5 -1q-75 66 -144 135l-1 5l10 10l5 1
q77 -79 146 -137z" />
    <glyph glyph-name="Ydotbelow" unicode="&#x1ef4;" horiz-adv-x="469" 
d="M231 195l-24 -195h-20l24 195l7 50l-141 392h25l7 -26l120 -334h5l218 334l14 26h26l-254 -390zM207 -107q0 -20 -20 -20t-20 20t20 20t20 -20z" />
    <glyph glyph-name="ydotbelow" unicode="&#x1ef5;" horiz-adv-x="378" 
d="M362 373q0 -49 -39 -115l-143 -243q-65 -111 -122 -160t-114 -49q-34 0 -68 15l-1 20l5 2q37 -17 66 -17q94 0 208 186l-80 438l23 6l12 -74l59 -340h4l134 226q36 60 36 106q0 32 -28 70l1 5l18 6q29 -41 29 -82zM254 -107q0 -20 -20 -20t-20 20t20 20t20 -20z" />
    <glyph glyph-name="Yhookabove" unicode="&#x1ef6;" horiz-adv-x="469" 
d="M231 195l-24 -195h-20l24 195l7 50l-141 392h25l7 -26l120 -334h5l218 334l14 26h26l-254 -390zM323.5 851q12.5 -11 12.5 -27q0 -29 -48 -65l16 -29l-17 -7l-22 41q51 34 51 58q0 20 -26 20t-54 -23l-8 14q34 29 64 29q19 0 31.5 -11z" />
    <glyph glyph-name="yhookabove" unicode="&#x1ef7;" horiz-adv-x="378" 
d="M362 373q0 -49 -39 -115l-143 -243q-65 -111 -122 -160t-114 -49q-34 0 -68 15l-1 20l5 2q37 -17 66 -17q94 0 208 186l-80 438l23 6l12 -74l59 -340h4l134 226q36 60 36 106q0 32 -28 70l1 5l18 6q29 -41 29 -82zM255.5 666q12.5 -11 12.5 -27q0 -29 -48 -65l16 -29
l-17 -7l-22 41q51 34 51 58q0 20 -26 20t-54 -23l-8 14q34 29 64 29q19 0 31.5 -11z" />
    <glyph glyph-name="endash" unicode="&#x2013;" horiz-adv-x="492" 
d="M507 244h-517l-2 3l4 17h517l2 -3z" />
    <glyph glyph-name="emdash" unicode="&#x2014;" horiz-adv-x="972" 
d="M987 244h-997l-2 3l4 17h997l2 -3z" />
    <glyph glyph-name="quoteleft" unicode="&#x2018;" horiz-adv-x="124" 
d="M65 534q0 46 53 102l13 -11v-4q-44 -47 -44 -83q0 -30 38 -39v-4q-1 -3 -10 -16q-50 12 -50 55z" />
    <glyph glyph-name="quoteright" unicode="&#x2019;" horiz-adv-x="124" 
d="M133 579q0 -46 -53 -102l-13 11v4q44 47 44 83q0 30 -38 39v4q1 3 10 16q50 -12 50 -55z" />
    <glyph glyph-name="quotesinglbase" unicode="&#x201a;" horiz-adv-x="230" 
d="M117 -7q0 -42 -66 -93l-10 11l1 3q54 40 54 78q0 20 -30 34v4q5 7 13 11q38 -17 38 -48z" />
    <glyph glyph-name="quotedblleft" unicode="&#x201c;" horiz-adv-x="206" 
d="M151 534q0 46 53 102l13 -11v-4q-44 -47 -44 -83q0 -30 38 -39v-4q-1 -3 -10 -16q-50 12 -50 55zM56 534q0 46 53 102l13 -11v-4q-44 -47 -44 -83q0 -30 38 -39v-4q-1 -3 -10 -16q-50 12 -50 55z" />
    <glyph glyph-name="quotedblright" unicode="&#x201d;" horiz-adv-x="219" 
d="M224 579q0 -46 -53 -102l-13 11v4q44 47 44 83q0 30 -38 39v4q1 3 10 16q50 -12 50 -55zM129 579q0 -46 -53 -102l-13 11v4q44 47 44 83q0 30 -38 39v4q1 3 10 16q50 -12 50 -55z" />
    <glyph glyph-name="quotedblbase" unicode="&#x201e;" horiz-adv-x="325" 
d="M212 -7q0 -42 -66 -93l-10 11l1 3q54 40 54 78q0 20 -30 34v4q5 7 13 11q38 -17 38 -48zM117 -7q0 -42 -66 -93l-10 11l1 3q54 40 54 78q0 20 -30 34v4q5 7 13 11q38 -17 38 -48z" />
    <glyph glyph-name="dagger" unicode="&#x2020;" horiz-adv-x="461" 
d="M259 374l-11 -89l-46 -379h-17l-3 4l46 375l11 89h-173l-2 3l4 17h173l24 192l19 2l1 -2l-24 -192h174l2 -3l-4 -17h-174z" />
    <glyph glyph-name="daggerdbl" unicode="&#x2021;" horiz-adv-x="462" 
d="M229 120h172l3 -3l-4 -17h-174l-24 -194h-17l-2 4l23 190h-173l-3 3l4 17h175l20 165l11 89h-174l-2 3l4 17h174l24 192l18 2l2 -2l-24 -192h173l3 -3l-5 -17h-173l-11 -89z" />
    <glyph glyph-name="bullet" unicode="&#x2022;" horiz-adv-x="230" 
d="M140 237q0 -20 -20 -20t-20 20t20 20t20 -20z" />
    <glyph glyph-name="onedotenleader" unicode="&#x2024;" horiz-adv-x="230" 
d="M109 18q0 -20 -20 -20t-20 20t20 20t20 -20z" />
    <glyph glyph-name="twodotenleader" unicode="&#x2025;" horiz-adv-x="380" 
d="M255 18q0 -20 -20 -20t-20 20t20 20t20 -20zM105 18q0 -20 -20 -20t-20 20t20 20t20 -20z" />
    <glyph glyph-name="ellipsis" unicode="&#x2026;" horiz-adv-x="529" 
d="M229 18q0 -20 -20 -20t-20 20t20 20t20 -20zM379 18q0 -20 -20 -20t-20 20t20 20t20 -20zM79 18q0 -20 -20 -20t-20 20t20 20t20 -20z" />
    <glyph glyph-name="perthousand" unicode="&#x2030;" horiz-adv-x="1172" 
d="M681 656l-577 -746l-8 4l-3 9l576 746l10 -5zM327.5 603q29.5 -35 29.5 -101q0 -96 -42.5 -151t-120.5 -55q-57 0 -86.5 35t-29.5 101q0 96 43.5 151t120.5 55q56 0 85.5 -35zM134 570.5q-37 -48.5 -37 -134.5q0 -59 26 -90t76 -31q66 0 103 48.5t37 134.5q0 59 -26 90
t-76 31q-66 0 -103 -48.5zM713.5 304q29.5 -35 29.5 -101q0 -96 -42.5 -151t-120.5 -55q-57 0 -86.5 35t-29.5 101q0 96 43.5 151t120.5 55q56 0 85.5 -35zM1086.5 304q29.5 -35 29.5 -101q0 -96 -42.5 -151t-120.5 -55q-57 0 -86.5 35t-29.5 101q0 96 43.5 151t120.5 55
q56 0 85.5 -35zM520 271.5q-37 -48.5 -37 -134.5q0 -59 26 -90t76 -31q66 0 103 48.5t37 134.5q0 59 -26 90t-76 31q-66 0 -103 -48.5zM893 271.5q-37 -48.5 -37 -134.5q0 -59 26 -90t76 -31q66 0 103 48.5t37 134.5q0 59 -26 90t-76 31q-66 0 -103 -48.5z" />
    <glyph glyph-name="minute" unicode="&#x2032;" horiz-adv-x="125" 
d="M99 487l-17 -2l-2 4l29 144l18 2l2 -4z" />
    <glyph glyph-name="second" unicode="&#x2033;" horiz-adv-x="200" 
d="M174 487l-17 -2l-2 4l29 144l18 2l2 -4zM99 487l-17 -2l-2 4l29 144l18 2l2 -4z" />
    <glyph glyph-name="guilsinglleft" unicode="&#x2039;" horiz-adv-x="214" 
d="M40 231l175 165l11 -9l-1 -6l-164 -158l126 -158l-1 -6l-13 -9l-135 170z" />
    <glyph glyph-name="guilsinglright" unicode="&#x203a;" horiz-adv-x="210" 
d="M187 215l-175 -165l-11 9l1 6l164 158l-126 158l1 6l13 9l135 -170z" />
    <glyph glyph-name="fraction" unicode="&#x2044;" horiz-adv-x="46" 
d="M306 656l-577 -746l-8 4l-3 9l576 746l10 -5z" />
    <glyph glyph-name="zerosuperior" unicode="&#x2070;" horiz-adv-x="376" 
d="M333.5 663q29.5 -38 29.5 -110q0 -105 -42.5 -165t-120.5 -60q-57 0 -86.5 38t-29.5 110q0 105 43 165t121 60q56 0 85.5 -38zM140 628q-37 -53 -37 -147q0 -64 26 -98.5t76 -34.5q66 0 103 53.5t37 147.5q0 64 -26 98t-76 34q-66 0 -103 -53z" />
    <glyph glyph-name="foursuperior" unicode="&#x2074;" horiz-adv-x="335" 
d="M320 449l-50 1h-19l-13 -117l-3 -2l-16 -2l-2 2l15 119h-140l-31 -1l-3 3l2 15l203 233h19l-29 -232h69l3 -3zM259 668h-3l-174 -200h152z" />
    <glyph glyph-name="fivesuperior" unicode="&#x2075;" horiz-adv-x="288" 
d="M299 682l-3 -2l-30 2h-126l-19 -123l43 -10q107 -24 107 -91q0 -57 -47.5 -93.5t-121.5 -36.5q-20 0 -50 5l-1 16l2 2q33 -5 53 -5q63 0 104 30.5t41 78.5q0 54 -98 76l-49 11l-3 4l22 149l7 6l33 -1h92l46 1l2 -2z" />
    <glyph glyph-name="sixsuperior" unicode="&#x2076;" horiz-adv-x="323" 
d="M104 510l1 -2q54 36 107 36q45 0 69.5 -22t24.5 -62q0 -12 -1 -18q-7 -55 -40.5 -85t-91.5 -30q-49 0 -75.5 28t-26.5 80q0 8 2 26q10 84 70.5 147t159.5 96h3l10 -10l-1 -3q-170 -56 -211 -181zM97 486q-2 -8 -4 -24q-2 -18 -2 -26q0 -92 83 -92q48 0 76.5 25t34.5 72
q1 5 1 14q0 34 -20.5 52.5t-58.5 18.5q-57 0 -110 -40z" />
    <glyph glyph-name="sevensuperior" unicode="&#x2077;" horiz-adv-x="288" 
d="M290 700l24 1l-1 -17l-180 -301l-33 -58l-17 5v4l207 347h-164l-40 -1l-2 4l4 17l46 -1h156z" />
    <glyph glyph-name="eightsuperior" unicode="&#x2078;" horiz-adv-x="321" 
d="M284.5 682.5q22.5 -19.5 22.5 -53.5q0 -72 -92 -104l-1 -2q40 -16 61.5 -34t21.5 -52q0 -49 -36.5 -79t-94.5 -30q-47 0 -74 23t-27 61q0 74 105 110v2q-63 28 -63 79q0 46 32 72.5t83 26.5q40 0 62.5 -19.5zM152 662.5q-26 -22.5 -26 -58.5q0 -27 17.5 -42.5t50.5 -29.5
q94 29 94 93q0 28 -18.5 44t-50.5 16q-41 0 -67 -22.5zM112.5 476.5q-28.5 -21.5 -28.5 -62.5q0 -31 23 -49.5t62 -18.5q49 0 79 24.5t30 62.5q0 22 -12 36.5t-28 22.5t-49 22q-48 -16 -76.5 -37.5z" />
    <glyph glyph-name="ninesuperior" unicode="&#x2079;" horiz-adv-x="323" 
d="M300.5 678q25.5 -27 25.5 -78q0 -93 -61 -164.5t-171 -107.5h-3l-8 10v4q168 54 211 180l-2 2q-51 -36 -107 -36q-44 0 -68 22t-24 63q0 62 36 97t98 35q48 0 73.5 -27zM307 598q0 90 -82 90q-52 0 -82.5 -29.5t-30.5 -82.5q0 -70 78 -70q55 0 111 40q2 7 4 25t2 27z" />
    <glyph glyph-name="franc" unicode="&#x20a3;" horiz-adv-x="374" 
d="M128 256h187l2 -4l-5 -16h-186l-11 -85l-2 -15h119l3 -3l-4 -17h-120l-13 -116h-21l14 116h-69l-3 3l4 17h70l2 14l42 341h250l2 -4l-6 -16h-228z" />
    <glyph glyph-name="Euro" unicode="&#x20ac;" horiz-adv-x="506" 
d="M483 450l-8 -18h-6q-50 42 -123 42q-161 0 -208 -167h217l2 -3l-4 -17h-220q-11 -47 -11 -103h218l2 -3l-4 -17h-215q6 -72 45.5 -110t109.5 -38q80 0 150 50l6 -2l-4 -18q-75 -50 -155 -50t-124.5 43.5t-50.5 124.5h-81l-3 3l5 17h79q2 58 11 103h-77l-2 3l4 17h80
q25 91 85 139t149 48q78 0 133 -44z" />
    <glyph glyph-name="uni2113" unicode="&#x2113;" horiz-adv-x="205" 
d="M87 0l-26 -4l82 612l6 90l26 4l-79 -596z" />
    <glyph glyph-name="trademark" unicode="&#x2122;" horiz-adv-x="574" 
d="M253 635l-4 -15l-42 1h-32l-19 -144l-7 -72h-19l8 70l18 146h-32l-43 -1l-2 2l4 15h168zM534 405h-17v71l1 127h-3l-98 -170h-18l-54 170h-2l-31 -125l-16 -73h-18l55 232h24l10 -35l44 -142h1l85 144l17 33h23z" />
    <glyph glyph-name="Ohm" unicode="&#x2126;" horiz-adv-x="693" 
d="M562 579.5q56 -62.5 56 -178.5q0 -120 -50.5 -218.5t-141.5 -159.5l-1 -3h119l72 1l3 -4l-6 -18l-78 1h-114l-38 -1l-2 2l2 16q102 60 158 159t56 222q0 108 -50.5 166t-145.5 58q-85 0 -146.5 -39t-94 -112.5t-32.5 -174.5q0 -89 34.5 -162t97.5 -117l-2 -16l-2 -2
l-37 1h-121l-72 -1l-3 4l6 18l76 -1h114l1 3q-54 44 -83 114.5t-29 155.5q0 164 77 256.5t217 92.5q104 0 160 -62.5z" />
    <glyph glyph-name="estimated" unicode="&#x212e;" horiz-adv-x="792" 
d="M602 604q84 -44 133 -119.5t49 -165.5v-5h-594q-8 0 -8 -7v-181q0 -11 10 -23q43 -42 102.5 -67t125.5 -25q74 0 140 28t114 75h30q-50 -57 -125 -90t-160 -33q-99 0 -183.5 44t-133.5 119.5t-49 164.5q0 90 49 165.5t133.5 119.5t183.5 44t183 -44zM294.5 604
q-58.5 -24 -101.5 -67q-11 -11 -11 -25v-170q0 -8 8 -8h458q8 0 8 8v174q0 13 -11 24q-43 42 -101.5 65t-123.5 23q-67 0 -125.5 -24z" />
    <glyph glyph-name="arrowleft" unicode="&#x2190;" horiz-adv-x="500" 
d="M21 225v4l190 192l14 -8v-6l-167 -170h415l2 -2l-2 -18h-415l167 -170v-6l-14 -8z" />
    <glyph glyph-name="arrowup" unicode="&#x2191;" horiz-adv-x="500" 
d="M246 455h4l192 -190l-8 -14h-6l-170 167v-415l-2 -2l-18 2v415l-170 -167h-6l-8 14z" />
    <glyph glyph-name="arrowright" unicode="&#x2192;" horiz-adv-x="500" 
d="M476 230v-4l-190 -192l-14 8v6l167 170h-415l-2 2l2 18h415l-167 170v6l14 8z" />
    <glyph glyph-name="arrowdown" unicode="&#x2193;" horiz-adv-x="500" 
d="M251 0h-4l-192 190l8 14h6l170 -167v415l2 2l18 -2v-415l170 167h6l8 -14z" />
    <glyph glyph-name="arrowupleft" unicode="&#x2196;" horiz-adv-x="500" 
d="M106.551 386.551l2.82715 2.82715l270.063 1.41406l4.24121 -15.5527l-4.24121 -4.24219l-238.249 -2.12109l293.393 -293.393v-2.82812l-14.1396 -11.3115l-293.393 293.393l-2.12109 -238.248l-4.24219 -4.24219l-15.5527 4.24219z" />
    <glyph glyph-name="arrowupright" unicode="&#x2197;" horiz-adv-x="500" 
d="M389.551 389.449l2.82715 -2.82715l1.41406 -270.063l-15.5527 -4.24121l-4.24219 4.24121l-2.12109 238.249l-293.393 -293.393h-2.82812l-11.3115 14.1396l293.393 293.393l-238.248 2.12109l-4.24219 4.24219l4.24219 15.5527z" />
    <glyph glyph-name="arrowdownright" unicode="&#x2198;" horiz-adv-x="500" 
d="M390.449 67.4492l-2.82715 -2.82715l-270.063 -1.41406l-4.24121 15.5527l4.24121 4.24219l238.249 2.12109l-293.393 293.393v2.82812l14.1396 11.3115l293.393 -293.393l2.12109 238.248l4.24219 4.24219l15.5527 -4.24219z" />
    <glyph glyph-name="arrowdownleft" unicode="&#x2199;" horiz-adv-x="500" 
d="M108.449 65.5508l-2.82715 2.82715l-1.41406 270.063l15.5527 4.24121l4.24219 -4.24121l2.12109 -238.249l293.393 293.393h2.82812l11.3115 -14.1396l-293.393 -293.393l238.248 -2.12109l4.24219 -4.24219l-4.24219 -15.5527z" />
    <glyph glyph-name="partialdiff" unicode="&#x2202;" horiz-adv-x="504" 
d="M375 556q77 -100 77 -239q0 -35 -4 -64q-16 -125 -77 -192t-159 -67q-84 0 -127.5 42.5t-43.5 123.5q0 20 3 41q13 101 71.5 155t155.5 54q86 -5 159 -66l2 1q-8 123 -82.5 212.5t-210.5 142.5l1 7l6 7h6q146 -58 223 -158zM359.5 77q55.5 62 69.5 176q4 40 4 59
q-80 77 -171 77q-85 0 -136 -48.5t-62 -139.5q-2 -26 -2 -36q0 -73 39 -111.5t114 -38.5q89 0 144.5 62z" />
    <glyph glyph-name="increment" unicode="&#x2206;" horiz-adv-x="524" 
d="M-8 0l318 637h21l139 -637h-478zM23 20h422l-126 583h-4z" />
    <glyph glyph-name="product" unicode="&#x220f;" horiz-adv-x="633" 
d="M569 617l-53 -422l-25 -195h-20l25 195l53 422h-364l-53 -422l-25 -195h-20l25 195l53 422h-49l-2 4l6 16h496l2 -4l-6 -16h-43z" />
    <glyph glyph-name="summation" unicode="&#x2211;" horiz-adv-x="458" 
d="M492 616l-62 1h-316l176 -290l-1 -7l-253 -300h305l69 1l4 -5l-5 -16h-401l2 18l256 306l-177 295l2 18h342l61 1l3 -5z" />
    <glyph glyph-name="minus" unicode="&#x2212;" horiz-adv-x="479" 
d="M444 260h-397l-3 3l2 17h397l3 -3z" />
    <glyph glyph-name="divisionslash" unicode="&#x2215;" horiz-adv-x="290" 
d="M38 -110h-16l-3 4l258 781h16l3 -5z" />
    <glyph glyph-name="bulletoperator" unicode="&#x2219;" horiz-adv-x="231" 
d="M166 237q0 -20 -20 -20t-20 20t20 20t20 -20z" />
    <glyph glyph-name="radical" unicode="&#x221a;" horiz-adv-x="520" 
d="M192 0l-95 432h-88l-2 3l4 17h100l4 -4l90 -417h4l352 676l5 3h19l-371 -710h-22z" />
    <glyph glyph-name="infinity" unicode="&#x221e;" horiz-adv-x="481" 
d="M461.5 362q26.5 -30 26.5 -79q0 -64 -36 -102t-93 -38q-47 0 -72.5 27.5t-43.5 78.5q-29 -51 -61.5 -78.5t-78.5 -27.5q-47 0 -73.5 29.5t-26.5 78.5q0 63 36 102t95 39q48 0 74.5 -26.5t41.5 -70.5q53 97 138 97q47 0 73.5 -30zM53 340.5q-30 -32.5 -30 -86.5
q0 -42 22 -67t60 -25q43 0 72.5 28.5t58.5 79.5q-14 49 -36 76t-67 27q-50 0 -80 -32.5zM311 345.5q-29 -27.5 -55 -75.5q17 -52 40 -80t67 -28q47 0 76.5 32t29.5 87q0 41 -22 66.5t-62 25.5q-45 0 -74 -27.5z" />
    <glyph glyph-name="integral" unicode="&#x222b;" horiz-adv-x="246" 
d="M347 706l-4 -19l-3 -2q-23 9 -53 9q-100 0 -115 -115l-66 -528q-8 -66 -27.5 -104t-70.5 -86l-12 10v5q47 46 65.5 81t25.5 92l65 530q7 65 41.5 100t91.5 35q33 0 62 -8z" />
    <glyph glyph-name="approxequal" unicode="&#x2248;" horiz-adv-x="481" 
d="M133 326l-19 -17h-6l-7 9v5l64 53l6 3q12 -2 93 -22q79 -23 99 -23q8 0 18 7.5t24 20t21 18.5h6l7 -10v-4l-65 -54l-6 -2q-23 2 -101 24q-73 21 -90 21q-10 0 -44 -29zM115 182l-19 -17h-6l-7 9v5l64 53l6 3q12 -2 93 -22q79 -23 99 -23q8 0 18 7.5t24 20t21 18.5h6
l7 -10v-4l-65 -54l-6 -2q-23 2 -101 24q-73 21 -90 21q-10 0 -44 -29z" />
    <glyph glyph-name="notequal" unicode="&#x2260;" horiz-adv-x="479" 
d="M225 208h209l3 -3l-2 -17h-218l-56 -155h-17l-3 3l55 152h-158l-3 3l2 17h166l45 124h-192l-3 3l2 17h201l52 144h17l3 -4l-51 -140h175l3 -3l-2 -17h-183z" />
    <glyph glyph-name="lessequal" unicode="&#x2264;" horiz-adv-x="505" 
d="M459 436l-390 -164l-1 -4l355 -153l-8 -15l-4 -2l-370 160l3 22l3 4l410 171l5 -14zM409 -65h-397l-3 3l2 17h397l3 -3z" />
    <glyph glyph-name="greaterequal" unicode="&#x2265;" horiz-adv-x="505" 
d="M480 280l-3 -22l-409 -160l-4 2l-4 15l393 153v4l-350 164l-2 5l9 14l368 -171zM409 -65h-397l-3 3l2 17h397l3 -3z" />
    <glyph glyph-name="lozenge" unicode="&#x25ca;" horiz-adv-x="480" 
d="M412 289l-2 -14l-204 -351h-15l-2 2l-120 349l2 14l204 351h15l2 -2zM89 282l111 -325h4l188 325l-111 324h-4z" />
    <glyph glyph-name="dieresisacute" unicode="&#xf6d7;" 
d="M349 720l-3 -5q-80 -29 -187 -61l-5 4l-4 16q93 26 190 62l4 -3zM187 575q0 -20 -20 -20t-20 20t20 20t20 -20zM327 575q0 -20 -20 -20t-20 20t20 20t20 -20z" />
    <glyph glyph-name="dieresisgrave" unicode="&#xf6d8;" 
d="M353 674l-6 -16l-6 -4q-108 34 -179 61l-3 5l7 13l4 3q92 -36 183 -62zM183 578q0 -10 -6.5 -16.5t-16.5 -6.5q-18 0 -18 17q0 10 6.5 16.5t16.5 6.5q18 0 18 -17zM323 578q0 -10 -6.5 -16.5t-16.5 -6.5q-18 0 -18 17q0 10 6.5 16.5t16.5 6.5q18 0 18 -17z" />
    <glyph glyph-name="Iacute_J.loclNLD" horiz-adv-x="495" 
d="M100 0h-20l25 195l55 442h20l-55 -442zM290 822l-2 -5q-67 -38 -174 -93l-5 3l-7 15q91 44 176 94l5 -2zM382 212l-12 -97q-9 -70 -44 -118.5t-109 -94.5l-9 11v6q68 42 102 88t41 108l11 93l51 409h-125l-4 4l5 16h146zM488 822l-2 -5q-67 -38 -174 -93l-5 3l-7 15
q91 44 176 94l5 -2z" />
    <glyph glyph-name="Q.corta" horiz-adv-x="593" 
d="M541 -168l-1 -6l-7 -11h-5q-164 64 -237 181l-24 -1q-102 0 -156.5 67t-54.5 191q0 121 35 208.5t102.5 134t161.5 46.5q104 0 158.5 -65t54.5 -186q0 -169 -66.5 -272.5t-188.5 -120.5q67 -103 228 -166zM126.5 78q49.5 -63 141.5 -63q87 0 150 45.5t96 129t33 197.5
q0 113 -49 174t-144 61q-87 0 -149 -44t-95 -126.5t-33 -195.5q0 -115 49.5 -178z" />
    <glyph glyph-name="C.ss01" horiz-adv-x="436" 
d="M377 471q27 -13 42 -25l-9 -18h-6q-46 43 -115 43q-102 0 -158.5 -72t-56.5 -200q0 -87 38 -133t111 -46q76 0 143 50l6 -2l-4 -18q-24 -16 -57 -30h195l-2 -20h-628l2 20h258q-82 44 -82 177q0 104 36.5 174.5t104.5 99.5h-259l2 20h628l-2 -20h-187z" />
    <glyph glyph-name="D.ss01" horiz-adv-x="524" 
d="M384 471q93 -43 93 -173q0 -103 -39 -175.5t-111 -102.5h267l-2 -20h-716l2 20h200l17 131l40 320h-199l2 20h716l-2 -20h-268zM413 424.5q-43 45.5 -124 45.5l-135 -4l-39 -314l-17 -129l71 -3h80q98 8 152.5 81t54.5 194q0 84 -43 129.5z" />
    <glyph glyph-name="I.ss01" horiz-adv-x="220" 
d="M290 20l-2 -20h-412l2 20h196l58 451h-196l2 20h412l-2 -20h-196l-58 -451h196z" />
    <glyph glyph-name="L.ss01" horiz-adv-x="340" 
d="M93 20h182l12 90h20l-11 -90h114l-2 -20h-532l2 20h195l18 146l38 305h-193l2 20h532l-2 -20h-319l-38 -305z" />
    <glyph glyph-name="M.ss01" horiz-adv-x="634" 
d="M526 20h179l-2 -20h-827l2 20h176l107 451h-225l2 20h827l-3 -20h-225zM193 471l15 -56l91 -308h3l177 316l27 48h-313zM511 157l5 289h-4l-203 -367h-23l-109 367h-2l-69 -288l-32 -138h433z" />
    <glyph glyph-name="V.ss01" horiz-adv-x="449" 
d="M212 20h307l-2 -20h-641l2 20h300l-107 451h-135l2 20h641l-2 -20h-129zM91 471l3 -18l102 -421h2l220 421l9 18h-336z" />
    <glyph glyph-name="X.ss01" horiz-adv-x="471" 
d="M380 20h161l-2 -20h-663l2 20h152l190 233l-125 218h-159l2 20h663l-2 -20h-175l-179 -218zM389 456l10 15h-278l5 -11l110 -191zM60 31l-8 -11h302l-6 12l-117 206z" />
    <glyph glyph-name="i.loclTRK" horiz-adv-x="203" 
d="M88 0l-27 -4l49 366l6 90l25 4l-46 -350zM168 610q0 -20 -20 -20t-20 20t20 20t20 -20z" />
    <glyph glyph-name="germandbls.calt" horiz-adv-x="564" 
d="M523 586l2 -11l-209 -231q97 -11 148 -52t51 -109q0 -53 -25.5 -96t-69 -67t-94.5 -24q-37 0 -76 12.5t-66 34.5l5 19l5 2q25 -23 61.5 -35.5t71.5 -12.5q47 0 85.5 22.5t60.5 60t22 81.5q0 127 -206 145l-1 15l211 235q-78 45 -159 45q-83 0 -139.5 -51t-66.5 -135
l-30 -238l-25 -196h-20l25 190l30 243q8 61 39.5 108t80.5 73t109 26q87 0 180 -54z" />
    <glyph glyph-name="f.f" horiz-adv-x="249" 
d="M164 429l-30 -237l-27 -216l-9 -106l-25 -4l41 324l30 239h-69l-4 4l4 16h72l10 79q20 154 148 154l74 -12l2 -3l-7 -20h-6q-39 15 -69 15q-105 0 -122 -134l-10 -79h236l3 -4l-4 -16h-238z" />
    <glyph glyph-name="iacute_j.loclNLD" horiz-adv-x="415" 
d="M88 0l-27 -4l49 366l6 90l25 4l-46 -350zM230 658l-1 -5q-69 -69 -144 -135l-5 1l-11 13q69 58 146 137l5 -1zM308 93l-11 -75q-10 -80 -36.5 -124.5t-86.5 -85.5l-11 11l1 6q55 37 78 76t32 107l49 358l5 63h-83l-4 4l4 16h87l19 3l2 -1zM425 658l-1 -5
q-69 -69 -144 -135l-5 1l-11 13q69 58 146 137l5 -1z" />
    <glyph glyph-name="f.l" horiz-adv-x="257" 
d="M414 675l-4 -2q-48 12 -92 12q-59 0 -94.5 -34t-43.5 -100l-13 -102h116l3 -4l-4 -16h-118l-30 -237l-27 -216l-9 -106l-25 -4l41 324l30 239h-69l-4 4l4 16h72l13 102q10 76 52 115t112 39l94 -7l2 -3z" />
    <glyph glyph-name="a.sups" horiz-adv-x="299" 
d="M255 418l-5 -68l-23 -3l22 169h-4q-57 -107 -127 -169h-8q-21 13 -29.5 34t-8.5 59q0 82 39.5 139.5t109.5 63.5h3l43 -4l14 6l4 -2zM145 395.5q22 24.5 52 69t58 100.5l2 16l4 41l-40 3q-59 -1 -94.5 -53.5t-35.5 -126.5q0 -37 9 -55.5t17 -18.5q6 0 28 24.5z" />
    <glyph glyph-name="b.sups" horiz-adv-x="299" 
d="M283 608q9 -20 9 -56q0 -83 -40.5 -141t-111.5 -64h-2l-44 10l-15 3l51 385l5 59l23 3l-44 -334h3q60 108 129 169h8q20 -14 29 -34zM210.5 390q30.5 25 46.5 66.5t16 88.5q0 36 -9 54.5t-17 18.5q-6 0 -28 -24.5t-52 -67.5t-59 -98l-6 -53l38 -10q40 0 70.5 25z" />
    <glyph glyph-name="c.sups" horiz-adv-x="231" 
d="M268 626l-6 -15l-5 -2q-27 16 -44 16q-57 -1 -88.5 -48.5t-31.5 -129.5t51 -82q49 0 85 63h4l8 -10q-22 -35 -45 -51t-53 -20h-5q-32 4 -48.5 24.5t-16.5 74.5q0 89 38 143t113 54l40 -12z" />
    <glyph glyph-name="d.sups" horiz-adv-x="298" 
d="M256 418l-6 -68l-23 -3l23 169h-4q-57 -106 -129 -169h-8q-20 12 -29 33t-9 57q0 83 40.5 141t111.5 64h3l40 -3l14 106l4 59l23 3zM144 395.5q23 24.5 53 68t59 99.5l8 59l-41 2q-40 0 -70 -25t-46 -66.5t-16 -89.5q0 -36 8.5 -54t16.5 -18q5 0 28 24.5z" />
    <glyph glyph-name="e.sups" horiz-adv-x="250" 
d="M241 418q-39 -64 -97 -71h-6q-35 4 -50.5 27.5t-15.5 70.5q0 56 17.5 101t47.5 71t67 27h4q51 -4 51 -47q0 -76 -167 -134v-13q0 -86 51 -86q49 0 86 64l5 -1zM130.5 585.5q-30.5 -40.5 -37.5 -105.5q71 26 109 55.5t38 58.5q0 32 -37 32q-42 0 -72.5 -40.5z" />
    <glyph glyph-name="f.sups" horiz-adv-x="185" 
d="M282 780l-4 -1q-24 11 -46 11q-28 0 -46.5 -21.5t-23.5 -61.5l-9 -69h76l2 -3l-3 -14h-77l-19 -147l-20 -156l-5 -68l-24 -3l29 225l19 149h-45l-3 3l3 14h47l8 67q7 49 31 75.5t62 26.5l53 -7l1 -3z" />
    <glyph glyph-name="g.sups" horiz-adv-x="299" 
d="M260 435l-8 -62q-9 -75 -47 -112t-98 -37q-39 0 -64.5 20.5t-33.5 58.5l3 6l99 65v3q-24 24 -24 76q0 77 37.5 130.5t103.5 58.5h3l39 -2l13 5l3 -2zM113 408q8 -16 16 -16q5 0 26 22t49 62t54 91l2 19l3 37l-35 2q-56 0 -89.5 -49t-33.5 -118q0 -34 8 -50zM249 526
q-54 -99 -120 -157l-93 -62q-4 -2 -4 -6q0 -9 8 -24q20 -35 69 -35t81.5 32t41.5 94l20 158h-3z" />
    <glyph glyph-name="h.sups" horiz-adv-x="317" 
d="M289 626q11 -15 10 -35l-1 -9l-28 -167l-7 -65l-23 -3l37 229l1 10q0 15 -6.5 25.5t-15.5 10.5q-17 0 -58.5 -53t-90.5 -143l-1 -8l-5 -68l-23 -3l53 398l4 59l23 3l-44 -332h4q79 135 136 171h7q17 -5 28 -20z" />
    <glyph glyph-name="i.sups" horiz-adv-x="148" 
d="M155 750q0 -8 -5.5 -13.5t-13.5 -5.5q-15 0 -15 14q0 19 18 19q16 0 16 -14zM102 350l-25 -3l32 234l3 59l23 3l-29 -225z" />
    <glyph glyph-name="j.sups" horiz-adv-x="156" 
d="M157 748q0 -17 -16 -17q-17 0 -17 17q0 16 17 16q16 0 16 -16zM113 411l-7 -49q-7 -51 -24.5 -80t-56.5 -55l-9 10l1 4q33 23 47.5 47.5t20.5 67.5l31 227l2 38h-50l-3 3l3 14h53l19 2h2z" />
    <glyph glyph-name="k.sups" horiz-adv-x="300" 
d="M198 467q40 -58 89 -116l-1 -2l-16 -6l-3 1q14 -17 -73 95l-19 26l1 7q110 58 110 116q0 17 -8.5 25.5t-17.5 8.5q-45 0 -153 -196l-1 -8l-5 -68l-23 -3l53 398l4 59l23 3l-44 -329h5q42 71 72.5 110.5t62.5 54.5l10 1q43 -7 43 -51q0 -66 -109 -126z" />
    <glyph glyph-name="l.sups" horiz-adv-x="149" 
d="M102 350l-24 -3l53 398l3 59l24 3l-51 -389z" />
    <glyph glyph-name="m.sups" horiz-adv-x="486" 
d="M458 626q11 -15 10 -35l-1 -9l-28 -167l-7 -65l-23 -3l37 229l1 10q0 15 -6.5 25.5t-15.5 10.5q-17 0 -59.5 -55t-94.5 -149v-3l-7 -65l-24 -3l38 229l1 10q0 15 -7 25.5t-15 10.5q-17 0 -58.5 -53t-90.5 -143l-1 -8l-6 -68l-23 -3l31 234l4 59l23 3l-22 -168h5
q41 69 72.5 110t62.5 61h8q17 -5 28 -20t10 -35l-1 -9l-18 -107h7q79 134 135 171h7q17 -5 28 -20z" />
    <glyph glyph-name="n.sups" horiz-adv-x="317" 
d="M289 626q11 -15 10 -35l-1 -9l-28 -167l-7 -65l-23 -3l37 229l1 10q0 15 -6.5 25.5t-15.5 10.5q-17 0 -58 -52.5t-90 -141.5l-1 -10l-6 -68l-23 -3l31 234l4 59l23 3l-22 -168h4q41 69 72.5 110t63.5 61h7q17 -5 28 -20z" />
    <glyph glyph-name="o.sups" horiz-adv-x="282" 
d="M260 619q16 -22 16 -66q0 -89 -36 -146t-98 -61h-4q-35 2 -51 24.5t-16 68.5q0 89 36.5 146.5t99.5 58.5h3q34 -3 50 -25zM122.5 574q-31.5 -52 -31.5 -133q0 -77 52 -77q50 0 81.5 52.5t31.5 133.5q0 39 -12 57.5t-39 18.5q-51 0 -82.5 -52z" />
    <glyph glyph-name="p.sups" horiz-adv-x="298" 
d="M283 608q9 -20 9 -56q0 -83 -40.5 -141t-111.5 -64h-3l-38 9l-8 -59l-5 -68l-24 -3l47 355l3 59l23 3l-22 -170h4q60 108 129 169h7q21 -14 30 -34zM210 390q30 25 46 66.5t16 88.5q0 37 -8.5 55t-16.5 18q-6 0 -28.5 -24.5t-52.5 -68t-59 -98.5l-6 -52l39 -10
q40 0 70 25z" />
    <glyph glyph-name="q.sups" horiz-adv-x="298" 
d="M239 297l-5 -68l-23 -3l38 290h-4q-58 -105 -128 -169h-8q-20 12 -29 33t-9 57q0 83 40.5 141t111.5 64h2l41 -3l14 6l4 -2zM143.5 395.5q22.5 24.5 52.5 68t59 98.5l2 19l3 41l-38 2q-40 0 -69.5 -25t-45.5 -66.5t-16 -89.5q0 -36 8.5 -54t16.5 -18q5 0 27.5 24.5z" />
    <glyph glyph-name="r.sups" horiz-adv-x="215" 
d="M256 618l-3 -2l-8 2q-23 0 -60 -52t-78 -143l-1 -5l-6 -68l-23 -3l30 234l5 59l22 3l-21 -169h6q34 75 69.5 120t59.5 46l11 -1z" />
    <glyph glyph-name="s.sups" horiz-adv-x="220" 
d="M229 629l-6 -17l-4 -1q-24 14 -48 14q-29 0 -48.5 -17.5t-19.5 -40.5q0 -17 12 -30t37 -30q29 -21 44 -38t15 -42q0 -34 -28 -57t-72 -24q-34 4 -59 21l3 18l5 3q26 -24 60 -24q30 0 50.5 17.5t20.5 41.5q0 20 -12.5 34t-38.5 33q-27 19 -41.5 35.5t-14.5 41.5
q0 33 27 54.5t68 20.5q30 -3 50 -13z" />
    <glyph glyph-name="t.sups" horiz-adv-x="221" 
d="M112 393q1 -28 29 -28q42 0 67 62h6l6 -9q-28 -64 -77 -71h-7q-43 4 -43 42l1 18l30 174l6 40h-46l-3 3l2 14h49l12 82l21 8l3 -2l-15 -88h99l2 -3l-2 -14h-102l-36 -213z" />
    <glyph glyph-name="u.sups" horiz-adv-x="314" 
d="M273 418l-6 -68l-23 -3l22 167h-3q-42 -69 -73 -110t-62 -61h-8q-17 5 -28 20t-10 36l1 8l28 167l7 65l23 3l-37 -229l-1 -9q0 -15 6.5 -26t15.5 -11q17 0 57 51.5t90 139.5l3 23l4 59l23 3z" />
    <glyph glyph-name="v.sups" horiz-adv-x="268" 
d="M284 590q0 -33 -27 -75l-106 -165h-22l-34 289l22 4l4 -48l23 -219h2l94 147q24 39 24 67q0 21 -18 44l19 8q19 -27 19 -52z" />
    <glyph glyph-name="w.sups" horiz-adv-x="450" 
d="M466 590q0 -31 -26 -75l-99 -165h-21l-33 259h-3l-127 -259h-25l-37 289l21 3l3 -31l29 -234h3l114 233l14 30h23l3 -29l29 -234h3l86 146q23 43 23 67q0 21 -18 44l19 8q19 -25 19 -52z" />
    <glyph glyph-name="x.sups" horiz-adv-x="289" 
d="M251 347l-12 27l-61 109l-92 -111l-15 -22h-26l122 150l-75 138l21 5l10 -22l58 -106l86 103l16 22h25l-116 -143l81 -144z" />
    <glyph glyph-name="y.sups" horiz-adv-x="266" 
d="M281 588q0 -36 -25 -76l-91 -150q-44 -72 -81.5 -104t-75.5 -32q-23 0 -47 9l-1 19l4 2q24 -10 44 -10q63 0 132 110l-55 283l22 4l8 -48l38 -211h4l83 138q22 37 22 66q0 21 -18 46l18 8q19 -24 19 -54z" />
    <glyph glyph-name="z.sups" horiz-adv-x="274" 
d="M76 380l18 3q14 0 44 -10q28 -10 43 -10q66 0 72 104l7 1l9 -8q-6 -116 -89 -116q-19 0 -48 11q-32 10 -47 10q-23 0 -40 -18h-3l-8 7l208 268l-126 -1l-30 -1l-1 3l3 17l2 2l33 -2h134l12 8l9 -7z" />
    <glyph glyph-name="f.t" horiz-adv-x="257" 
d="M164 429l-30 -237l-27 -216l-9 -106l-25 -4l41 324l30 239h-69l-4 4l4 16h72l13 102q20 154 148 154l74 -12l2 -3l-7 -20h-6q-39 15 -69 15q-104 0 -122 -134l-13 -102h246l3 -4l-4 -16h-248z" />
    <glyph glyph-name="dotlessi.sc" horiz-adv-x="233" 
 />
    <glyph glyph-name="dotlessj.sc" horiz-adv-x="261" 
 />
    <glyph glyph-name="kgreenlandic.sc" horiz-adv-x="439" 
 />
    <glyph glyph-name="zero.lf" horiz-adv-x="547" 
d="M444.5 526q44.5 -61 44.5 -172q0 -167 -63.5 -262.5t-178.5 -95.5q-84 0 -128.5 61t-44.5 173q0 166 64 261.5t179 95.5q83 0 127.5 -61zM152.5 477.5q-58.5 -89.5 -58.5 -244.5q0 -104 40 -160.5t115 -56.5q68 0 117.5 40.5t76 116t26.5 178.5q0 104 -39.5 160
t-114.5 56q-104 0 -162.5 -89.5z" />
    <glyph glyph-name="one.lf" horiz-adv-x="338" 
d="M188 206l-26 -206h-20l25 201l45 365l-155 -45l-4 3l2 16l176 53l4 -4z" />
    <glyph glyph-name="two.lf" horiz-adv-x="482" 
d="M369 559.5q33 -29.5 33 -76.5q0 -48 -37 -104t-131 -162l-170 -194l2 -3h271l90 1l2 -5l-6 -17l-93 1h-253l-44 -1l-1 2l2 17l187 214q63 72 94 111t49 73t18 65q0 38 -26 63t-74 25q-92 0 -172 -93h-4l-2 18q83 95 179 95q53 0 86 -29.5z" />
    <glyph glyph-name="three.lf" horiz-adv-x="418" 
d="M312 561q32 -29 32 -76q0 -49 -35 -94t-90 -70l-1 -3q58 -13 88.5 -47t30.5 -85q0 -54 -29.5 -97t-81 -67t-116.5 -24q-44 0 -86 8l-1 17l3 3q43 -8 86 -8q60 0 106.5 21t72.5 59t26 87q0 55 -39.5 86t-114.5 35h-47l-3 3l3 16h43q33 0 72 21t65.5 57t26.5 78
q0 40 -27 64t-71 24q-66 0 -138 -63h-4l-1 18q75 66 146 66q52 0 84 -29z" />
    <glyph glyph-name="four.lf" horiz-adv-x="479" 
d="M421 193l-71 1h-34l-24 -191l-2 -3l-16 -3l-2 3l24 194h-215l-42 -1l-3 4l2 17l303 372h22l-45 -372h105l4 -4zM339 547h-4l-271 -333h234z" />
    <glyph glyph-name="five.lf" horiz-adv-x="409" 
d="M388 567l-4 -2l-41 1h-195l-27 -206l64 -15q83 -19 122.5 -55t39.5 -92q0 -58 -31 -104t-87 -72t-128 -26q-34 0 -72 7l-2 17l4 3q39 -7 74 -7q65 0 115.5 23t78.5 64t28 93q0 47 -37 78.5t-114 50.5l-72 17l-3 5l29 232l10 8l49 -1h136l65 1l2 -2z" />
    <glyph glyph-name="six.lf" horiz-adv-x="455" 
d="M197 450.5q-79 -79.5 -107 -171.5l3 -3q73 59 157 59q69 0 108 -37t39 -106q0 -44 -17 -89t-59.5 -77t-113.5 -32q-75 0 -114 46t-39 130q0 74 32 153.5t110.5 152.5t208.5 116h4l7 -11v-4q-140 -47 -219 -126.5zM82 247q-8 -35 -8 -74q0 -76 34 -117.5t100 -41.5
q63 0 101 28t53 68t15 80q0 60 -33.5 92.5t-94.5 32.5q-88 0 -167 -68z" />
    <glyph glyph-name="seven.lf" horiz-adv-x="411" 
d="M380 586l37 1l-2 -18l-283 -493l-46 -86l-20 6v4l325 566h-257l-58 -1l-3 5l5 17l64 -1h238z" />
    <glyph glyph-name="eight.lf" horiz-adv-x="456" 
d="M363 557.5q35 -31.5 35 -89.5q0 -110 -138 -161v-3q41 -18 67 -34t42.5 -42.5t16.5 -66.5q0 -47 -23 -84.5t-65 -59t-96 -21.5q-71 0 -112.5 36.5t-41.5 98.5q0 117 158 174v3q-49 22 -74 51.5t-25 79.5q0 67 45.5 108.5t116.5 41.5q59 0 94 -31.5zM165.5 533
q-39.5 -36 -39.5 -94q0 -48 27 -73.5t80 -49.5q145 46 145 151q0 49 -29 75.5t-81 26.5q-63 0 -102.5 -36zM113.5 235q-45.5 -36 -45.5 -103q0 -54 36 -85t99 -31q73 0 118 40.5t45 102.5q0 38 -18 62.5t-42.5 38.5t-75.5 36q-71 -25 -116.5 -61z" />
    <glyph glyph-name="nine.lf" horiz-adv-x="455" 
d="M390 546q39 -46 39 -130q0 -74 -32 -153.5t-110.5 -152.5t-208.5 -116h-4l-7 11v4q140 47 219 126.5t107 171.5l-3 3q-73 -59 -157 -59q-69 0 -108 37t-39 106q0 44 17 89t59.5 77t113.5 32q75 0 114 -46zM401 339q8 35 8 74q0 76 -34 117.5t-100 41.5q-63 0 -101 -28
t-53 -68t-15 -80q0 -60 33.5 -92.5t94.5 -32.5q88 0 167 68z" />
    <glyph glyph-name="zero.sinf" horiz-adv-x="376" 
d="M279.5 210q29.5 -38 29.5 -110q0 -105 -42.5 -165t-120.5 -60q-57 0 -86.5 38t-29.5 110q0 105 43 165t121 60q56 0 85.5 -38zM86 175q-37 -53 -37 -147q0 -64 26 -98.5t76 -34.5q66 0 103 53.5t37 147.5q0 64 -26 98t-76 34q-66 0 -103 -53z" />
    <glyph glyph-name="one.sinf" horiz-adv-x="240" 
d="M126 9l-16 -130h-20l16 126l27 222l-101 -27l-4 2l2 16l123 35l3 -4z" />
    <glyph glyph-name="two.sinf" horiz-adv-x="336" 
d="M203.5 232.5q22.5 -18.5 22.5 -48.5q0 -31 -24.5 -65.5t-87.5 -101.5l-108 -116l2 -2h175l61 1l1 -4l-5 -17l-65 1h-169l-29 -1l-2 2l2 15l123 131q60 64 82.5 94.5t22.5 57.5q0 23 -17 38t-47 15q-62 0 -114 -57h-3l-2 17q54 59 123 59q36 0 58.5 -18.5z" />
    <glyph glyph-name="three.sinf" horiz-adv-x="294" 
d="M177.5 232.5q22.5 -18.5 22.5 -49.5q0 -30 -23 -58t-60 -44v-2q38 -8 58.5 -29.5t20.5 -53.5q0 -52 -44 -85.5t-111 -33.5q-30 0 -59 6v16l2 2q32 -5 60 -5q58 0 95 27t37 72q0 33 -26 52t-74 21h-33l-2 2l3 15h29q21 0 46 12.5t42 34t17 46.5t-17.5 39.5t-46.5 14.5
q-43 0 -91 -39h-3l-2 17q51 41 100 41q37 0 59.5 -18.5z" />
    <glyph glyph-name="four.sinf" horiz-adv-x="335" 
d="M252 -3l-50 1h-19l-13 -117l-3 -2l-16 -2l-2 2l15 119h-140l-31 -1l-3 3l2 15l203 233h19l-29 -232h69l3 -3zM191 216h-3l-174 -200h152z" />
    <glyph glyph-name="five.sinf" horiz-adv-x="288" 
d="M239 231l-3 -2l-30 2h-126l-19 -123l43 -10q107 -24 107 -91q0 -57 -47.5 -93.5t-121.5 -36.5q-20 0 -50 5l-1 16l2 2q33 -5 53 -5q63 0 104 30.5t41 78.5q0 54 -98 76l-49 11l-3 4l22 149l7 6l33 -1h92l46 1l2 -2z" />
    <glyph glyph-name="six.sinf" horiz-adv-x="323" 
d="M37 59l1 -2q54 36 107 36q45 0 69.5 -22t24.5 -62q0 -12 -1 -18q-7 -55 -40.5 -85t-91.5 -30q-49 0 -75.5 28t-26.5 80q0 8 2 26q10 84 70.5 147t159.5 96h3l10 -10l-1 -3q-170 -56 -211 -181zM30 35q-2 -8 -4 -24q-2 -18 -2 -26q0 -92 83 -92q48 0 76.5 25t34.5 72
q1 5 1 14q0 34 -20.5 52.5t-58.5 18.5q-57 0 -110 -40z" />
    <glyph glyph-name="seven.sinf" horiz-adv-x="288" 
d="M247 249l24 1l-1 -17l-180 -301l-33 -58l-17 5v4l207 347h-164l-40 -1l-2 4l4 17l46 -1h156z" />
    <glyph glyph-name="eight.sinf" horiz-adv-x="321" 
d="M219.5 231.5q22.5 -19.5 22.5 -53.5q0 -72 -92 -104l-1 -2q40 -16 61.5 -34t21.5 -52q0 -49 -36.5 -79t-94.5 -30q-47 0 -74 23t-27 61q0 74 105 110v2q-63 28 -63 79q0 46 32 72.5t83 26.5q40 0 62.5 -19.5zM87 211.5q-26 -22.5 -26 -58.5q0 -27 17.5 -42.5t50.5 -29.5
q94 29 94 93q0 28 -18.5 44t-50.5 16q-41 0 -67 -22.5zM47.5 25.5q-28.5 -21.5 -28.5 -62.5q0 -31 23 -49.5t62 -18.5q49 0 79 24.5t30 62.5q0 22 -12 36.5t-28 22.5t-49 22q-48 -16 -76.5 -37.5z" />
    <glyph glyph-name="nine.sinf" horiz-adv-x="323" 
d="M247.5 226q25.5 -27 25.5 -78q0 -93 -61 -164.5t-171 -107.5h-3l-8 10v4q168 54 211 180l-2 2q-51 -36 -107 -36q-44 0 -68 22t-24 63q0 62 36 97t98 35q48 0 73.5 -27zM254 146q0 90 -82 90q-52 0 -82.5 -29.5t-30.5 -82.5q0 -70 78 -70q55 0 111 40q2 7 4 25t2 27z" />
    <glyph glyph-name="zero.tf" horiz-adv-x="481" 
d="M397.5 527.5q39.5 -59.5 39.5 -168.5q0 -111 -26.5 -193t-76.5 -126t-121 -44q-75 0 -115 59.5t-40 169.5q0 111 26.5 192.5t77 125.5t121.5 44q75 0 114.5 -59.5zM172 525.5q-46 -41.5 -70 -118t-24 -179.5q0 -102 35.5 -157t101.5 -55q63 0 108.5 41.5t69.5 118
t24 180.5q0 102 -35 156.5t-101 54.5q-63 0 -109 -41.5z" />
    <glyph glyph-name="one.tf" horiz-adv-x="475" 
d="M259 206l-26 -206h-20l25 201l45 365l-192 -45l-5 3l2 16l213 53l5 -4z" />
    <glyph glyph-name="two.tf" horiz-adv-x="475" 
d="M366.5 559.5q32.5 -29.5 32.5 -76.5q0 -48 -37 -104t-129 -162l-167 -194l2 -3h266l88 1l2 -5l-6 -17l-91 1h-249l-43 -1l-1 2l2 17l184 214q90 104 124.5 154.5t34.5 94.5q0 38 -26 63t-72 25q-90 0 -169 -93h-4l-2 18q81 95 176 95q52 0 84.5 -29.5z" />
    <glyph glyph-name="three.tf" horiz-adv-x="476" 
d="M346 561q33 -29 33 -76q0 -49 -36 -94t-93 -70l-1 -3q60 -13 92 -47t32 -86q0 -54 -30 -96.5t-83.5 -66.5t-119.5 -24q-46 0 -89 8l-1 17l3 3q45 -8 89 -8q61 0 109 21t75 58.5t27 86.5q0 56 -41 87t-119 35h-48l-3 3l3 16h44q34 0 74 21t67.5 57t27.5 78q0 40 -28 64
t-74 24q-69 0 -142 -63h-4l-1 18q76 66 150 66q54 0 87 -29z" />
    <glyph glyph-name="four.tf" horiz-adv-x="475" 
d="M418 193l-71 1h-34l-24 -191l-2 -3l-16 -3l-2 3l24 194h-215l-42 -1l-3 4l2 17l303 372h22l-45 -372h105l4 -4zM336 547h-4l-271 -333h234z" />
    <glyph glyph-name="five.tf" horiz-adv-x="475" 
d="M430 567l-4 -2l-43 1h-204l-27 -206l67 -15q87 -20 128.5 -56t41.5 -92q0 -58 -32.5 -103.5t-91 -71.5t-132.5 -26q-35 0 -74 7l-3 17l5 3q41 -7 76 -7q68 0 120.5 23t82 64t29.5 92q0 48 -39 79.5t-120 50.5l-75 17l-3 5l29 232l10 8l51 -1h142l68 1l2 -2z" />
    <glyph glyph-name="six.tf" horiz-adv-x="475" 
d="M206 450.5q-79 -79.5 -107 -171.5l3 -3q73 59 157 59q69 0 108 -37t39 -106q0 -44 -17 -89t-59.5 -77t-113.5 -32q-75 0 -114 46t-39 130q0 74 32 153.5t110.5 152.5t208.5 116h4l7 -11v-4q-140 -47 -219 -126.5zM91 247q-8 -35 -8 -74q0 -76 34 -117.5t100 -41.5
q63 0 101 28t53 68t15 80q0 60 -33.5 92.5t-94.5 32.5q-88 0 -167 -68z" />
    <glyph glyph-name="seven.tf" horiz-adv-x="476" 
d="M424 586l40 1l-2 -18l-300 -493l-48 -86l-20 6v4l343 566h-276l-62 -1l-3 5l5 17l68 -1h255z" />
    <glyph glyph-name="eight.tf" horiz-adv-x="477" 
d="M376.5 557.5q35.5 -31.5 35.5 -89.5q0 -109 -141 -161v-3q42 -17 68.5 -33.5t43.5 -43t17 -66.5q0 -47 -23.5 -84.5t-66 -59t-97.5 -21.5q-73 0 -115 36.5t-42 98.5q0 117 161 174v3q-50 23 -75.5 52t-25.5 79q0 67 46 108.5t118 41.5q61 0 96.5 -31.5zM175 533
q-40 -36 -40 -94q0 -48 27.5 -73.5t81.5 -49.5q148 47 148 151q0 49 -29.5 75.5t-83.5 26.5q-64 0 -104 -36zM122.5 234.5q-46.5 -35.5 -46.5 -102.5q0 -54 37 -85t101 -31q74 0 120 40.5t46 102.5q0 38 -18 62.5t-43.5 38.5t-77.5 36q-72 -26 -118.5 -61.5z" />
    <glyph glyph-name="nine.tf" horiz-adv-x="475" 
d="M395 546q39 -46 39 -130q0 -74 -32 -153.5t-110.5 -152.5t-208.5 -116h-4l-7 11v4q140 47 219 126.5t107 171.5l-3 3q-73 -59 -157 -59q-69 0 -108 37t-39 106q0 44 17 89t59.5 77t113.5 32q75 0 114 -46zM406 339q8 35 8 74q0 76 -34 117.5t-100 41.5q-63 0 -101 -28
t-53 -68t-15 -80q0 -60 33.5 -92.5t94.5 -32.5q88 0 167 68z" />
    <glyph glyph-name="zero.tosf" horiz-adv-x="479" 
d="M397 442.5q44 -52.5 44 -150.5q0 -141 -59.5 -218.5t-168.5 -77.5q-82 0 -126.5 51.5t-44.5 146.5q0 142 59.5 221.5t169.5 79.5q82 0 126 -52.5zM116.5 402q-54.5 -73 -54.5 -203q0 -88 39 -135.5t114 -47.5q98 0 152 71.5t54 199.5q0 90 -39.5 139t-113.5 49
q-97 0 -151.5 -73z" />
    <glyph glyph-name="one.tosf" horiz-adv-x="475" 
d="M261 206l-26 -206h-19l24 201l33 265l-192 -45l-5 3l2 16l213 53l4 -4z" />
    <glyph glyph-name="two.tosf" horiz-adv-x="475" 
d="M343 467q29 -25 29 -64q0 -41 -33.5 -88.5t-114.5 -133.5l-149 -158l2 -3h241l80 1l2 -4l-6 -18l-84 1h-228l-39 -1l-2 2l2 16l166 177q80 84 111.5 126.5t31.5 78.5q0 31 -23.5 52t-66.5 21q-82 0 -154 -77h-4l-2 17q34 37 76.5 58.5t87.5 21.5q48 0 77 -25z" />
    <glyph glyph-name="three.tosf" horiz-adv-x="475" 
d="M341 464q34 -29 34 -77q0 -49 -37 -94.5t-95 -68.5l-1 -3q62 -13 95 -47t33 -86q0 -54 -31 -96.5t-85.5 -66.5t-123.5 -24q-46 0 -91 8l-1 17l3 3q46 -8 91 -8q63 0 113 21t77.5 58.5t27.5 86.5q0 56 -42.5 87t-123.5 35h-49l-4 3l3 16h46q35 0 76 21t69.5 57t28.5 77
q0 40 -29 64.5t-76 24.5q-71 0 -147 -63h-4l-1 18q79 66 154 66q56 0 90 -29z" />
    <glyph glyph-name="four.tosf" horiz-adv-x="476" 
d="M415 98l-71 1h-35l-24 -191l-2 -3l-16 -3l-2 3l24 194h-218l-42 -1l-3 4l2 17l306 372h22l-45 -372h106l4 -4zM332 452h-4l-274 -333h237z" />
    <glyph glyph-name="five.tosf" horiz-adv-x="476" 
d="M418 472l-4 -2l-43 1h-207l-27 -206l68 -15q88 -19 130 -55.5t42 -92.5q0 -58 -32.5 -104t-91 -71.5t-134.5 -25.5q-35 0 -76 7l-2 17l4 3q42 -7 78 -7q68 0 121.5 23t83 63.5t29.5 92.5q0 48 -39 79.5t-122 50.5l-76 17l-3 5l29 232l10 8l52 -1h144l68 1l2 -2z" />
    <glyph glyph-name="six.tosf" horiz-adv-x="475" 
d="M208.5 451q-79.5 -79 -108.5 -172l3 -3q75 59 159 59q70 0 109.5 -37t39.5 -106q0 -44 -17 -89t-60 -77t-115 -32q-76 0 -115.5 46.5t-39.5 130.5q0 74 32.5 153.5t111.5 152t210 115.5h4l7 -11v-4q-141 -47 -220.5 -126zM92 247q-8 -33 -8 -73q0 -77 34.5 -118.5
t101.5 -41.5q63 0 101.5 28t54 68t15.5 80q0 60 -34.5 92.5t-95.5 32.5q-88 0 -169 -68z" />
    <glyph glyph-name="seven.tosf" horiz-adv-x="476" 
d="M412 491l39 1l-1 -18l-297 -493l-48 -86l-20 6v4l340 566h-272l-61 -1l-3 5l5 17l67 -1h251z" />
    <glyph glyph-name="eight.tosf" horiz-adv-x="477" 
d="M374 557.5q35 -31.5 35 -89.5q0 -110 -139 -161v-3q42 -17 68 -33.5t42.5 -43t16.5 -66.5q0 -47 -23 -84.5t-65 -59t-97 -21.5q-72 0 -114 36.5t-42 98.5q0 117 160 174v3q-50 23 -75.5 52t-25.5 79q0 67 46 108.5t118 41.5q60 0 95 -31.5zM174 533q-40 -36 -40 -94
q0 -48 27.5 -73.5t81.5 -49.5q146 47 146 151q0 49 -29 75.5t-82 26.5q-64 0 -104 -36zM122 235q-46 -36 -46 -103q0 -54 36.5 -85t100.5 -31q73 0 118.5 40.5t45.5 102.5q0 38 -18 62.5t-43 38.5t-76 36q-72 -25 -118 -61z" />
    <glyph glyph-name="nine.tosf" horiz-adv-x="475" 
d="M378.5 451.5q39.5 -46.5 39.5 -130.5q0 -74 -32.5 -153.5t-111.5 -152t-210 -115.5h-4l-7 11v4q141 47 220.5 126t108.5 172l-3 3q-75 -59 -159 -59q-70 0 -109.5 37t-39.5 106q0 44 17 89t60 77t115 32q76 0 115.5 -46.5zM390 245q8 33 8 73q0 77 -34.5 118.5
t-101.5 41.5q-63 0 -101.5 -28t-54 -68t-15.5 -80q0 -60 34.5 -92.5t95.5 -32.5q88 0 169 68z" />
    <glyph glyph-name="zero.dnom" horiz-adv-x="376" 
d="M292.5 332q29.5 -38 29.5 -110q0 -105 -42.5 -165t-120.5 -60q-57 0 -86.5 38t-29.5 110q0 105 43 165t121 60q56 0 85.5 -38zM99 297q-37 -53 -37 -147q0 -64 26 -98.5t76 -34.5q66 0 103 53.5t37 147.5q0 64 -26 98t-76 34q-66 0 -103 -53z" />
    <glyph glyph-name="one.dnom" horiz-adv-x="240" 
d="M126 130l-16 -130h-20l16 126l27 222l-101 -27l-4 2l2 16l123 35l3 -4z" />
    <glyph glyph-name="two.dnom" horiz-adv-x="336" 
d="M244.5 352.5q22.5 -18.5 22.5 -48.5q0 -31 -24.5 -65.5t-87.5 -101.5l-108 -116l2 -2h175l61 1l1 -4l-5 -17l-65 1h-169l-29 -1l-2 2l2 15l123 131q60 64 82.5 94.5t22.5 57.5q0 23 -17 38t-47 15q-62 0 -114 -57h-3l-2 17q54 59 123 59q36 0 58.5 -18.5z" />
    <glyph glyph-name="three.dnom" horiz-adv-x="294" 
d="M207.5 353.5q22.5 -18.5 22.5 -49.5q0 -30 -23 -58t-60 -44v-2q38 -8 58.5 -29.5t20.5 -53.5q0 -52 -44 -85.5t-111 -33.5q-30 0 -59 6v16l2 2q32 -5 60 -5q58 0 95 27t37 72q0 33 -26 52t-74 21h-33l-2 2l3 15h29q21 0 46 12.5t42 34t17 46.5t-17.5 39.5t-46.5 14.5
q-43 0 -91 -39h-3l-2 17q51 41 100 41q37 0 59.5 -18.5z" />
    <glyph glyph-name="four.dnom" horiz-adv-x="335" 
d="M279 118l-50 1h-19l-13 -117l-3 -2l-16 -2l-2 2l15 119h-140l-31 -1l-3 3l2 15l203 233h19l-29 -232h69l3 -3zM218 337h-3l-174 -200h152z" />
    <glyph glyph-name="five.dnom" horiz-adv-x="288" 
d="M258 351l-3 -2l-30 2h-126l-19 -123l43 -10q107 -24 107 -91q0 -57 -47.5 -93.5t-121.5 -36.5q-20 0 -50 5l-1 16l2 2q33 -5 53 -5q63 0 104 30.5t41 78.5q0 54 -98 76l-49 11l-3 4l22 149l7 6l33 -1h92l46 1l2 -2z" />
    <glyph glyph-name="six.dnom" horiz-adv-x="323" 
d="M64 179l1 -2q54 36 107 36q45 0 69.5 -22t24.5 -62q0 -12 -1 -18q-7 -55 -40.5 -85t-91.5 -30q-49 0 -75.5 28t-26.5 80q0 8 2 26q10 84 70.5 147t159.5 96h3l10 -10l-1 -3q-170 -56 -211 -181zM57 155q-2 -8 -4 -24q-2 -18 -2 -26q0 -92 83 -92q48 0 76.5 25t34.5 72
q1 5 1 14q0 34 -20.5 52.5t-58.5 18.5q-57 0 -110 -40z" />
    <glyph glyph-name="seven.dnom" horiz-adv-x="288" 
d="M250 369l24 1l-1 -17l-180 -301l-33 -58l-17 5v4l207 347h-164l-40 -1l-2 4l4 17l46 -1h156z" />
    <glyph glyph-name="eight.dnom" horiz-adv-x="321" 
d="M244.5 351.5q22.5 -19.5 22.5 -53.5q0 -72 -92 -104l-1 -2q40 -16 61.5 -34t21.5 -52q0 -49 -36.5 -79t-94.5 -30q-47 0 -74 23t-27 61q0 74 105 110v2q-63 28 -63 79q0 46 32 72.5t83 26.5q40 0 62.5 -19.5zM112 331.5q-26 -22.5 -26 -58.5q0 -27 17.5 -42.5t50.5 -29.5
q94 29 94 93q0 28 -18.5 44t-50.5 16q-41 0 -67 -22.5zM72.5 145.5q-28.5 -21.5 -28.5 -62.5q0 -31 23 -49.5t62 -18.5q49 0 79 24.5t30 62.5q0 22 -12 36.5t-28 22.5t-49 22q-48 -16 -76.5 -37.5z" />
    <glyph glyph-name="nine.dnom" horiz-adv-x="323" 
d="M259.5 347q25.5 -27 25.5 -78q0 -93 -61 -164.5t-171 -107.5h-3l-8 10v4q168 54 211 180l-2 2q-51 -36 -107 -36q-44 0 -68 22t-24 63q0 62 36 97t98 35q48 0 73.5 -27zM266 267q0 90 -82 90q-52 0 -82.5 -29.5t-30.5 -82.5q0 -70 78 -70q55 0 111 40q2 7 4 25t2 27z" />
    </font>
</defs>
</svg>
