<?xml version="1.0" standalone="no"?>
<!DOCTYPE svg PUBLIC "-//W3C//DTD SVG 1.1//EN" "http://www.w3.org/Graphics/SVG/1.1/DTD/svg11.dtd" >
<svg xmlns="http://www.w3.org/2000/svg" xmlns:xlink="http://www.w3.org/1999/xlink" version="1.1">
<metadata>
Created by FontForge 20161013 at Tue Dec  3 17:34:24 2013
 By ,,,
Copyright (c) 2013 by Juan Pablo del Peral (huertatipografica.com.ar)
</metadata>
<defs>
<font id="AlegreyaSans-ExtraBold" horiz-adv-x="388" >
  <font-face 
    font-family="Alegreya Sans ExtraBold"
    font-weight="800"
    font-stretch="normal"
    units-per-em="1000"
    panose-1="0 0 9 0 0 0 0 0 0 0"
    ascent="800"
    descent="-200"
    x-height="470"
    cap-height="645"
    bbox="-227 -285 1216 1079"
    underline-thickness="0"
    underline-position="0"
    unicode-range="U+0020-FB02"
  />
<missing-glyph horiz-adv-x="145" 
 />
    <glyph glyph-name="Idieresis" unicode="&#xa8;I" horiz-adv-x="308" 
d="M125.5 856q18.5 -19 18.5 -52q0 -36 -20 -57t-55 -21q-34 0 -52.5 18.5t-18.5 52.5q0 36 20.5 57t55.5 21q33 0 51.5 -19zM290.5 856q18.5 -19 18.5 -52q0 -36 -20 -57t-55 -21q-34 0 -52.5 18.5t-18.5 52.5q0 36 20.5 57t55.5 21q33 0 51.5 -19zM233 0h-163l9 191
l-9 454h165l-9 -438z" />
    <glyph glyph-name="Odieresis" unicode="&#xa8;O" horiz-adv-x="647" 
d="M288.5 856q18.5 -19 18.5 -52q0 -36 -20 -57t-55 -21q-34 0 -52.5 18.5t-18.5 52.5q0 36 20.5 57t55.5 21q33 0 51.5 -19zM470.5 856q18.5 -19 18.5 -52q0 -36 -20 -57t-55 -21q-34 0 -52.5 18.5t-18.5 52.5q0 36 20.5 57t55.5 21q33 0 51.5 -19zM549 572.5
q75 -82.5 75 -234.5q0 -167 -81.5 -258t-230.5 -91q-138 0 -213 84.5t-75 239.5q0 164 81.5 253t231.5 89q137 0 212 -82.5zM246 507q-28 -18 -40.5 -59.5t-12.5 -112.5q0 -85 13 -133t41.5 -69t77.5 -21q47 0 75 18.5t41 60t13 113.5q0 84 -13 131.5t-41.5 68.5t-77.5 21
q-48 0 -76 -18z" />
    <glyph glyph-name="Yacute" unicode="&#xb4;Y" horiz-adv-x="573" 
d="M360 0h-162l8 175l-1 35l-206 435h171l15 -48l94 -225h11l106 219l20 54h167l-228 -431l-2 -39zM439 802l-5 -13q-93 -34 -224 -75l-15 4l-25 66q108 53 215 116l14 -3z" />
    <glyph glyph-name="idieresis" unicode="&#xa8;i" horiz-adv-x="261" 
d="M105.5 679q18.5 -19 18.5 -52q0 -36 -20 -57t-55 -21q-34 0 -52.5 18.5t-18.5 52.5q0 36 20.5 57t55.5 21q33 0 51.5 -19zM270.5 679q18.5 -19 18.5 -52q0 -36 -20 -57t-55 -21q-34 0 -52.5 18.5t-18.5 52.5q0 36 20.5 57t55.5 21q33 0 51.5 -19zM209 0h-158l8 191
l-6 267l157 12l-8 -263z" />
    <glyph glyph-name="odieresis" unicode="&#xa8;o" horiz-adv-x="495" 
d="M213.5 679q18.5 -19 18.5 -52q0 -36 -20 -57t-55 -21q-34 0 -52.5 18.5t-18.5 52.5q0 36 20.5 57t55.5 21q33 0 51.5 -19zM395.5 679q18.5 -19 18.5 -52q0 -36 -20 -57t-55 -21q-34 0 -52.5 18.5t-18.5 52.5q0 36 20.5 57t55.5 21q33 0 51.5 -19zM416.5 418
q55.5 -60 55.5 -175q0 -124 -59.5 -189t-172.5 -65q-106 0 -161.5 60t-55.5 174q0 124 59.5 189.5t172.5 65.5q106 0 161.5 -60zM187.5 344.5q-16.5 -26.5 -16.5 -92.5q0 -61 7.5 -95.5t25 -49t47.5 -14.5q39 0 55.5 26.5t16.5 93.5q0 89 -17.5 123.5t-61.5 34.5
q-40 0 -56.5 -26.5z" />
    <glyph glyph-name="yacute" unicode="&#xb4;y" horiz-adv-x="457" 
d="M231 157h9l67 219l18 92h135l-145 -429q-34 -98 -90 -149.5t-163 -82.5l-12 1q-44 44 -70 96l6 14q111 19 179 82l-170 465l151 6l16 -80zM386 649l-3 -14q-99 -57 -206 -115l-14 1l-37 60q105 80 189 156l14 -1z" />
    <glyph glyph-name="Itilde" unicode="&#x7e;I" horiz-adv-x="308" 
d="M233 0h-163l9 191l-9 454h166l-9 -438zM314 833l-66 -98l-13 -5q-24 3 -74 20q-41 13 -52 13q-15 0 -26 -12t-31 -40h-14l-46 45v14l67 97l13 5q24 -3 74 -20q41 -13 52 -13q14 0 25 12t32 41h13l46 -46v-13z" />
    <glyph glyph-name="itilde" unicode="&#x7e;i" horiz-adv-x="261" 
d="M209 0h-158l8 191l-6 267l157 12l-8 -263zM294 656l-66 -98l-13 -5q-24 3 -74 20q-41 13 -52 13q-15 0 -26 -12t-31 -40h-14l-46 45v14l67 97l13 5q24 -3 74 -20q41 -13 52 -13q14 0 25 12t32 41h13l46 -46v-13z" />
    <glyph glyph-name="Utilde" unicode="&#x7e;U" horiz-adv-x="644" 
d="M584 225q1 -113 -69.5 -174t-200.5 -61q-126 0 -192.5 60t-63.5 172l2 98l-4 325h162l-7 -401q-1 -64 26 -94t84 -30q58 0 85.5 29.5t26.5 90.5l-7 405h165l-6 -327zM506 836l-74 -99l-14 -6q-14 2 -83 19q-53 16 -71 16q-13 0 -25 -10t-23.5 -24t-16.5 -20h-14l-46 46
v13l74 99l14 5q22 -3 87 -20q53 -15 67 -15q13 0 24.5 10t23 24t17.5 21h14l46 -46v-13z" />
    <glyph glyph-name="utilde" unicode="&#x7e;u" horiz-adv-x="527" 
d="M480 106q10 0 23 4l10 -9l-14 -83q-32 -23 -81 -27q-63 6 -84 79h-11q-56 -58 -117 -76q-75 0 -115 34.5t-39 98.5l2 112l-5 219l152 12l-2 -285q0 -65 52 -65q35 0 69 30v308l150 12l-9 -338q0 -26 19 -26zM443 659l-74 -99l-14 -6q-14 2 -83 19q-53 16 -71 16
q-13 0 -25 -10t-23.5 -24t-16.5 -20h-14l-46 46v13l74 99l14 5q22 -3 87 -20q53 -15 67 -15q13 0 24.5 10t23 24t17.5 21h14l46 -46v-13z" />
    <glyph glyph-name="Etilde" unicode="&#x7e;E" horiz-adv-x="522" 
d="M506 120l-10 -120h-426l9 191l-9 454h432l9 -12l-11 -120l-157 6l-110 -1l-2 -129h105l105 3l9 -12l-10 -120l-115 3h-97l-1 -56l2 -80l106 -1l162 6zM469 836l-74 -99l-14 -6q-14 2 -83 19q-53 16 -71 16q-13 0 -25 -10t-23.5 -24t-16.5 -20h-14l-46 46v13l74 99l14 5
q22 -3 87 -20q53 -15 67 -15q13 0 24.5 10t23 24t17.5 21h14l46 -46v-13z" />
    <glyph glyph-name="etilde" unicode="&#x7e;e" horiz-adv-x="480" 
d="M168 207q6 -52 34 -77t84 -25q63 0 134 31l13 -9l-23 -112q-70 -26 -141 -26q-117 0 -181.5 64.5t-64.5 179.5q0 114 64 179t173 65q92 0 142 -49.5t50 -138.5q0 -36 -5 -59l-20 -22zM256 375q-71 0 -86 -88l144 6l2 13q0 69 -60 69zM433 658l-74 -99l-14 -6
q-14 2 -83 19q-53 16 -71 16q-13 0 -25 -10t-23.5 -24t-16.5 -20h-14l-46 46v13l74 99l14 5q22 -3 87 -20q53 -15 67 -15q13 0 24.5 10t23 24t17.5 21h14l46 -46v-13z" />
    <glyph glyph-name="Ytilde" unicode="&#x7e;Y" horiz-adv-x="573" 
d="M360 0h-162l8 175l-1 35l-206 435h171l15 -48l94 -225h11l106 219l20 54h167l-228 -431l-2 -39zM467 836l-74 -99l-14 -6q-14 2 -83 19q-53 16 -71 16q-13 0 -25 -10t-23.5 -24t-16.5 -20h-14l-46 46v13l74 99l14 5q22 -3 87 -20q53 -15 67 -15q13 0 24.5 10t23 24
t17.5 21h14l46 -46v-13z" />
    <glyph glyph-name="ytilde" unicode="&#x7e;y" horiz-adv-x="457" 
d="M231 157h9l67 219l18 92h135l-145 -429q-34 -98 -90 -149.5t-163 -82.5l-12 1q-44 44 -70 96l6 14q111 19 179 82l-170 465l151 6l16 -80zM416 659l-74 -99l-14 -6q-14 2 -83 19q-53 16 -71 16q-13 0 -25 -10t-23.5 -24t-16.5 -20h-14l-46 46v13l74 99l14 5q22 -3 87 -20
q53 -15 67 -15q13 0 24.5 10t23 24t17.5 21h14l46 -46v-13z" />
    <glyph glyph-name="fi" unicode="fi" horiz-adv-x="617" 
d="M466 689l-17 -122l-15 -7q-79 35 -123 35q-64 0 -65 -70v-61h231l85 11l9 -7l-8 -261l7 -207h-158l8 191l-4 179h-172l-2 -163l7 -207h-158l8 192l-2 178h-71l-4 8l7 86h66v26q0 110 57.5 162.5t176.5 52.5q60 0 137 -16z" />
    <glyph glyph-name="fl" unicode="fl" horiz-adv-x="632" 
d="M575 0h-158l8 192l-5 382q-61 25 -105 25q-67 0 -68 -69l-1 -66h110l4 -9l-7 -85h-108l-3 -164l7 -206h-158l8 191l-3 179h-69l-5 8l7 86h66l-1 43q0 98 59.5 150.5t168.5 52.5q58 0 126 -17l128 9l-8 -495z" />
    <glyph glyph-name="uni0066006A" unicode="fj" horiz-adv-x="627" 
d="M466 689l-17 -122l-15 -7q-79 35 -123 35q-64 0 -64 -70l-1 -61h233l83 11l9 -7l-8 -261l6 -177q0 -80 -41 -133.5t-132 -92.5l-54 70v14q41 22 59 54.5t18 83.5l1 165l-4 179h-172l-2 -163l7 -207h-158l8 192l-2 178h-71l-4 8l7 86h66v26q0 110 57 162.5t177 52.5
q60 0 137 -16z" />
    <glyph glyph-name="Gtilde" unicode="&#x7e;G" horiz-adv-x="597" 
d="M559 619l-34 -145h-14q-49 27 -87.5 38.5t-81.5 11.5q-54 0 -86 -19.5t-47.5 -64.5t-15.5 -123q0 -77 15 -120.5t47.5 -62.5t89.5 -19q28 0 65 10l1 45l-3 104l149 10l-2 -87l1 -165q-119 -42 -225 -42q-153 0 -230 82.5t-77 236.5q0 168 90 256.5t258 88.5
q108 0 187 -35zM510 836l-74 -99l-14 -6q-14 2 -83 19q-53 16 -71 16q-13 0 -25 -10t-23.5 -24t-16.5 -20h-14l-46 46v13l74 99l14 5q22 -3 87 -20q53 -15 67 -15q13 0 24.5 10t23 24t17.5 21h14l46 -46v-13z" />
    <glyph glyph-name="gtilde" unicode="&#x7e;g" horiz-adv-x="507" 
d="M448 383l-2 -4q13 -26 13 -60q0 -76 -57 -121t-155 -45q-33 0 -57 4q-10 -11 -10 -20q0 -17 22 -23t74 -12q62 -7 101.5 -16.5t69 -36.5t29.5 -76t-29.5 -87.5t-83 -60t-123.5 -21.5q-95 0 -147 37t-52 99q34 41 81 70v5q-70 27 -70 96q35 38 71 61v6q-77 38 -77 130
q0 78 57 123t155 45q57 0 104 -19q74 15 146 43l11 -9v-97q-32 -8 -71 -11zM323 315q0 34 -16.5 49.5t-51.5 15.5q-38 0 -55.5 -15.5t-17.5 -48.5q0 -71 69 -71q72 0 72 70zM317.5 -22q-26.5 9 -84.5 16l-32 3q-34 -25 -34 -51q0 -25 22.5 -39.5t65.5 -14.5q89 0 89 53
q0 24 -26.5 33zM440 652l-74 -99l-14 -6q-14 2 -83 19q-53 16 -71 16q-13 0 -25 -10t-23.5 -24t-16.5 -20h-14l-46 46v13l74 99l14 5q22 -3 87 -20q53 -15 67 -15q13 0 24.5 10t23 24t17.5 21h14l46 -46v-13z" />
    <glyph glyph-name=".notdef" horiz-adv-x="145" 
 />
    <glyph glyph-name=".null" horiz-adv-x="0" 
 />
    <glyph glyph-name="nonmarkingreturn" horiz-adv-x="333" 
 />
    <glyph glyph-name="space" unicode=" " horiz-adv-x="145" 
 />
    <glyph glyph-name="exclam" unicode="!" horiz-adv-x="268" 
d="M183 246l-90 -13l-15 16l-12 393l14 18l127 8l18 -19zM183 137q20 -21 20 -58q0 -40 -22.5 -63.5t-60.5 -23.5t-58.5 21t-20.5 59q0 39 23 62.5t62 23.5q37 0 57 -21z" />
    <glyph glyph-name="quotedbl" unicode="&#x22;" horiz-adv-x="391" 
d="M145 396l-73 -11l-12 10l-6 241l123 8l8 -11zM312 396l-73 -11l-12 10l-5 241l122 8l9 -11z" />
    <glyph glyph-name="numbersign" unicode="#" horiz-adv-x="564" 
d="M421 254h82l10 -10l-7 -80h-101l-24 -133h-91l-8 11l22 122h-96l-24 -133h-91l-8 11l22 122h-78l-9 10l7 80h96l18 98h-80l-9 10l6 80h99l24 131h88l10 -12l-21 -119h96l24 131h88l10 -12l-21 -119h80l9 -10l-7 -80h-98zM242 352l-18 -98h96l18 98h-96z" />
    <glyph glyph-name="dollar" unicode="$" horiz-adv-x="458" 
d="M378.5 56.5q-37.5 -45.5 -112.5 -60.5l-8 -134h-92l-12 12l7 118q-66 5 -129 28l21 135l15 11q35 -31 78 -49.5t75 -18.5q21 0 34 10t13 25q0 17 -17 28t-58 28q-45 18 -74.5 35t-51 47t-21.5 76q0 60 39 104t108 59l8 136h90l14 -13l-7 -118q56 -6 107 -24l-22 -130
l-22 -5q-32 23 -65.5 36t-56.5 13q-21 0 -32.5 -9.5t-11.5 -23.5q0 -17 17 -28t58 -28q44 -17 73.5 -33.5t51 -46.5t21.5 -75q0 -59 -37.5 -104.5z" />
    <glyph glyph-name="percent" unicode="%" horiz-adv-x="868" 
d="M686 630l-465 -723l-67 41l-6 15l466 726l63 -39zM309 606.5q39 -45.5 39 -130.5q0 -93 -43.5 -142t-124.5 -49q-74 0 -114 45.5t-40 130.5q0 92 44 141.5t126 49.5q74 0 113 -45.5zM137.5 532.5q-14.5 -19.5 -14.5 -63.5q0 -48 15 -69.5t49 -21.5t49.5 20.5t15.5 64.5
q0 47 -16 68t-50 21t-48.5 -19.5zM802 315.5q39 -45.5 39 -130.5q0 -93 -43.5 -142t-124.5 -49q-74 0 -114 45.5t-40 130.5q0 92 44 141.5t126 49.5q74 0 113 -45.5zM630.5 241.5q-14.5 -19.5 -14.5 -63.5q0 -48 15 -69.5t49 -21.5t49.5 20.5t15.5 64.5q0 47 -16 68t-50 21
t-48.5 -19.5z" />
    <glyph glyph-name="ampersand" unicode="&#x26;" horiz-adv-x="719" 
d="M574 330q8 -35 8 -76q0 -65 -24 -116l130 -118v-10q-36 -40 -85 -71l-10 1l-115 104q-77 -54 -196 -54q-114 0 -181.5 49.5t-67.5 134.5q0 108 113 163l1 9q-63 69 -63 142q0 76 57 120t161 44q91 0 166 -27l-36 -117h-19q-61 35 -116 35q-75 0 -75 -64q0 -22 10.5 -40
t41.5 -44l197 -179q8 29 8 57q0 36 -11 67h-57l-7 9l10 102h291l9 -11l-10 -100h-126zM394 120l-182 164q-43 -34 -43 -84q0 -49 33.5 -75t94.5 -26q57 0 97 21z" />
    <glyph glyph-name="quotesingle" unicode="'" horiz-adv-x="223" 
d="M145 396l-73 -11l-12 10l-6 241l123 8l8 -11z" />
    <glyph glyph-name="parenleft" unicode="(" horiz-adv-x="298" 
d="M295 600q-54 -52 -78.5 -135t-25.5 -212q1 -122 25.5 -200.5t78.5 -130.5v-13l-57 -47h-14q-83 61 -121 154t-39 236q1 152 39 249.5t121 158.5h14l57 -47v-13z" />
    <glyph glyph-name="parenright" unicode=")" horiz-adv-x="298" 
d="M2 -79q54 52 78.5 135t25.5 212q-1 122 -25.5 200.5t-78.5 130.5v13l57 47h14q83 -61 121 -154t39 -236q-1 -152 -39 -249.5t-121 -158.5h-14l-57 47v13z" />
    <glyph glyph-name="asterisk" unicode="*" 
d="M216 612l-46 -5l-8 7l-4 117q37 13 85 15l5 -9zM142 556l-10 -4l-110 31q0 43 12 86l10 3l106 -70zM378 566l-6 -7l-125 -7l-21 41l5 10l107 41q27 -39 40 -78zM313 442q-21 -31 -61 -62l-9 3l-45 121l33 31l11 -1zM180 502l-61 -97q-28 8 -79 37l1 11l97 81l41 -21z" />
    <glyph glyph-name="plus" unicode="+" horiz-adv-x="480" 
d="M294 311h156l11 -10l-8 -96h-159v-160l-96 -7l-11 10v157h-157l-10 11l8 95h159v160l96 8l11 -10v-158z" />
    <glyph glyph-name="comma" unicode="," horiz-adv-x="228" 
d="M196 59q0 -98 -133 -192l-51 44l-1 12q56 47 56 102q0 36 -33 66l1 14q60 33 115 48q46 -40 46 -94z" />
    <glyph glyph-name="hyphen" unicode="-" horiz-adv-x="302" 
d="M275 218l-237 -37l-12 12v98l237 36l12 -11v-98z" />
    <glyph glyph-name="period" unicode="." horiz-adv-x="228" 
d="M174.5 137q20.5 -21 20.5 -58q0 -40 -23 -63.5t-61 -23.5t-58 21t-20 59q0 39 22.5 62.5t61.5 23.5q37 0 57.5 -21z" />
    <glyph glyph-name="slash" unicode="/" horiz-adv-x="282" 
d="M107 -116h-110l-9 12l207 785h107l12 -13z" />
    <glyph glyph-name="zero" unicode="0" horiz-adv-x="518" 
d="M427 451.5q56 -66.5 56 -187.5q0 -131 -61 -202.5t-172 -71.5q-102 0 -158.5 66t-56.5 187q0 130 61.5 202.5t173.5 72.5q101 0 157 -66.5zM181.5 342.5q-23.5 -27.5 -23.5 -89.5q0 -64 24 -94t77 -30t77.5 28t24.5 89q0 65 -25 94.5t-78 29.5t-76.5 -27.5z" />
    <glyph glyph-name="one" unicode="1" horiz-adv-x="368" 
d="M270 209l7 -209h-161l7 192v143l-105 -26l-11 8v128l248 71l23 -17z" />
    <glyph glyph-name="two" unicode="2" horiz-adv-x="479" 
d="M367 482q47 -34 47 -94q0 -80 -110 -196l-62 -67l3 -4h111l93 9l8 -10l-18 -127l-131 7h-228l-36 -3l-8 6v97l132 123q46 45 67.5 73.5t21.5 49.5q0 35 -48 35q-30 0 -64.5 -14.5t-65.5 -40.5h-17l-27 123q112 67 212 67q73 0 120 -34z" />
    <glyph glyph-name="three" unicode="3" horiz-adv-x="440" 
d="M344 478q51 -39 51 -103q0 -39 -22 -77t-71 -65v-6q103 -31 103 -133q0 -56 -32.5 -98.5t-92 -66t-137.5 -23.5q-55 0 -112 10l-9 120l11 10q63 -20 115 -20q105 0 105 69q0 54 -72 55h-76l-7 10l4 109l44 2q36 1 61.5 20t25.5 50q0 48 -59 48q-44 0 -115 -41h-16
l-23 112q91 57 190 57q83 0 134 -39z" />
    <glyph glyph-name="four" unicode="4" horiz-adv-x="514" 
d="M405 45l5 -122l-8 -11l-124 -8l-8 10l4 132h-148l-97 -3l-10 13v101l241 352h146l-3 -341h76l10 -14l-7 -111zM276 168v164h-10l-112 -164h122z" />
    <glyph glyph-name="five" unicode="5" horiz-adv-x="438" 
d="M394 384l-10 -11l-100 12h-100l-3 -91l61 -13q84 -18 122 -57t38 -104q0 -64 -33 -113t-92.5 -76t-137.5 -27q-61 0 -118 13l-8 118l11 11q64 -21 122 -21q49 0 77 20t28 55q0 29 -19 45t-62 24l-102 17l-9 12l5 297l17 17l60 -3h152l109 7l9 -10z" />
    <glyph glyph-name="six" unicode="6" horiz-adv-x="489" 
d="M383 343q38 -24 58 -64.5t20 -88.5q0 -53 -25 -99t-74.5 -74t-120.5 -28q-101 0 -157.5 61t-56.5 167q0 119 75.5 218t212.5 162h8l105 -70v-16q-98 -37 -151.5 -73t-78.5 -83l7 -8q43 20 87 20q53 0 91 -24zM299.5 112.5q18.5 20.5 18.5 60.5q0 84 -74 84q-33 0 -73 -21
v-17q0 -66 16 -96.5t59 -30.5q35 0 53.5 20.5z" />
    <glyph glyph-name="seven" unicode="7" horiz-adv-x="440" 
d="M362 509l52 2v-116l-151 -329l-62 -165l-127 35l-9 25l197 417h-142l-100 -11l-8 13l10 133l124 -4h216z" />
    <glyph glyph-name="eight" unicode="8" horiz-adv-x="502" 
d="M396.5 556q48.5 -40 48.5 -109q0 -77 -85 -133v-7q46 -23 73 -55t27 -83q0 -83 -60.5 -131t-162.5 -48q-95 0 -147 42t-52 110q0 91 107 138v7q-90 48 -90 138q0 79 57 125t152 46q84 0 132.5 -40zM202 472.5q-18 -15.5 -18 -41.5q0 -29 21 -46.5t61 -33.5q55 34 55 78
q0 27 -18.5 43t-49.5 16q-33 0 -51 -15.5zM186 210q-17 -17 -17 -47q0 -31 21.5 -49.5t59.5 -18.5q39 0 60 18t21 44q0 30 -23 47t-70 36q-35 -13 -52 -30z" />
    <glyph glyph-name="nine" unicode="9" horiz-adv-x="489" 
d="M106 166q-38 24 -58 64.5t-20 88.5q0 53 25 99t74.5 74t120.5 28q101 0 157.5 -61t56.5 -167q0 -119 -75.5 -218t-212.5 -162h-8l-105 70v16q98 37 151.5 73t78.5 83l-7 8q-43 -20 -87 -20q-53 0 -91 24zM189.5 396.5q-18.5 -20.5 -18.5 -60.5q0 -84 74 -84q33 0 73 21
v17q0 66 -16 96.5t-59 30.5q-35 0 -53.5 -20.5z" />
    <glyph glyph-name="colon" unicode=":" horiz-adv-x="228" 
d="M170.5 137q20.5 -21 20.5 -58q0 -40 -23 -63.5t-61 -23.5t-58 21t-20 59q0 39 22.5 62.5t61.5 23.5q37 0 57.5 -21zM170.5 396q20.5 -21 20.5 -58q0 -40 -23 -63.5t-61 -23.5t-58 21t-20 59q0 39 22.5 62.5t61.5 23.5q37 0 57.5 -21z" />
    <glyph glyph-name="semicolon" unicode=";" horiz-adv-x="228" 
d="M192 59q0 -98 -133 -192l-51 44l-1 12q56 47 56 102q0 36 -33 66l1 14q60 33 115 48q46 -40 46 -94zM170.5 396q20.5 -21 20.5 -58q0 -40 -23 -63.5t-61 -23.5t-58 21t-20 59q0 39 22.5 62.5t61.5 23.5q37 0 57.5 -21z" />
    <glyph glyph-name="less" unicode="&#x3c;" horiz-adv-x="480" 
d="M33 322v-128l372 -139l13 10l22 89l-297 104v8l297 107l6 11l-33 91l-370 -139z" />
    <glyph glyph-name="equal" unicode="=" horiz-adv-x="480" 
d="M453 303h-423l-10 11l8 95h422l11 -10zM453 106h-423l-10 11l8 95h422l11 -10z" />
    <glyph glyph-name="greater" unicode="&#x3e;" horiz-adv-x="480" 
d="M447 322v-128l-372 -139l-13 10l-22 89l297 104v8l-297 107l-6 11l33 91l370 -139z" />
    <glyph glyph-name="question" unicode="?" horiz-adv-x="345" 
d="M294 623q74 -42 74 -115q0 -42 -24.5 -78.5t-69.5 -61.5l-66 -38l-3 -5l7 -79l-111 -16l-11 11l-11 122l6 11l87 40q53 27 53 70q0 35 -39.5 53.5t-134.5 24.5l-11 14l29 88l14 8q137 -7 211 -49zM220.5 137q20.5 -21 20.5 -58q0 -40 -23 -63.5t-61 -23.5t-58 21t-20 59
q0 39 22.5 62.5t61.5 23.5q37 0 57.5 -21z" />
    <glyph glyph-name="at" unicode="@" horiz-adv-x="853" 
d="M734 84q-102 -82 -292 -84l19 135h-14q-46 -84 -99 -141h-19q-62 19 -87.5 58t-25.5 101q0 64 25.5 126t77.5 110.5t128 69.5h5l84 -18l84 22l11 -7l-47 -343v-5q70 13 110 68t40 137q0 70 -32 123t-90.5 82t-137.5 29q-102 0 -180.5 -44.5t-121.5 -123t-43 -177.5
q0 -103 47 -178t132.5 -114t199.5 -39l6 -14l-42 -73q-135 1 -236 47.5t-156.5 136.5t-55.5 216q0 131 57 236t160.5 165t238.5 60q107 0 187.5 -39.5t124.5 -113.5t44 -174q0 -152 -102 -234zM415 176.5q32 49.5 71 141.5l2 19l-64 19q-38 0 -59 -40t-21 -109q0 -80 23 -80
q16 0 48 49.5z" />
    <glyph glyph-name="A" unicode="A" horiz-adv-x="611" 
d="M433 0l-17 93l-9 37l-116 2l-100 -3l-8 -26l-18 -103h-159l208 645h195l189 -645h-165zM313 497h-10l-75 -245l74 -2l74 2z" />
    <glyph glyph-name="B" unicode="B" horiz-adv-x="600" 
d="M540 280.5q30 -36.5 30 -96.5q0 -190 -308 -190q-100 0 -191 6h-1l9 191l-9 454l254 1q103 0 161 -42t58 -121q0 -51 -25.5 -89.5t-72.5 -60.5q65 -16 95 -52.5zM352.5 518q-25.5 16 -91.5 16h-32l-4 -157l86 -4q34 10 50.5 31t16.5 57q0 41 -25.5 57zM376 128
q30 22 30 63q0 31 -19 49.5t-59 27.5l-105 -2l-1 -59l3 -97q52 -4 67 -4q54 0 84 22z" />
    <glyph glyph-name="C" unicode="C" horiz-adv-x="516" 
d="M509 621l-29 -133l-11 -6q-61 40 -133 40t-106.5 -45t-34.5 -142q0 -210 149 -210q72 0 137 34l14 -8l-13 -133q-70 -28 -151 -28q-151 0 -229 84t-78 243q0 161 83 249t235 88q92 0 167 -33z" />
    <glyph glyph-name="D" unicode="D" horiz-adv-x="659" 
d="M560 571.5q75 -77.5 75 -223.5q0 -172 -86 -264t-246 -92q-92 0 -232 8h-1l9 191l-9 454h1l272 4q142 0 217 -77.5zM466 309q0 114 -32 163t-104 49q-53 0 -97 -4l-6 -310l2 -84q59 -8 104 -8q133 0 133 194z" />
    <glyph glyph-name="E" unicode="E" horiz-adv-x="522" 
d="M506 120l-10 -120h-426l9 191l-9 454h432l9 -12l-11 -120l-157 6l-110 -1l-2 -129h105l105 3l9 -12l-10 -120l-115 3h-97l-1 -56l2 -80l106 -1l162 6z" />
    <glyph glyph-name="F" unicode="F" horiz-adv-x="466" 
d="M230 368h81l112 3l9 -12l-10 -120l-123 3h-71l-1 -35l6 -207h-163l9 191l-9 454h404l9 -12l-11 -120l-156 6l-83 -1z" />
    <glyph glyph-name="G" unicode="G" horiz-adv-x="597" 
d="M559 619l-34 -145h-14q-49 27 -87.5 38.5t-81.5 11.5q-54 0 -86 -19.5t-47.5 -64.5t-15.5 -123q0 -77 15 -120.5t47.5 -62.5t89.5 -19q28 0 65 10l1 45l-3 104l149 10l-2 -87l1 -165q-119 -42 -225 -42q-153 0 -230 82.5t-77 236.5q0 168 90 256.5t258 88.5
q108 0 187 -35z" />
    <glyph glyph-name="H" unicode="H" horiz-adv-x="702" 
d="M629 0h-163l8 191l-1 65l-130 2l-115 -3l-1 -48l6 -207h-163l9 191l-9 454h166l-5 -256l122 -3l118 2l-5 257h165l-9 -438z" />
    <glyph glyph-name="I" unicode="I" horiz-adv-x="308" 
d="M233 0h-163l9 191l-9 454h166l-9 -438z" />
    <glyph glyph-name="J" unicode="J" horiz-adv-x="346" 
d="M270 122q0 -59 -19.5 -100.5t-64.5 -72.5t-124 -58l-46 85v14q58 29 81 59t23 77v71l-6 332l-97 -3l-10 11l7 108h263l-9 -432z" />
    <glyph glyph-name="K" unicode="K" horiz-adv-x="602" 
d="M615 34l-2 -18q-82 -20 -161 -27l-18 10q-124 184 -206 320l-2 -112l7 -207h-163l9 191l-9 454h165l-6 -289l157 224l36 65h174l-212 -304q102 -151 231 -307z" />
    <glyph glyph-name="L" unicode="L" horiz-adv-x="441" 
d="M429 0h-363l9 191l-9 454h165l-9 -438l3 -74h205l10 -12z" />
    <glyph glyph-name="M" unicode="M" horiz-adv-x="801" 
d="M616 0l-8 196l-18 212h-10l-128 -343h-124l-112 343h-11l-20 -197l-13 -211h-135l64 645h187l23 -94l83 -276h10l90 273l26 97h184l55 -645h-143z" />
    <glyph glyph-name="N" unicode="N" horiz-adv-x="701" 
d="M628 0h-176l-229 399h-10l-1 -172l7 -227h-149l9 190l-8 455h176l229 -399h10l-5 393l150 9l-9 -444z" />
    <glyph glyph-name="O" unicode="O" horiz-adv-x="647" 
d="M549 572.5q75 -82.5 75 -234.5q0 -166 -82 -257.5t-231 -91.5q-137 0 -212 84.5t-75 239.5q0 164 81.5 253t230.5 89q138 0 213 -82.5zM246 507q-28 -18 -40.5 -59.5t-12.5 -112.5q0 -85 13 -133t41.5 -69t77.5 -21q47 0 75 18.5t41 60t13 113.5q0 84 -13 131.5
t-41.5 68.5t-77.5 21q-48 0 -76 -18z" />
    <glyph glyph-name="P" unicode="P" horiz-adv-x="570" 
d="M502.5 594q56.5 -52 56.5 -148q0 -75 -34 -131.5t-96 -87.5t-144 -31h-58l6 -196h-163l9 191l-9 454l272 1q104 0 160.5 -52zM389 430q0 50 -24.5 74t-76.5 26l-54 -3l-5 -210l85 -4q75 25 75 117z" />
    <glyph glyph-name="Q" unicode="Q" horiz-adv-x="654" 
d="M661 -200l-12 -6q-174 74 -319 195h-18q-138 0 -213 84.5t-75 239.5q0 164 81.5 253t230.5 89q138 0 213 -82.5t75 -235.5q0 -113 -38.5 -192t-110.5 -118q124 -72 257 -108l6 -16q-33 -64 -77 -103zM206 201.5q13 -47.5 42 -68.5t78 -21q47 0 74.5 18.5t40.5 60.5
t13 114q0 83 -13 130.5t-42 68.5t-78 21q-47 0 -75 -18.5t-40.5 -60t-12.5 -113.5q0 -84 13 -131.5z" />
    <glyph glyph-name="R" unicode="R" horiz-adv-x="607" 
d="M595 38l-2 -18q-76 -25 -161 -31l-16 13q-60 112 -104 205h-85l6 -207h-163l9 191l-9 454l272 1q105 0 161.5 -50.5t56.5 -144.5q0 -59 -30 -110t-85 -86q83 -129 150 -217zM317 325q72 26 72 111q0 47 -24.5 69.5t-76.5 24.5l-54 -3l-4 -198z" />
    <glyph glyph-name="S" unicode="S" horiz-adv-x="510" 
d="M467 621l-26 -136l-24 -9q-82 53 -142 53q-33 0 -52.5 -16.5t-19.5 -38.5q0 -25 24.5 -42.5t77.5 -41.5q56 -26 90.5 -47.5t60 -57.5t25.5 -88q0 -58 -31.5 -105t-89.5 -74.5t-134 -27.5q-101 0 -200 40l23 145l17 10q42 -35 91.5 -54.5t85.5 -19.5q38 0 57.5 17t19.5 40
q0 27 -25 45t-78 42q-54 25 -88.5 46.5t-59.5 57.5t-25 88q0 59 31.5 106.5t88 74.5t129.5 27q86 0 174 -34z" />
    <glyph glyph-name="T" unicode="T" horiz-adv-x="510" 
d="M490 514l-126 6h-28l-5 -313l6 -207h-162l9 191l-5 329h-30l-127 -6l-10 12l10 119h468l9 -12z" />
    <glyph glyph-name="U" unicode="U" horiz-adv-x="644" 
d="M584 225q1 -113 -69.5 -174t-200.5 -61q-126 0 -192.5 60t-63.5 172l2 98l-4 325h162l-7 -401q-1 -64 26 -94t84 -30q58 0 85.5 29.5t26.5 90.5l-7 405h165l-6 -327z" />
    <glyph glyph-name="V" unicode="V" horiz-adv-x="599" 
d="M196 0l-189 645h165l17 -94l103 -403h10l120 394l18 103h159l-208 -645h-195z" />
    <glyph glyph-name="W" unicode="W" horiz-adv-x="907" 
d="M530 0l-81 278h-10l-80 -278h-172l-169 645h158l10 -88l93 -392h10l95 326l-40 154h164l14 -104l97 -376h10l109 383l17 97h150l-204 -645h-171z" />
    <glyph glyph-name="X" unicode="X" horiz-adv-x="620" 
d="M616 0h-194l-32 70l-87 142l-99 -150l-30 -62h-165l200 315l-202 330h195l32 -71l83 -135l88 142l29 64h170l-191 -306z" />
    <glyph glyph-name="Y" unicode="Y" horiz-adv-x="573" 
d="M360 0h-162l8 175l-1 35l-206 435h171l15 -48l94 -225h11l106 219l20 54h167l-228 -431l-2 -39z" />
    <glyph glyph-name="Z" unicode="Z" horiz-adv-x="557" 
d="M220 122h194l114 8l6 -8l-13 -126l-159 4h-246l-87 -5v116l305 412h-184l-114 -9l-6 7l12 126l138 -2h274l68 1v-117z" />
    <glyph glyph-name="bracketleft" unicode="[" horiz-adv-x="298" 
d="M302 570l-102 -14v-589l102 -13v-71l-7 -8l-224 10l9 377l-9 376l224 10l7 -8v-70z" />
    <glyph glyph-name="backslash" unicode="\" horiz-adv-x="282" 
d="M189 -116h110l9 12l-207 785h-107l-12 -13z" />
    <glyph glyph-name="bracketright" unicode="]" horiz-adv-x="298" 
d="M-5 -47l102 14v589l-102 13v71l7 8l224 -10l-9 -377l9 -376l-224 -10l-7 8v70z" />
    <glyph glyph-name="asciicircum" unicode="^" horiz-adv-x="449" 
d="M424 139l-88 -21l-104 272h-8l-108 -272l-11 -7l-90 33l138 346l15 9h127l140 -347z" />
    <glyph glyph-name="underscore" unicode="_" horiz-adv-x="442" 
d="M449 -189h-454l-10 11l8 88h454l10 -11z" />
    <glyph glyph-name="grave" unicode="`" 
d="M64 649l3 -14q99 -57 206 -115l14 1l37 60q-105 80 -189 156l-14 -1z" />
    <glyph glyph-name="a" unicode="a" horiz-adv-x="490" 
d="M379 442.5q46 -35.5 46 -101.5q0 5 -5 -110q-5 -72 -5 -99q0 -26 20 -26q9 0 22 4l11 -9l-14 -83q-33 -23 -81 -27q-63 6 -81 72h-7q-50 -53 -102 -73q-74 1 -116.5 40t-42.5 106q0 103 108 121l148 25v29q0 31 -13.5 44.5t-43.5 13.5q-59 0 -144 -54l-10 7l-18 103
q94 53 199 53q83 0 129 -35.5zM164 152q0 -24 12.5 -37t34.5 -13q32 0 68 34l1 72l-86 -17q-30 -6 -30 -39z" />
    <glyph glyph-name="b" unicode="b" horiz-adv-x="527" 
d="M456 414q48 -60 48 -167q0 -124 -63 -191t-172 -67q-55 0 -121 24l-76 -25l-16 15l7 188l-6 500l157 11l-5 -301h6q49 51 105 73q88 0 136 -60zM355 219q0 129 -80 129q-35 0 -67 -28l-2 -109l2 -109q30 -12 56 -12q91 0 91 129z" />
    <glyph glyph-name="c" unicode="c" horiz-adv-x="384" 
d="M378 454l-26 -124l-12 -5q-53 25 -85 25q-81 0 -81 -107q0 -130 91 -130q36 0 93 21l12 -9l-16 -119q-60 -17 -124 -17q-98 0 -152.5 62.5t-54.5 175.5q0 118 61 184.5t171 66.5q69 0 123 -24z" />
    <glyph glyph-name="d" unicode="d" horiz-adv-x="529" 
d="M463 133q0 -15 4 -21t14 -6t23 4l10 -9l-14 -83q-32 -23 -81 -27q-66 6 -87 70h-7q-44 -43 -98 -69q-97 0 -151 63t-54 174q0 120 63.5 183.5t175.5 63.5q29 0 54 -5l-3 220l158 11l-9 -495zM190.5 343.5q-20.5 -26.5 -20.5 -87.5q1 -144 80 -144q35 0 67 33l1 47l-2 163
q-33 15 -62 15q-43 0 -63.5 -26.5z" />
    <glyph glyph-name="e" unicode="e" horiz-adv-x="480" 
d="M168 207q6 -52 34 -77t84 -25q63 0 134 31l13 -9l-23 -112q-70 -26 -141 -26q-117 0 -181.5 64.5t-64.5 179.5q0 114 64 179t173 65q92 0 142 -49.5t50 -138.5q0 -36 -5 -59l-20 -22zM256 375q-71 0 -86 -88l144 6l2 13q0 69 -60 69z" />
    <glyph glyph-name="f" unicode="f" horiz-adv-x="342" 
d="M409 695l-10 -116l-10 -8q-54 22 -87 22q-54 0 -55 -59l-1 -70h111l4 -9l-7 -85h-110l-2 -163l7 -207h-158l8 192l-2 178h-71l-4 8l7 86h67l-1 42q0 95 58.5 146.5t164.5 51.5q43 0 91 -9z" />
    <glyph glyph-name="g" unicode="g" horiz-adv-x="507" 
d="M448 383l-2 -4q13 -26 13 -60q0 -76 -57 -121t-155 -45q-33 0 -57 4q-10 -11 -10 -20q0 -17 22 -23t74 -12q62 -7 101.5 -16.5t69 -36.5t29.5 -76t-29.5 -87.5t-83 -60t-123.5 -21.5q-95 0 -147 37t-52 99q34 41 81 70v5q-70 27 -70 96q35 38 71 61v6q-77 38 -77 130
q0 78 57 123t155 45q57 0 104 -19q74 15 146 43l11 -9v-97q-32 -8 -71 -11zM323 315q0 34 -16.5 49.5t-51.5 15.5q-38 0 -55.5 -15.5t-17.5 -48.5q0 -71 69 -71q72 0 72 70zM317.5 -22q-26.5 9 -84.5 16l-32 3q-34 -25 -34 -51q0 -25 22.5 -39.5t65.5 -14.5q89 0 89 53
q0 24 -26.5 33z" />
    <glyph glyph-name="h" unicode="h" horiz-adv-x="536" 
d="M341 279q0 69 -56 69q-33 0 -76 -30l-2 -111l7 -207h-158l8 192l-6 499l157 11l-5 -301h6q55 52 119 73q76 0 115.5 -34.5t37.5 -98.5l-3 -134l6 -207h-159z" />
    <glyph glyph-name="i" unicode="i" horiz-adv-x="261" 
d="M193.5 687q20.5 -21 20.5 -58q0 -40 -23 -63.5t-61 -23.5t-58 21t-20 59q0 39 22.5 62.5t61.5 23.5q37 0 57.5 -21zM209 0h-158l8 191l-6 267l157 12l-8 -263z" />
    <glyph glyph-name="j" unicode="j" horiz-adv-x="294" 
d="M206.5 687q20.5 -21 20.5 -58q0 -40 -23 -63.5t-61 -23.5t-58 21t-20 59q0 39 22.5 62.5t61.5 23.5q37 0 57.5 -21zM229 207l7 -177q0 -79 -41.5 -133t-132.5 -93l-54 70v14q41 22 59.5 55t18.5 83v165l-4 179h-73l-9 9l7 85h79l147 7l5 -3z" />
    <glyph glyph-name="k" unicode="k" horiz-adv-x="513" 
d="M214 0h-158l8 192l-6 499l157 11l-8 -495zM507 26l-1 -16q-51 -11 -147 -21l-17 8q-79 124 -134 247v10l103 162l23 52h164l-139 -210q51 -88 148 -232z" />
    <glyph glyph-name="l" unicode="l" horiz-adv-x="271" 
d="M214 0h-158l8 192l-6 499l157 11l-8 -495z" />
    <glyph glyph-name="m" unicode="m" horiz-adv-x="807" 
d="M611 280q0 69 -57 69q-34 0 -74 -29l-3 -113l6 -207h-157l9 280q0 69 -57 69q-34 0 -77 -30v-112l7 -207h-157l8 191l-6 267l149 12v-69h6q54 51 120 73q113 0 143 -75h5q55 52 128 75q75 0 114.5 -34.5t38.5 -98.5l-4 -134l6 -207h-157z" />
    <glyph glyph-name="n" unicode="n" horiz-adv-x="533" 
d="M335 279q0 69 -57 69q-33 0 -76 -30v-111l7 -207h-158l8 191l-6 267l150 12v-69h7q52 51 119 73q76 0 115.5 -34.5t37.5 -98.5l-3 -134l6 -207h-159z" />
    <glyph glyph-name="o" unicode="o" horiz-adv-x="495" 
d="M416.5 418q55.5 -60 55.5 -175q0 -124 -59.5 -189t-172.5 -65q-106 0 -161.5 60t-55.5 174q0 124 59.5 189.5t172.5 65.5q106 0 161.5 -60zM187.5 344.5q-16.5 -26.5 -16.5 -92.5q0 -61 7.5 -95.5t25 -49t47.5 -14.5q39 0 55.5 26.5t16.5 93.5q0 89 -17.5 123.5
t-61.5 34.5q-40 0 -56.5 -26.5z" />
    <glyph glyph-name="p" unicode="p" horiz-adv-x="520" 
d="M449.5 413.5q47.5 -60.5 47.5 -167.5q0 -124 -62.5 -190.5t-173.5 -66.5q-32 0 -56 5l3 -179h-158l8 376l-7 267l151 12v-69h6q49 50 106 73q88 0 135.5 -60.5zM348 219q0 129 -80 129q-34 0 -67 -29v-112l2 -107q27 -10 54 -10q91 0 91 129z" />
    <glyph glyph-name="q" unicode="q" horiz-adv-x="519" 
d="M470 470l-9 -263l7 -392h-157l7 205v28h-8q-37 -34 -85 -56q-96 0 -149.5 63t-53.5 172q0 120 63.5 184.5t167.5 64.5q54 0 121 -24l82 26zM189.5 342.5q-19.5 -27.5 -19.5 -92.5q2 -138 79 -138q35 0 68 33l1 45l-3 164q-32 16 -63 16q-43 0 -62.5 -27.5z" />
    <glyph glyph-name="r" unicode="r" horiz-adv-x="358" 
d="M354 467v-145l-16 -5q-13 7 -36 7q-55 0 -100 -58v-59l7 -207h-158l8 191l-6 267l150 12v-90h8q45 89 119 89q6 0 24 -2z" />
    <glyph glyph-name="s" unicode="s" horiz-adv-x="392" 
d="M359 453l-20 -113l-19 -6q-67 42 -115 42q-20 0 -31 -9.5t-11 -22.5q0 -18 18 -29.5t55 -25.5q42 -17 68 -32t45.5 -42t19.5 -68q0 -42 -21 -78t-65.5 -58t-110.5 -22q-74 0 -157 28l19 120l14 10q33 -27 73.5 -43t69.5 -16q22 0 33.5 10t11.5 25q0 17 -17.5 28.5
t-55.5 26.5q-41 16 -68 31t-46.5 42.5t-19.5 69.5q0 69 52 112.5t142 43.5q72 0 136 -24z" />
    <glyph glyph-name="t" unicode="t" horiz-adv-x="348" 
d="M326 131l11 -12l-15 -91q-50 -28 -104 -35q-73 4 -111 38.5t-38 94.5l5 91l-1 153h-62l-5 8l7 86h59v80l145 43l11 -10l-4 -113h110l5 -9l-7 -85h-111l-6 -202q0 -29 10.5 -40.5t36.5 -11.5q30 0 64 15z" />
    <glyph glyph-name="u" unicode="u" horiz-adv-x="527" 
d="M480 106q10 0 23 4l10 -9l-14 -83q-32 -23 -81 -27q-63 6 -84 79h-11q-56 -58 -117 -76q-75 0 -115 34.5t-39 98.5l2 112l-5 219l152 12l-2 -285q0 -65 52 -65q35 0 69 30v308l150 12l-9 -338q0 -26 19 -26z" />
    <glyph glyph-name="v" unicode="v" horiz-adv-x="454" 
d="M226 147h9l67 231l18 90h137l-149 -468h-172l-126 465l148 6l13 -84z" />
    <glyph glyph-name="w" unicode="w" horiz-adv-x="709" 
d="M209 158h8l57 225l17 85h153l9 -76l48 -234h9l54 225l17 85h132l-142 -468h-149l-59 272h-11l-69 -272h-155l-118 465l143 6l11 -79z" />
    <glyph glyph-name="x" unicode="x" horiz-adv-x="473" 
d="M248 323l52 93l26 51h137l-130 -230l134 -232l-167 -12l-24 64l-50 90l-56 -97l-23 -50h-138l130 234l-131 230l169 7l21 -61z" />
    <glyph glyph-name="y" unicode="y" horiz-adv-x="457" 
d="M231 157h9l67 219l18 92h135l-145 -429q-34 -98 -90 -149.5t-163 -82.5l-12 1q-44 44 -70 96l6 14q111 19 179 82l-170 465l151 6l16 -80z" />
    <glyph glyph-name="z" unicode="z" horiz-adv-x="430" 
d="M343 468l57 1l1 -94l-211 -275h123l89 7l8 -10l-10 -100l-127 3h-176l-73 -4v93l213 279h-116l-88 -7l-9 10l11 99l107 -2h201z" />
    <glyph glyph-name="braceleft" unicode="{" horiz-adv-x="298" 
d="M290 647l6 -11l-13 -79q-20 5 -34 5q-51 0 -51 -56q0 -19 12 -63t12 -65q0 -71 -69 -103v-6q34 -15 51.5 -42t17.5 -59q0 -22 -12 -68q-12 -42 -12 -61q0 -57 51 -57q14 0 34 5l13 -79l-6 -11q-33 -10 -71 -10q-70 0 -107.5 31.5t-37.5 88.5q0 34 12 90q9 43 9 64
q0 56 -63 75v72q63 21 63 76q0 20 -9 63q-12 56 -12 90q0 58 37.5 89.5t107.5 31.5q35 0 71 -11z" />
    <glyph glyph-name="bar" unicode="|" horiz-adv-x="304" 
d="M210 292l1 -541l-108 -9l-12 14l1 524l1 517l110 9l11 -11z" />
    <glyph glyph-name="braceright" unicode="}" horiz-adv-x="298" 
d="M7 -103l-6 11l13 79q20 -5 34 -5q51 0 51 56q0 19 -12 63t-12 65q0 71 69 103v6q-34 15 -51.5 42t-17.5 59q0 22 12 68q12 42 12 61q0 57 -51 57q-14 0 -34 -5l-13 79l6 11q33 10 71 10q70 0 107.5 -31.5t37.5 -88.5q0 -34 -12 -90q-9 -43 -9 -64q0 -56 63 -75v-72
q-63 -21 -63 -76q0 -20 9 -63q12 -56 12 -90q0 -58 -37.5 -89.5t-107.5 -31.5q-35 0 -71 11z" />
    <glyph glyph-name="asciitilde" unicode="~" horiz-adv-x="480" 
d="M122.5 215q-13.5 -11 -27.5 -26t-19 -21h-14l-42 52v14l86 101l14 7q37 -7 103 -28q89 -27 109 -27q14 0 27.5 11.5t27.5 26.5t19 20h13l41 -52v-13l-85 -102l-14 -5q-27 4 -111 29q-86 24 -100 24t-27.5 -11z" />
    <glyph glyph-name="nonbreakingspace" unicode="&#xa0;" horiz-adv-x="145" 
 />
    <glyph glyph-name="exclamdown" unicode="&#xa1;" horiz-adv-x="268" 
d="M93 225l90 13l15 -16l12 -393l-14 -18l-127 -8l-18 19zM93 334q-20 21 -20 58q0 40 22.5 63.5t60.5 23.5t58.5 -21t20.5 -59q0 -39 -23 -62.5t-62 -23.5q-37 0 -57 21z" />
    <glyph glyph-name="cent" unicode="&#xa2;" horiz-adv-x="382" 
d="M358 173l12 -9l-16 -119q-38 -10 -72 -14l-9 -157h-106l-12 12l9 151q-68 19 -104.5 78t-36.5 151q0 99 44 162.5t124 81.5l8 149h103l16 -14l-8 -133q40 -6 68 -19l-26 -124l-12 -5q-53 25 -85 25q-81 0 -81 -107q0 -130 91 -130q36 0 93 21z" />
    <glyph glyph-name="sterling" unicode="&#xa3;" horiz-adv-x="460" 
d="M426 -4l-139 4h-266l-6 8l7 87q38 9 55.5 32t17.5 64l-1 71h-73l-6 8l7 77h72l-1 57q-1 92 57 142t164 50q55 0 118 -15l-9 -111l-10 -7q-65 32 -113 32q-69 0 -69 -66l-1 -82h128l4 -7l-6 -78h-126l-1 -63q0 -33 -8.5 -53t-28.5 -37v-4h135l105 8l5 -8z" />
    <glyph glyph-name="currency" unicode="&#xa4;" horiz-adv-x="434" 
d="M439 483l-70 -62q20 -35 20 -76q0 -33 -17 -69l70 -57l3 -15l-69 -72h-13l-61 70q-33 -21 -77 -21q-36 0 -70 18l-57 -69l-14 -2l-73 68l1 14l69 60q-20 34 -20 75q0 37 18 71l-69 58l-2 14l68 72l13 -1l62 -70q34 20 74 20q33 0 69 -17l59 70l14 3l72 -69v-13zM167 403
q-22 -22 -22 -58t22 -58t58 -22t58 22t22 58t-22 58t-58 22t-58 -22z" />
    <glyph glyph-name="yen" unicode="&#xa5;" horiz-adv-x="548" 
d="M346 177h173l7 -6l-5 -65h-186l5 -106h-137l5 106h-172l-5 8l4 63h162l-35 67h-126l-5 8l4 64h90l-98 191h144l13 -40l88 -168h8l98 163l18 45h140l-110 -191h93l7 -6l-5 -66h-136z" />
    <glyph glyph-name="brokenbar" unicode="&#xa6;" horiz-adv-x="304" 
d="M211 379l-108 -14l-11 10v422l111 9l11 -11zM211 -249l-108 -9l-12 14l1 392l106 13l12 -14z" />
    <glyph glyph-name="section" unicode="&#xa7;" horiz-adv-x="437" 
d="M379 62q0 -43 -25.5 -79.5t-71 -58t-102.5 -21.5q-34 0 -79 8t-80 21l19 121l14 9q35 -28 73 -44t69 -16q24 0 36.5 10t12.5 23q0 15 -18 27t-57 29q-45 20 -74.5 38t-51 47t-21.5 71q0 44 25 84t68 65q-52 40 -52 97q0 44 25.5 81t71 59t102.5 22q71 0 133 -24l-19 -116
l-18 -6q-68 44 -117 44q-21 0 -33 -10t-12 -24q0 -15 17.5 -26t57.5 -29q47 -21 75.5 -38t50.5 -46t22 -71q0 -44 -25.5 -83.5t-69.5 -64.5q54 -40 54 -99zM176.5 246.5q20.5 -16.5 63.5 -37.5q46 23 46 59q0 25 -21 42t-64 38q-45 -24 -45 -61q0 -24 20.5 -40.5z" />
    <glyph glyph-name="dieresis" unicode="&#xa8;" 
d="M158.639 621.978q18.4023 -18.8506 18.4023 -52.0635q0 -35.9062 -20.6465 -57.001q-20.6455 -21.0947 -54.7559 -21.0947t-52.0635 18.8506t-17.9531 52.9619q0 35.0078 20.1973 56.1025t55.2051 21.0947q33.2129 0 51.6143 -18.8506zM321.639 621.978
q18.4023 -18.8506 18.4023 -52.0635q0 -35.9062 -20.6465 -57.001q-20.6455 -21.0947 -54.7559 -21.0947t-52.0635 18.8506t-17.9531 52.9619q0 35.0078 20.1973 56.1025t55.2051 21.0947q33.2129 0 51.6143 -18.8506z" />
    <glyph glyph-name="copyright" unicode="&#xa9;" horiz-adv-x="688" 
d="M501.5 560q68.5 -38 106 -107t37.5 -160t-37.5 -160t-106 -107t-158.5 -38q-89 0 -157.5 38t-106 107t-37.5 160t37.5 160t106 107t157.5 38q90 0 158.5 -38zM213.5 514.5q-56.5 -31.5 -87.5 -89t-31 -132.5t31 -132.5t87.5 -89t129.5 -31.5q74 0 130.5 31.5t87.5 89
t31 132.5t-31 132.5t-87.5 89t-130.5 31.5q-73 0 -129.5 -31.5zM456 451l-19 -83l-6 -4q-28 15 -66 15q-34 0 -49 -17t-15 -58q0 -47 16.5 -69t53.5 -22q34 0 66 10l9 -4l-8 -82q-29 -9 -75 -9q-172 0 -172 165q0 81 46.5 126t131.5 45q43 0 87 -13z" />
    <glyph glyph-name="ordfeminine" unicode="&#xaa;" horiz-adv-x="350" 
d="M273 628.5q32 -24.5 32 -70.5q0 -28 -3 -73l-2 -61q0 -19 11 -19q10 0 14 3l8 -7l-11 -61q-24 -19 -54 -19q-27 0 -40.5 10.5t-21.5 37.5h-4q-30 -35 -71 -49q-51 1 -80.5 28t-29.5 74q0 73 76 85l99 14l1 15q0 36 -36 36q-39 0 -99 -34l-8 4l-13 76q67 35 139 35
q61 0 93 -24.5zM127 433q0 -32 29 -32q20 0 40 17v50l-47 -8q-22 -5 -22 -27z" />
    <glyph glyph-name="guillemotleft" unicode="&#xab;" horiz-adv-x="444" 
d="M18 238l131 181l74 -39l3 -15l-94 -137l94 -136l-3 -14l-74 -39l-131 175v24zM212 238l131 181l74 -39l3 -15l-94 -137l94 -136l-3 -14l-74 -39l-131 175v24z" />
    <glyph glyph-name="logicalnot" unicode="&#xac;" horiz-adv-x="480" 
d="M435 45l-96 -7l-11 10v157h-299l-10 11l8 95h402l6 -8v-258z" />
    <glyph glyph-name="softhyphen" unicode="&#xad;" horiz-adv-x="302" 
d="M275 218l-237 -37l-12 12v98l237 36l12 -11v-98z" />
    <glyph glyph-name="registered" unicode="&#xae;" horiz-adv-x="449" 
d="M361.5 651q51.5 -52 51.5 -137t-51.5 -137t-136.5 -52t-137 52t-52 137t52 137t137 52t136.5 -52zM335 404q42 42 42 110t-42 110t-110 42t-110 -42t-42 -110t42 -110t110 -42t110 42zM274 499q15 -22 49 -64l-1 -6q-16 -6 -53 -10l-7 4q-18 30 -33 60h-28l3 -60h-55
l2 56l-2 139l91 1q34 0 52.5 -16t18.5 -46q0 -36 -37 -58zM221 579l-17 -1l-2 -54l30 -2q22 11 22 31q0 25 -33 26z" />
    <glyph glyph-name="macron" unicode="&#xaf;" 
d="M335 574h-278l-10 11l7 88h279l10 -11z" />
    <glyph glyph-name="degree" unicode="&#xb0;" horiz-adv-x="292" 
d="M239.5 617q38.5 -38 38.5 -93t-38 -93.5t-94 -38.5q-36 0 -66.5 17.5t-48 48t-17.5 66.5t17.5 66t48 47.5t66.5 17.5q55 0 93.5 -38zM99 570.5q-19 -18.5 -19 -46.5t19 -47t47 -19q29 0 47.5 19t18.5 47t-19 46.5t-47 18.5t-47 -18.5z" />
    <glyph glyph-name="plusminus" unicode="&#xb1;" horiz-adv-x="480" 
d="M294 311h156l11 -10l-8 -96h-159v-160l-96 -7l-11 10v157h-157l-10 11l8 95h159v160l96 8l11 -10v-158zM453 -128h-423l-10 11l8 95h422l11 -10z" />
    <glyph glyph-name="twosuperior" unicode="&#xb2;" horiz-adv-x="367" 
d="M278 680.5q36 -25.5 36 -71.5q0 -29 -18.5 -63t-60.5 -85l-45 -54l2 -3h77l69 6l6 -8l-14 -95l-99 5h-168l-27 -2l-6 5v71l93 96q37 41 52 61t15 37q0 27 -34 27q-21 0 -46.5 -11.5t-46.5 -31.5h-14l-20 91q84 51 158 51q55 0 91 -25.5z" />
    <glyph glyph-name="threesuperior" unicode="&#xb3;" horiz-adv-x="328" 
d="M253 680.5q37 -26.5 37 -69.5q0 -59 -61 -91v-4q70 -20 70 -90q0 -55 -51 -88t-136 -33q-41 0 -81 8l-7 86l8 7q45 -12 82 -12q66 0 66 36q0 29 -41 30h-56l-6 7l2 80l32 1q23 1 38.5 11.5t15.5 27.5q0 26 -37 26q-30 0 -78 -23h-13l-19 80q63 37 137 37q61 0 98 -26.5z
" />
    <glyph glyph-name="acute" unicode="&#xb4;" 
d="M325 649l-3 -14q-99 -57 -206 -115l-14 1l-37 60q105 80 189 156l14 -1z" />
    <glyph glyph-name="glyph119" unicode="&#xb5;" horiz-adv-x="527" 
d="M497 18q-35 -26 -78 -26q-36 0 -58 17t-36 56h-7q-47 -54 -98 -71q-14 0 -21 1v-180h-149l5 376l-6 267l150 12v-285q0 -65 53 -65q34 0 68 30v308l150 12l-9 -334q0 -32 20 -32q9 0 22 6l10 -9z" />
    <glyph glyph-name="paragraph" unicode="&#xb6;" horiz-adv-x="539" 
d="M515 524h-64l-6 -321l2 -64q0 -81 -46.5 -133.5t-162.5 -94.5l-41 72v14q54 29 77 59.5t23 76.5v53l-6 339h-39q-63 -15 -63 -104q0 -86 74 -138l-55 -80q-91 23 -140 80.5t-49 142.5q0 105 66.5 162t189.5 57h241l9 -11z" />
    <glyph glyph-name="periodcentered" unicode="&#xb7;" horiz-adv-x="228" 
d="M174.5 317q20.5 -21 20.5 -58q0 -40 -23 -63.5t-61 -23.5t-58 21t-20 59q0 39 22.5 62.5t61.5 23.5q37 0 57.5 -21z" />
    <glyph glyph-name="cedilla" unicode="&#xb8;" 
d="M249 -65q42 -22 42 -61q0 -34 -27.5 -56t-73.5 -22q-44 0 -86 26l10 64l7 3q31 -29 59 -29q21 0 21 18q0 10 -15 18l-49 27l23 106h71l-16 -75z" />
    <glyph glyph-name="onesuperior" unicode="&#xb9;" horiz-adv-x="284" 
d="M211 451l4 -139h-125l5 127v133l-80 -15l-8 6v95l192 48l17 -12z" />
    <glyph glyph-name="ordmasculine" unicode="&#xba;" horiz-adv-x="351" 
d="M331 493q0 -174 -162 -174q-74 0 -112 41t-38 120q0 173 162 173q150 0 150 -160zM139.5 556q-9.5 -17 -9.5 -62q0 -56 10.5 -77t36.5 -21q25 0 35 18t10 65q0 54 -10.5 74t-37.5 20q-25 0 -34.5 -17z" />
    <glyph glyph-name="guillemotright" unicode="&#xbb;" horiz-adv-x="442" 
d="M420 222l-131 -181l-74 39l-3 15l94 137l-94 136l3 14l74 39l131 -175v-24zM227 222l-131 -181l-74 39l-3 15l94 137l-94 136l3 14l74 39l131 -175v-24z" />
    <glyph glyph-name="onequarter" unicode="&#xbc;" horiz-adv-x="768" 
d="M146 -93l-67 41l-6 15l466 726l63 -39l9 -20zM15 502l-8 6v95l192 48l17 -12l-5 -243l4 -139h-125l5 127v133zM690 80l5 -72l-7 -8l-97 -5l-6 7l2 79h-95l-73 -3l-8 10v74l165 227h114l-2 -219h50l7 -10l-5 -82zM589 170v90h-7l-66 -90h73z" />
    <glyph glyph-name="onehalf" unicode="&#xbd;" horiz-adv-x="799" 
d="M611 630l-465 -723l-67 41l-6 15l466 726l63 -39zM211 396l4 -139h-125l5 127v133l-80 -15l-8 6v95l192 48l17 -12zM711 368.5q36 -25.5 36 -71.5q0 -29 -18.5 -63t-60.5 -85l-45 -54l2 -3h77l69 6l6 -8l-14 -95l-99 5h-168l-27 -2l-6 5v71l93 96q37 41 52 61t15 37
q0 27 -34 27q-21 0 -46.5 -11.5t-46.5 -31.5h-14l-20 91q84 51 158 51q55 0 91 -25.5z" />
    <glyph glyph-name="threequarters" unicode="&#xbe;" horiz-adv-x="808" 
d="M186 -93l-67 41l-6 15l466 726l63 -39l9 -20zM248 283q-51 -33 -136 -33q-41 0 -81 8l-7 86l8 7q45 -12 82 -12q66 0 66 36q0 29 -41 30h-56l-6 7l2 80l32 1q23 1 38.5 11.5t15.5 27.5q0 26 -37 26q-30 0 -78 -23h-13l-19 80q63 37 137 37q61 0 98 -26.5t37 -69.5
q0 -59 -61 -91v-4q70 -20 70 -90q0 -55 -51 -88zM729 80l5 -72l-7 -8l-97 -5l-6 7l2 79h-95l-73 -3l-8 10v74l165 227h114l-2 -219h50l7 -10l-5 -82zM628 170v90h-7l-66 -90h73z" />
    <glyph glyph-name="questiondown" unicode="&#xbf;" horiz-adv-x="345" 
d="M55 -152q-74 42 -74 115q0 42 24.5 78.5t69.5 61.5l66 38l3 5l-7 79l111 16l11 -11l11 -122l-6 -11l-87 -40q-53 -27 -53 -70q0 -35 39.5 -53.5t134.5 -24.5l11 -14l-29 -88l-14 -8q-137 7 -211 49zM128.5 334q-20.5 21 -20.5 58q0 40 23 63.5t61 23.5t58 -21t20 -59
q0 -39 -22.5 -62.5t-61.5 -23.5q-37 0 -57.5 21z" />
    <glyph glyph-name="Agrave" unicode="&#xc0;" horiz-adv-x="611" 
d="M179 789l-5 13l40 95l14 3q107 -63 215 -116l-25 -66l-15 -4q-131 41 -224 75zM433 0l-17 93l-9 37l-115 2l-101 -3l-8 -26l-18 -103h-159l209 645h194l189 -645h-165zM314 497h-11l-75 -245l74 -2l74 2z" />
    <glyph glyph-name="Aacute" unicode="&#xc1;" horiz-adv-x="611" 
d="M433 0l-17 93l-9 37l-116 2l-100 -3l-8 -26l-18 -103h-159l208 645h195l189 -645h-165zM313 497h-10l-75 -245l74 -2l74 2zM461 802l-5 -13q-93 -34 -224 -75l-15 4l-25 66q108 53 215 116l14 -3z" />
    <glyph glyph-name="Acircumflex" unicode="&#xc2;" horiz-adv-x="611" 
d="M151 788q76 51 141 110h30q68 -61 142 -110l-28 -63h-15l-114 62q17 10 -68 -38l-45 -24h-15zM433 0l-17 93l-9 37l-115 2l-101 -3l-8 -26l-18 -103h-159l209 645h194l189 -645h-165zM314 497h-11l-75 -245l74 -2l74 2z" />
    <glyph glyph-name="Atilde" unicode="&#xc3;" horiz-adv-x="611" 
d="M433 0l-17 93l-9 37l-116 2l-100 -3l-8 -26l-18 -103h-159l208 645h195l189 -645h-165zM313 497h-10l-75 -245l74 -2l74 2zM490 836l-74 -99l-14 -6q-14 2 -83 19q-53 16 -71 16q-13 0 -25 -10t-23.5 -24t-16.5 -20h-14l-46 46v13l74 99l14 5q22 -3 87 -20q53 -15 67 -15
q13 0 24.5 10t23 24t17.5 21h14l46 -46v-13z" />
    <glyph glyph-name="Adieresis" unicode="&#xc4;" horiz-adv-x="611" 
d="M162.5 744.5q-18.5 18.5 -18.5 52.5q0 36 20.5 57t55.5 21q33 0 51.5 -19t18.5 -52q0 -36 -20 -57t-55 -21q-34 0 -52.5 18.5zM344.5 744.5q-18.5 18.5 -18.5 52.5q0 36 20.5 57t55.5 21q33 0 51.5 -19t18.5 -52q0 -36 -20 -57t-55 -21q-34 0 -52.5 18.5zM433 0l-17 93
l-9 37l-115 2l-101 -3l-8 -26l-18 -103h-159l209 645h194l189 -645h-165zM314 497h-11l-75 -245l74 -2l74 2z" />
    <glyph glyph-name="Aring" unicode="&#xc5;" horiz-adv-x="611" 
d="M433 0l-17 93l-9 37l-116 2l-100 -3l-8 -26l-18 -103h-159l208 645h195l189 -645h-165zM313 497h-10l-75 -245l74 -2l74 2zM384 889q25 -25 25 -71q0 -50 -27.5 -77.5t-77.5 -27.5q-48 0 -73.5 25.5t-25.5 73.5q0 50 27 76t78 26q49 0 74 -25zM269 815q0 -38 39 -38
q37 0 37 35q0 37 -39 37q-37 0 -37 -34z" />
    <glyph glyph-name="AE" unicode="&#xc6;" horiz-adv-x="830" 
d="M814 0h-408l-5 93l-12 109l-197 -56l-19 -43l-32 -103h-160l296 645h473l10 -12l-12 -120l-153 6h-82l16 -153l184 51l11 -9l14 -113l-197 -51l12 -118h98l164 6l10 -12zM357 497h-10l-92 -208l121 34z" />
    <glyph glyph-name="Ccedilla" unicode="&#xc7;" horiz-adv-x="516" 
d="M481 159l14 -8l-13 -133q-62 -25 -134 -28l-8 -35l34 -19q42 -22 42 -61q0 -34 -27.5 -56t-73.5 -22q-44 0 -86 26l10 64l7 3q31 -29 59 -29q21 0 21 18q0 10 -15 18l-49 27l15 69q-125 14 -189 97t-64 227q0 161 83.5 249t235.5 88q91 0 166 -33l-28 -133l-12 -6
q-59 40 -133 40q-71 0 -106 -45t-35 -142q0 -210 149 -210q74 0 137 34z" />
    <glyph glyph-name="Egrave" unicode="&#xc8;" horiz-adv-x="522" 
d="M159 789l-5 13l40 95l14 3q107 -63 215 -116l-25 -66l-15 -4q-131 41 -224 75zM506 120l-10 -120h-426l9 191l-9 454h431l9 -12l-11 -120l-156 6l-111 -1l-2 -129h106l105 3l9 -12l-10 -120l-115 3h-98l-1 -56l3 -80l106 -1l162 6z" />
    <glyph glyph-name="Eacute" unicode="&#xc9;" horiz-adv-x="522" 
d="M506 120l-10 -120h-426l9 191l-9 454h432l9 -12l-11 -120l-157 6l-110 -1l-2 -129h105l105 3l9 -12l-10 -120l-115 3h-97l-1 -56l2 -80l106 -1l162 6zM441 802l-5 -13q-93 -34 -224 -75l-15 4l-25 66q108 53 215 116l14 -3z" />
    <glyph glyph-name="Ecircumflex" unicode="&#xca;" horiz-adv-x="522" 
d="M130 788q76 51 141 110h30q68 -61 142 -110l-28 -63h-15l-114 62q17 10 -68 -38l-45 -24h-15zM506 120l-10 -120h-426l9 191l-9 454h431l9 -12l-11 -120l-156 6l-111 -1l-2 -129h106l105 3l9 -12l-10 -120l-115 3h-98l-1 -56l3 -80l106 -1l162 6z" />
    <glyph glyph-name="Edieresis" unicode="&#xcb;" horiz-adv-x="522" 
d="M141.5 744.5q-18.5 18.5 -18.5 52.5q0 36 20.5 57t55.5 21q33 0 51.5 -19t18.5 -52q0 -36 -20 -57t-55 -21q-34 0 -52.5 18.5zM323.5 744.5q-18.5 18.5 -18.5 52.5q0 36 20.5 57t55.5 21q33 0 51.5 -19t18.5 -52q0 -36 -20 -57t-55 -21q-34 0 -52.5 18.5zM506 120
l-10 -120h-426l9 191l-9 454h431l9 -12l-11 -120l-156 6l-111 -1l-2 -129h106l105 3l9 -12l-10 -120l-115 3h-98l-1 -56l3 -80l106 -1l162 6z" />
    <glyph glyph-name="Igrave" unicode="&#xcc;" horiz-adv-x="308" 
d="M289 784l-25 -66l-15 -4q-131 41 -224 75l-5 13l40 95l14 3q107 -63 215 -116zM233 0h-163l9 191l-9 454h165l-9 -438z" />
    <glyph glyph-name="Iacute" unicode="&#xcd;" horiz-adv-x="308" 
d="M233 0h-163l9 191l-9 454h166l-9 -438zM307 802l-5 -13q-93 -34 -224 -75l-15 4l-25 66q108 53 215 116l14 -3z" />
    <glyph glyph-name="Icircumflex" unicode="&#xce;" horiz-adv-x="308" 
d="M138 898h30q68 -61 142 -110l-28 -63h-15l-114 62q17 10 -68 -38l-45 -24h-15l-28 63q76 51 141 110zM233 0h-163l9 191l-9 454h165l-9 -438z" />
    <glyph glyph-name="Eth" unicode="&#xd0;" horiz-adv-x="686" 
d="M587.5 571q75.5 -78 75.5 -223q0 -172 -86 -264t-246 -92q-91 0 -233 8l8 191l-1 74h-81l-7 11l5 95h81l-5 274l273 4q141 0 216.5 -78zM493 309q0 114 -32 163t-104 49q-53 0 -97 -4l-3 -146h104l7 -11l-5 -95h-108l-1 -58l3 -84q58 -8 104 -8q132 0 132 194z" />
    <glyph glyph-name="Ntilde" unicode="&#xd1;" horiz-adv-x="701" 
d="M628 0h-176l-229 399h-10l-1 -172l7 -227h-149l9 190l-8 455h176l229 -399h10l-5 393l150 9l-9 -444zM533 836l-74 -99l-14 -6q-14 2 -83 19q-53 16 -71 16q-13 0 -25 -10t-23.5 -24t-16.5 -20h-14l-46 46v13l74 99l14 5q22 -3 87 -20q53 -15 67 -15q13 0 24.5 10t23 24
t17.5 21h14l46 -46v-13z" />
    <glyph glyph-name="Ograve" unicode="&#xd2;" horiz-adv-x="647" 
d="M461 784l-25 -66l-15 -4q-131 41 -224 75l-5 13l40 95l14 3q107 -63 215 -116zM549 572.5q75 -82.5 75 -234.5q0 -167 -81.5 -258t-230.5 -91q-138 0 -213 84.5t-75 239.5q0 164 81.5 253t231.5 89q137 0 212 -82.5zM246 507q-28 -18 -40.5 -59.5t-12.5 -112.5
q0 -85 13 -133t41.5 -69t77.5 -21q47 0 75 18.5t41 60t13 113.5q0 84 -13 131.5t-41.5 68.5t-77.5 21q-48 0 -76 -18z" />
    <glyph glyph-name="Oacute" unicode="&#xd3;" horiz-adv-x="647" 
d="M549 572.5q75 -82.5 75 -234.5q0 -166 -82 -257.5t-231 -91.5q-137 0 -212 84.5t-75 239.5q0 164 81.5 253t230.5 89q138 0 213 -82.5zM246 507q-28 -18 -40.5 -59.5t-12.5 -112.5q0 -85 13 -133t41.5 -69t77.5 -21q47 0 75 18.5t41 60t13 113.5q0 84 -13 131.5
t-41.5 68.5t-77.5 21q-48 0 -76 -18zM479 802l-5 -13q-93 -34 -224 -75l-15 4l-25 66q108 53 215 116l14 -3z" />
    <glyph glyph-name="Ocircumflex" unicode="&#xd4;" horiz-adv-x="647" 
d="M309 898h30q68 -61 142 -110l-28 -63h-15l-114 62q17 10 -68 -38l-45 -24h-15l-28 63q76 51 141 110zM549 572.5q75 -82.5 75 -234.5q0 -167 -81.5 -258t-230.5 -91q-138 0 -213 84.5t-75 239.5q0 164 81.5 253t231.5 89q137 0 212 -82.5zM246 507q-28 -18 -40.5 -59.5
t-12.5 -112.5q0 -85 13 -133t41.5 -69t77.5 -21q47 0 75 18.5t41 60t13 113.5q0 84 -13 131.5t-41.5 68.5t-77.5 21q-48 0 -76 -18z" />
    <glyph glyph-name="Otilde" unicode="&#xd5;" horiz-adv-x="647" 
d="M549 572.5q75 -82.5 75 -234.5q0 -166 -82 -257.5t-231 -91.5q-137 0 -212 84.5t-75 239.5q0 164 81.5 253t230.5 89q138 0 213 -82.5zM246 507q-28 -18 -40.5 -59.5t-12.5 -112.5q0 -85 13 -133t41.5 -69t77.5 -21q47 0 75 18.5t41 60t13 113.5q0 84 -13 131.5
t-41.5 68.5t-77.5 21q-48 0 -76 -18zM507 836l-74 -99l-14 -6q-14 2 -83 19q-53 16 -71 16q-13 0 -25 -10t-23.5 -24t-16.5 -20h-14l-46 46v13l74 99l14 5q22 -3 87 -20q53 -15 67 -15q13 0 24.5 10t23 24t17.5 21h14l46 -46v-13z" />
    <glyph glyph-name="multiply" unicode="&#xd7;" horiz-adv-x="480" 
d="M427 369l-111 -111l110 -111v-15l-73 -62l-112 113l-114 -114l-73 63v14l111 112l-111 111v15l73 62l114 -112l112 112l73 -62z" />
    <glyph glyph-name="Oslash" unicode="&#xd8;" horiz-adv-x="647" 
d="M624 338q0 -167 -81.5 -258t-230.5 -91q-39 0 -76 8l-60 -124l-101 37l-7 14l59 123q-103 83 -103 266q0 164 81.5 253t231.5 89q44 0 81 -9l56 115l98 -37l9 -16l-55 -113q98 -83 98 -257zM400 130.5q28 18.5 41 60t13 113.5q0 84 -13 131.5t-41.5 68.5t-77.5 21
q-48 0 -76 -18t-40.5 -59.5t-12.5 -112.5q0 -85 13 -133t41.5 -69t77.5 -21q47 0 75 18.5z" />
    <glyph glyph-name="Ugrave" unicode="&#xd9;" horiz-adv-x="644" 
d="M461 784l-25 -66l-15 -4q-131 41 -224 75l-5 13l40 95l14 3q107 -63 215 -116zM584 225q0 -113 -70 -174t-201 -61q-125 0 -191.5 60t-63.5 172l2 98l-4 325h162l-7 -401q-1 -64 25.5 -94t84.5 -30t85.5 29.5t26.5 90.5l-7 405h164l-5 -327z" />
    <glyph glyph-name="Uacute" unicode="&#xda;" horiz-adv-x="644" 
d="M584 225q1 -113 -69.5 -174t-200.5 -61q-126 0 -192.5 60t-63.5 172l2 98l-4 325h162l-7 -401q-1 -64 26 -94t84 -30q58 0 85.5 29.5t26.5 90.5l-7 405h165l-6 -327zM478 802l-5 -13q-93 -34 -224 -75l-15 4l-25 66q108 53 215 116l14 -3z" />
    <glyph glyph-name="Ucircumflex" unicode="&#xdb;" horiz-adv-x="644" 
d="M309 898h30q68 -61 142 -110l-28 -63h-15l-114 62q17 10 -68 -38l-45 -24h-15l-28 63q76 51 141 110zM584 225q0 -113 -70 -174t-201 -61q-125 0 -191.5 60t-63.5 172l2 98l-4 325h162l-7 -401q-1 -64 25.5 -94t84.5 -30t85.5 29.5t26.5 90.5l-7 405h164l-5 -327z" />
    <glyph glyph-name="Udieresis" unicode="&#xdc;" horiz-adv-x="644" 
d="M288.5 856q18.5 -19 18.5 -52q0 -36 -20 -57t-55 -21q-34 0 -52.5 18.5t-18.5 52.5q0 36 20.5 57t55.5 21q33 0 51.5 -19zM470.5 856q18.5 -19 18.5 -52q0 -36 -20 -57t-55 -21q-34 0 -52.5 18.5t-18.5 52.5q0 36 20.5 57t55.5 21q33 0 51.5 -19zM584 225
q0 -113 -70 -174t-201 -61q-125 0 -191.5 60t-63.5 172l2 98l-4 325h162l-7 -401q-1 -64 25.5 -94t84.5 -30t85.5 29.5t26.5 90.5l-7 405h164l-5 -327z" />
    <glyph glyph-name="Thorn" unicode="&#xde;" horiz-adv-x="578" 
d="M509.5 498q56.5 -51 56.5 -151q0 -115 -72 -178.5t-205 -63.5l-58 -1l4 -104h-164l8 191l-6 355l-2 2h2l-2 97h166l-2 -96h112q106 0 162.5 -51zM374.5 261q19.5 27 19.5 74q0 50 -24.5 73t-77.5 25l-59 -4l-5 -204l89 -4q38 13 57.5 40z" />
    <glyph glyph-name="germandbls" unicode="&#xdf;" horiz-adv-x="629" 
d="M463.5 334q18.5 -17 56.5 -39q35 -21 57 -37.5t37.5 -43.5t15.5 -65q0 -43 -21 -79.5t-64.5 -58.5t-107.5 -22q-71 0 -148 28l19 120l13 10q31 -27 67.5 -43t64.5 -16q20 0 31.5 9t11.5 24q0 17 -15 30.5t-49 33.5q-37 21 -61.5 40t-42 49.5t-17.5 72.5q0 38 13.5 61
t39.5 48q21 21 31 37t10 39q0 61 -73 61q-87 0 -88 -91l-5 -296l8 -206h-159l8 190l-2 180h-68l-5 8l7 86h64v18q0 105 68 163.5t181 58.5q96 0 145.5 -41t49.5 -106q0 -36 -13.5 -60t-40.5 -54q-19 -21 -28 -35.5t-9 -31.5q0 -25 18.5 -42z" />
    <glyph glyph-name="agrave" unicode="&#xe0;" horiz-adv-x="490" 
d="M368 581l-37 -60l-14 -1q-107 58 -206 115l-3 14l57 87l14 1q84 -76 189 -156zM379.5 442.5q45.5 -35.5 45.5 -101.5q0 -33 -5 -110q-4 -86 -4 -99q0 -26 19 -26q10 0 23 4l10 -9l-14 -83q-32 -23 -81 -27q-63 6 -81 72h-7q-49 -53 -101 -73q-74 1 -117 40t-43 106
q0 103 108 121l148 25l1 29q0 31 -13.5 44.5t-43.5 13.5q-60 0 -144 -54l-11 7l-18 103q94 53 199 53q84 0 129.5 -35.5zM164 152q0 -50 46 -50q34 0 68 34l1 72l-85 -17q-30 -6 -30 -39z" />
    <glyph glyph-name="aacute" unicode="&#xe1;" horiz-adv-x="490" 
d="M379 442.5q46 -35.5 46 -101.5q0 5 -5 -110q-5 -72 -5 -99q0 -26 20 -26q9 0 22 4l11 -9l-14 -83q-33 -23 -81 -27q-63 6 -81 72h-7q-50 -53 -102 -73q-74 1 -116.5 40t-42.5 106q0 103 108 121l148 25v29q0 31 -13.5 44.5t-43.5 13.5q-59 0 -144 -54l-10 7l-18 103
q94 53 199 53q83 0 129 -35.5zM164 152q0 -24 12.5 -37t34.5 -13q32 0 68 34l1 72l-86 -17q-30 -6 -30 -39zM391 649l-3 -14q-99 -57 -206 -115l-14 1l-37 60q105 80 189 156l14 -1z" />
    <glyph glyph-name="acircumflex" unicode="&#xe2;" horiz-adv-x="490" 
d="M223 732h31q67 -70 150 -145l-39 -59h-15q-77 55 -111 86q-32 -27 -111 -86h-16l-39 59q62 55 150 145zM379.5 442.5q45.5 -35.5 45.5 -101.5q0 -33 -5 -110q-4 -86 -4 -99q0 -26 19 -26q10 0 23 4l10 -9l-14 -83q-32 -23 -81 -27q-63 6 -81 72h-7q-49 -53 -101 -73
q-74 1 -117 40t-43 106q0 103 108 121l148 25l1 29q0 31 -13.5 44.5t-43.5 13.5q-60 0 -144 -54l-11 7l-18 103q94 53 199 53q84 0 129.5 -35.5zM164 152q0 -50 46 -50q34 0 68 34l1 72l-85 -17q-30 -6 -30 -39z" />
    <glyph glyph-name="atilde" unicode="&#xe3;" horiz-adv-x="490" 
d="M379 442.5q46 -35.5 46 -101.5q0 5 -5 -110q-5 -72 -5 -99q0 -26 20 -26q9 0 22 4l11 -9l-14 -83q-33 -23 -81 -27q-63 6 -81 72h-7q-50 -53 -102 -73q-74 1 -116.5 40t-42.5 106q0 103 108 121l148 25v29q0 31 -13.5 44.5t-43.5 13.5q-59 0 -144 -54l-10 7l-18 103
q94 53 199 53q83 0 129 -35.5zM164 152q0 -24 12.5 -37t34.5 -13q32 0 68 34l1 72l-86 -17q-30 -6 -30 -39zM421 659l-74 -99l-14 -6q-14 2 -83 19q-53 16 -71 16q-13 0 -25 -10t-23.5 -24t-16.5 -20h-14l-46 46v13l74 99l14 5q22 -3 87 -20q53 -15 67 -15q13 0 24.5 10
t23 24t17.5 21h14l46 -46v-13z" />
    <glyph glyph-name="adieresis" unicode="&#xe4;" horiz-adv-x="490" 
d="M203.5 679q18.5 -19 18.5 -52q0 -36 -20 -57t-55 -21q-34 0 -52.5 18.5t-18.5 52.5q0 36 20.5 57t55.5 21q33 0 51.5 -19zM385.5 679q18.5 -19 18.5 -52q0 -36 -20 -57t-55 -21q-34 0 -52.5 18.5t-18.5 52.5q0 36 20.5 57t55.5 21q33 0 51.5 -19zM379.5 442.5
q45.5 -35.5 45.5 -101.5q0 -33 -5 -110q-4 -86 -4 -99q0 -26 19 -26q10 0 23 4l10 -9l-14 -83q-32 -23 -81 -27q-63 6 -81 72h-7q-49 -53 -101 -73q-74 1 -117 40t-43 106q0 103 108 121l148 25l1 29q0 31 -13.5 44.5t-43.5 13.5q-60 0 -144 -54l-11 7l-18 103q94 53 199 53
q84 0 129.5 -35.5zM164 152q0 -50 46 -50q34 0 68 34l1 72l-85 -17q-30 -6 -30 -39z" />
    <glyph glyph-name="aring" unicode="&#xe5;" horiz-adv-x="490" 
d="M379 442.5q46 -35.5 46 -101.5q0 5 -5 -110q-5 -72 -5 -99q0 -26 20 -26q9 0 22 4l11 -9l-14 -83q-33 -23 -81 -27q-63 6 -81 72h-7q-50 -53 -102 -73q-74 1 -116.5 40t-42.5 106q0 103 108 121l148 25v29q0 31 -13.5 44.5t-43.5 13.5q-59 0 -144 -54l-10 7l-18 103
q94 53 199 53q83 0 129 -35.5zM164 152q0 -24 12.5 -37t34.5 -13q32 0 68 34l1 72l-86 -17q-30 -6 -30 -39zM315 712q25 -25 25 -71q0 -50 -27.5 -77.5t-77.5 -27.5q-48 0 -73.5 25.5t-25.5 73.5q0 50 27 76t78 26q49 0 74 -25zM200 638q0 -38 39 -38q37 0 37 35
q0 37 -39 37q-37 0 -37 -34z" />
    <glyph glyph-name="ae" unicode="&#xe6;" horiz-adv-x="701" 
d="M627.5 426q48.5 -51 48.5 -144q0 -20 -1 -30l-14 -18l-258 -24q5 -55 31 -80t79 -25q64 0 132 31l13 -8l-24 -113q-67 -26 -135 -26q-121 0 -178 81q-54 -54 -119 -80q-81 1 -130 38t-49 105q0 50 27.5 84.5t80.5 38.5l144 13v42q0 30 -13 44t-43 14q-54 0 -142 -54
l-11 6l-18 104q90 53 191 53q83 0 123 -46q52 45 132 45q85 0 133.5 -51zM425 348q-23 -26 -23 -66l135 16q6 76 -54 76q-35 0 -58 -26zM285 141q-6 30 -9 55l-78 -10q-33 -5 -33 -38q0 -45 45 -45q29 0 75 38z" />
    <glyph glyph-name="ccedilla" unicode="&#xe7;" horiz-adv-x="384" 
d="M358 134l12 -9l-16 -119q-44 -13 -100 -16l-7 -35l34 -19q42 -22 42 -61q0 -34 -27.5 -56t-73.5 -22q-44 0 -86 26l10 64l7 3q31 -29 59 -29q21 0 21 18q0 11 -15 18l-49 27l15 69q-77 14 -119 75t-42 159q0 118 61 184.5t171 66.5q69 0 123 -24l-26 -124l-12 -5
q-53 25 -85 25q-81 0 -81 -107q0 -130 91 -130q36 0 93 21z" />
    <glyph glyph-name="egrave" unicode="&#xe8;" horiz-adv-x="480" 
d="M123 634l-3 14l57 87l14 1q84 -76 189 -156l-37 -60l-14 -1q-107 58 -206 115zM168 207q6 -52 34 -77t84 -25q63 0 134 31l13 -9l-23 -112q-70 -26 -141 -26q-117 0 -181.5 64.5t-64.5 179.5q0 114 64 179t173 65q92 0 142 -49.5t50 -138.5q0 -36 -5 -59l-20 -22z
M256 375q-71 0 -86 -88l144 6l2 13q0 69 -60 69z" />
    <glyph glyph-name="eacute" unicode="&#xe9;" horiz-adv-x="480" 
d="M168 207q6 -52 34 -77t84 -25q63 0 134 31l13 -9l-23 -112q-70 -26 -141 -26q-117 0 -181.5 64.5t-64.5 179.5q0 114 64 179t173 65q92 0 142 -49.5t50 -138.5q0 -36 -5 -59l-20 -22zM256 375q-71 0 -86 -88l144 6l2 13q0 69 -60 69zM403 648l-3 -14q-99 -57 -206 -115
l-14 1l-37 60q105 80 189 156l14 -1z" />
    <glyph glyph-name="ecircumflex" unicode="&#xea;" horiz-adv-x="480" 
d="M85 586q62 55 150 145h31q67 -70 150 -145l-39 -59h-15q-77 55 -111 86q-32 -27 -111 -86h-16zM168 207q6 -52 34 -77t84 -25q63 0 134 31l13 -9l-23 -112q-70 -26 -141 -26q-117 0 -181.5 64.5t-64.5 179.5q0 114 64 179t173 65q92 0 142 -49.5t50 -138.5q0 -36 -5 -59
l-20 -22zM256 375q-71 0 -86 -88l144 6l2 13q0 69 -60 69z" />
    <glyph glyph-name="edieresis" unicode="&#xeb;" horiz-adv-x="480" 
d="M105.5 566.5q-18.5 18.5 -18.5 52.5q0 36 20.5 57t55.5 21q33 0 51.5 -19t18.5 -52q0 -36 -20 -57t-55 -21q-34 0 -52.5 18.5zM287.5 566.5q-18.5 18.5 -18.5 52.5q0 36 20.5 57t55.5 21q33 0 51.5 -19t18.5 -52q0 -36 -20 -57t-55 -21q-34 0 -52.5 18.5zM168 207
q6 -52 34 -77t84 -25q63 0 134 31l13 -9l-23 -112q-70 -26 -141 -26q-117 0 -181.5 64.5t-64.5 179.5q0 114 64 179t173 65q92 0 142 -49.5t50 -138.5q0 -36 -5 -59l-20 -22zM256 375q-71 0 -86 -88l144 6l2 13q0 69 -60 69z" />
    <glyph glyph-name="igrave" unicode="&#xec;" horiz-adv-x="261" 
d="M262 581l-37 -60l-14 -1q-107 58 -206 115l-3 14l57 87l14 1q84 -76 189 -156zM209 0h-158l8 191l-6 267l157 12l-8 -263z" />
    <glyph glyph-name="iacute" unicode="&#xed;" horiz-adv-x="261" 
d="M209 0h-158l8 191l-6 267l157 12l-8 -263zM285 649l-3 -14q-99 -57 -206 -115l-14 1l-37 60q105 80 189 156l14 -1z" />
    <glyph glyph-name="icircumflex" unicode="&#xee;" horiz-adv-x="261" 
d="M118 732h31q67 -70 150 -145l-39 -59h-15q-77 55 -111 86q-32 -27 -111 -86h-16l-39 59q62 55 150 145zM209 0h-158l8 191l-6 267l157 12l-8 -263z" />
    <glyph glyph-name="eth" unicode="&#xf0;" horiz-adv-x="501" 
d="M471 249q0 -125 -59.5 -192.5t-169.5 -67.5q-103 0 -158.5 59.5t-55.5 174.5q0 114 55.5 175t160.5 61q19 0 28 -1q-26 36 -68 69l-114 -69l-13 5l-32 60l86 52q-32 17 -87 43v18l101 74h10q56 -30 99 -61l105 63l13 -4l32 -60l-86 -52q153 -144 153 -347zM310.5 122
q16.5 31 16.5 110q0 56 -7 98q-28 21 -67 21q-44 0 -62.5 -28t-18.5 -98q0 -74 19.5 -104t61.5 -30q41 0 57.5 31z" />
    <glyph glyph-name="ntilde" unicode="&#xf1;" horiz-adv-x="533" 
d="M335 279q0 69 -57 69q-33 0 -76 -30v-111l7 -207h-158l8 191l-6 267l150 12v-69h7q52 51 119 73q76 0 115.5 -34.5t37.5 -98.5l-3 -134l6 -207h-159zM467 659l-74 -99l-14 -6q-14 2 -83 19q-53 16 -71 16q-13 0 -25 -10t-23.5 -24t-16.5 -20h-14l-46 46v13l74 99l14 5
q22 -3 87 -20q53 -15 67 -15q13 0 24.5 10t23 24t17.5 21h14l46 -46v-13z" />
    <glyph glyph-name="ograve" unicode="&#xf2;" horiz-adv-x="495" 
d="M379 581l-37 -60l-14 -1q-107 58 -206 115l-3 14l57 87l14 1q84 -76 189 -156zM416.5 418q55.5 -60 55.5 -175q0 -124 -59.5 -189t-172.5 -65q-106 0 -161.5 60t-55.5 174q0 124 59.5 189.5t172.5 65.5q106 0 161.5 -60zM187.5 344.5q-16.5 -26.5 -16.5 -92.5
q0 -61 7.5 -95.5t25 -49t47.5 -14.5q39 0 55.5 26.5t16.5 93.5q0 89 -17.5 123.5t-61.5 34.5q-40 0 -56.5 -26.5z" />
    <glyph glyph-name="oacute" unicode="&#xf3;" horiz-adv-x="495" 
d="M416.5 418q55.5 -60 55.5 -175q0 -124 -59.5 -189t-172.5 -65q-106 0 -161.5 60t-55.5 174q0 124 59.5 189.5t172.5 65.5q106 0 161.5 -60zM187.5 344.5q-16.5 -26.5 -16.5 -92.5q0 -61 7.5 -95.5t25 -49t47.5 -14.5q39 0 55.5 26.5t16.5 93.5q0 89 -17.5 123.5
t-61.5 34.5q-40 0 -56.5 -26.5zM402 649l-3 -14q-99 -57 -206 -115l-14 1l-37 60q105 80 189 156l14 -1z" />
    <glyph glyph-name="ocircumflex" unicode="&#xf4;" horiz-adv-x="495" 
d="M234 732h31q67 -70 150 -145l-39 -59h-15q-77 55 -111 86q-32 -27 -111 -86h-16l-39 59q62 55 150 145zM416.5 418q55.5 -60 55.5 -175q0 -124 -59.5 -189t-172.5 -65q-106 0 -161.5 60t-55.5 174q0 124 59.5 189.5t172.5 65.5q106 0 161.5 -60zM187.5 344.5
q-16.5 -26.5 -16.5 -92.5q0 -61 7.5 -95.5t25 -49t47.5 -14.5q39 0 55.5 26.5t16.5 93.5q0 89 -17.5 123.5t-61.5 34.5q-40 0 -56.5 -26.5z" />
    <glyph glyph-name="otilde" unicode="&#xf5;" horiz-adv-x="495" 
d="M416.5 418q55.5 -60 55.5 -175q0 -124 -59.5 -189t-172.5 -65q-106 0 -161.5 60t-55.5 174q0 124 59.5 189.5t172.5 65.5q106 0 161.5 -60zM187.5 344.5q-16.5 -26.5 -16.5 -92.5q0 -61 7.5 -95.5t25 -49t47.5 -14.5q39 0 55.5 26.5t16.5 93.5q0 89 -17.5 123.5
t-61.5 34.5q-40 0 -56.5 -26.5zM432 659l-74 -99l-14 -6q-14 2 -83 19q-53 16 -71 16q-13 0 -25 -10t-23.5 -24t-16.5 -20h-14l-46 46v13l74 99l14 5q22 -3 87 -20q53 -15 67 -15q13 0 24.5 10t23 24t17.5 21h14l46 -46v-13z" />
    <glyph glyph-name="divide" unicode="&#xf7;" horiz-adv-x="480" 
d="M456 205h-423l-10 11l8 95h422l11 -10zM282.481 141.358q17.5615 -17.9893 17.5615 -49.6846q0 -34.2656 -19.7031 -54.3965q-19.7021 -20.1309 -52.2539 -20.1309t-49.6846 17.9893t-17.1328 50.542q0 33.4082 19.2744 53.5391t52.6826 20.1309
q31.6953 0 49.2559 -17.9893zM282.481 426.358q17.5615 -17.9893 17.5615 -49.6846q0 -34.2656 -19.7031 -54.3965q-19.7021 -20.1309 -52.2539 -20.1309t-49.6846 17.9893t-17.1328 50.542q0 33.4082 19.2744 53.5391t52.6826 20.1309q31.6953 0 49.2559 -17.9893z" />
    <glyph glyph-name="oslash" unicode="&#xf8;" horiz-adv-x="495" 
d="M472 243q0 -124 -59.5 -189t-172.5 -65q-37 0 -65 7l-72 -125l-90 45l-4 13l69 120q-55 60 -55 174q0 124 59.5 189.5t172.5 65.5q38 0 65 -7l64 109l86 -43l8 -15l-61 -105q55 -60 55 -174zM306.5 119.5q16.5 26.5 16.5 93.5q0 89 -17.5 123.5t-61.5 34.5
q-40 0 -56.5 -26.5t-16.5 -92.5q0 -61 7.5 -95.5t25 -49t47.5 -14.5q39 0 55.5 26.5z" />
    <glyph glyph-name="ugrave" unicode="&#xf9;" horiz-adv-x="527" 
d="M390 581l-37 -60l-14 -1q-107 58 -206 115l-3 14l57 87l14 1q84 -76 189 -156zM480 106q10 0 23 4l10 -9l-14 -83q-32 -23 -81 -27q-63 6 -84 79h-11q-56 -58 -117 -76q-75 0 -115 34.5t-39 98.5l2 112l-5 219l152 12l-2 -285q0 -65 52 -65q35 0 69 30v308l150 12
l-9 -338q0 -26 19 -26z" />
    <glyph glyph-name="uacute" unicode="&#xfa;" horiz-adv-x="527" 
d="M480 106q10 0 23 4l10 -9l-14 -83q-32 -23 -81 -27q-63 6 -84 79h-11q-56 -58 -117 -76q-75 0 -115 34.5t-39 98.5l2 112l-5 219l152 12l-2 -285q0 -65 52 -65q35 0 69 30v308l150 12l-9 -338q0 -26 19 -26zM413 649l-3 -14q-99 -57 -206 -115l-14 1l-37 60
q105 80 189 156l14 -1z" />
    <glyph glyph-name="ucircumflex" unicode="&#xfb;" horiz-adv-x="527" 
d="M245 732h31q67 -70 150 -145l-39 -59h-15q-77 55 -111 86q-32 -27 -111 -86h-16l-39 59q62 55 150 145zM480 106q10 0 23 4l10 -9l-14 -83q-32 -23 -81 -27q-63 6 -84 79h-11q-56 -58 -117 -76q-75 0 -115 34.5t-39 98.5l2 112l-5 219l152 12l-2 -285q0 -65 52 -65
q35 0 69 30v308l150 12l-9 -338q0 -26 19 -26z" />
    <glyph glyph-name="udieresis" unicode="&#xfc;" horiz-adv-x="527" 
d="M225.5 679q18.5 -19 18.5 -52q0 -36 -20 -57t-55 -21q-34 0 -52.5 18.5t-18.5 52.5q0 36 20.5 57t55.5 21q33 0 51.5 -19zM407.5 679q18.5 -19 18.5 -52q0 -36 -20 -57t-55 -21q-34 0 -52.5 18.5t-18.5 52.5q0 36 20.5 57t55.5 21q33 0 51.5 -19zM480 106q10 0 23 4
l10 -9l-14 -83q-32 -23 -81 -27q-63 6 -84 79h-11q-56 -58 -117 -76q-75 0 -115 34.5t-39 98.5l2 112l-5 219l152 12l-2 -285q0 -65 52 -65q35 0 69 30v308l150 12l-9 -338q0 -26 19 -26z" />
    <glyph glyph-name="thorn" unicode="&#xfe;" horiz-adv-x="526" 
d="M455 414q48 -60 48 -167q0 -124 -62.5 -191t-172.5 -67q-29 0 -59 6l2 -180h-154l6 376l-7 500l158 11l-5 -301h5q52 52 105 73q88 0 136 -60zM355 226q-2 122 -80 122q-34 0 -67 -29l-2 -109l1 -108q30 -12 55 -12q93 0 93 136z" />
    <glyph glyph-name="ydieresis" unicode="&#xff;" horiz-adv-x="457" 
d="M198.5 679q18.5 -19 18.5 -52q0 -36 -20 -57t-55 -21q-34 0 -52.5 18.5t-18.5 52.5q0 36 20.5 57t55.5 21q33 0 51.5 -19zM380.5 679q18.5 -19 18.5 -52q0 -36 -20 -57t-55 -21q-34 0 -52.5 18.5t-18.5 52.5q0 36 20.5 57t55.5 21q33 0 51.5 -19zM232 157h9l67 219l18 92
h135l-146 -429q-33 -97 -89 -148.5t-163 -83.5l-12 1q-43 41 -70 96l6 14q110 20 179 82l-171 465l152 6l16 -80z" />
    <glyph glyph-name="Amacron" unicode="&#x100;" horiz-adv-x="611" 
d="M433 0l-17 93l-9 37l-116 2l-100 -3l-8 -26l-18 -103h-159l208 645h195l189 -645h-165zM313 497h-10l-75 -245l74 -2l74 2zM447 751h-278l-10 11l7 88h279l10 -11z" />
    <glyph glyph-name="amacron" unicode="&#x101;" horiz-adv-x="490" 
d="M379 442.5q46 -35.5 46 -101.5q0 5 -5 -110q-5 -72 -5 -99q0 -26 20 -26q9 0 22 4l11 -9l-14 -83q-33 -23 -81 -27q-63 6 -81 72h-7q-50 -53 -102 -73q-74 1 -116.5 40t-42.5 106q0 103 108 121l148 25v29q0 31 -13.5 44.5t-43.5 13.5q-59 0 -144 -54l-10 7l-18 103
q94 53 199 53q83 0 129 -35.5zM164 152q0 -24 12.5 -37t34.5 -13q32 0 68 34l1 72l-86 -17q-30 -6 -30 -39zM379 574h-278l-10 11l7 88h279l10 -11z" />
    <glyph glyph-name="Abreve" unicode="&#x102;" horiz-adv-x="611" 
d="M433 0l-17 93l-9 37l-116 2l-100 -3l-8 -26l-18 -103h-159l208 645h195l189 -645h-165zM313 497h-10l-75 -245l74 -2l74 2zM406.5 747.5q-42.5 -29.5 -101.5 -29.5q-58 0 -99 29.5t-60 84.5l34 49h22q31 -53 108 -53q72 0 102 53h23l34 -49q-20 -55 -62.5 -84.5z" />
    <glyph glyph-name="abreve" unicode="&#x103;" horiz-adv-x="490" 
d="M379 442.5q46 -35.5 46 -101.5q0 5 -5 -110q-5 -72 -5 -99q0 -26 20 -26q9 0 22 4l11 -9l-14 -83q-33 -23 -81 -27q-63 6 -81 72h-7q-50 -53 -102 -73q-74 1 -116.5 40t-42.5 106q0 103 108 121l148 25v29q0 31 -13.5 44.5t-43.5 13.5q-59 0 -144 -54l-10 7l-18 103
q94 53 199 53q83 0 129 -35.5zM164 152q0 -24 12.5 -37t34.5 -13q32 0 68 34l1 72l-86 -17q-30 -6 -30 -39zM343 568.5q-42 -36.5 -108 -36.5q-65 0 -104 37t-53 93l34 51h22q29 -70 106 -70q78 0 104 70h23l34 -51q-16 -57 -58 -93.5z" />
    <glyph glyph-name="Aogonek" unicode="&#x104;" horiz-adv-x="611" 
d="M518 -197q-44 0 -69.5 25.5t-25.5 67.5q0 46 47 104h-37l-17 93l-9 37l-115 2l-101 -3l-8 -26l-18 -103h-159l209 645h194l189 -645h-54q-38 -51 -38 -80q0 -33 35 -33q29 0 65 26h8l12 -62q-58 -48 -108 -48zM314 497h-11l-75 -245l74 -2l74 2z" />
    <glyph glyph-name="aogonek" unicode="&#x105;" horiz-adv-x="489" 
d="M426 -185.5q-23 -11.5 -49 -11.5q-41 0 -67 25t-26 65q0 26 13 49t47 56q-38 17 -52 65h-7q-49 -53 -101 -73q-74 1 -117 40t-43 106q0 103 108 121l148 25l1 29q0 30 -14 44t-43 14q-60 0 -144 -54l-11 7l-18 103q94 53 199 53q84 0 129.5 -35.5t45.5 -101.5
q0 -33 -5 -110q-4 -86 -4 -99q0 -26 19 -26q10 0 23 4l10 -9l-14 -83l-5 -3q-49 -42 -65.5 -62t-16.5 -35q0 -14 8.5 -22t24.5 -8q27 0 55 24h8l12 -62q-26 -24 -49 -35.5zM194 191q-30 -6 -30 -39q0 -50 46 -50q34 0 68 34l1 72z" />
    <glyph glyph-name="Cacute" unicode="&#x106;" horiz-adv-x="516" 
d="M509 621l-29 -133l-11 -6q-61 40 -133 40t-106.5 -45t-34.5 -142q0 -210 149 -210q72 0 137 34l14 -8l-13 -133q-70 -28 -151 -28q-151 0 -229 84t-78 243q0 161 83 249t235 88q92 0 167 -33zM470 802l-5 -13q-93 -34 -224 -75l-15 4l-25 66q108 53 215 116l14 -3z" />
    <glyph glyph-name="cacute" unicode="&#x107;" horiz-adv-x="384" 
d="M378 454l-26 -124l-12 -5q-53 25 -85 25q-81 0 -81 -107q0 -130 91 -130q36 0 93 21l12 -9l-16 -119q-60 -17 -124 -17q-98 0 -152.5 62.5t-54.5 175.5q0 118 61 184.5t171 66.5q69 0 123 -24zM393 649l-3 -14q-99 -57 -206 -115l-14 1l-37 60q105 80 189 156l14 -1z" />
    <glyph glyph-name="Ccircumflex" unicode="&#x108;" horiz-adv-x="516" 
d="M301 898h30q68 -61 142 -110l-28 -63h-15l-114 62q17 10 -68 -38l-45 -24h-15l-28 63q76 51 141 110zM509 621l-28 -133l-12 -6q-59 40 -133 40q-71 0 -106 -45t-35 -142q0 -210 149 -210q74 0 137 34l14 -8l-13 -133q-70 -28 -151 -28q-151 0 -229 84t-78 243
q0 161 83.5 249t235.5 88q91 0 166 -33z" />
    <glyph glyph-name="ccircumflex" unicode="&#x109;" horiz-adv-x="384" 
d="M226 732h31q67 -70 150 -145l-39 -59h-15q-77 55 -111 86q-32 -27 -111 -86h-16l-39 59q62 55 150 145zM378 454l-26 -124l-12 -5q-53 25 -85 25q-81 0 -81 -107q0 -130 91 -130q36 0 93 21l12 -9l-16 -119q-60 -17 -124 -17q-98 0 -152.5 62.5t-54.5 175.5
q0 118 61 184.5t171 66.5q69 0 123 -24z" />
    <glyph glyph-name="Cdotaccent" unicode="&#x10a;" horiz-adv-x="516" 
d="M376.5 864q20.5 -21 20.5 -58q0 -40 -23 -63.5t-61 -23.5t-58 21t-20 59q0 39 22.5 62.5t61.5 23.5q37 0 57.5 -21zM509 621l-28 -133l-12 -6q-59 40 -133 40q-71 0 -106 -45t-35 -142q0 -210 149 -210q74 0 137 34l14 -8l-13 -133q-70 -28 -151 -28q-151 0 -229 84
t-78 243q0 161 83.5 249t235.5 88q91 0 166 -33z" />
    <glyph glyph-name="cdotaccent" unicode="&#x10b;" horiz-adv-x="384" 
d="M301.5 687q20.5 -21 20.5 -58q0 -40 -23 -63.5t-61 -23.5t-58 21t-20 59q0 39 22.5 62.5t61.5 23.5q37 0 57.5 -21zM378 454l-26 -124l-12 -5q-53 25 -85 25q-81 0 -81 -107q0 -130 91 -130q36 0 93 21l12 -9l-16 -119q-60 -17 -124 -17q-98 0 -152.5 62.5t-54.5 175.5
q0 118 61 184.5t171 66.5q69 0 123 -24z" />
    <glyph glyph-name="Ccaron" unicode="&#x10c;" horiz-adv-x="516" 
d="M509 621l-29 -133l-11 -6q-61 40 -133 40t-106.5 -45t-34.5 -142q0 -210 149 -210q72 0 137 34l14 -8l-13 -133q-70 -28 -151 -28q-151 0 -229 84t-78 243q0 161 83 249t235 88q92 0 167 -33zM332 715h-30q-68 61 -142 110l28 63h15l114 -62q-17 -10 68 38l45 24h15
l28 -63q-76 -51 -141 -110z" />
    <glyph glyph-name="ccaron" unicode="&#x10d;" horiz-adv-x="384" 
d="M378 454l-26 -124l-12 -5q-53 25 -85 25q-81 0 -81 -107q0 -130 91 -130q36 0 93 21l12 -9l-16 -119q-60 -17 -124 -17q-98 0 -152.5 62.5t-54.5 175.5q0 118 61 184.5t171 66.5q69 0 123 -24zM257 525h-31q-67 70 -150 145l39 59h15q77 -55 111 -86q32 27 111 86h16
l39 -59q-62 -55 -150 -145z" />
    <glyph glyph-name="Dcaron" unicode="&#x10e;" horiz-adv-x="659" 
d="M560 571.5q75 -77.5 75 -223.5q0 -172 -86 -264t-246 -92q-92 0 -232 8h-1l9 191l-9 454h1l272 4q142 0 217 -77.5zM466 309q0 114 -32 163t-104 49q-53 0 -97 -4l-6 -310l2 -84q59 -8 104 -8q133 0 133 194zM339 715h-30q-68 61 -142 110l28 63h15l114 -62
q-17 -10 68 38l45 24h15l28 -63q-76 -51 -141 -110z" />
    <glyph glyph-name="dcaron" unicode="&#x10f;" horiz-adv-x="611" 
d="M463 133q0 -15 4 -21t14 -6q9 0 22 4l11 -9l-14 -83q-33 -23 -81 -27q-66 6 -87 70h-8q-41 -41 -97 -69q-97 0 -151 63t-54 174q0 120 63.5 183.5t175.5 63.5q29 0 53 -5l-2 220l157 11l-8 -495zM597 419l-68 -11l-11 9l-5 218l113 7l9 -10zM190.5 343.5
q-20.5 -26.5 -19.5 -87.5q0 -144 79 -144q37 0 67 33l2 47l-3 163q-33 15 -62 15q-43 0 -63.5 -26.5z" />
    <glyph glyph-name="Dcroat" unicode="&#x110;" horiz-adv-x="659" 
d="M560 571.5q75 -77.5 75 -223.5q0 -172 -86 -264t-246 -92q-92 0 -232 8h-1l9 191l-9 454h1l272 4q142 0 217 -77.5zM466 309q0 114 -32 163t-104 49q-53 0 -97 -4l-6 -310l2 -84q59 -8 104 -8q133 0 133 194zM464 751h-278l-10 11l7 88h279l10 -11z" />
    <glyph glyph-name="dcroat" unicode="&#x111;" horiz-adv-x="536" 
d="M461 207l2 -74q0 -15 4 -21t14 -6q9 0 22 4l11 -9l-14 -83q-33 -23 -81 -27q-66 6 -87 70h-8q-41 -41 -97 -69q-97 0 -151 63t-54 174q0 120 63.5 183.5t175.5 63.5q29 0 53 -5l-1 64h-102l-10 10l6 74h106l-1 72l157 11l-1 -83h64l11 -11l-7 -73h-70zM316 355
q-33 15 -62 15q-43 0 -63.5 -26.5t-19.5 -87.5q0 -144 79 -144q37 0 67 33l2 47z" />
    <glyph glyph-name="Emacron" unicode="&#x112;" horiz-adv-x="522" 
d="M506 120l-10 -120h-426l9 191l-9 454h432l9 -12l-11 -120l-157 6l-110 -1l-2 -129h105l105 3l9 -12l-10 -120l-115 3h-97l-1 -56l2 -80l106 -1l162 6zM427 751h-278l-10 11l7 88h279l10 -11z" />
    <glyph glyph-name="emacron" unicode="&#x113;" horiz-adv-x="480" 
d="M168 207q6 -52 34 -77t84 -25q63 0 134 31l13 -9l-23 -112q-70 -26 -141 -26q-117 0 -181.5 64.5t-64.5 179.5q0 114 64 179t173 65q92 0 142 -49.5t50 -138.5q0 -36 -5 -59l-20 -22zM256 375q-71 0 -86 -88l144 6l2 13q0 69 -60 69zM391 573h-278l-10 11l7 88h279
l10 -11z" />
    <glyph glyph-name="Ebreve" unicode="&#x114;" horiz-adv-x="522" 
d="M506 120l-10 -120h-426l9 191l-9 454h432l9 -12l-11 -120l-157 6l-110 -1l-2 -129h105l105 3l9 -12l-10 -120l-115 3h-97l-1 -56l2 -80l106 -1l162 6zM385.5 747.5q-42.5 -29.5 -101.5 -29.5q-58 0 -99 29.5t-60 84.5l34 49h22q31 -53 108 -53q72 0 102 53h23l34 -49
q-20 -55 -62.5 -84.5z" />
    <glyph glyph-name="ebreve" unicode="&#x115;" horiz-adv-x="480" 
d="M168 207q6 -52 34 -77t84 -25q63 0 134 31l13 -9l-23 -112q-70 -26 -141 -26q-117 0 -181.5 64.5t-64.5 179.5q0 114 64 179t173 65q92 0 142 -49.5t50 -138.5q0 -36 -5 -59l-20 -22zM256 375q-71 0 -86 -88l144 6l2 13q0 69 -60 69zM355 567.5q-42 -36.5 -108 -36.5
q-65 0 -104 37t-53 93l34 51h22q29 -70 106 -70q78 0 104 70h23l34 -51q-16 -57 -58 -93.5z" />
    <glyph glyph-name="Edotaccent" unicode="&#x116;" horiz-adv-x="522" 
d="M226 740q-20 21 -20 59q0 39 22.5 62.5t61.5 23.5q37 0 57.5 -21t20.5 -58q0 -40 -23 -63.5t-61 -23.5t-58 21zM506 120l-10 -120h-426l9 191l-9 454h431l9 -12l-11 -120l-156 6l-111 -1l-2 -129h106l105 3l9 -12l-10 -120l-115 3h-98l-1 -56l3 -80l106 -1l162 6z" />
    <glyph glyph-name="edotaccent" unicode="&#x117;" horiz-adv-x="480" 
d="M190 562q-20 21 -20 59q0 39 22.5 62.5t61.5 23.5q37 0 57.5 -21t20.5 -58q0 -40 -23 -63.5t-61 -23.5t-58 21zM168 207q6 -52 34 -77t84 -25q63 0 134 31l13 -9l-23 -112q-70 -26 -141 -26q-117 0 -181.5 64.5t-64.5 179.5q0 114 64 179t173 65q92 0 142 -49.5
t50 -138.5q0 -36 -5 -59l-20 -22zM256 375q-71 0 -86 -88l144 6l2 13q0 69 -60 69z" />
    <glyph glyph-name="Eogonek" unicode="&#x118;" horiz-adv-x="522" 
d="M407 -197q-44 0 -70.5 26t-26.5 66q0 42 31 85l15 20h-286l9 191l-9 454h431l9 -12l-11 -120l-156 6l-111 -1l-2 -129h106l105 3l9 -12l-10 -120l-115 3h-98l-1 -56l3 -80l106 -1l162 6l9 -12l-10 -120h-66l-21 -32q-16 -26 -16 -45q0 -36 37 -36q29 0 63 26h9l11 -62
q-57 -48 -106 -48z" />
    <glyph glyph-name="eogonek" unicode="&#x119;" horiz-adv-x="480" 
d="M168 207q6 -52 34 -77t84 -25q63 0 134 31l13 -9l-23 -112q-31 -11 -59 -17l-20 -30q-16 -26 -16 -45q0 -36 37 -36q29 0 63 26h9l11 -62q-57 -48 -106 -48q-44 0 -70.5 26t-26.5 66q0 42 31 85l6 9q-117 0 -181.5 64.5t-64.5 179.5q0 114 64 179t173 65q92 0 142 -49.5
t50 -138.5q0 -36 -5 -59l-20 -22zM256 375q-71 0 -86 -88l144 6l2 13q0 69 -60 69z" />
    <glyph glyph-name="Ecaron" unicode="&#x11a;" horiz-adv-x="522" 
d="M506 120l-10 -120h-426l9 191l-9 454h432l9 -12l-11 -120l-157 6l-110 -1l-2 -129h105l105 3l9 -12l-10 -120l-115 3h-97l-1 -56l2 -80l106 -1l162 6zM302 715h-30q-68 61 -142 110l28 63h15l114 -62q-17 -10 68 38l45 24h15l28 -63q-76 -51 -141 -110z" />
    <glyph glyph-name="ecaron" unicode="&#x11b;" horiz-adv-x="480" 
d="M168 207q6 -52 34 -77t84 -25q63 0 134 31l13 -9l-23 -112q-70 -26 -141 -26q-117 0 -181.5 64.5t-64.5 179.5q0 114 64 179t173 65q92 0 142 -49.5t50 -138.5q0 -36 -5 -59l-20 -22zM256 375q-71 0 -86 -88l144 6l2 13q0 69 -60 69zM266 524h-31q-67 70 -150 145l39 59
h15q77 -55 111 -86q32 27 111 86h16l39 -59q-62 -55 -150 -145z" />
    <glyph glyph-name="Gcircumflex" unicode="&#x11c;" horiz-adv-x="597" 
d="M312 898h30q68 -61 142 -110l-28 -63h-15l-114 62q17 10 -68 -38l-45 -24h-15l-28 63q76 51 141 110zM560 619l-35 -145h-14q-49 27 -87.5 38.5t-81.5 11.5q-54 0 -86 -19.5t-47 -64.5t-15 -123q0 -77 14.5 -120.5t47 -62.5t89.5 -19q28 0 65 10l1 45l-2 104l149 10
l-3 -87l1 -165q-117 -42 -224 -42q-153 0 -230.5 82.5t-77.5 236.5q0 168 90.5 256.5t257.5 88.5q108 0 188 -35z" />
    <glyph glyph-name="gcircumflex" unicode="&#x11d;" horiz-adv-x="507" 
d="M92 580q62 55 150 145h31q67 -70 150 -145l-39 -59h-15q-77 55 -111 86q-32 -27 -111 -86h-16zM448 383l-2 -5q12 -27 12 -59q0 -76 -57 -121t-155 -45q-33 0 -56 4q-10 -10 -10 -20q0 -17 22 -23t74 -12q61 -7 100.5 -16.5t69 -36.5t29.5 -76t-29.5 -87.5t-83 -60
t-122.5 -21.5q-96 0 -147.5 37t-51.5 99q31 39 81 70v5q-71 28 -71 96q34 37 72 61v6q-77 38 -77 130q0 78 56.5 123t154.5 45q58 0 105 -19q75 15 146 43l11 -9v-97q-32 -8 -71 -11zM323 315q0 34 -16.5 49.5t-51.5 15.5q-38 0 -55.5 -15.5t-17.5 -48.5q0 -71 68 -71
q73 0 73 70zM317.5 -22q-26.5 9 -84.5 16q-22 2 -33 4q-33 -25 -33 -52q0 -54 88 -54q89 0 89 53q0 24 -26.5 33z" />
    <glyph glyph-name="Gbreve" unicode="&#x11e;" horiz-adv-x="597" 
d="M559 619l-34 -145h-14q-49 27 -87.5 38.5t-81.5 11.5q-54 0 -86 -19.5t-47.5 -64.5t-15.5 -123q0 -77 15 -120.5t47.5 -62.5t89.5 -19q28 0 65 10l1 45l-3 104l149 10l-2 -87l1 -165q-119 -42 -225 -42q-153 0 -230 82.5t-77 236.5q0 168 90 256.5t258 88.5
q108 0 187 -35zM426.5 747.5q-42.5 -29.5 -101.5 -29.5q-58 0 -99 29.5t-60 84.5l34 49h22q31 -53 108 -53q72 0 102 53h23l34 -49q-20 -55 -62.5 -84.5z" />
    <glyph glyph-name="gbreve" unicode="&#x11f;" horiz-adv-x="507" 
d="M448 383l-2 -4q13 -26 13 -60q0 -76 -57 -121t-155 -45q-33 0 -57 4q-10 -11 -10 -20q0 -17 22 -23t74 -12q62 -7 101.5 -16.5t69 -36.5t29.5 -76t-29.5 -87.5t-83 -60t-123.5 -21.5q-95 0 -147 37t-52 99q34 41 81 70v5q-70 27 -70 96q35 38 71 61v6q-77 38 -77 130
q0 78 57 123t155 45q57 0 104 -19q74 15 146 43l11 -9v-97q-32 -8 -71 -11zM323 315q0 34 -16.5 49.5t-51.5 15.5q-38 0 -55.5 -15.5t-17.5 -48.5q0 -71 69 -71q72 0 72 70zM317.5 -22q-26.5 9 -84.5 16l-32 3q-34 -25 -34 -51q0 -25 22.5 -39.5t65.5 -14.5q89 0 89 53
q0 24 -26.5 33zM362 561.5q-42 -36.5 -108 -36.5q-65 0 -104 37t-53 93l34 51h22q29 -70 106 -70q78 0 104 70h23l34 -51q-16 -57 -58 -93.5z" />
    <glyph glyph-name="Gdotaccent" unicode="&#x120;" horiz-adv-x="597" 
d="M388.5 864q20.5 -21 20.5 -58q0 -40 -23 -63.5t-61 -23.5t-58 21t-20 59q0 39 22.5 62.5t61.5 23.5q37 0 57.5 -21zM560 619l-35 -145h-14q-49 27 -87.5 38.5t-81.5 11.5q-54 0 -86 -19.5t-47 -64.5t-15 -123q0 -77 14.5 -120.5t47 -62.5t89.5 -19q28 0 65 10l1 45
l-2 104l149 10l-3 -87l1 -165q-117 -42 -224 -42q-153 0 -230.5 82.5t-77.5 236.5q0 168 90.5 256.5t257.5 88.5q108 0 188 -35z" />
    <glyph glyph-name="gdotaccent" unicode="&#x121;" horiz-adv-x="507" 
d="M197 556q-20 21 -20 59q0 39 22.5 62.5t61.5 23.5q37 0 57.5 -21t20.5 -58q0 -40 -23 -63.5t-61 -23.5t-58 21zM448 383l-2 -5q12 -27 12 -59q0 -76 -57 -121t-155 -45q-33 0 -56 4q-10 -10 -10 -20q0 -17 22 -23t74 -12q61 -7 100.5 -16.5t69 -36.5t29.5 -76
t-29.5 -87.5t-83 -60t-122.5 -21.5q-96 0 -147.5 37t-51.5 99q31 39 81 70v5q-71 28 -71 96q34 37 72 61v6q-77 38 -77 130q0 78 56.5 123t154.5 45q58 0 105 -19q75 15 146 43l11 -9v-97q-32 -8 -71 -11zM323 315q0 34 -16.5 49.5t-51.5 15.5q-38 0 -55.5 -15.5
t-17.5 -48.5q0 -71 68 -71q73 0 73 70zM317.5 -22q-26.5 9 -84.5 16q-22 2 -33 4q-33 -25 -33 -52q0 -54 88 -54q89 0 89 53q0 24 -26.5 33z" />
    <glyph glyph-name="Gcommaaccent" unicode="&#x122;" horiz-adv-x="597" 
d="M560 619l-35 -145h-14q-49 27 -87.5 38.5t-81.5 11.5q-54 0 -86 -19.5t-47 -64.5t-15 -123q0 -77 14.5 -120.5t47 -62.5t89.5 -19q28 0 65 10l1 45l-2 104l149 10l-3 -87l1 -165q-117 -42 -224 -42q-153 0 -230.5 82.5t-77.5 236.5q0 168 90.5 256.5t257.5 88.5
q108 0 188 -35zM384 -116q0 -86 -118 -169l-44 39l-1 10q49 42 49 90q0 33 -29 58l1 12q51 29 101 42q41 -34 41 -82z" />
    <glyph glyph-name="gcommaaccent" unicode="&#x123;" horiz-adv-x="507" 
d="M185 610q0 78 94 166l50 -33l2 -9q-37 -41 -37 -81q0 -46 38 -72v-11q-45 -35 -93 -55q-54 32 -54 95zM448 383l-2 -5q12 -27 12 -59q0 -76 -57 -121t-155 -45q-33 0 -56 4q-10 -10 -10 -20q0 -17 22 -23t74 -12q61 -7 100.5 -16.5t69 -36.5t29.5 -76t-29.5 -87.5
t-83 -60t-122.5 -21.5q-96 0 -147.5 37t-51.5 99q31 39 81 70v5q-71 28 -71 96q34 37 72 61v6q-77 38 -77 130q0 78 56.5 123t154.5 45q58 0 105 -19q75 15 146 43l11 -9v-97q-32 -8 -71 -11zM323 315q0 34 -16.5 49.5t-51.5 15.5q-38 0 -55.5 -15.5t-17.5 -48.5
q0 -71 68 -71q73 0 73 70zM317.5 -22q-26.5 9 -84.5 16q-22 2 -33 4q-33 -25 -33 -52q0 -54 88 -54q89 0 89 53q0 24 -26.5 33z" />
    <glyph glyph-name="Hcircumflex" unicode="&#x124;" horiz-adv-x="702" 
d="M193 788q76 51 141 110h30q68 -61 142 -110l-28 -63h-15l-114 62q17 10 -68 -38l-45 -24h-15zM629 0h-163l9 191l-1 65l-131 2l-116 -3l-1 -48l7 -207h-163l9 191l-9 454h165l-5 -256l123 -3l118 2l-5 257h165l-9 -438z" />
    <glyph glyph-name="hcircumflex" unicode="&#x125;" horiz-adv-x="536" 
d="M133 798q17 10 -68 -38l-45 -24h-15l-28 63q76 51 141 110h30q68 -61 142 -110l-28 -63h-15zM341 279q0 69 -56 69q-33 0 -76 -30l-2 -111l7 -207h-158l8 192l-6 499l157 11l-5 -301h6q55 52 119 73q76 0 115.5 -34.5t37.5 -98.5l-3 -134l6 -207h-159z" />
    <glyph glyph-name="Hbar" unicode="&#x126;" horiz-adv-x="735" 
d="M635 207l7 -207h-163l9 191l-1 65l-131 2l-115 -3l-1 -48l7 -207h-163l8 191l-5 283h-60l-7 8l5 79h60l-1 84h165l-2 -84h234l-2 84h165l-2 -84h67l7 -9l-5 -78h-71zM245 474l-1 -85l122 -3l118 2l-2 86h-237z" />
    <glyph glyph-name="hbar" unicode="&#x127;" horiz-adv-x="540" 
d="M345 279q0 69 -56 69q-33 0 -76 -30l-2 -111l7 -207h-158l8 192l-4 343h-63l-10 10l6 74h66l-1 72l157 11l-1 -83h104l10 -11l-6 -73h-110l-2 -134h6q55 52 119 73q76 0 115.5 -34.5t37.5 -98.5l-3 -134l6 -207h-159z" />
    <glyph glyph-name="Imacron" unicode="&#x12a;" horiz-adv-x="308" 
d="M233 0h-163l9 191l-9 454h166l-9 -438zM269 751h-230l-10 11l8 88h229l10 -11z" />
    <glyph glyph-name="imacron" unicode="&#x12b;" horiz-adv-x="261" 
d="M209 0h-158l8 191l-6 267l157 12l-8 -263zM249 574h-230l-10 11l8 88h229l10 -11z" />
    <glyph glyph-name="Ibreve" unicode="&#x12c;" horiz-adv-x="308" 
d="M233 0h-163l9 191l-9 454h166l-9 -438zM252.5 747.5q-42.5 -29.5 -101.5 -29.5q-58 0 -99 29.5t-60 84.5l34 49h22q31 -53 108 -53q72 0 102 53h23l34 -49q-20 -55 -62.5 -84.5z" />
    <glyph glyph-name="ibreve" unicode="&#x12d;" horiz-adv-x="261" 
d="M209 0h-158l8 191l-6 267l157 12l-8 -263zM238 568.5q-42 -36.5 -108 -36.5q-65 0 -104 37t-53 93l34 51h22q29 -70 106 -70q78 0 104 70h23l34 -51q-16 -57 -58 -93.5z" />
    <glyph glyph-name="Iogonek" unicode="&#x12e;" horiz-adv-x="308" 
d="M115 -80q0 -33 34 -33q32 0 59 24h9l11 -66q-51 -42 -101 -42q-43 0 -69 25.5t-26 66.5q0 46 39 105h-1l9 191l-9 454h165l-9 -438l7 -207h-84q-34 -51 -34 -80z" />
    <glyph glyph-name="iogonek" unicode="&#x12f;" horiz-adv-x="261" 
d="M72 563q-20 21 -20 59q0 39 22.5 62.5t61.5 23.5q37 0 57.5 -21t20.5 -58q0 -40 -23 -63.5t-61 -23.5t-58 21zM202 207l7 -207h-80q-34 -51 -34 -80q0 -33 34 -33q32 0 59 24h9l11 -66q-51 -42 -101 -42q-43 0 -69 25.5t-26 66.5q0 46 39 105l8 191l-6 267l157 12z" />
    <glyph glyph-name="Idotaccent" unicode="&#x130;" horiz-adv-x="308" 
d="M213.5 864q20.5 -21 20.5 -58q0 -40 -23 -63.5t-61 -23.5t-58 21t-20 59q0 39 22.5 62.5t61.5 23.5q37 0 57.5 -21zM233 0h-163l9 191l-9 454h165l-9 -438z" />
    <glyph glyph-name="dotlessi" unicode="&#x131;" horiz-adv-x="261" 
d="M209 0h-158l8 191l-6 267l157 12l-8 -263z" />
    <glyph glyph-name="IJ" unicode="&#x132;" horiz-adv-x="654" 
d="M233 0h-163l9 191l-9 454h166l-9 -438zM578 122q0 -59 -19.5 -100.5t-64.5 -72.5t-124 -58l-46 85v14q58 29 81 59t23 77v71l-6 332l-97 -3l-10 11l7 108h263l-9 -432z" />
    <glyph glyph-name="ij" unicode="&#x133;" horiz-adv-x="555" 
d="M193.5 687q20.5 -21 20.5 -58q0 -40 -23 -63.5t-61 -23.5t-58 21t-20 59q0 39 22.5 62.5t61.5 23.5q37 0 57.5 -21zM467.5 687q20.5 -21 20.5 -58q0 -40 -23 -63.5t-61 -23.5t-58 21t-20 59q0 39 22.5 62.5t61.5 23.5q37 0 57.5 -21zM490 207l7 -177q0 -79 -41.5 -133
t-132.5 -93l-54 70v14q41 22 59.5 55t18.5 83v165l-4 179h-73l-9 9l7 85h79l147 7l5 -3zM209 0h-158l8 191l-6 267l157 12l-8 -263z" />
    <glyph glyph-name="Jcircumflex" unicode="&#x134;" horiz-adv-x="346" 
d="M311 788l-28 -63h-15l-114 62q17 10 -68 -38l-45 -24h-15l-28 63q76 51 141 110h30q68 -61 142 -110zM268 213l2 -91q0 -59 -19.5 -100t-64.5 -72.5t-124 -58.5l-46 85v14q58 29 81 59t23 77v71l-6 332l-97 -3l-10 11l7 108h263z" />
    <glyph glyph-name="jcircumflex" unicode="&#x135;" horiz-adv-x="294" 
d="M131 732h31q67 -70 150 -145l-39 -59h-15q-77 55 -111 86q-32 -27 -111 -86h-16l-39 59q62 55 150 145zM229 207l7 -177q0 -79 -41.5 -133t-132.5 -93l-54 70v14q41 22 59.5 55t18.5 83v165l-4 179h-73l-9 9l7 85h79l147 7l5 -3z" />
    <glyph glyph-name="Kcommaaccent" unicode="&#x136;" horiz-adv-x="602" 
d="M615 34l-2 -18q-82 -20 -161 -27l-18 10q-124 184 -206 320l-2 -112l7 -207h-163l9 191l-9 454h165l-6 -289l157 224l36 65h174l-212 -304q102 -151 231 -307zM388 -116q0 -86 -118 -169l-44 39l-1 10q49 42 49 90q0 33 -29 58l1 12q51 29 101 42q41 -34 41 -82z" />
    <glyph glyph-name="kcommaaccent" unicode="&#x137;" horiz-adv-x="513" 
d="M214 0h-158l8 192l-6 499l157 11l-8 -495zM507 26l-1 -16q-51 -11 -147 -21l-17 8q-79 124 -134 247v10l103 162l23 52h164l-139 -210q51 -88 148 -232zM355 -116q0 -86 -118 -169l-44 39l-1 10q49 42 49 90q0 33 -29 58l1 12q51 29 101 42q41 -34 41 -82z" />
    <glyph glyph-name="kgreenlandic" unicode="&#x138;" horiz-adv-x="511" 
d="M209 0h-158l8 191l-6 267l157 12l-8 -263zM504 26l-1 -16q-51 -11 -147 -21l-17 8q-79 124 -134 247v10l103 162l23 52h164l-139 -210q51 -88 148 -232z" />
    <glyph glyph-name="Lacute" unicode="&#x139;" horiz-adv-x="441" 
d="M429 0h-363l9 191l-9 454h165l-9 -438l3 -74h205l10 -12zM371 802l-5 -13q-93 -34 -224 -75l-15 4l-25 66q108 53 215 116l14 -3z" />
    <glyph glyph-name="lacute" unicode="&#x13a;" horiz-adv-x="271" 
d="M214 0h-158l8 192l-6 499l157 11l-8 -495zM290 837l-5 -13q-93 -34 -224 -75l-15 4l-25 66q108 53 215 116l14 -3z" />
    <glyph glyph-name="Lcommaaccent" unicode="&#x13b;" horiz-adv-x="441" 
d="M430 0h-364l9 191l-9 454h165l-9 -438l3 -74h206l9 -12zM316 -116q0 -86 -118 -169l-44 39l-1 10q49 42 49 90q0 33 -29 58l1 12q51 29 101 42q41 -34 41 -82z" />
    <glyph glyph-name="lcommaaccent" unicode="&#x13c;" horiz-adv-x="271" 
d="M214 0h-158l8 192l-6 499l157 11l-8 -495zM218 -116q0 -86 -118 -169l-44 39l-1 10q49 42 49 90q0 33 -29 58l1 12q51 29 101 42q41 -34 41 -82z" />
    <glyph glyph-name="Lcaron" unicode="&#x13d;" horiz-adv-x="489" 
d="M440 121l-10 -121h-364l9 191l-9 454h165l-9 -438l3 -74h206zM338 588l113 7l9 -10l-37 -213l-68 -10l-11 8z" />
    <glyph glyph-name="lcaron" unicode="&#x13e;" horiz-adv-x="348" 
d="M214 0h-158l8 192l-6 499l157 11l-8 -495zM340 421l-68 -11l-11 9l-5 218l113 7l9 -10z" />
    <glyph glyph-name="Ldot" unicode="&#x13f;" horiz-adv-x="475" 
d="M429 0h-363l9 191l-9 454h165l-9 -438l3 -74h205l10 -12zM438.5 456q20.5 -21 20.5 -58q0 -40 -23 -63.5t-61 -23.5t-58 21t-20 59q0 39 22.5 62.5t61.5 23.5q37 0 57.5 -21z" />
    <glyph glyph-name="ldot" unicode="&#x140;" horiz-adv-x="399" 
d="M214 0h-158l8 192l-6 499l157 11l-8 -495zM381.5 360q20.5 -21 20.5 -58q0 -40 -23 -63.5t-61 -23.5t-58 21t-20 59q0 39 22.5 62.5t61.5 23.5q37 0 57.5 -21z" />
    <glyph glyph-name="Lslash" unicode="&#x141;" horiz-adv-x="458" 
d="M447 0h-363l9 191l-1 37l-55 -28l-14 8l-29 94l96 49l-6 294h165l-4 -215l87 44l15 -7l29 -93l-134 -69l-2 -98l3 -74h205l10 -12z" />
    <glyph glyph-name="lslash" unicode="&#x142;" horiz-adv-x="302" 
d="M230 0h-158l8 192l-1 85l-57 -28l-8 2l-31 88l94 48l-4 304l158 11l-4 -256l54 28l7 -3l31 -88l-94 -48l-2 -128z" />
    <glyph glyph-name="Nacute" unicode="&#x143;" horiz-adv-x="701" 
d="M628 0h-176l-229 399h-10l-1 -172l7 -227h-149l9 190l-8 455h176l229 -399h10l-5 393l150 9l-9 -444zM504 802l-5 -13q-93 -34 -224 -75l-15 4l-25 66q108 53 215 116l14 -3z" />
    <glyph glyph-name="nacute" unicode="&#x144;" horiz-adv-x="533" 
d="M335 279q0 69 -57 69q-33 0 -76 -30v-111l7 -207h-158l8 191l-6 267l150 12v-69h7q52 51 119 73q76 0 115.5 -34.5t37.5 -98.5l-3 -134l6 -207h-159zM437 649l-3 -14q-99 -57 -206 -115l-14 1l-37 60q105 80 189 156l14 -1z" />
    <glyph glyph-name="Ncommaaccent" unicode="&#x145;" horiz-adv-x="701" 
d="M628 0h-176l-229 399h-10l-1 -172l6 -227h-148l9 190l-8 455h175l229 -399h11l-5 393l150 9l-10 -444zM432 -116q0 -86 -118 -169l-44 39l-1 10q49 42 49 90q0 33 -29 58l1 12q51 29 101 42q41 -34 41 -82z" />
    <glyph glyph-name="ncommaaccent" unicode="&#x146;" horiz-adv-x="533" 
d="M59 191l-6 267l150 12v-69h7q55 52 119 73q76 0 115.5 -34.5t37.5 -98.5l-3 -134l6 -207h-159l9 279q0 69 -56 69q-34 0 -77 -30v-111l7 -207h-158zM355 -116q0 -86 -118 -169l-44 39l-1 10q49 42 49 90q0 33 -29 58l1 12q51 29 101 42q41 -34 41 -82z" />
    <glyph glyph-name="Ncaron" unicode="&#x147;" horiz-adv-x="701" 
d="M628 0h-176l-229 399h-10l-1 -172l7 -227h-149l9 190l-8 455h176l229 -399h10l-5 393l150 9l-9 -444zM366 715h-30q-68 61 -142 110l28 63h15l114 -62q-17 -10 68 38l45 24h15l28 -63q-76 -51 -141 -110z" />
    <glyph glyph-name="ncaron" unicode="&#x148;" horiz-adv-x="533" 
d="M335 279q0 69 -57 69q-33 0 -76 -30v-111l7 -207h-158l8 191l-6 267l150 12v-69h7q52 51 119 73q76 0 115.5 -34.5t37.5 -98.5l-3 -134l6 -207h-159zM300 525h-31q-67 70 -150 145l39 59h15q77 -55 111 -86q32 27 111 86h16l39 -59q-62 -55 -150 -145z" />
    <glyph glyph-name="Eng" unicode="&#x14a;" horiz-adv-x="701" 
d="M626 55q0 -59 -19.5 -100t-64.5 -72t-124 -58l-45 84v14q72 36 91 77l-241 399h-10l-1 -172l7 -227h-149l9 190l-8 455h176l229 -385h10l-5 379l150 9l-9 -444z" />
    <glyph glyph-name="eng" unicode="&#x14b;" horiz-adv-x="536" 
d="M444 -103q-41 -54 -131 -93l-54 70v14q40 22 58 55t18 83v253q0 69 -57 69q-33 0 -76 -30v-111l7 -207h-158l8 191l-6 267l150 12v-69h7q52 51 119 73q76 0 115.5 -34.5t37.5 -98.5l-3 -134l6 -177q0 -79 -41 -133z" />
    <glyph glyph-name="Omacron" unicode="&#x14c;" horiz-adv-x="647" 
d="M549 572.5q75 -82.5 75 -234.5q0 -166 -82 -257.5t-231 -91.5q-137 0 -212 84.5t-75 239.5q0 164 81.5 253t230.5 89q138 0 213 -82.5zM246 507q-28 -18 -40.5 -59.5t-12.5 -112.5q0 -85 13 -133t41.5 -69t77.5 -21q47 0 75 18.5t41 60t13 113.5q0 84 -13 131.5
t-41.5 68.5t-77.5 21q-48 0 -76 -18zM465 751h-278l-10 11l7 88h279l10 -11z" />
    <glyph glyph-name="omacron" unicode="&#x14d;" horiz-adv-x="495" 
d="M416.5 418q55.5 -60 55.5 -175q0 -124 -59.5 -189t-172.5 -65q-106 0 -161.5 60t-55.5 174q0 124 59.5 189.5t172.5 65.5q106 0 161.5 -60zM187.5 344.5q-16.5 -26.5 -16.5 -92.5q0 -61 7.5 -95.5t25 -49t47.5 -14.5q39 0 55.5 26.5t16.5 93.5q0 89 -17.5 123.5
t-61.5 34.5q-40 0 -56.5 -26.5zM390 574h-278l-10 11l7 88h279l10 -11z" />
    <glyph glyph-name="Obreve" unicode="&#x14e;" horiz-adv-x="647" 
d="M549 572.5q75 -82.5 75 -234.5q0 -166 -82 -257.5t-231 -91.5q-137 0 -212 84.5t-75 239.5q0 164 81.5 253t230.5 89q138 0 213 -82.5zM246 507q-28 -18 -40.5 -59.5t-12.5 -112.5q0 -85 13 -133t41.5 -69t77.5 -21q47 0 75 18.5t41 60t13 113.5q0 84 -13 131.5
t-41.5 68.5t-77.5 21q-48 0 -76 -18zM423.5 747.5q-42.5 -29.5 -101.5 -29.5q-58 0 -99 29.5t-60 84.5l34 49h22q31 -53 108 -53q72 0 102 53h23l34 -49q-20 -55 -62.5 -84.5z" />
    <glyph glyph-name="obreve" unicode="&#x14f;" horiz-adv-x="495" 
d="M416.5 418q55.5 -60 55.5 -175q0 -124 -59.5 -189t-172.5 -65q-106 0 -161.5 60t-55.5 174q0 124 59.5 189.5t172.5 65.5q106 0 161.5 -60zM187.5 344.5q-16.5 -26.5 -16.5 -92.5q0 -61 7.5 -95.5t25 -49t47.5 -14.5q39 0 55.5 26.5t16.5 93.5q0 89 -17.5 123.5
t-61.5 34.5q-40 0 -56.5 -26.5zM354 568.5q-42 -36.5 -108 -36.5q-65 0 -104 37t-53 93l34 51h22q29 -70 106 -70q78 0 104 70h23l34 -51q-16 -57 -58 -93.5z" />
    <glyph glyph-name="Ohungarumlaut" unicode="&#x150;" horiz-adv-x="647" 
d="M549 572.5q75 -82.5 75 -234.5q0 -166 -82 -257.5t-231 -91.5q-137 0 -212 84.5t-75 239.5q0 164 81.5 253t230.5 89q138 0 213 -82.5zM246 507q-28 -18 -40.5 -59.5t-12.5 -112.5q0 -85 13 -133t41.5 -69t77.5 -21q47 0 75 18.5t41 60t13 113.5q0 84 -13 131.5
t-41.5 68.5t-77.5 21q-48 0 -76 -18zM274 892l12 3l73 -48l2 -12q-61 -61 -127 -118l-14 -4l-48 39q70 92 102 140zM435 892l11 3l74 -48l2 -12q-53 -52 -128 -118l-13 -4l-49 39q56 73 103 140z" />
    <glyph glyph-name="ohungarumlaut" unicode="&#x151;" horiz-adv-x="495" 
d="M416.5 418q55.5 -60 55.5 -175q0 -124 -59.5 -189t-172.5 -65q-106 0 -161.5 60t-55.5 174q0 124 59.5 189.5t172.5 65.5q106 0 161.5 -60zM187.5 344.5q-16.5 -26.5 -16.5 -92.5q0 -61 7.5 -95.5t25 -49t47.5 -14.5q39 0 55.5 26.5t16.5 93.5q0 89 -17.5 123.5
t-61.5 34.5q-40 0 -56.5 -26.5zM219 739l11 3l73 -51l2 -12q-67 -77 -144 -154l-13 -4l-48 39q72 104 119 179zM377 739l11 3l73 -51l2 -12q-60 -69 -145 -154l-13 -4l-48 39q55 77 120 179z" />
    <glyph glyph-name="OE" unicode="&#x152;" horiz-adv-x="877" 
d="M458 650q73 -5 84 -5h314l9 -12l-11 -120l-154 6h-113l-2 -130h104l107 3l9 -12l-10 -120l-117 3h-97v-58l2 -78l105 -1l163 6l10 -12l-11 -120h-308q-38 1 -105 -6q-70 -6 -109 -6q-145 0 -224.5 85.5t-79.5 240.5q0 163 86 253t240 90q50 0 108 -7zM226 481
q-33 -46 -33 -154q0 -116 34 -166.5t114 -50.5q57 0 76 14q17 12 16 48l-5 294q0 36 -12 46q-18 15 -79 15q-78 0 -111 -46z" />
    <glyph glyph-name="oe" unicode="&#x153;" horiz-adv-x="767" 
d="M453 207q6 -52 34.5 -77t85.5 -25q63 0 134 31l12 -9l-23 -112q-68 -26 -140 -26q-108 0 -167 68q-51 -68 -156 -68q-103 0 -157.5 61t-54.5 177q0 121 59 185.5t167 64.5q98 0 146 -63q57 63 154 63q92 0 142 -49.5t50 -138.5q0 -24 -5 -59l-20 -22zM543 375
q-73 0 -88 -89l146 6l2 14q0 69 -60 69zM306.5 119.5q16.5 26.5 16.5 93.5q0 89 -17.5 123.5t-61.5 34.5q-40 0 -56.5 -26.5t-16.5 -92.5q0 -61 7.5 -95.5t25 -49t47.5 -14.5q39 0 55.5 26.5z" />
    <glyph glyph-name="Racute" unicode="&#x154;" horiz-adv-x="607" 
d="M595 38l-2 -18q-76 -25 -161 -31l-16 13q-60 112 -104 205h-85l6 -207h-163l9 191l-9 454l272 1q105 0 161.5 -50.5t56.5 -144.5q0 -59 -30 -110t-85 -86q83 -129 150 -217zM317 325q72 26 72 111q0 47 -24.5 69.5t-76.5 24.5l-54 -3l-4 -198zM456 826l-3 -14
q-99 -57 -206 -115l-14 1l-37 60q105 80 189 156l14 -1z" />
    <glyph glyph-name="racute" unicode="&#x155;" horiz-adv-x="358" 
d="M354 467v-145l-16 -5q-13 7 -36 7q-55 0 -100 -58v-59l7 -207h-158l8 191l-6 267l150 12v-90h8q45 89 119 89q6 0 24 -2zM357 649l-3 -14q-99 -57 -206 -115l-14 1l-37 60q105 80 189 156l14 -1z" />
    <glyph glyph-name="Rcommaaccent" unicode="&#x156;" horiz-adv-x="607" 
d="M595 38l-3 -18q-76 -25 -160 -31l-17 13q-75 144 -104 205h-85l7 -207h-163l9 191l-9 454l273 1q104 0 160.5 -50.5t56.5 -144.5q0 -59 -30 -110t-85 -86q73 -115 150 -217zM317 325q73 27 73 111q0 47 -25 69.5t-77 24.5l-55 -3l-4 -198zM387 -116q0 -86 -118 -169
l-44 39l-1 10q49 42 49 90q0 33 -29 58l1 12q51 29 101 42q41 -34 41 -82z" />
    <glyph glyph-name="rcommaaccent" unicode="&#x157;" horiz-adv-x="358" 
d="M354 467v-145l-16 -5q-14 7 -37 7q-54 0 -99 -58v-59l7 -207h-158l8 191l-6 267l150 12v-90h7q47 89 120 89q6 0 24 -2zM212 -116q0 -86 -118 -169l-44 39l-1 10q49 42 49 90q0 33 -29 58l1 12q51 29 101 42q41 -34 41 -82z" />
    <glyph glyph-name="Rcaron" unicode="&#x158;" horiz-adv-x="607" 
d="M595 38l-2 -18q-76 -25 -161 -31l-16 13q-60 112 -104 205h-85l6 -207h-163l9 191l-9 454l272 1q105 0 161.5 -50.5t56.5 -144.5q0 -59 -30 -110t-85 -86q83 -129 150 -217zM317 325q72 26 72 111q0 47 -24.5 69.5t-76.5 24.5l-54 -3l-4 -198zM320 702h-31
q-67 70 -150 145l39 59h15q77 -55 111 -86q32 27 111 86h16l39 -59q-62 -55 -150 -145z" />
    <glyph glyph-name="rcaron" unicode="&#x159;" horiz-adv-x="358" 
d="M354 467v-145l-16 -5q-13 7 -36 7q-55 0 -100 -58v-59l7 -207h-158l8 191l-6 267l150 12v-90h8q45 89 119 89q6 0 24 -2zM221 525h-31q-67 70 -150 145l39 59h15q77 -55 111 -86q32 27 111 86h16l39 -59q-62 -55 -150 -145z" />
    <glyph glyph-name="Sacute" unicode="&#x15a;" horiz-adv-x="510" 
d="M467 621l-26 -136l-24 -9q-82 53 -142 53q-33 0 -52.5 -16.5t-19.5 -38.5q0 -25 24.5 -42.5t77.5 -41.5q56 -26 90.5 -47.5t60 -57.5t25.5 -88q0 -58 -31.5 -105t-89.5 -74.5t-134 -27.5q-101 0 -200 40l23 145l17 10q42 -35 91.5 -54.5t85.5 -19.5q38 0 57.5 17t19.5 40
q0 27 -25 45t-78 42q-54 25 -88.5 46.5t-59.5 57.5t-25 88q0 59 31.5 106.5t88 74.5t129.5 27q86 0 174 -34zM419 826l-3 -14q-99 -57 -206 -115l-14 1l-37 60q105 80 189 156l14 -1z" />
    <glyph glyph-name="sacute" unicode="&#x15b;" horiz-adv-x="392" 
d="M359 453l-20 -113l-19 -6q-67 42 -115 42q-20 0 -31 -9.5t-11 -22.5q0 -18 18 -29.5t55 -25.5q42 -17 68 -32t45.5 -42t19.5 -68q0 -42 -21 -78t-65.5 -58t-110.5 -22q-74 0 -157 28l19 120l14 10q33 -27 73.5 -43t69.5 -16q22 0 33.5 10t11.5 25q0 17 -17.5 28.5
t-55.5 26.5q-41 16 -68 31t-46.5 42.5t-19.5 69.5q0 69 52 112.5t142 43.5q72 0 136 -24zM350 649l-3 -14q-99 -57 -206 -115l-14 1l-37 60q105 80 189 156l14 -1z" />
    <glyph glyph-name="Scircumflex" unicode="&#x15c;" horiz-adv-x="510" 
d="M251 909h31q67 -70 150 -145l-39 -59h-15q-77 55 -111 86q-32 -27 -111 -86h-16l-39 59q62 55 150 145zM467 621l-26 -136l-23 -9q-38 25 -76.5 39t-65.5 14q-34 0 -53.5 -16.5t-19.5 -38.5q0 -25 24.5 -42.5t77.5 -41.5q56 -26 90.5 -47.5t60 -57.5t25.5 -88
q0 -58 -31.5 -105t-89 -74.5t-133.5 -27.5q-102 0 -201 40l23 145l17 10q42 -35 91.5 -54.5t86.5 -19.5t56.5 17t19.5 40q0 27 -25 45t-78 42q-54 25 -88.5 46.5t-59.5 57.5t-25 88q0 59 31.5 106.5t88 74.5t129.5 27q87 0 174 -34z" />
    <glyph glyph-name="scircumflex" unicode="&#x15d;" horiz-adv-x="392" 
d="M182 732h31q67 -70 150 -145l-39 -59h-15q-77 55 -111 86q-32 -27 -111 -86h-16l-39 59q62 55 150 145zM359 453l-20 -113l-19 -6q-67 42 -115 42q-20 0 -31 -9.5t-11 -22.5q0 -18 18 -29.5t55 -25.5q42 -17 68 -32t45.5 -42t19.5 -68q0 -42 -21 -78t-65.5 -58
t-110.5 -22q-74 0 -157 28l19 120l14 10q33 -27 73.5 -43t69.5 -16q22 0 33.5 10t11.5 25q0 17 -17.5 28.5t-55.5 26.5q-41 16 -68 31t-46.5 42.5t-19.5 69.5q0 69 52 112.5t142 43.5q72 0 136 -24z" />
    <glyph glyph-name="Scedilla" unicode="&#x15e;" horiz-adv-x="510" 
d="M426.5 63.5q-54.5 -56.5 -146.5 -69.5l-8 -39l34 -19q42 -22 42 -61q0 -34 -27.5 -56t-73.5 -22q-44 0 -86 26l10 64l7 3q31 -29 59 -29q21 0 21 18q0 11 -15 18l-49 27l14 66q-92 5 -182 40l23 145l17 10q42 -35 91.5 -54.5t86.5 -19.5t56.5 17t19.5 40q0 27 -25 45
t-78 42q-54 25 -88.5 46.5t-59.5 57.5t-25 88q0 59 31.5 106.5t88 74.5t129.5 27q87 0 174 -34l-26 -136l-23 -9q-38 25 -76.5 39t-65.5 14q-34 0 -53.5 -16.5t-19.5 -38.5q0 -25 24.5 -42.5t77.5 -41.5q56 -26 90.5 -47.5t60 -57.5t25.5 -88q0 -77 -54.5 -133.5z" />
    <glyph glyph-name="scedilla" unicode="&#x15f;" horiz-adv-x="392" 
d="M333 49q-36 -43 -108 -56l-8 -38l34 -19q42 -22 42 -61q0 -34 -27.5 -56t-73.5 -22q-44 0 -86 26l10 64l7 3q31 -29 59 -29q21 0 21 18q0 11 -15 18l-49 27l14 65q-69 5 -138 28l19 120l14 10q33 -27 73.5 -43t69.5 -16q22 0 33.5 10t11.5 25q0 17 -17.5 28.5t-55.5 26.5
q-41 16 -68 31t-46.5 42.5t-19.5 69.5q0 69 52 112.5t142 43.5q72 0 136 -24l-20 -113l-19 -6q-67 42 -115 42q-20 0 -31 -9.5t-11 -22.5q0 -18 18 -29.5t55 -25.5q42 -17 68 -32t45.5 -42t19.5 -68q0 -55 -36 -98z" />
    <glyph glyph-name="Scaron" unicode="&#x160;" horiz-adv-x="510" 
d="M467 621l-26 -136l-24 -9q-82 53 -142 53q-33 0 -52.5 -16.5t-19.5 -38.5q0 -25 24.5 -42.5t77.5 -41.5q56 -26 90.5 -47.5t60 -57.5t25.5 -88q0 -58 -31.5 -105t-89.5 -74.5t-134 -27.5q-101 0 -200 40l23 145l17 10q42 -35 91.5 -54.5t85.5 -19.5q38 0 57.5 17t19.5 40
q0 27 -25 45t-78 42q-54 25 -88.5 46.5t-59.5 57.5t-25 88q0 59 31.5 106.5t88 74.5t129.5 27q86 0 174 -34zM282 702h-31q-67 70 -150 145l39 59h15q77 -55 111 -86q32 27 111 86h16l39 -59q-62 -55 -150 -145z" />
    <glyph glyph-name="scaron" unicode="&#x161;" horiz-adv-x="392" 
d="M359 453l-20 -113l-19 -6q-67 42 -115 42q-20 0 -31 -9.5t-11 -22.5q0 -18 18 -29.5t55 -25.5q42 -17 68 -32t45.5 -42t19.5 -68q0 -42 -21 -78t-65.5 -58t-110.5 -22q-74 0 -157 28l19 120l14 10q33 -27 73.5 -43t69.5 -16q22 0 33.5 10t11.5 25q0 17 -17.5 28.5
t-55.5 26.5q-41 16 -68 31t-46.5 42.5t-19.5 69.5q0 69 52 112.5t142 43.5q72 0 136 -24zM213 525h-31q-67 70 -150 145l39 59h15q77 -55 111 -86q32 27 111 86h16l39 -59q-62 -55 -150 -145z" />
    <glyph glyph-name="Tcedilla" unicode="&#x162;" horiz-adv-x="510" 
d="M489 514l-125 6h-28l-5 -313l6 -207h-48l-10 -45l34 -19q42 -22 42 -61q0 -34 -27.5 -56t-73.5 -22q-44 0 -86 26l10 64l7 3q31 -29 59 -29q21 0 21 18q0 10 -15 18l-49 27l16 76h-42l9 191l-5 329h-30l-127 -6l-10 12l10 119h467l10 -12z" />
    <glyph glyph-name="tcedilla" unicode="&#x163;" horiz-adv-x="348" 
d="M326 131l11 -12l-14 -91q-52 -28 -105 -35l-8 -38l34 -19q42 -22 42 -61q0 -34 -27.5 -56t-73.5 -22q-44 0 -86 26l10 64l7 3q31 -29 59 -29q21 0 21 18q0 10 -15 18l-49 27l18 83q-81 31 -81 119l5 91l-1 153h-62l-5 8l7 86h59v80l146 43l10 -10l-3 -113h109l5 -9
l-7 -85h-110l-6 -202q-1 -29 10 -40.5t36 -11.5q30 0 64 15z" />
    <glyph glyph-name="Tcaron" unicode="&#x164;" horiz-adv-x="510" 
d="M490 514l-126 6h-28l-5 -313l6 -207h-162l9 191l-5 329h-30l-127 -6l-10 12l10 119h468l9 -12zM273 702h-31q-67 70 -150 145l39 59h15q77 -55 111 -86q32 27 111 86h16l39 -59q-62 -55 -150 -145z" />
    <glyph glyph-name="tcaron" unicode="&#x165;" horiz-adv-x="348" 
d="M326 131l11 -12l-15 -91q-50 -28 -104 -35q-73 4 -111 38.5t-38 94.5l5 91l-1 153h-62l-5 8l7 86h59v80l145 43l11 -10l-4 -113h110l5 -9l-7 -85h-111l-6 -202q0 -29 10.5 -40.5t36.5 -11.5q30 0 64 15zM340 510l-68 -11l-11 9l-5 218l113 6l9 -9z" />
    <glyph glyph-name="Tbar" unicode="&#x166;" horiz-adv-x="510" 
d="M333 338h95l10 -10l-6 -75h-100l-1 -46l6 -207h-162l9 191l-1 62h-86l-10 11l6 74h89l-3 182h-30l-127 -6l-10 12l10 119h467l10 -12l-10 -119l-125 6h-28z" />
    <glyph glyph-name="tbar" unicode="&#x167;" horiz-adv-x="353" 
d="M329 131l11 -12l-15 -91q-50 -28 -105 -35q-72 4 -110.5 38.5t-38.5 94.5l6 89h-56l-10 10l6 75h59v70h-63l-4 8l7 86h59v80l145 43l11 -10l-4 -113h110l4 -9l-7 -85h-110l-2 -70h95l10 -11l-6 -74h-102l-1 -47q0 -29 10.5 -40.5t36.5 -11.5q29 0 64 15z" />
    <glyph glyph-name="Umacron" unicode="&#x16a;" horiz-adv-x="644" 
d="M584 225q1 -113 -69.5 -174t-200.5 -61q-126 0 -192.5 60t-63.5 172l2 98l-4 325h162l-7 -401q-1 -64 26 -94t84 -30q58 0 85.5 29.5t26.5 90.5l-7 405h165l-6 -327zM464 751h-278l-10 11l7 88h279l10 -11z" />
    <glyph glyph-name="umacron" unicode="&#x16b;" horiz-adv-x="527" 
d="M480 106q10 0 23 4l10 -9l-14 -83q-32 -23 -81 -27q-63 6 -84 79h-11q-56 -58 -117 -76q-75 0 -115 34.5t-39 98.5l2 112l-5 219l152 12l-2 -285q0 -65 52 -65q35 0 69 30v308l150 12l-9 -338q0 -26 19 -26zM401 574h-278l-10 11l7 88h279l10 -11z" />
    <glyph glyph-name="Ubreve" unicode="&#x16c;" horiz-adv-x="644" 
d="M584 225q1 -113 -69.5 -174t-200.5 -61q-126 0 -192.5 60t-63.5 172l2 98l-4 325h162l-7 -401q-1 -64 26 -94t84 -30q58 0 85.5 29.5t26.5 90.5l-7 405h165l-6 -327zM428 745.5q-42 -36.5 -108 -36.5q-65 0 -104 37t-53 93l34 51h22q29 -70 106 -70q78 0 104 70h23
l34 -51q-16 -57 -58 -93.5z" />
    <glyph glyph-name="ubreve" unicode="&#x16d;" horiz-adv-x="527" 
d="M480 106q10 0 23 4l10 -9l-14 -83q-32 -23 -81 -27q-63 6 -84 79h-11q-56 -58 -117 -76q-75 0 -115 34.5t-39 98.5l2 112l-5 219l152 12l-2 -285q0 -65 52 -65q35 0 69 30v308l150 12l-9 -338q0 -26 19 -26zM365 568.5q-42 -36.5 -108 -36.5q-65 0 -104 37t-53 93l34 51
h22q29 -70 106 -70q78 0 104 70h23l34 -51q-16 -57 -58 -93.5z" />
    <glyph glyph-name="Uring" unicode="&#x16e;" horiz-adv-x="644" 
d="M584 225q1 -113 -69.5 -174t-200.5 -61q-126 0 -192.5 60t-63.5 172l2 98l-4 325h162l-7 -401q-1 -64 26 -94t84 -30q58 0 85.5 29.5t26.5 90.5l-7 405h165l-6 -327zM400 889q25 -25 25 -71q0 -50 -27.5 -77.5t-77.5 -27.5q-48 0 -73.5 25.5t-25.5 73.5q0 50 27 76t78 26
q49 0 74 -25zM285 815q0 -38 39 -38q37 0 37 35q0 37 -39 37q-37 0 -37 -34z" />
    <glyph glyph-name="uring" unicode="&#x16f;" horiz-adv-x="527" 
d="M480 106q10 0 23 4l10 -9l-14 -83q-32 -23 -81 -27q-63 6 -84 79h-11q-56 -58 -117 -76q-75 0 -115 34.5t-39 98.5l2 112l-5 219l152 12l-2 -285q0 -65 52 -65q35 0 69 30v308l150 12l-9 -338q0 -26 19 -26zM337 712q25 -25 25 -71q0 -50 -27.5 -77.5t-77.5 -27.5
q-48 0 -73.5 25.5t-25.5 73.5q0 50 27 76t78 26q49 0 74 -25zM222 638q0 -38 39 -38q37 0 37 35q0 37 -39 37q-37 0 -37 -34z" />
    <glyph glyph-name="Uhungarumlaut" unicode="&#x170;" horiz-adv-x="644" 
d="M584 225q1 -113 -69.5 -174t-200.5 -61q-126 0 -192.5 60t-63.5 172l2 98l-4 325h162l-7 -401q-1 -64 26 -94t84 -30q58 0 85.5 29.5t26.5 90.5l-7 405h165l-6 -327zM273 892l12 3l73 -48l2 -12q-61 -61 -127 -118l-14 -4l-48 39q70 92 102 140zM434 892l11 3l74 -48
l2 -12q-53 -52 -128 -118l-13 -4l-49 39q56 73 103 140z" />
    <glyph glyph-name="uhungarumlaut" unicode="&#x171;" horiz-adv-x="527" 
d="M480 106q10 0 23 4l10 -9l-14 -83q-32 -23 -81 -27q-63 6 -84 79h-11q-56 -58 -117 -76q-75 0 -115 34.5t-39 98.5l2 112l-5 219l152 12l-2 -285q0 -65 52 -65q35 0 69 30v308l150 12l-9 -338q0 -26 19 -26zM231 739l11 3l73 -51l2 -12q-67 -77 -144 -154l-13 -4l-48 39
q72 104 119 179zM389 739l11 3l73 -51l2 -12q-60 -69 -145 -154l-13 -4l-48 39q55 77 120 179z" />
    <glyph glyph-name="Uogonek" unicode="&#x172;" horiz-adv-x="644" 
d="M585 318l-1 -93q0 -118 -77 -180l-50 -79q-16 -26 -16 -46q0 -33 36 -33q31 0 65 26h8l12 -62q-58 -48 -107 -48q-44 0 -70 26t-26 66q0 41 29 83l14 21q-41 -9 -89 -9q-125 0 -191.5 60t-63.5 172l2 98l-4 325h162l-7 -401q-1 -64 25.5 -94t84.5 -30t85.5 29.5
t26.5 90.5l-7 405h164z" />
    <glyph glyph-name="uogonek" unicode="&#x173;" horiz-adv-x="527" 
d="M470 -185.5q-23 -11.5 -49 -11.5q-41 0 -67 25t-26 65q0 26 13 49t47 57q-39 17 -54 71h-11q-56 -58 -117 -76q-75 0 -115 34.5t-39 98.5l2 112l-5 219l152 12l-2 -285q0 -65 52 -65q34 0 69 30v308l150 12l-9 -338q0 -26 19 -26q10 0 23 4l10 -9l-14 -83l-9 -6
q-46 -39 -62.5 -59t-16.5 -35q0 -14 8.5 -22t24.5 -8q26 0 55 24h8l12 -62q-26 -24 -49 -35.5z" />
    <glyph glyph-name="Wcircumflex" unicode="&#x174;" horiz-adv-x="907" 
d="M432 898h30q68 -61 142 -110l-28 -63h-15l-114 62q17 10 -68 -38l-45 -24h-15l-28 63q76 51 141 110zM530 0l-81 278h-11l-80 -278h-172l-168 645h158l10 -88l93 -392h10l95 326l-41 154h164l15 -104l96 -376h11l109 383l17 97h149l-203 -645h-171z" />
    <glyph glyph-name="wcircumflex" unicode="&#x175;" horiz-adv-x="709" 
d="M346 732h31q67 -70 150 -145l-39 -59h-15q-77 55 -111 86q-32 -27 -111 -86h-16l-39 59q62 55 150 145zM209 158h8l57 225l17 85h153l9 -76l48 -234h9l54 225l17 85h132l-142 -468h-149l-59 272h-11l-69 -272h-155l-118 465l143 6l11 -79z" />
    <glyph glyph-name="Ycircumflex" unicode="&#x176;" horiz-adv-x="573" 
d="M128 788q76 51 141 110h30q68 -61 142 -110l-28 -63h-15l-114 62q17 10 -68 -38l-45 -24h-15zM360 0h-162l9 175l-1 35l-206 435h171l15 -48l94 -225h11l106 219l20 54h166l-228 -432l-1 -38z" />
    <glyph glyph-name="ycircumflex" unicode="&#x177;" horiz-adv-x="457" 
d="M218 732h31q67 -70 150 -145l-39 -59h-15q-77 55 -111 86q-32 -27 -111 -86h-16l-39 59q62 55 150 145zM232 157h9l67 219l18 92h135l-146 -429q-33 -97 -89 -148.5t-163 -83.5l-12 1q-43 41 -70 96l6 14q110 20 179 82l-171 465l152 6l16 -80z" />
    <glyph glyph-name="Ydieresis" unicode="&#x178;" horiz-adv-x="573" 
d="M140.5 744.5q-18.5 18.5 -18.5 52.5q0 36 20.5 57t55.5 21q33 0 51.5 -19t18.5 -52q0 -36 -20 -57t-55 -21q-34 0 -52.5 18.5zM322.5 744.5q-18.5 18.5 -18.5 52.5q0 36 20.5 57t55.5 21q33 0 51.5 -19t18.5 -52q0 -36 -20 -57t-55 -21q-34 0 -52.5 18.5zM360 0h-162
l9 175l-1 35l-206 435h171l15 -48l94 -225h11l106 219l20 54h166l-228 -432l-1 -38z" />
    <glyph glyph-name="Zacute" unicode="&#x179;" horiz-adv-x="557" 
d="M220 122h194l114 8l6 -8l-13 -126l-159 4h-246l-87 -5v116l305 412h-184l-114 -9l-6 7l12 126l138 -2h274l68 1v-117zM434 802l-5 -13q-93 -34 -224 -75l-15 4l-25 66q108 53 215 116l14 -3z" />
    <glyph glyph-name="zacute" unicode="&#x17a;" horiz-adv-x="430" 
d="M343 468l57 1l1 -94l-211 -275h123l89 7l8 -10l-10 -100l-127 3h-176l-73 -4v93l213 279h-116l-88 -7l-9 10l11 99l107 -2h201zM365 649l-3 -14q-99 -57 -206 -115l-14 1l-37 60q105 80 189 156l14 -1z" />
    <glyph glyph-name="Zdotaccent" unicode="&#x17b;" horiz-adv-x="557" 
d="M340.5 864q20.5 -21 20.5 -58q0 -40 -23 -63.5t-61 -23.5t-58 21t-20 59q0 39 22.5 62.5t61.5 23.5q37 0 57.5 -21zM220 122h194l114 8l6 -8l-13 -126l-159 4h-246l-87 -5v116l305 412h-184l-114 -9l-6 7l12 126l138 -2h274l68 1v-117z" />
    <glyph glyph-name="zdotaccent" unicode="&#x17c;" horiz-adv-x="430" 
d="M273.5 687q20.5 -21 20.5 -58q0 -40 -23 -63.5t-61 -23.5t-58 21t-20 59q0 39 22.5 62.5t61.5 23.5q37 0 57.5 -21zM343 468l57 1l1 -94l-211 -275h123l89 7l8 -10l-10 -100l-127 3h-176l-73 -4v93l213 279h-116l-88 -7l-9 10l11 99l107 -2h201z" />
    <glyph glyph-name="Zcaron" unicode="&#x17d;" horiz-adv-x="557" 
d="M220 122h194l114 8l6 -8l-13 -126l-159 4h-246l-87 -5v116l305 412h-184l-114 -9l-6 7l12 126l138 -2h274l68 1v-117zM296 715h-30q-68 61 -142 110l28 63h15l114 -62q-17 -10 68 38l45 24h15l28 -63q-76 -51 -141 -110z" />
    <glyph glyph-name="zcaron" unicode="&#x17e;" horiz-adv-x="430" 
d="M343 468l57 1l1 -94l-211 -275h123l89 7l8 -10l-10 -100l-127 3h-176l-73 -4v93l213 279h-116l-88 -7l-9 10l11 99l107 -2h201zM228 525h-31q-67 70 -150 145l39 59h15q77 -55 111 -86q32 27 111 86h16l39 -59q-62 -55 -150 -145z" />
    <glyph glyph-name="florin" unicode="&#x192;" horiz-adv-x="334" 
d="M424 614l-22 -106l-11 -6q-46 19 -77 19q-55 0 -64 -57l-10 -74h97l4 -9l-8 -78h-105l-17 -117l-14 -127q-9 -74 -43 -121.5t-107 -88.5l-65 64l2 12q36 26 53.5 55t24.5 75l15 116l14 132h-66l-4 7l9 80h71l6 50q11 88 72 135.5t161 47.5q39 0 84 -9z" />
    <glyph glyph-name="Ohorn" unicode="&#x1a0;" horiz-adv-x="654" 
d="M653.5 753.5q21.5 -27.5 21.5 -69.5q0 -51 -33 -85.5t-84 -43.5q66 -82 66 -221q0 -107 -36.5 -184.5t-106.5 -119t-167 -41.5q-140 0 -215 84.5t-75 238.5q0 108 36.5 185.5t104 117.5t157.5 40q56 0 119 -19q40 -11 57 -11q25 0 39.5 13.5t14.5 36.5q0 37 -30 64l3 12
q42 30 76 30q31 0 52.5 -27.5zM245.5 506q-27.5 -19 -40 -61.5t-12.5 -117.5q0 -80 13 -127t42 -67.5t79 -20.5q47 0 74.5 18.5t40 62t12.5 118.5q0 80 -13 126.5t-42 67t-79 20.5q-47 0 -74.5 -19z" />
    <glyph glyph-name="ohorn" unicode="&#x1a1;" horiz-adv-x="497" 
d="M529.5 580q21.5 -24 21.5 -61q0 -33 -17 -63t-43.5 -48.5t-55.5 -18.5q37 -56 37 -147q0 -124 -59 -188.5t-172 -64.5q-218 0 -218 238q0 123 59.5 187t173.5 64q32 0 86 -14q29 -9 43 -9q21 0 32 11.5t11 31.5q0 30 -31 58l3 13q41 35 78 35q30 0 51.5 -24zM187.5 344
q-16.5 -27 -16.5 -95q0 -60 7.5 -93.5t25 -48t47.5 -14.5q39 0 55.5 27.5t16.5 95.5q0 59 -7.5 92.5t-24.5 48t-47 14.5q-40 0 -56.5 -27z" />
    <glyph glyph-name="Uhorn" unicode="&#x1af;" horiz-adv-x="654" 
d="M660 635.5q-26 -32.5 -71 -50.5l-4 -267l-1 -93q0 -113 -70 -174t-201 -61q-125 0 -191.5 60t-63.5 172l2 98l-4 325h162l-7 -401q-1 -64 25.5 -94t84.5 -30t85.5 29.5t26.5 90.5l-7 405h77q60 0 60 49q0 33 -31 59l3 12q44 31 77 31q31 0 52.5 -25t21.5 -63
q0 -40 -26 -72.5z" />
    <glyph glyph-name="uhorn" unicode="&#x1b0;" horiz-adv-x="537" 
d="M537.5 596q21.5 -24 21.5 -60q0 -40 -25.5 -73t-65.5 -49l-7 -280q0 -27 20 -27q7 0 22 3l11 -9l-15 -83q-35 -24 -79 -26q-36 1 -58 19t-36 55h-7q-53 -54 -113 -72q-75 0 -115 34.5t-39 98.5l2 112l-5 219l152 12l-2 -285q0 -65 53 -65q34 0 68 30v308l51 7q65 7 65 49
q0 33 -30 58l3 12q43 36 78 36q29 0 50.5 -24z" />
    <glyph glyph-name="Acaron" unicode="&#x1cd;" horiz-adv-x="611" 
d="M433 0l-17 93l-9 37l-116 2l-100 -3l-8 -26l-18 -103h-159l208 645h195l189 -645h-165zM313 497h-10l-75 -245l74 -2l74 2zM323 715h-30q-68 61 -142 110l28 63h15l114 -62q-17 -10 68 38l45 24h15l28 -63q-76 -51 -141 -110z" />
    <glyph glyph-name="acaron" unicode="&#x1ce;" horiz-adv-x="490" 
d="M379 442.5q46 -35.5 46 -101.5q0 5 -5 -110q-5 -72 -5 -99q0 -26 20 -26q9 0 22 4l11 -9l-14 -83q-33 -23 -81 -27q-63 6 -81 72h-7q-50 -53 -102 -73q-74 1 -116.5 40t-42.5 106q0 103 108 121l148 25v29q0 31 -13.5 44.5t-43.5 13.5q-59 0 -144 -54l-10 7l-18 103
q94 53 199 53q83 0 129 -35.5zM164 152q0 -24 12.5 -37t34.5 -13q32 0 68 34l1 72l-86 -17q-30 -6 -30 -39zM254 525h-31q-67 70 -150 145l39 59h15q77 -55 111 -86q32 27 111 86h16l39 -59q-62 -55 -150 -145z" />
    <glyph glyph-name="Icaron" unicode="&#x1cf;" horiz-adv-x="308" 
d="M233 0h-163l9 191l-9 454h166l-9 -438zM169 715h-30q-68 61 -142 110l28 63h15l114 -62q-17 -10 68 38l45 24h15l28 -63q-76 -51 -141 -110z" />
    <glyph glyph-name="icaron" unicode="&#x1d0;" horiz-adv-x="261" 
d="M209 0h-158l8 191l-6 267l157 12l-8 -263zM149 525h-31q-67 70 -150 145l39 59h15q77 -55 111 -86q32 27 111 86h16l39 -59q-62 -55 -150 -145z" />
    <glyph glyph-name="Ocaron" unicode="&#x1d1;" horiz-adv-x="647" 
d="M549 572.5q75 -82.5 75 -234.5q0 -166 -82 -257.5t-231 -91.5q-137 0 -212 84.5t-75 239.5q0 164 81.5 253t230.5 89q138 0 213 -82.5zM246 507q-28 -18 -40.5 -59.5t-12.5 -112.5q0 -85 13 -133t41.5 -69t77.5 -21q47 0 75 18.5t41 60t13 113.5q0 84 -13 131.5
t-41.5 68.5t-77.5 21q-48 0 -76 -18zM340 715h-30q-68 61 -142 110l28 63h15l114 -62q-17 -10 68 38l45 24h15l28 -63q-76 -51 -141 -110z" />
    <glyph glyph-name="ocaron" unicode="&#x1d2;" horiz-adv-x="495" 
d="M416.5 418q55.5 -60 55.5 -175q0 -124 -59.5 -189t-172.5 -65q-106 0 -161.5 60t-55.5 174q0 124 59.5 189.5t172.5 65.5q106 0 161.5 -60zM187.5 344.5q-16.5 -26.5 -16.5 -92.5q0 -61 7.5 -95.5t25 -49t47.5 -14.5q39 0 55.5 26.5t16.5 93.5q0 89 -17.5 123.5
t-61.5 34.5q-40 0 -56.5 -26.5zM265 525h-31q-67 70 -150 145l39 59h15q77 -55 111 -86q32 27 111 86h16l39 -59q-62 -55 -150 -145z" />
    <glyph glyph-name="Ucaron" unicode="&#x1d3;" horiz-adv-x="644" 
d="M584 225q1 -113 -69.5 -174t-200.5 -61q-126 0 -192.5 60t-63.5 172l2 98l-4 325h162l-7 -401q-1 -64 26 -94t84 -30q58 0 85.5 29.5t26.5 90.5l-7 405h165l-6 -327zM339 702h-31q-67 70 -150 145l39 59h15q77 -55 111 -86q32 27 111 86h16l39 -59q-62 -55 -150 -145z
" />
    <glyph glyph-name="ucaron" unicode="&#x1d4;" horiz-adv-x="527" 
d="M480 106q10 0 23 4l10 -9l-14 -83q-32 -23 -81 -27q-63 6 -84 79h-11q-56 -58 -117 -76q-75 0 -115 34.5t-39 98.5l2 112l-5 219l152 12l-2 -285q0 -65 52 -65q35 0 69 30v308l150 12l-9 -338q0 -26 19 -26zM276 525h-31q-67 70 -150 145l39 59h15q77 -55 111 -86
q32 27 111 86h16l39 -59q-62 -55 -150 -145z" />
    <glyph glyph-name="Udieresismacron" unicode="&#x1d5;" horiz-adv-x="644" 
d="M584 225q1 -113 -69.5 -174t-200.5 -61q-126 0 -192.5 60t-63.5 172l2 98l-4 325h162l-7 -401q-1 -64 26 -94t84 -30q58 0 85.5 29.5t26.5 90.5l-7 405h165l-6 -327zM470 905h-289l-11 11l8 88h289l11 -11zM285.5 834q17.5 -18 17.5 -51q0 -35 -19.5 -55t-53.5 -20
q-33 0 -51 18t-18 51q0 35 20.5 55t54.5 20q32 0 49.5 -18zM467 834q18 -18 18 -51q0 -35 -19.5 -55t-53.5 -20q-33 0 -51 18t-18 51q0 35 20 55t54 20q32 0 50 -18z" />
    <glyph glyph-name="udieresismacron" unicode="&#x1d6;" horiz-adv-x="527" 
d="M480 106q10 0 23 4l10 -9l-14 -83q-32 -23 -81 -27q-63 6 -84 79h-11q-56 -58 -117 -76q-75 0 -115 34.5t-39 98.5l2 112l-5 219l152 12l-2 -285q0 -65 52 -65q35 0 69 30v308l150 12l-9 -338q0 -26 19 -26zM407 728h-289l-11 11l8 88h289l11 -11zM222.5 657
q17.5 -18 17.5 -51q0 -35 -19.5 -55t-53.5 -20q-33 0 -51 18t-18 51q0 35 20.5 55t54.5 20q32 0 49.5 -18zM404 657q18 -18 18 -51q0 -35 -19.5 -55t-53.5 -20q-33 0 -51 18t-18 51q0 35 20 55t54 20q32 0 50 -18z" />
    <glyph glyph-name="Udieresisacute" unicode="&#x1d7;" horiz-adv-x="644" 
d="M584 225q1 -113 -69.5 -174t-200.5 -61q-126 0 -192.5 60t-63.5 172l2 98l-4 325h162l-7 -401q-1 -64 26 -94t84 -30q58 0 85.5 29.5t26.5 90.5l-7 405h165l-6 -327zM453 942l-7 -13q-136 -23 -234 -33l-14 6l-13 69q112 33 232 77l13 -6zM285.5 834q17.5 -18 17.5 -51
q0 -35 -19.5 -55t-53.5 -20q-33 0 -51 18t-18 51q0 35 20.5 55t54.5 20q32 0 49.5 -18zM467 834q18 -18 18 -51q0 -35 -19.5 -55t-53.5 -20q-33 0 -51 18t-18 51q0 35 20 55t54 20q32 0 50 -18z" />
    <glyph glyph-name="udieresisacute" unicode="&#x1d8;" horiz-adv-x="527" 
d="M480 106q10 0 23 4l10 -9l-14 -83q-32 -23 -81 -27q-63 6 -84 79h-11q-56 -58 -117 -76q-75 0 -115 34.5t-39 98.5l2 112l-5 219l152 12l-2 -285q0 -65 52 -65q35 0 69 30v308l150 12l-9 -338q0 -26 19 -26zM390 765l-7 -13q-136 -23 -234 -33l-14 6l-13 69
q112 33 232 77l13 -6zM222.5 657q17.5 -18 17.5 -51q0 -35 -19.5 -55t-53.5 -20q-33 0 -51 18t-18 51q0 35 20.5 55t54.5 20q32 0 49.5 -18zM404 657q18 -18 18 -51q0 -35 -19.5 -55t-53.5 -20q-33 0 -51 18t-18 51q0 35 20 55t54 20q32 0 50 -18z" />
    <glyph glyph-name="Udieresiscaron" unicode="&#x1d9;" horiz-adv-x="644" 
d="M584 225q1 -113 -69.5 -174t-200.5 -61q-126 0 -192.5 60t-63.5 172l2 98l-4 325h162l-7 -401q-1 -64 26 -94t84 -30q58 0 85.5 29.5t26.5 90.5l-7 405h165l-6 -327zM338 862h-30q-70 60 -142 110l28 62h15q38 -20 114 -62q61 35 113 62h15l28 -62q-75 -52 -141 -110z
M285.5 834q17.5 -18 17.5 -51q0 -35 -19.5 -55t-53.5 -20q-33 0 -51 18t-18 51q0 35 20.5 55t54.5 20q32 0 49.5 -18zM467 834q18 -18 18 -51q0 -35 -19.5 -55t-53.5 -20q-33 0 -51 18t-18 51q0 35 20 55t54 20q32 0 50 -18z" />
    <glyph glyph-name="udieresiscaron" unicode="&#x1da;" horiz-adv-x="527" 
d="M480 106q10 0 23 4l10 -9l-14 -83q-32 -23 -81 -27q-63 6 -84 79h-11q-56 -58 -117 -76q-75 0 -115 34.5t-39 98.5l2 112l-5 219l152 12l-2 -285q0 -65 52 -65q35 0 69 30v308l150 12l-9 -338q0 -26 19 -26zM275 685h-30q-70 60 -142 110l28 62h15q38 -20 114 -62
q61 35 113 62h15l28 -62q-75 -52 -141 -110zM222.5 657q17.5 -18 17.5 -51q0 -35 -19.5 -55t-53.5 -20q-33 0 -51 18t-18 51q0 35 20.5 55t54.5 20q32 0 49.5 -18zM404 657q18 -18 18 -51q0 -35 -19.5 -55t-53.5 -20q-33 0 -51 18t-18 51q0 35 20 55t54 20q32 0 50 -18z" />
    <glyph glyph-name="Udieresisgrave" unicode="&#x1db;" horiz-adv-x="644" 
d="M584 225q1 -113 -69.5 -174t-200.5 -61q-126 0 -192.5 60t-63.5 172l2 98l-4 325h162l-7 -401q-1 -64 26 -94t84 -30q58 0 85.5 29.5t26.5 90.5l-7 405h165l-6 -327zM453 971l-13 -69l-14 -6q-102 11 -233 33l-8 13l23 100l14 6q116 -43 231 -77zM285.5 834
q17.5 -18 17.5 -51q0 -35 -19.5 -55t-53.5 -20q-33 0 -51 18t-18 51q0 35 20.5 55t54.5 20q32 0 49.5 -18zM467 834q18 -18 18 -51q0 -35 -19.5 -55t-53.5 -20q-33 0 -51 18t-18 51q0 35 20 55t54 20q32 0 50 -18z" />
    <glyph glyph-name="udieresisgrave" unicode="&#x1dc;" horiz-adv-x="527" 
d="M480 106q10 0 23 4l10 -9l-14 -83q-32 -23 -81 -27q-63 6 -84 79h-11q-56 -58 -117 -76q-75 0 -115 34.5t-39 98.5l2 112l-5 219l152 12l-2 -285q0 -65 52 -65q35 0 69 30v308l150 12l-9 -338q0 -26 19 -26zM390 794l-13 -69l-14 -6q-102 11 -233 33l-8 13l23 100l14 6
q116 -43 231 -77zM222.5 657q17.5 -18 17.5 -51q0 -35 -19.5 -55t-53.5 -20q-33 0 -51 18t-18 51q0 35 20.5 55t54.5 20q32 0 49.5 -18zM404 657q18 -18 18 -51q0 -35 -19.5 -55t-53.5 -20q-33 0 -51 18t-18 51q0 35 20 55t54 20q32 0 50 -18z" />
    <glyph glyph-name="Oogonek" unicode="&#x1ea;" horiz-adv-x="647" 
d="M397 -77q0 -36 37 -36q29 0 63 26h9l11 -62q-57 -48 -106 -48q-44 0 -70.5 26t-26.5 66q0 42 31 85l8 11q-26 -2 -41 -2q-138 0 -213 84.5t-75 239.5q0 164 81.5 253t231.5 89q137 0 212 -82.5t75 -234.5q0 -126 -47 -209.5t-136 -117.5l-28 -43q-16 -26 -16 -45z
M206 202q13 -48 41.5 -69t77.5 -21q47 0 75 18.5t41 60t13 113.5q0 84 -13 131.5t-41.5 68.5t-77.5 21q-48 0 -76 -18t-40.5 -59.5t-12.5 -112.5q0 -85 13 -133z" />
    <glyph glyph-name="oogonek" unicode="&#x1eb;" horiz-adv-x="495" 
d="M277 -77q0 -36 37 -36q29 0 63 26h9l11 -62q-57 -48 -106 -48q-44 0 -70.5 26t-26.5 66q0 42 31 85l7 9q-103 2 -156 62t-53 172q0 124 59.5 189.5t172.5 65.5q106 0 161.5 -60t55.5 -175q0 -102 -40.5 -164.5t-119.5 -81.5l-19 -29q-16 -26 -16 -45zM178.5 156.5
q7.5 -34.5 25 -49t47.5 -14.5q39 0 55.5 26.5t16.5 93.5q0 89 -17.5 123.5t-61.5 34.5q-40 0 -56.5 -26.5t-16.5 -92.5q0 -61 7.5 -95.5z" />
    <glyph glyph-name="Aringacute" unicode="&#x1fa;" horiz-adv-x="611" 
d="M201 870q119 39 230 83l13 -5l26 -99l-7 -13q-95 -19 -233 -41l-14 6zM433 0l-17 90l-10 37l-114 2l-101 -3l-8 -26l-18 -100h-159l216 626q-12 21 -12 54q0 50 27 76t78 26q49 0 74 -25t25 -71q0 -35 -13 -58l197 -628h-165zM274 683q0 -38 39 -38q37 0 37 35
q0 37 -39 37q-37 0 -37 -34zM314 483h-11l-75 -238l74 -1l74 1z" />
    <glyph glyph-name="aringacute" unicode="&#x1fb;" horiz-adv-x="490" 
d="M397 803l-7 -13q-95 -19 -233 -41l-14 6l-15 69q119 39 230 83l13 -5zM316 711q25 -25 25 -71q0 -50 -27.5 -77.5t-77.5 -27.5q-48 0 -73.5 25.5t-25.5 73.5q0 50 27 76t78 26q49 0 74 -25zM201 637q0 -38 39 -38q37 0 37 35q0 37 -39 37q-37 0 -37 -34zM379.5 442.5
q45.5 -35.5 45.5 -101.5q0 -33 -5 -110q-4 -86 -4 -99q0 -26 19 -26q10 0 23 4l10 -9l-14 -83q-32 -23 -81 -27q-63 6 -81 72h-7q-49 -53 -101 -73q-74 1 -117 40t-43 106q0 103 108 121l148 25l1 29q0 31 -13.5 44.5t-43.5 13.5q-60 0 -144 -54l-11 7l-18 103q94 53 199 53
q84 0 129.5 -35.5zM164 152q0 -50 46 -50q34 0 68 34l1 72l-85 -17q-30 -6 -30 -39z" />
    <glyph glyph-name="AEacute" unicode="&#x1fc;" horiz-adv-x="830" 
d="M814 0h-408l-5 93l-12 109l-197 -56l-19 -43l-32 -103h-160l296 645h473l10 -12l-12 -120l-153 6h-82l16 -153l184 51l11 -9l14 -113l-197 -51l12 -118h98l164 6l10 -12zM357 497h-10l-92 -208l121 34zM658 802l-5 -13q-93 -34 -224 -75l-15 4l-25 66q108 53 215 116
l14 -3z" />
    <glyph glyph-name="aeacute" unicode="&#x1fd;" horiz-adv-x="701" 
d="M627.5 426q48.5 -51 48.5 -144q0 -20 -1 -30l-14 -18l-258 -24q5 -55 31 -80t79 -25q64 0 132 31l13 -8l-24 -113q-67 -26 -135 -26q-121 0 -178 81q-54 -54 -119 -80q-81 1 -130 38t-49 105q0 50 27.5 84.5t80.5 38.5l144 13v42q0 30 -13 44t-43 14q-54 0 -142 -54
l-11 6l-18 104q90 53 191 53q83 0 123 -46q52 45 132 45q85 0 133.5 -51zM425 348q-23 -26 -23 -66l135 16q6 76 -54 76q-35 0 -58 -26zM285 141q-6 30 -9 55l-78 -10q-33 -5 -33 -38q0 -45 45 -45q29 0 75 38zM505 649l-3 -14q-99 -57 -206 -115l-14 1l-37 60
q105 80 189 156l14 -1z" />
    <glyph glyph-name="Oslashacute" unicode="&#x1fe;" horiz-adv-x="647" 
d="M624 338q0 -167 -81.5 -258t-230.5 -91q-39 0 -76 8l-60 -124l-101 37l-7 14l59 123q-103 83 -103 266q0 164 81.5 253t231.5 89q44 0 81 -9l56 115l98 -37l9 -16l-55 -113q98 -83 98 -257zM400 130.5q28 18.5 41 60t13 113.5q0 84 -13 131.5t-41.5 68.5t-77.5 21
q-48 0 -76 -18t-40.5 -59.5t-12.5 -112.5q0 -85 13 -133t41.5 -69t77.5 -21q47 0 75 18.5zM478 804l-5 -13q-93 -34 -224 -75l-15 4l-25 66q108 53 215 116l14 -3z" />
    <glyph glyph-name="oslashacute" unicode="&#x1ff;" horiz-adv-x="495" 
d="M472 243q0 -124 -59.5 -189t-172.5 -65q-37 0 -65 7l-72 -125l-90 45l-4 13l69 120q-55 60 -55 174q0 124 59.5 189.5t172.5 65.5q38 0 65 -7l64 109l86 -43l8 -15l-61 -105q55 -60 55 -174zM306.5 119.5q16.5 26.5 16.5 93.5q0 89 -17.5 123.5t-61.5 34.5
q-40 0 -56.5 -26.5t-16.5 -92.5q0 -61 7.5 -95.5t25 -49t47.5 -14.5q39 0 55.5 26.5zM400 649l-3 -14q-99 -57 -206 -115l-14 1l-37 60q105 80 189 156l14 -1z" />
    <glyph glyph-name="Scommaaccent" unicode="&#x218;" horiz-adv-x="510" 
d="M467 621l-26 -136l-23 -9q-38 25 -76.5 39t-65.5 14q-34 0 -53.5 -16.5t-19.5 -38.5q0 -25 24.5 -42.5t77.5 -41.5q56 -26 90.5 -47.5t60 -57.5t25.5 -88q0 -58 -31.5 -105t-89 -74.5t-133.5 -27.5q-102 0 -201 40l23 145l17 10q42 -35 91.5 -54.5t86.5 -19.5t56.5 17
t19.5 40q0 27 -25 45t-78 42q-54 25 -88.5 46.5t-59.5 57.5t-25 88q0 59 31.5 106.5t88 74.5t129.5 27q87 0 174 -34zM329 -116q0 -86 -118 -169l-44 39l-1 10q49 42 49 90q0 33 -29 58l1 12q51 29 101 42q41 -34 41 -82z" />
    <glyph glyph-name="scommaaccent" unicode="&#x219;" horiz-adv-x="392" 
d="M359 453l-20 -113l-19 -6q-67 42 -115 42q-20 0 -31 -9.5t-11 -22.5q0 -18 18 -29.5t55 -25.5q42 -17 68 -32t45.5 -42t19.5 -68q0 -42 -21 -78t-65.5 -58t-110.5 -22q-74 0 -157 28l19 120l14 10q33 -27 73.5 -43t69.5 -16q22 0 33.5 10t11.5 25q0 17 -17.5 28.5
t-55.5 26.5q-41 16 -68 31t-46.5 42.5t-19.5 69.5q0 69 52 112.5t142 43.5q72 0 136 -24zM275 -116q0 -86 -118 -169l-44 39l-1 10q49 42 49 90q0 33 -29 58l1 12q51 29 101 42q41 -34 41 -82z" />
    <glyph glyph-name="uni021A" unicode="&#x21a;" horiz-adv-x="510" 
d="M489 514l-125 6h-28l-5 -313l6 -207h-162l9 191l-5 329h-30l-127 -6l-10 12l10 119h467l10 -12zM337 -116q0 -86 -118 -169l-44 39l-1 10q49 42 49 90q0 33 -29 58l1 12q51 29 101 42q41 -34 41 -82z" />
    <glyph glyph-name="uni021B" unicode="&#x21b;" horiz-adv-x="348" 
d="M326 131l11 -12l-14 -91q-52 -28 -105 -35q-72 4 -110.5 38.5t-38.5 94.5l5 91l-1 153h-62l-5 8l7 86h59v80l146 43l10 -10l-3 -113h109l5 -9l-7 -85h-110l-6 -202q-1 -29 10 -40.5t36 -11.5q30 0 64 15zM268 -116q0 -86 -118 -169l-44 39l-1 10q49 42 49 90q0 33 -29 58
l1 12q51 29 101 42q41 -34 41 -82z" />
    <glyph glyph-name="dotlessj" unicode="&#x237;" horiz-adv-x="294" 
d="M229 207l7 -177q0 -79 -41.5 -133t-132.5 -93l-54 70v14q41 22 59.5 55t18.5 83v165l-4 179h-73l-9 9l7 85h79l147 7l5 -3z" />
    <glyph glyph-name="circumflex" unicode="&#x2c6;" 
d="M178 731h31q67 -70 150 -145l-39 -59h-15q-77 55 -111 86q-32 -27 -111 -86h-16l-39 59q62 55 150 145z" />
    <glyph glyph-name="caron" unicode="&#x2c7;" 
d="M209 525h-31q-67 70 -150 145l39 59h15q77 -55 111 -86q32 27 111 86h16l39 -59q-62 -55 -150 -145z" />
    <glyph glyph-name="firsttonechinese" unicode="&#x2c9;" 
d="M335 574h-278l-10 11l7 88h279l10 -11z" />
    <glyph glyph-name="breve" unicode="&#x2d8;" 
d="M298 568.5q-42 -36.5 -108 -36.5q-65 0 -104 37t-53 93l34 51h22q29 -70 106 -70q78 0 104 70h23l34 -51q-16 -57 -58 -93.5z" />
    <glyph glyph-name="dotaccent" unicode="&#x2d9;" horiz-adv-x="261" 
d="M190.5 686q20.5 -21 20.5 -58q0 -40 -23 -63.5t-61 -23.5t-58 21t-20 59q0 39 22.5 62.5t61.5 23.5q37 0 57.5 -21z" />
    <glyph glyph-name="ring" unicode="&#x2da;" 
d="M271 712q25 -25 25 -71q0 -50 -27.5 -77.5t-77.5 -27.5q-48 0 -73.5 25.5t-25.5 73.5q0 50 27 76t78 26q49 0 74 -25zM156 638q0 -38 39 -38q37 0 37 35q0 37 -39 37q-37 0 -37 -34z" />
    <glyph glyph-name="ogonek" unicode="&#x2db;" 
d="M171 -77q0 -36 37 -36q29 0 63 26h9l11 -62q-57 -48 -106 -48q-44 0 -70.5 26t-26.5 66q0 42 31 85l66 91h70l-68 -103q-16 -26 -16 -45z" />
    <glyph glyph-name="tilde" unicode="&#x2dc;" 
d="M377 659l-74 -99l-14 -6q-14 2 -83 19q-53 16 -71 16q-13 0 -25 -10t-23.5 -24t-16.5 -20h-14l-46 46v13l74 99l14 5q22 -3 87 -20q53 -15 67 -15q13 0 24.5 10t23 24t17.5 21h14l46 -46v-13z" />
    <glyph glyph-name="hungarumlaut" unicode="&#x2dd;" 
d="M132 739l11 3l73 -51l2 -12q-67 -77 -144 -154l-13 -4l-48 39q72 104 119 179zM290 739l11 3l73 -51l2 -12q-60 -69 -145 -154l-13 -4l-48 39q55 77 120 179z" />
    <glyph glyph-name="tildecomb" unicode="&#x303;" horiz-adv-x="0" 
d="M377 659l-75 -100l-14 -5q-10 1 -81 19q-62 16 -72 16q-13 0 -25 -10t-23.5 -24t-16.5 -20h-14l-46 46v13l75 99l14 5q23 -3 85 -20q54 -15 68 -15q13 0 24.5 10t23 24t17.5 21h14l46 -46v-13z" />
    <glyph glyph-name="dotbelowcomb" unicode="&#x323;" horiz-adv-x="0" 
d="M180.5 -85q20.5 -21 20.5 -58q0 -40 -23 -63.5t-61 -23.5t-58 21t-20 59q0 39 22.5 62.5t61.5 23.5q37 0 57.5 -21z" />
    <glyph glyph-name="commaaccentcomb" unicode="&#x326;" horiz-adv-x="0" 
d="M186.48 -108.08q0 -86.2402 -117.04 -168.961l-44.8799 38.7207l-0.880859 10.5596q49.2803 41.3604 49.2803 89.7607q0 31.6807 -29.04 58.0801l0.879883 12.3203q52.8008 29.04 101.201 42.2402q40.4795 -35.2002 40.4795 -82.7207z" />
    <glyph glyph-name="Delta" unicode="&#x394;" horiz-adv-x="611" 
d="M6 0l208 645h195l189 -645h-592zM188 121h222l-97 376h-10z" />
    <glyph glyph-name="Omega" unicode="&#x3a9;" horiz-adv-x="758" 
d="M546.5 620.5q66.5 -34.5 100 -96t33.5 -142.5q0 -138 -104 -257l3 -4h67l85 9l8 -10l-18 -127l-123 7h-145l-37 -3l-8 6v95q102 101 102 252q0 87 -32 131t-102 44q-68 0 -98.5 -42t-30.5 -126q0 -152 101 -259v-95l-7 -6l-37 3h-174l-103 -5l-8 10l18 123l94 -8l47 1
l2 4q-103 114 -103 246q0 83 36 147t105.5 100.5t166.5 36.5q95 0 161.5 -34.5z" />
    <glyph glyph-name="mu" unicode="&#x3bc;" horiz-adv-x="527" 
d="M497 18q-35 -26 -78 -26q-36 0 -58 17t-36 56h-7q-47 -54 -98 -71q-14 0 -21 1v-180h-149l5 376l-6 267l150 12v-285q0 -65 53 -65q34 0 68 30v308l150 12l-9 -334q0 -32 20 -32q9 0 22 6l10 -9z" />
    <glyph glyph-name="pi" unicode="&#x3c0;" horiz-adv-x="693" 
d="M560 136q0 -32 20 -32q11 0 30 7l11 -9l-17 -84q-47 -26 -78 -26q-47 0 -77 28.5t-30 92.5v269h-112v-175l5 -295h-154l5 279l-4 191h-7q-16 0 -31.5 -13.5t-41.5 -43.5q-1 -1 -23 -26h-16l-47 60v16l97 124l18 9h417l117 2l9 -12l-10 -118l-76 1z" />
    <glyph glyph-name="Wgrave" unicode="&#x1e80;" horiz-adv-x="907" 
d="M584 784l-25 -66l-15 -4q-131 41 -224 75l-5 13l40 95l14 3q107 -63 215 -116zM530 0l-81 278h-11l-80 -278h-172l-168 645h158l10 -88l93 -392h10l95 326l-41 154h164l15 -104l96 -376h11l109 383l17 97h149l-203 -645h-171z" />
    <glyph glyph-name="wgrave" unicode="&#x1e81;" horiz-adv-x="709" 
d="M490 581l-37 -60l-14 -1q-107 58 -206 115l-3 14l57 87l14 1q84 -76 189 -156zM209 158h8l57 225l17 85h153l9 -76l48 -234h9l54 225l17 85h132l-142 -468h-149l-59 272h-11l-69 -272h-155l-118 465l143 6l11 -79z" />
    <glyph glyph-name="Wacute" unicode="&#x1e82;" horiz-adv-x="907" 
d="M530 0l-81 278h-10l-80 -278h-172l-169 645h158l10 -88l93 -392h10l95 326l-40 154h164l14 -104l97 -376h10l109 383l17 97h150l-204 -645h-171zM602 802l-5 -13q-93 -34 -224 -75l-15 4l-25 66q108 53 215 116l14 -3z" />
    <glyph glyph-name="wacute" unicode="&#x1e83;" horiz-adv-x="709" 
d="M209 158h8l57 225l17 85h153l9 -76l48 -234h9l54 225l17 85h132l-142 -468h-149l-59 272h-11l-69 -272h-155l-118 465l143 6l11 -79zM513 649l-3 -14q-99 -57 -206 -115l-14 1l-37 60q105 80 189 156l14 -1z" />
    <glyph glyph-name="Wdieresis" unicode="&#x1e84;" horiz-adv-x="907" 
d="M411.5 856q18.5 -19 18.5 -52q0 -36 -20 -57t-55 -21q-34 0 -52.5 18.5t-18.5 52.5q0 36 20.5 57t55.5 21q33 0 51.5 -19zM593.5 856q18.5 -19 18.5 -52q0 -36 -20 -57t-55 -21q-34 0 -52.5 18.5t-18.5 52.5q0 36 20.5 57t55.5 21q33 0 51.5 -19zM530 0l-81 278h-11
l-80 -278h-172l-168 645h158l10 -88l93 -392h10l95 326l-41 154h164l15 -104l96 -376h11l109 383l17 97h149l-203 -645h-171z" />
    <glyph glyph-name="wdieresis" unicode="&#x1e85;" horiz-adv-x="709" 
d="M325.5 679q18.5 -19 18.5 -52q0 -36 -20 -57t-55 -21q-34 0 -52.5 18.5t-18.5 52.5q0 36 20.5 57t55.5 21q33 0 51.5 -19zM507.5 679q18.5 -19 18.5 -52q0 -36 -20 -57t-55 -21q-34 0 -52.5 18.5t-18.5 52.5q0 36 20.5 57t55.5 21q33 0 51.5 -19zM209 158h8l57 225l17 85
h153l9 -76l48 -234h9l54 225l17 85h132l-142 -468h-149l-59 272h-11l-69 -272h-155l-118 465l143 6l11 -79z" />
    <glyph glyph-name="uni1E9E" unicode="&#x1e9e;" horiz-adv-x="686" 
d="M480 638q63 -17 140 -53l7 -21l-133 -181q71 -41 106 -66.5t54 -57.5t19 -78q0 -62 -31 -105t-83 -64.5t-116 -21.5q-96 0 -179 40l23 145l17 10q39 -34 78.5 -53.5t70.5 -19.5q27 0 43 14t16 36q0 31 -44.5 63.5t-161.5 86.5l-5 22l126 173q-48 19 -92 19
q-63 0 -92 -28.5t-28 -87.5l-4 -203l6 -207h-163l9 190l-4 220q-1 113 74 179t215 66q69 0 132 -17z" />
    <glyph glyph-name="Adotbelow" unicode="&#x1ea0;" horiz-adv-x="611" 
d="M433 0l-17 93l-9 37l-115 2l-101 -3l-8 -26l-18 -103h-159l209 645h194l189 -645h-165zM314 497h-11l-75 -245l74 -2l74 2zM361.5 -65q20.5 -21 20.5 -58q0 -40 -23 -63.5t-61 -23.5t-58 21t-20 59q0 39 22.5 62.5t61.5 23.5q37 0 57.5 -21z" />
    <glyph glyph-name="adotbelow" unicode="&#x1ea1;" horiz-adv-x="490" 
d="M379.5 442.5q45.5 -35.5 45.5 -101.5q0 -33 -5 -110q-4 -86 -4 -99q0 -26 19 -26q10 0 23 4l10 -9l-14 -83q-32 -23 -81 -27q-63 6 -81 72h-7q-49 -53 -101 -73q-74 1 -117 40t-43 106q0 103 108 121l148 25l1 29q0 31 -13.5 44.5t-43.5 13.5q-60 0 -144 -54l-11 7
l-18 103q94 53 199 53q84 0 129.5 -35.5zM164 152q0 -50 46 -50q34 0 68 34l1 72l-85 -17q-30 -6 -30 -39zM299.5 -65q20.5 -21 20.5 -58q0 -40 -23 -63.5t-61 -23.5t-58 21t-20 59q0 39 22.5 62.5t61.5 23.5q37 0 57.5 -21z" />
    <glyph glyph-name="Ahookabove" unicode="&#x1ea2;" horiz-adv-x="611" 
d="M433 0l-17 93l-9 37l-116 2l-100 -3l-8 -26l-18 -103h-159l208 645h195l189 -645h-165zM313 497h-10l-75 -245l74 -2l74 2zM358.5 909q25.5 -22 25.5 -56q0 -21 -12.5 -39.5t-45.5 -47.5l25 -40l-55 -33l-47 72q24 18 38.5 38t14.5 35q0 23 -29 23q-35 0 -66 -25l-25 40
q50 55 114 55q37 0 62.5 -22z" />
    <glyph glyph-name="ahookabove" unicode="&#x1ea3;" horiz-adv-x="490" 
d="M379 442.5q46 -35.5 46 -101.5q0 5 -5 -110q-5 -72 -5 -99q0 -26 20 -26q9 0 22 4l11 -9l-14 -83q-33 -23 -81 -27q-63 6 -81 72h-7q-50 -53 -102 -73q-74 1 -116.5 40t-42.5 106q0 103 108 121l148 25v29q0 31 -13.5 44.5t-43.5 13.5q-59 0 -144 -54l-10 7l-18 103
q94 53 199 53q83 0 129 -35.5zM164 152q0 -24 12.5 -37t34.5 -13q32 0 68 34l1 72l-86 -17q-30 -6 -30 -39zM290.5 732q25.5 -22 25.5 -56q0 -21 -12.5 -39.5t-45.5 -47.5l25 -40l-55 -33l-47 72q24 18 38.5 38t14.5 35q0 23 -29 23q-35 0 -66 -25l-25 40q50 55 114 55
q37 0 62.5 -22z" />
    <glyph glyph-name="Acircumflexacute" unicode="&#x1ea4;" horiz-adv-x="611" 
d="M433 0l-17 93l-9 37l-116 2l-100 -3l-8 -26l-18 -103h-159l208 645h195l189 -645h-165zM313 497h-10l-75 -245l74 -2l74 2zM528 973l-101 -134h-10l-53 40l70 134l11 5l79 -34zM291 878h30q68 -61 142 -110l-28 -63h-15l-114 62q17 10 -68 -38l-45 -24h-15l-28 63
q76 51 141 110z" />
    <glyph glyph-name="acircumflexacute" unicode="&#x1ea5;" horiz-adv-x="490" 
d="M379 442.5q46 -35.5 46 -101.5q0 5 -5 -110q-5 -72 -5 -99q0 -26 20 -26q9 0 22 4l11 -9l-14 -83q-33 -23 -81 -27q-63 6 -81 72h-7q-50 -53 -102 -73q-74 1 -116.5 40t-42.5 106q0 103 108 121l148 25v29q0 31 -13.5 44.5t-43.5 13.5q-59 0 -144 -54l-10 7l-18 103
q94 53 199 53q83 0 129 -35.5zM164 152q0 -24 12.5 -37t34.5 -13q32 0 68 34l1 72l-86 -17q-30 -6 -30 -39zM459 796l-101 -134h-10l-53 40l70 134l11 5l79 -34zM222 701h30q68 -61 142 -110l-28 -63h-15l-114 62q17 10 -68 -38l-45 -24h-15l-28 63q76 51 141 110z" />
    <glyph glyph-name="Acircumflexgrave" unicode="&#x1ea6;" horiz-adv-x="611" 
d="M433 0l-17 93l-9 37l-116 2l-100 -3l-8 -26l-18 -103h-159l208 645h195l189 -645h-165zM313 497h-10l-75 -245l74 -2l74 2zM481 879l-53 -40h-10l-101 134l4 11l79 34l11 -5zM291 878h30q68 -61 142 -110l-28 -63h-15l-114 62q17 10 -68 -38l-45 -24h-15l-28 63
q76 51 141 110z" />
    <glyph glyph-name="acircumflexgrave" unicode="&#x1ea7;" horiz-adv-x="490" 
d="M379 442.5q46 -35.5 46 -101.5q0 5 -5 -110q-5 -72 -5 -99q0 -26 20 -26q9 0 22 4l11 -9l-14 -83q-33 -23 -81 -27q-63 6 -81 72h-7q-50 -53 -102 -73q-74 1 -116.5 40t-42.5 106q0 103 108 121l148 25v29q0 31 -13.5 44.5t-43.5 13.5q-59 0 -144 -54l-10 7l-18 103
q94 53 199 53q83 0 129 -35.5zM164 152q0 -24 12.5 -37t34.5 -13q32 0 68 34l1 72l-86 -17q-30 -6 -30 -39zM412 702l-53 -40h-10l-101 134l4 11l79 34l11 -5zM222 701h30q68 -61 142 -110l-28 -63h-15l-114 62q17 10 -68 -38l-45 -24h-15l-28 63q76 51 141 110z" />
    <glyph glyph-name="Acircumflexhookabove" unicode="&#x1ea8;" horiz-adv-x="611" 
d="M328 973l-24 38q50 53 109 53q36 0 60 -20.5t24 -53.5q0 -20 -12 -38t-43 -45l23 -38l-52 -31l-45 68q23 17 37 36t14 33q0 22 -28 22q-33 0 -63 -24zM150 768q76 51 141 110h30q68 -61 142 -110l-28 -63h-15l-114 62q17 10 -68 -38l-45 -24h-15zM433 0l-17 93l-9 37
l-115 2l-101 -3l-8 -26l-18 -103h-159l209 645h194l189 -645h-165zM314 497h-11l-75 -245l74 -2l74 2z" />
    <glyph glyph-name="acircumflexhookabove" unicode="&#x1ea9;" horiz-adv-x="490" 
d="M404 866.5q24 -20.5 24 -53.5q0 -20 -12 -38t-43 -45l23 -38l-52 -31l-45 68q23 17 37 36t14 33q0 22 -28 22q-33 0 -63 -24l-24 38q50 53 109 53q36 0 60 -20.5zM222 701h30q68 -61 142 -110l-28 -63h-15l-114 62q17 10 -68 -38l-45 -24h-15l-28 63q76 51 141 110z
M379.5 442.5q45.5 -35.5 45.5 -101.5q0 -33 -5 -110q-4 -86 -4 -99q0 -26 19 -26q10 0 23 4l10 -9l-14 -83q-32 -23 -81 -27q-63 6 -81 72h-7q-49 -53 -101 -73q-74 1 -117 40t-43 106q0 103 108 121l148 25l1 29q0 31 -13.5 44.5t-43.5 13.5q-60 0 -144 -54l-11 7l-18 103
q94 53 199 53q84 0 129.5 -35.5zM164 152q0 -50 46 -50q34 0 68 34l1 72l-85 -17q-30 -6 -30 -39z" />
    <glyph glyph-name="Acircumflextilde" unicode="&#x1eaa;" horiz-adv-x="611" 
d="M142 920v12l68 92l13 5q20 -3 79 -18q52 -14 62 -14q12 0 23.5 9.5t22 22.5t14.5 18h13l43 -42v-13l-69 -91l-13 -5q-27 3 -81 19q-46 13 -60 13q-12 0 -22.5 -9t-21.5 -22t-16 -19h-12zM463 768l-28 -63h-15l-114 62q17 10 -68 -38l-45 -24h-15l-28 63q76 51 141 110h30
q68 -61 142 -110zM433 0l-17 93l-9 37l-115 2l-101 -3l-8 -26l-18 -103h-159l209 645h194l189 -645h-165zM314 497h-11l-75 -245l74 -2l74 2z" />
    <glyph glyph-name="acircumflextilde" unicode="&#x1eab;" horiz-adv-x="490" 
d="M411 815l-69 -91l-13 -5q-27 3 -81 19q-46 13 -60 13q-12 0 -22.5 -9t-21.5 -22t-16 -19h-12l-43 42v12l68 92l13 5q20 -3 79 -18q52 -14 62 -14q12 0 23.5 9.5t22 22.5t14.5 18h13l43 -42v-13zM222 701h30q68 -61 142 -110l-28 -63h-15l-114 62q17 10 -68 -38l-45 -24
h-15l-28 63q76 51 141 110zM379.5 442.5q45.5 -35.5 45.5 -101.5q0 -33 -5 -110q-4 -86 -4 -99q0 -26 19 -26q10 0 23 4l10 -9l-14 -83q-32 -23 -81 -27q-63 6 -81 72h-7q-49 -53 -101 -73q-74 1 -117 40t-43 106q0 103 108 121l148 25l1 29q0 31 -13.5 44.5t-43.5 13.5
q-60 0 -144 -54l-11 7l-18 103q94 53 199 53q84 0 129.5 -35.5zM164 152q0 -50 46 -50q34 0 68 34l1 72l-85 -17q-30 -6 -30 -39z" />
    <glyph glyph-name="Acircumflexdotbelow" unicode="&#x1eac;" horiz-adv-x="611" 
d="M150 788q76 51 141 110h30q68 -61 142 -110l-28 -63h-15l-114 62q17 10 -68 -38l-45 -24h-15zM433 0l-17 93l-9 37l-115 2l-101 -3l-8 -26l-18 -103h-159l209 645h194l189 -645h-165zM314 497h-11l-75 -245l74 -2l74 2zM361.5 -65q20.5 -21 20.5 -58q0 -40 -23 -63.5
t-61 -23.5t-58 21t-20 59q0 39 22.5 62.5t61.5 23.5q37 0 57.5 -21z" />
    <glyph glyph-name="acircumflexdotbelow" unicode="&#x1ead;" horiz-adv-x="490" 
d="M223 732h31q67 -70 150 -145l-39 -59h-15q-77 55 -111 86q-32 -27 -111 -86h-16l-39 59q62 55 150 145zM379.5 442.5q45.5 -35.5 45.5 -101.5q0 -33 -5 -110q-4 -86 -4 -99q0 -26 19 -26q10 0 23 4l10 -9l-14 -83q-32 -23 -81 -27q-63 6 -81 72h-7q-49 -53 -101 -73
q-74 1 -117 40t-43 106q0 103 108 121l148 25l1 29q0 31 -13.5 44.5t-43.5 13.5q-60 0 -144 -54l-11 7l-18 103q94 53 199 53q84 0 129.5 -35.5zM164 152q0 -50 46 -50q34 0 68 34l1 72l-85 -17q-30 -6 -30 -39zM299.5 -65q20.5 -21 20.5 -58q0 -40 -23 -63.5t-61 -23.5
t-58 21t-20 59q0 39 22.5 62.5t61.5 23.5q37 0 57.5 -21z" />
    <glyph glyph-name="Abreveacute" unicode="&#x1eae;" horiz-adv-x="611" 
d="M433 0l-17 93l-9 37l-116 2l-100 -3l-8 -26l-18 -103h-159l208 645h195l189 -645h-165zM313 497h-10l-75 -245l74 -2l74 2zM434 963q-58 -57 -119 -113l-13 -3l-48 38q64 88 94 134l11 3l73 -47zM406.5 727.5q-42.5 -29.5 -101.5 -29.5q-58 0 -99 29.5t-60 84.5l34 49h22
q31 -53 108 -53q72 0 102 53h23l34 -49q-20 -55 -62.5 -84.5z" />
    <glyph glyph-name="abreveacute" unicode="&#x1eaf;" horiz-adv-x="490" 
d="M379 442.5q46 -35.5 46 -101.5q0 5 -5 -110q-5 -72 -5 -99q0 -26 20 -26q9 0 22 4l11 -9l-14 -83q-33 -23 -81 -27q-63 6 -81 72h-7q-50 -53 -102 -73q-74 1 -116.5 40t-42.5 106q0 103 108 121l148 25v29q0 31 -13.5 44.5t-43.5 13.5q-59 0 -144 -54l-10 7l-18 103
q94 53 199 53q83 0 129 -35.5zM164 152q0 -24 12.5 -37t34.5 -13q32 0 68 34l1 72l-86 -17q-30 -6 -30 -39zM365 786q-58 -57 -119 -113l-13 -3l-48 38q64 88 94 134l11 3l73 -47zM337.5 550.5q-42.5 -29.5 -101.5 -29.5q-58 0 -99 29.5t-60 84.5l34 49h22q31 -53 108 -53
q72 0 102 53h23l34 -49q-20 -55 -62.5 -84.5z" />
    <glyph glyph-name="Abrevegrave" unicode="&#x1eb0;" horiz-adv-x="611" 
d="M433 0l-17 93l-9 37l-116 2l-100 -3l-8 -26l-18 -103h-159l208 645h195l189 -645h-165zM313 497h-10l-75 -245l74 -2l74 2zM363 885l-48 -38l-13 3q-61 55 -119 113l2 12l73 47l11 -3q30 -46 94 -134zM406.5 727.5q-42.5 -29.5 -101.5 -29.5q-58 0 -99 29.5t-60 84.5
l34 49h22q31 -53 108 -53q72 0 102 53h23l34 -49q-20 -55 -62.5 -84.5z" />
    <glyph glyph-name="abrevegrave" unicode="&#x1eb1;" horiz-adv-x="490" 
d="M379 442.5q46 -35.5 46 -101.5q0 5 -5 -110q-5 -72 -5 -99q0 -26 20 -26q9 0 22 4l11 -9l-14 -83q-33 -23 -81 -27q-63 6 -81 72h-7q-50 -53 -102 -73q-74 1 -116.5 40t-42.5 106q0 103 108 121l148 25v29q0 31 -13.5 44.5t-43.5 13.5q-59 0 -144 -54l-10 7l-18 103
q94 53 199 53q83 0 129 -35.5zM164 152q0 -24 12.5 -37t34.5 -13q32 0 68 34l1 72l-86 -17q-30 -6 -30 -39zM294 708l-48 -38l-13 3q-61 55 -119 113l2 12l73 47l11 -3q30 -46 94 -134zM337.5 550.5q-42.5 -29.5 -101.5 -29.5q-58 0 -99 29.5t-60 84.5l34 49h22
q31 -53 108 -53q72 0 102 53h23l34 -49q-20 -55 -62.5 -84.5z" />
    <glyph glyph-name="Abrevehookabove" unicode="&#x1eb2;" horiz-adv-x="611" 
d="M212 984l-25 40q50 55 114 55q37 0 62.5 -22t25.5 -56q0 -21 -12.5 -39.5t-45.5 -47.5l25 -40l-55 -33l-47 72q24 18 38.5 38t14.5 35q0 23 -29 23q-35 0 -66 -25zM206 727.5q-41 29.5 -60 84.5l34 49h22q31 -53 108 -53q72 0 102 53h23l34 -49q-20 -55 -62.5 -84.5
t-101.5 -29.5q-58 0 -99 29.5zM433 0l-17 93l-9 37l-115 2l-101 -3l-8 -26l-18 -103h-159l209 645h194l189 -645h-165zM314 497h-11l-75 -245l74 -2l74 2z" />
    <glyph glyph-name="abrevehookabove" unicode="&#x1eb3;" horiz-adv-x="490" 
d="M294.5 880q25.5 -22 25.5 -56q0 -21 -12.5 -39.5t-45.5 -47.5l25 -40l-55 -33l-47 72q24 18 38.5 38t14.5 35q0 23 -29 23q-35 0 -66 -25l-25 40q50 55 114 55q37 0 62.5 -22zM337.5 550.5q-42.5 -29.5 -101.5 -29.5q-58 0 -99 29.5t-60 84.5l34 49h22q31 -53 108 -53
q72 0 102 53h23l34 -49q-20 -55 -62.5 -84.5zM379.5 442.5q45.5 -35.5 45.5 -101.5q0 -33 -5 -110q-4 -86 -4 -99q0 -26 19 -26q10 0 23 4l10 -9l-14 -83q-32 -23 -81 -27q-63 6 -81 72h-7q-49 -53 -101 -73q-74 1 -117 40t-43 106q0 103 108 121l148 25l1 29
q0 31 -13.5 44.5t-43.5 13.5q-60 0 -144 -54l-11 7l-18 103q94 53 199 53q84 0 129.5 -35.5zM164 152q0 -50 46 -50q34 0 68 34l1 72l-85 -17q-30 -6 -30 -39z" />
    <glyph glyph-name="Abrevetilde" unicode="&#x1eb4;" horiz-adv-x="611" 
d="M142 920v12l68 92l13 5q20 -3 79 -18q52 -14 62 -14q12 0 23.5 9.5t22 22.5t14.5 18h13l43 -42v-13l-69 -91l-13 -5q-27 3 -81 19q-46 13 -60 13q-12 0 -22.5 -9t-21.5 -22t-16 -19h-12zM410 853h21l32 -47q-19 -52 -59 -79.5t-96 -27.5q-55 0 -94 27.5t-56 79.5l32 47
h21q29 -51 102 -51q69 0 97 51zM433 0l-17 93l-9 37l-115 2l-101 -3l-8 -26l-18 -103h-159l209 645h194l189 -645h-165zM314 497h-11l-75 -245l74 -2l74 2z" />
    <glyph glyph-name="abrevetilde" unicode="&#x1eb5;" horiz-adv-x="490" 
d="M411 815l-69 -91l-13 -5q-27 3 -81 19q-46 13 -60 13q-12 0 -22.5 -9t-21.5 -22t-16 -19h-12l-43 42v12l68 92l13 5q20 -3 79 -18q52 -14 62 -14q12 0 23.5 9.5t22 22.5t14.5 18h13l43 -42v-13zM335 549.5q-40 -27.5 -96 -27.5q-55 0 -94 27.5t-56 79.5l32 47h21
q29 -51 102 -51q69 0 97 51h21l32 -47q-19 -52 -59 -79.5zM379.5 442.5q45.5 -35.5 45.5 -101.5q0 -33 -5 -110q-4 -86 -4 -99q0 -26 19 -26q10 0 23 4l10 -9l-14 -83q-32 -23 -81 -27q-63 6 -81 72h-7q-49 -53 -101 -73q-74 1 -117 40t-43 106q0 103 108 121l148 25l1 29
q0 31 -13.5 44.5t-43.5 13.5q-60 0 -144 -54l-11 7l-18 103q94 53 199 53q84 0 129.5 -35.5zM164 152q0 -50 46 -50q34 0 68 34l1 72l-85 -17q-30 -6 -30 -39z" />
    <glyph glyph-name="Abrevedotbelow" unicode="&#x1eb6;" horiz-adv-x="611" 
d="M205 747.5q-41 29.5 -60 84.5l35 49h22q30 -53 108 -53q72 0 102 53h22l35 -49q-20 -55 -63 -84.5t-102 -29.5q-58 0 -99 29.5zM433 0l-17 93l-9 37l-115 2l-101 -3l-8 -26l-18 -103h-159l209 645h194l189 -645h-165zM314 497h-11l-75 -245l74 -2l74 2zM361.5 -65
q20.5 -21 20.5 -58q0 -40 -23 -63.5t-61 -23.5t-58 21t-20 59q0 39 22.5 62.5t61.5 23.5q37 0 57.5 -21z" />
    <glyph glyph-name="abrevedotbelow" unicode="&#x1eb7;" horiz-adv-x="489" 
d="M345 568.5q-42 -36.5 -107 -36.5t-104 37t-54 93l34 51h23q13 -34 40.5 -52t64.5 -18t64.5 18t40.5 52h22l34 -51q-16 -57 -58 -93.5zM379.5 442.5q45.5 -35.5 45.5 -101.5q0 -33 -5 -110q-4 -86 -4 -99q0 -26 19 -26q10 0 23 4l10 -9l-14 -83q-32 -23 -81 -27
q-63 6 -81 72h-7q-49 -53 -101 -73q-74 1 -117 40t-43 106q0 103 108 121l148 25l1 29q0 31 -13.5 44.5t-43.5 13.5q-60 0 -144 -54l-11 7l-18 103q94 53 199 53q84 0 129.5 -35.5zM164 152q0 -50 46 -50q34 0 68 34l1 72l-85 -17q-30 -6 -30 -39zM299.5 -65
q20.5 -21 20.5 -58q0 -40 -23 -63.5t-61 -23.5t-58 21t-20 59q0 39 22.5 62.5t61.5 23.5q37 0 57.5 -21z" />
    <glyph glyph-name="Edotbelow" unicode="&#x1eb8;" horiz-adv-x="522" 
d="M506 120l-10 -120h-426l9 191l-9 454h431l9 -12l-11 -120l-156 6l-111 -1l-2 -129h106l105 3l9 -12l-10 -120l-115 3h-98l-1 -56l3 -80l106 -1l162 6zM360.5 -65q20.5 -21 20.5 -58q0 -40 -23 -63.5t-61 -23.5t-58 21t-20 59q0 39 22.5 62.5t61.5 23.5q37 0 57.5 -21z
" />
    <glyph glyph-name="edotbelow" unicode="&#x1eb9;" horiz-adv-x="480" 
d="M168 207q6 -52 34 -77t84 -25q63 0 134 31l13 -9l-23 -112q-70 -26 -141 -26q-117 0 -181.5 64.5t-64.5 179.5q0 114 64 179t173 65q92 0 142 -49.5t50 -138.5q0 -36 -5 -59l-20 -22zM256 375q-71 0 -86 -88l144 6l2 13q0 69 -60 69zM242.5 -65q20.5 -21 20.5 -58
q0 -40 -23 -63.5t-61 -23.5t-58 21t-20 59q0 39 22.5 62.5t61.5 23.5q37 0 57.5 -21z" />
    <glyph glyph-name="Ehookabove" unicode="&#x1eba;" horiz-adv-x="522" 
d="M506 120l-10 -120h-426l9 191l-9 454h432l9 -12l-11 -120l-157 6l-110 -1l-2 -129h105l105 3l9 -12l-10 -120l-115 3h-97l-1 -56l2 -80l106 -1l162 6zM338.5 909q25.5 -22 25.5 -56q0 -21 -12.5 -39.5t-45.5 -47.5l25 -40l-55 -33l-47 72q24 18 38.5 38t14.5 35
q0 23 -29 23q-35 0 -66 -25l-25 40q50 55 114 55q37 0 62.5 -22z" />
    <glyph glyph-name="ehookabove" unicode="&#x1ebb;" horiz-adv-x="480" 
d="M168 207q6 -52 34 -77t84 -25q63 0 134 31l13 -9l-23 -112q-70 -26 -141 -26q-117 0 -181.5 64.5t-64.5 179.5q0 114 64 179t173 65q92 0 142 -49.5t50 -138.5q0 -36 -5 -59l-20 -22zM256 375q-71 0 -86 -88l144 6l2 13q0 69 -60 69zM302.5 731q25.5 -22 25.5 -56
q0 -21 -12.5 -39.5t-45.5 -47.5l25 -40l-55 -33l-47 72q24 18 38.5 38t14.5 35q0 23 -29 23q-35 0 -66 -25l-25 40q50 55 114 55q37 0 62.5 -22z" />
    <glyph glyph-name="Ecircumflexacute" unicode="&#x1ebe;" horiz-adv-x="522" 
d="M506 120l-10 -120h-426l9 191l-9 454h432l9 -12l-11 -120l-157 6l-110 -1l-2 -129h105l105 3l9 -12l-10 -120l-115 3h-97l-1 -56l2 -80l106 -1l162 6zM507 973l-101 -134h-10l-53 40l70 134l11 5l79 -34zM270 878h30q68 -61 142 -110l-28 -63h-15l-114 62q17 10 -68 -38
l-45 -24h-15l-28 63q76 51 141 110z" />
    <glyph glyph-name="ecircumflexacute" unicode="&#x1ebf;" horiz-adv-x="480" 
d="M168 207q6 -52 34 -77t84 -25q63 0 134 31l13 -9l-23 -112q-70 -26 -141 -26q-117 0 -181.5 64.5t-64.5 179.5q0 114 64 179t173 65q92 0 142 -49.5t50 -138.5q0 -36 -5 -59l-20 -22zM256 375q-71 0 -86 -88l144 6l2 13q0 69 -60 69zM471 795l-101 -134h-10l-53 40
l70 134l11 5l79 -34zM234 700h30q68 -61 142 -110l-28 -63h-15l-114 62q17 10 -68 -38l-45 -24h-15l-28 63q76 51 141 110z" />
    <glyph glyph-name="Ecircumflexgrave" unicode="&#x1ec0;" horiz-adv-x="522" 
d="M506 120l-10 -120h-426l9 191l-9 454h432l9 -12l-11 -120l-157 6l-110 -1l-2 -129h105l105 3l9 -12l-10 -120l-115 3h-97l-1 -56l2 -80l106 -1l162 6zM460 879l-53 -40h-10l-101 134l4 11l79 34l11 -5zM270 878h30q68 -61 142 -110l-28 -63h-15l-114 62q17 10 -68 -38
l-45 -24h-15l-28 63q76 51 141 110z" />
    <glyph glyph-name="ecircumflexgrave" unicode="&#x1ec1;" horiz-adv-x="480" 
d="M168 207q6 -52 34 -77t84 -25q63 0 134 31l13 -9l-23 -112q-70 -26 -141 -26q-117 0 -181.5 64.5t-64.5 179.5q0 114 64 179t173 65q92 0 142 -49.5t50 -138.5q0 -36 -5 -59l-20 -22zM256 375q-71 0 -86 -88l144 6l2 13q0 69 -60 69zM424 701l-53 -40h-10l-101 134l4 11
l79 34l11 -5zM234 700h30q68 -61 142 -110l-28 -63h-15l-114 62q17 10 -68 -38l-45 -24h-15l-28 63q76 51 141 110z" />
    <glyph glyph-name="Ecircumflexhookabove" unicode="&#x1ec2;" horiz-adv-x="522" 
d="M307 973l-24 38q50 53 109 53q36 0 60 -20.5t24 -53.5q0 -20 -12 -38t-43 -45l23 -38l-52 -31l-45 68q23 17 37 36t14 33q0 22 -28 22q-33 0 -63 -24zM129 768q76 51 141 110h30q68 -61 142 -110l-28 -63h-15l-114 62q17 10 -68 -38l-45 -24h-15zM506 120l-10 -120h-426
l9 191l-9 454h431l9 -12l-11 -120l-156 6l-111 -1l-2 -129h106l105 3l9 -12l-10 -120l-115 3h-98l-1 -56l3 -80l106 -1l162 6z" />
    <glyph glyph-name="ecircumflexhookabove" unicode="&#x1ec3;" horiz-adv-x="480" 
d="M271 795l-24 38q50 53 109 53q36 0 60 -20.5t24 -53.5q0 -20 -12 -38t-43 -45l23 -38l-52 -31l-45 68q23 17 37 36t14 33q0 22 -28 22q-33 0 -63 -24zM93 590q76 51 141 110h30q68 -61 142 -110l-28 -63h-15l-114 62q17 10 -68 -38l-45 -24h-15zM168 207q6 -52 34 -77
t84 -25q63 0 134 31l13 -9l-23 -112q-70 -26 -141 -26q-117 0 -181.5 64.5t-64.5 179.5q0 114 64 179t173 65q92 0 142 -49.5t50 -138.5q0 -36 -5 -59l-20 -22zM256 375q-71 0 -86 -88l144 6l2 13q0 69 -60 69z" />
    <glyph glyph-name="Ecircumflextilde" unicode="&#x1ec4;" horiz-adv-x="522" 
d="M506 120l-10 -120h-426l9 191l-9 454h432l9 -12l-11 -120l-157 6l-110 -1l-2 -129h105l105 3l9 -12l-10 -120l-115 3h-97l-1 -56l2 -80l106 -1l162 6zM460 879l-53 -40h-10l-101 134l4 11l79 34l11 -5zM270 878h30q68 -61 142 -110l-28 -63h-15l-114 62q17 10 -68 -38
l-45 -24h-15l-28 63q76 51 141 110z" />
    <glyph glyph-name="ecircumflextilde" unicode="&#x1ec5;" horiz-adv-x="480" 
d="M85 742v12l68 92l13 5q20 -3 79 -18q52 -14 62 -14q12 0 23.5 9.5t22 22.5t14.5 18h13l43 -42v-13l-69 -91l-13 -5q-27 3 -81 19q-46 13 -60 13q-12 0 -22.5 -9t-21.5 -22t-16 -19h-12zM406 590l-28 -63h-15l-114 62q17 10 -68 -38l-45 -24h-15l-28 63q76 51 141 110h30
q68 -61 142 -110zM168 207q6 -52 34 -77t84 -25q63 0 134 31l13 -9l-23 -112q-70 -26 -141 -26q-117 0 -181.5 64.5t-64.5 179.5q0 114 64 179t173 65q92 0 142 -49.5t50 -138.5q0 -36 -5 -59l-20 -22zM256 375q-71 0 -86 -88l144 6l2 13q0 69 -60 69z" />
    <glyph glyph-name="Ecircumflexdotbelow" unicode="&#x1ec6;" horiz-adv-x="522" 
d="M130 788q76 51 141 110h30q68 -61 142 -110l-28 -63h-15l-114 62q17 10 -68 -38l-45 -24h-15zM506 120l-10 -120h-426l9 191l-9 454h431l9 -12l-11 -120l-156 6l-111 -1l-2 -129h106l105 3l9 -12l-10 -120l-115 3h-98l-1 -56l3 -80l106 -1l162 6zM360.5 -65
q20.5 -21 20.5 -58q0 -40 -23 -63.5t-61 -23.5t-58 21t-20 59q0 39 22.5 62.5t61.5 23.5q37 0 57.5 -21z" />
    <glyph glyph-name="ecircumflexdotbelow" unicode="&#x1ec7;" horiz-adv-x="480" 
d="M85 586q62 55 150 145h31q67 -70 150 -145l-39 -59h-15q-77 55 -111 86q-32 -27 -111 -86h-16zM168 207q6 -52 34 -77t84 -25q63 0 134 31l13 -9l-23 -112q-70 -26 -141 -26q-117 0 -181.5 64.5t-64.5 179.5q0 114 64 179t173 65q92 0 142 -49.5t50 -138.5q0 -36 -5 -59
l-20 -22zM256 375q-71 0 -86 -88l144 6l2 13q0 69 -60 69zM242.5 -65q20.5 -21 20.5 -58q0 -40 -23 -63.5t-61 -23.5t-58 21t-20 59q0 39 22.5 62.5t61.5 23.5q37 0 57.5 -21z" />
    <glyph glyph-name="Ihookabove" unicode="&#x1ec8;" horiz-adv-x="308" 
d="M233 0h-163l9 191l-9 454h166l-9 -438zM204.5 909q25.5 -22 25.5 -56q0 -21 -12.5 -39.5t-45.5 -47.5l25 -40l-55 -33l-47 72q24 18 38.5 38t14.5 35q0 23 -29 23q-35 0 -66 -25l-25 40q50 55 114 55q37 0 62.5 -22z" />
    <glyph glyph-name="ihookabove" unicode="&#x1ec9;" horiz-adv-x="261" 
d="M209 0h-158l8 191l-6 267l157 12l-8 -263zM184.5 732q25.5 -22 25.5 -56q0 -21 -12.5 -39.5t-45.5 -47.5l25 -40l-55 -33l-47 72q24 18 38.5 38t14.5 35q0 23 -29 23q-35 0 -66 -25l-25 40q50 55 114 55q37 0 62.5 -22z" />
    <glyph glyph-name="Idotbelow" unicode="&#x1eca;" horiz-adv-x="308" 
d="M233 0h-163l9 191l-9 454h165l-9 -438zM207.5 -65q20.5 -21 20.5 -58q0 -40 -23 -63.5t-61 -23.5t-58 21t-20 59q0 39 22.5 62.5t61.5 23.5q37 0 57.5 -21z" />
    <glyph glyph-name="idotbelow" unicode="&#x1ecb;" horiz-adv-x="261" 
d="M193.5 687q20.5 -21 20.5 -58q0 -40 -23 -63.5t-61 -23.5t-58 21t-20 59q0 39 22.5 62.5t61.5 23.5q37 0 57.5 -21zM209 0h-158l8 191l-6 267l157 12l-8 -263zM192.5 -65q20.5 -21 20.5 -58q0 -40 -23 -63.5t-61 -23.5t-58 21t-20 59q0 39 22.5 62.5t61.5 23.5
q37 0 57.5 -21z" />
    <glyph glyph-name="Odotbelow" unicode="&#x1ecc;" horiz-adv-x="647" 
d="M549 572.5q75 -82.5 75 -234.5q0 -167 -81.5 -258t-230.5 -91q-138 0 -213 84.5t-75 239.5q0 164 81.5 253t231.5 89q137 0 212 -82.5zM246 507q-28 -18 -40.5 -59.5t-12.5 -112.5q0 -85 13 -133t41.5 -69t77.5 -21q47 0 75 18.5t41 60t13 113.5q0 84 -13 131.5
t-41.5 68.5t-77.5 21q-48 0 -76 -18zM387.5 -65q20.5 -21 20.5 -58q0 -40 -23 -63.5t-61 -23.5t-58 21t-20 59q0 39 22.5 62.5t61.5 23.5q37 0 57.5 -21z" />
    <glyph glyph-name="odotbelow" unicode="&#x1ecd;" horiz-adv-x="495" 
d="M416.5 418q55.5 -60 55.5 -175q0 -124 -59.5 -189t-172.5 -65q-106 0 -161.5 60t-55.5 174q0 124 59.5 189.5t172.5 65.5q106 0 161.5 -60zM187.5 344.5q-16.5 -26.5 -16.5 -92.5q0 -61 7.5 -95.5t25 -49t47.5 -14.5q39 0 55.5 26.5t16.5 93.5q0 89 -17.5 123.5
t-61.5 34.5q-40 0 -56.5 -26.5zM313.5 -65q20.5 -21 20.5 -58q0 -40 -23 -63.5t-61 -23.5t-58 21t-20 59q0 39 22.5 62.5t61.5 23.5q37 0 57.5 -21z" />
    <glyph glyph-name="Ohookabove" unicode="&#x1ece;" horiz-adv-x="647" 
d="M549 572.5q75 -82.5 75 -234.5q0 -166 -82 -257.5t-231 -91.5q-137 0 -212 84.5t-75 239.5q0 164 81.5 253t230.5 89q138 0 213 -82.5zM246 507q-28 -18 -40.5 -59.5t-12.5 -112.5q0 -85 13 -133t41.5 -69t77.5 -21q47 0 75 18.5t41 60t13 113.5q0 84 -13 131.5
t-41.5 68.5t-77.5 21q-48 0 -76 -18zM376.5 909q25.5 -22 25.5 -56q0 -21 -12.5 -39.5t-45.5 -47.5l25 -40l-55 -33l-47 72q24 18 38.5 38t14.5 35q0 23 -29 23q-35 0 -66 -25l-25 40q50 55 114 55q37 0 62.5 -22z" />
    <glyph glyph-name="ohookabove" unicode="&#x1ecf;" horiz-adv-x="495" 
d="M416.5 418q55.5 -60 55.5 -175q0 -124 -59.5 -189t-172.5 -65q-106 0 -161.5 60t-55.5 174q0 124 59.5 189.5t172.5 65.5q106 0 161.5 -60zM187.5 344.5q-16.5 -26.5 -16.5 -92.5q0 -61 7.5 -95.5t25 -49t47.5 -14.5q39 0 55.5 26.5t16.5 93.5q0 89 -17.5 123.5
t-61.5 34.5q-40 0 -56.5 -26.5zM301.5 732q25.5 -22 25.5 -56q0 -21 -12.5 -39.5t-45.5 -47.5l25 -40l-55 -33l-47 72q24 18 38.5 38t14.5 35q0 23 -29 23q-35 0 -66 -25l-25 40q50 55 114 55q37 0 62.5 -22z" />
    <glyph glyph-name="Ocircumflexacute" unicode="&#x1ed0;" horiz-adv-x="647" 
d="M549 572.5q75 -82.5 75 -234.5q0 -166 -82 -257.5t-231 -91.5q-137 0 -212 84.5t-75 239.5q0 164 81.5 253t230.5 89q138 0 213 -82.5zM246 507q-28 -18 -40.5 -59.5t-12.5 -112.5q0 -85 13 -133t41.5 -69t77.5 -21q47 0 75 18.5t41 60t13 113.5q0 84 -13 131.5
t-41.5 68.5t-77.5 21q-48 0 -76 -18zM545 973l-101 -134h-10l-53 40l70 134l11 5l79 -34zM308 878h30q68 -61 142 -110l-28 -63h-15l-114 62q17 10 -68 -38l-45 -24h-15l-28 63q76 51 141 110z" />
    <glyph glyph-name="ocircumflexacute" unicode="&#x1ed1;" horiz-adv-x="495" 
d="M416.5 418q55.5 -60 55.5 -175q0 -124 -59.5 -189t-172.5 -65q-106 0 -161.5 60t-55.5 174q0 124 59.5 189.5t172.5 65.5q106 0 161.5 -60zM187.5 344.5q-16.5 -26.5 -16.5 -92.5q0 -61 7.5 -95.5t25 -49t47.5 -14.5q39 0 55.5 26.5t16.5 93.5q0 89 -17.5 123.5
t-61.5 34.5q-40 0 -56.5 -26.5zM470 796l-101 -134h-10l-53 40l70 134l11 5l79 -34zM233 701h30q68 -61 142 -110l-28 -63h-15l-114 62q17 10 -68 -38l-45 -24h-15l-28 63q76 51 141 110z" />
    <glyph glyph-name="Ocircumflexgrave" unicode="&#x1ed2;" horiz-adv-x="647" 
d="M549 572.5q75 -82.5 75 -234.5q0 -166 -82 -257.5t-231 -91.5q-137 0 -212 84.5t-75 239.5q0 164 81.5 253t230.5 89q138 0 213 -82.5zM246 507q-28 -18 -40.5 -59.5t-12.5 -112.5q0 -85 13 -133t41.5 -69t77.5 -21q47 0 75 18.5t41 60t13 113.5q0 84 -13 131.5
t-41.5 68.5t-77.5 21q-48 0 -76 -18zM498 879l-53 -40h-10l-101 134l4 11l79 34l11 -5zM308 878h30q68 -61 142 -110l-28 -63h-15l-114 62q17 10 -68 -38l-45 -24h-15l-28 63q76 51 141 110z" />
    <glyph glyph-name="ocircumflexgrave" unicode="&#x1ed3;" horiz-adv-x="495" 
d="M416.5 418q55.5 -60 55.5 -175q0 -124 -59.5 -189t-172.5 -65q-106 0 -161.5 60t-55.5 174q0 124 59.5 189.5t172.5 65.5q106 0 161.5 -60zM187.5 344.5q-16.5 -26.5 -16.5 -92.5q0 -61 7.5 -95.5t25 -49t47.5 -14.5q39 0 55.5 26.5t16.5 93.5q0 89 -17.5 123.5
t-61.5 34.5q-40 0 -56.5 -26.5zM423 702l-53 -40h-10l-101 134l4 11l79 34l11 -5zM233 701h30q68 -61 142 -110l-28 -63h-15l-114 62q17 10 -68 -38l-45 -24h-15l-28 63q76 51 141 110z" />
    <glyph glyph-name="Ocircumflexhookabove" unicode="&#x1ed4;" horiz-adv-x="647" 
d="M490 1043.5q24 -20.5 24 -53.5q0 -20 -12 -38t-43 -45l23 -38l-52 -31l-45 68q23 17 37 36t14 33q0 22 -28 22q-33 0 -63 -24l-24 38q50 53 109 53q36 0 60 -20.5zM308 878h30q68 -61 142 -110l-28 -63h-15l-114 62q17 10 -68 -38l-45 -24h-15l-28 63q76 51 141 110z
M549 572.5q75 -82.5 75 -234.5q0 -167 -81.5 -258t-230.5 -91q-138 0 -213 84.5t-75 239.5q0 164 81.5 253t231.5 89q137 0 212 -82.5zM246 507q-28 -18 -40.5 -59.5t-12.5 -112.5q0 -85 13 -133t41.5 -69t77.5 -21q47 0 75 18.5t41 60t13 113.5q0 84 -13 131.5t-41.5 68.5
t-77.5 21q-48 0 -76 -18z" />
    <glyph glyph-name="ocircumflexhookabove" unicode="&#x1ed5;" horiz-adv-x="495" 
d="M415 866.5q24 -20.5 24 -53.5q0 -20 -12 -38t-43 -45l23 -38l-52 -31l-45 68q23 17 37 36t14 33q0 22 -28 22q-33 0 -63 -24l-24 38q50 53 109 53q36 0 60 -20.5zM233 701h30q68 -61 142 -110l-28 -63h-15l-114 62q17 10 -68 -38l-45 -24h-15l-28 63q76 51 141 110z
M416.5 418q55.5 -60 55.5 -175q0 -124 -59.5 -189t-172.5 -65q-106 0 -161.5 60t-55.5 174q0 124 59.5 189.5t172.5 65.5q106 0 161.5 -60zM187.5 344.5q-16.5 -26.5 -16.5 -92.5q0 -61 7.5 -95.5t25 -49t47.5 -14.5q39 0 55.5 26.5t16.5 93.5q0 89 -17.5 123.5t-61.5 34.5
q-40 0 -56.5 -26.5z" />
    <glyph glyph-name="Ocircumflextilde" unicode="&#x1ed6;" horiz-adv-x="647" 
d="M497 992l-69 -91l-13 -5q-27 3 -81 19q-46 13 -60 13q-12 0 -22.5 -9t-21.5 -22t-16 -19h-12l-43 42v12l68 92l13 5q20 -3 79 -18q52 -14 62 -14q12 0 23.5 9.5t22 22.5t14.5 18h13l43 -42v-13zM308 878h30q68 -61 142 -110l-28 -63h-15l-114 62q17 10 -68 -38l-45 -24
h-15l-28 63q76 51 141 110zM549 572.5q75 -82.5 75 -234.5q0 -167 -81.5 -258t-230.5 -91q-138 0 -213 84.5t-75 239.5q0 164 81.5 253t231.5 89q137 0 212 -82.5zM246 507q-28 -18 -40.5 -59.5t-12.5 -112.5q0 -85 13 -133t41.5 -69t77.5 -21q47 0 75 18.5t41 60t13 113.5
q0 84 -13 131.5t-41.5 68.5t-77.5 21q-48 0 -76 -18z" />
    <glyph glyph-name="ocircumflextilde" unicode="&#x1ed7;" horiz-adv-x="495" 
d="M422 815l-69 -91l-13 -5q-27 3 -81 19q-46 13 -60 13q-12 0 -22.5 -9t-21.5 -22t-16 -19h-12l-43 42v12l68 92l13 5q20 -3 79 -18q52 -14 62 -14q12 0 23.5 9.5t22 22.5t14.5 18h13l43 -42v-13zM233 701h30q68 -61 142 -110l-28 -63h-15l-114 62q17 10 -68 -38l-45 -24
h-15l-28 63q76 51 141 110zM416.5 418q55.5 -60 55.5 -175q0 -124 -59.5 -189t-172.5 -65q-106 0 -161.5 60t-55.5 174q0 124 59.5 189.5t172.5 65.5q106 0 161.5 -60zM187.5 344.5q-16.5 -26.5 -16.5 -92.5q0 -61 7.5 -95.5t25 -49t47.5 -14.5q39 0 55.5 26.5t16.5 93.5
q0 89 -17.5 123.5t-61.5 34.5q-40 0 -56.5 -26.5z" />
    <glyph glyph-name="Ocircumflexdotbelow" unicode="&#x1ed8;" horiz-adv-x="647" 
d="M312 896h30q68 -61 142 -110l-28 -63h-15l-114 62q17 10 -68 -38l-45 -24h-15l-28 63q76 51 141 110zM549 572.5q75 -82.5 75 -234.5q0 -167 -81.5 -258t-230.5 -91q-138 0 -213 84.5t-75 239.5q0 164 81.5 253t231.5 89q137 0 212 -82.5zM246 507q-28 -18 -40.5 -59.5
t-12.5 -112.5q0 -85 13 -133t41.5 -69t77.5 -21q47 0 75 18.5t41 60t13 113.5q0 84 -13 131.5t-41.5 68.5t-77.5 21q-48 0 -76 -18zM387.5 -65q20.5 -21 20.5 -58q0 -40 -23 -63.5t-61 -23.5t-58 21t-20 59q0 39 22.5 62.5t61.5 23.5q37 0 57.5 -21z" />
    <glyph glyph-name="ocircumflexdotbelow" unicode="&#x1ed9;" horiz-adv-x="495" 
d="M234 732h31q67 -70 150 -145l-39 -59h-15q-77 55 -111 86q-32 -27 -111 -86h-16l-39 59q62 55 150 145zM416.5 418q55.5 -60 55.5 -175q0 -124 -59.5 -189t-172.5 -65q-106 0 -161.5 60t-55.5 174q0 124 59.5 189.5t172.5 65.5q106 0 161.5 -60zM187.5 344.5
q-16.5 -26.5 -16.5 -92.5q0 -61 7.5 -95.5t25 -49t47.5 -14.5q39 0 55.5 26.5t16.5 93.5q0 89 -17.5 123.5t-61.5 34.5q-40 0 -56.5 -26.5zM317.5 -65q20.5 -21 20.5 -58q0 -40 -23 -63.5t-61 -23.5t-58 21t-20 59q0 39 22.5 62.5t61.5 23.5q37 0 57.5 -21z" />
    <glyph glyph-name="Ohornacute" unicode="&#x1eda;" horiz-adv-x="654" 
d="M653.5 753.5q21.5 -27.5 21.5 -69.5q0 -51 -33 -85.5t-84 -43.5q66 -82 66 -221q0 -107 -36.5 -184.5t-106.5 -119t-167 -41.5q-140 0 -215 84.5t-75 238.5q0 108 36.5 185.5t104 117.5t157.5 40q56 0 119 -19q40 -11 57 -11q25 0 39.5 13.5t14.5 36.5q0 37 -30 64l3 12
q42 30 76 30q31 0 52.5 -27.5zM245.5 506q-27.5 -19 -40 -61.5t-12.5 -117.5q0 -80 13 -127t42 -67.5t79 -20.5q47 0 74.5 18.5t40 62t12.5 118.5q0 80 -13 126.5t-42 67t-79 20.5q-47 0 -74.5 -19zM479 802l-5 -13q-93 -34 -224 -75l-15 4l-25 66q108 53 215 116l14 -3z
" />
    <glyph glyph-name="ohornacute" unicode="&#x1edb;" horiz-adv-x="497" 
d="M529.5 580q21.5 -24 21.5 -61q0 -33 -17 -63t-43.5 -48.5t-55.5 -18.5q37 -56 37 -147q0 -124 -59 -188.5t-172 -64.5q-218 0 -218 238q0 123 59.5 187t173.5 64q32 0 86 -14q29 -9 43 -9q21 0 32 11.5t11 31.5q0 30 -31 58l3 13q41 35 78 35q30 0 51.5 -24zM187.5 344
q-16.5 -27 -16.5 -95q0 -60 7.5 -93.5t25 -48t47.5 -14.5q39 0 55.5 27.5t16.5 95.5q0 59 -7.5 92.5t-24.5 48t-47 14.5q-40 0 -56.5 -27zM399 649l-3 -14q-99 -57 -206 -115l-14 1l-37 60q105 80 189 156l14 -1z" />
    <glyph glyph-name="Ohorngrave" unicode="&#x1edc;" horiz-adv-x="654" 
d="M461 784l-25 -66l-15 -4q-131 41 -224 75l-5 13l40 95l14 3q107 -63 215 -116zM654 753q22 -28 22 -69q0 -51 -33 -85.5t-84 -43.5q65 -83 65 -221q0 -162 -81.5 -253.5t-228.5 -91.5q-140 0 -215 84.5t-75 238.5q0 108 37 185.5t104 117.5t157 40q55 0 120 -19
q38 -11 56 -11q25 0 39.5 13.5t14.5 36.5q0 37 -30 64l3 12q42 30 76 30q31 0 53 -28zM245.5 506q-27.5 -19 -40 -61.5t-12.5 -117.5q0 -80 13 -127t42 -67.5t79 -20.5q47 0 74.5 18.5t40 62t12.5 118.5q0 80 -13 126.5t-42 67t-79 20.5q-47 0 -74.5 -19z" />
    <glyph glyph-name="ohorngrave" unicode="&#x1edd;" horiz-adv-x="497" 
d="M348 581l-37 -60l-14 -1q-91 48 -206 115l-3 14l56 87l15 1q92 -83 189 -156zM529.5 580q21.5 -24 21.5 -61q0 -33 -17 -63t-43.5 -48.5t-55.5 -18.5q37 -56 37 -147q0 -124 -59 -188.5t-172 -64.5q-218 0 -218 238q0 123 59.5 187t173.5 64q32 0 86 -14q29 -9 43 -9
q21 0 32 11.5t11 31.5q0 30 -31 58l3 13q41 35 78 35q30 0 51.5 -24zM187.5 344q-16.5 -27 -16.5 -95q0 -60 7.5 -93.5t25 -48t47.5 -14.5q39 0 55.5 27.5t16.5 95.5q0 59 -7.5 92.5t-24.5 48t-47 14.5q-40 0 -56.5 -27z" />
    <glyph glyph-name="Ohornhookabove" unicode="&#x1ede;" horiz-adv-x="654" 
d="M653.5 753.5q21.5 -27.5 21.5 -69.5q0 -51 -33 -85.5t-84 -43.5q66 -82 66 -221q0 -107 -36.5 -184.5t-106.5 -119t-167 -41.5q-140 0 -215 84.5t-75 238.5q0 108 36.5 185.5t104 117.5t157.5 40q56 0 119 -19q40 -11 57 -11q25 0 39.5 13.5t14.5 36.5q0 37 -30 64l3 12
q42 30 76 30q31 0 52.5 -27.5zM245.5 506q-27.5 -19 -40 -61.5t-12.5 -117.5q0 -80 13 -127t42 -67.5t79 -20.5q47 0 74.5 18.5t40 62t12.5 118.5q0 80 -13 126.5t-42 67t-79 20.5q-47 0 -74.5 -19zM376.5 909q25.5 -22 25.5 -56q0 -21 -12.5 -39.5t-45.5 -47.5l25 -40
l-55 -33l-47 72q24 18 38.5 38t14.5 35q0 23 -29 23q-35 0 -66 -25l-25 40q50 55 114 55q37 0 62.5 -22z" />
    <glyph glyph-name="ohornhookabove" unicode="&#x1edf;" horiz-adv-x="497" 
d="M529.5 580q21.5 -24 21.5 -61q0 -33 -17 -63t-43.5 -48.5t-55.5 -18.5q37 -56 37 -147q0 -124 -59 -188.5t-172 -64.5q-218 0 -218 238q0 123 59.5 187t173.5 64q32 0 86 -14q29 -9 43 -9q21 0 32 11.5t11 31.5q0 30 -31 58l3 13q41 35 78 35q30 0 51.5 -24zM187.5 344
q-16.5 -27 -16.5 -95q0 -60 7.5 -93.5t25 -48t47.5 -14.5q39 0 55.5 27.5t16.5 95.5q0 59 -7.5 92.5t-24.5 48t-47 14.5q-40 0 -56.5 -27zM298.5 732q25.5 -22 25.5 -56q0 -21 -12.5 -39.5t-45.5 -47.5l25 -40l-55 -33l-47 72q24 18 38.5 38t14.5 35q0 23 -29 23
q-35 0 -66 -25l-25 40q50 55 114 55q37 0 62.5 -22z" />
    <glyph glyph-name="Ohorntilde" unicode="&#x1ee0;" horiz-adv-x="654" 
d="M653.5 753.5q21.5 -27.5 21.5 -69.5q0 -51 -33 -85.5t-84 -43.5q66 -82 66 -221q0 -107 -36.5 -184.5t-106.5 -119t-167 -41.5q-140 0 -215 84.5t-75 238.5q0 108 36.5 185.5t104 117.5t157.5 40q56 0 119 -19q40 -11 57 -11q25 0 39.5 13.5t14.5 36.5q0 37 -30 64l3 12
q42 30 76 30q31 0 52.5 -27.5zM245.5 506q-27.5 -19 -40 -61.5t-12.5 -117.5q0 -80 13 -127t42 -67.5t79 -20.5q47 0 74.5 18.5t40 62t12.5 118.5q0 80 -13 126.5t-42 67t-79 20.5q-47 0 -74.5 -19zM507 836l-74 -99l-14 -6q-14 2 -83 19q-53 16 -71 16q-13 0 -25 -10
t-23.5 -24t-16.5 -20h-14l-46 46v13l74 99l14 5q22 -3 87 -20q53 -15 67 -15q13 0 24.5 10t23 24t17.5 21h14l46 -46v-13z" />
    <glyph glyph-name="ohorntilde" unicode="&#x1ee1;" horiz-adv-x="497" 
d="M529.5 580q21.5 -24 21.5 -61q0 -33 -17 -63t-43.5 -48.5t-55.5 -18.5q37 -56 37 -147q0 -124 -59 -188.5t-172 -64.5q-218 0 -218 238q0 123 59.5 187t173.5 64q32 0 86 -14q29 -9 43 -9q21 0 32 11.5t11 31.5q0 30 -31 58l3 13q41 35 78 35q30 0 51.5 -24zM187.5 344
q-16.5 -27 -16.5 -95q0 -60 7.5 -93.5t25 -48t47.5 -14.5q39 0 55.5 27.5t16.5 95.5q0 59 -7.5 92.5t-24.5 48t-47 14.5q-40 0 -56.5 -27zM430 659l-74 -99l-14 -6q-14 2 -83 19q-53 16 -71 16q-13 0 -25 -10t-23.5 -24t-16.5 -20h-14l-46 46v13l74 99l14 5q22 -3 87 -20
q53 -15 67 -15q13 0 24.5 10t23 24t17.5 21h14l46 -46v-13z" />
    <glyph glyph-name="Ohorndotbelow" unicode="&#x1ee2;" horiz-adv-x="654" 
d="M654 753q22 -28 22 -69q0 -51 -33 -85.5t-84 -43.5q65 -83 65 -221q0 -162 -81.5 -253.5t-228.5 -91.5q-140 0 -215 84.5t-75 238.5q0 108 37 185.5t104 117.5t157 40q55 0 120 -19q38 -11 56 -11q25 0 39.5 13.5t14.5 36.5q0 37 -30 64l3 12q42 30 76 30q31 0 53 -28z
M245.5 506q-27.5 -19 -40 -61.5t-12.5 -117.5q0 -80 13 -127t42 -67.5t79 -20.5q47 0 74.5 18.5t40 62t12.5 118.5q0 80 -13 126.5t-42 67t-79 20.5q-47 0 -74.5 -19zM387.5 -65q20.5 -21 20.5 -58q0 -40 -23 -63.5t-61 -23.5t-58 21t-20 59q0 39 22.5 62.5t61.5 23.5
q37 0 57.5 -21z" />
    <glyph glyph-name="ohorndotbelow" unicode="&#x1ee3;" horiz-adv-x="497" 
d="M529.5 580q21.5 -24 21.5 -61q0 -33 -17 -63t-43.5 -48.5t-55.5 -18.5q37 -56 37 -147q0 -124 -59 -188.5t-172 -64.5q-218 0 -218 238q0 123 59.5 187t173.5 64q32 0 86 -14q29 -9 43 -9q21 0 32 11.5t11 31.5q0 30 -31 58l3 13q41 35 78 35q30 0 51.5 -24zM187.5 344
q-16.5 -27 -16.5 -95q0 -60 7.5 -93.5t25 -48t47.5 -14.5q39 0 55.5 27.5t16.5 95.5q0 59 -7.5 92.5t-24.5 48t-47 14.5q-40 0 -56.5 -27zM315.5 -65q20.5 -21 20.5 -58q0 -40 -23 -63.5t-61 -23.5t-58 21t-20 59q0 39 22.5 62.5t61.5 23.5q37 0 57.5 -21z" />
    <glyph glyph-name="Udotbelow" unicode="&#x1ee4;" horiz-adv-x="644" 
d="M584 225q0 -113 -70 -174t-201 -61q-125 0 -191.5 60t-63.5 172l2 98l-4 325h162l-7 -401q-1 -64 25.5 -94t84.5 -30t85.5 29.5t26.5 90.5l-7 405h164l-5 -327zM381.5 -65q20.5 -21 20.5 -58q0 -40 -23 -63.5t-61 -23.5t-58 21t-20 59q0 39 22.5 62.5t61.5 23.5
q37 0 57.5 -21z" />
    <glyph glyph-name="udotbelow" unicode="&#x1ee5;" horiz-adv-x="527" 
d="M480 106q10 0 23 4l10 -9l-14 -83q-32 -23 -81 -27q-63 6 -84 79h-11q-56 -58 -117 -76q-75 0 -115 34.5t-39 98.5l2 112l-5 219l152 12l-2 -285q0 -65 52 -65q35 0 69 30v308l150 12l-9 -338q0 -26 19 -26zM324.5 -65q20.5 -21 20.5 -58q0 -40 -23 -63.5t-61 -23.5
t-58 21t-20 59q0 39 22.5 62.5t61.5 23.5q37 0 57.5 -21z" />
    <glyph glyph-name="Uhookabove" unicode="&#x1ee6;" horiz-adv-x="644" 
d="M584 225q1 -113 -69.5 -174t-200.5 -61q-126 0 -192.5 60t-63.5 172l2 98l-4 325h162l-7 -401q-1 -64 26 -94t84 -30q58 0 85.5 29.5t26.5 90.5l-7 405h165l-6 -327zM375.5 909q25.5 -22 25.5 -56q0 -21 -12.5 -39.5t-45.5 -47.5l25 -40l-55 -33l-47 72q24 18 38.5 38
t14.5 35q0 23 -29 23q-35 0 -66 -25l-25 40q50 55 114 55q37 0 62.5 -22z" />
    <glyph glyph-name="uhookabove" unicode="&#x1ee7;" horiz-adv-x="527" 
d="M480 106q10 0 23 4l10 -9l-14 -83q-32 -23 -81 -27q-63 6 -84 79h-11q-56 -58 -117 -76q-75 0 -115 34.5t-39 98.5l2 112l-5 219l152 12l-2 -285q0 -65 52 -65q35 0 69 30v308l150 12l-9 -338q0 -26 19 -26zM312.5 732q25.5 -22 25.5 -56q0 -21 -12.5 -39.5t-45.5 -47.5
l25 -40l-55 -33l-47 72q24 18 38.5 38t14.5 35q0 23 -29 23q-35 0 -66 -25l-25 40q50 55 114 55q37 0 62.5 -22z" />
    <glyph glyph-name="Uhornacute" unicode="&#x1ee8;" horiz-adv-x="654" 
d="M660 635.5q-26 -32.5 -71 -50.5l-4 -267l-1 -93q0 -113 -70 -174t-201 -61q-125 0 -191.5 60t-63.5 172l2 98l-4 325h162l-7 -401q-1 -64 25.5 -94t84.5 -30t85.5 29.5t26.5 90.5l-7 405h77q60 0 60 49q0 33 -31 59l3 12q44 31 77 31q31 0 52.5 -25t21.5 -63
q0 -40 -26 -72.5zM477 802l-5 -13q-93 -34 -224 -75l-15 4l-25 66q108 53 215 116l14 -3z" />
    <glyph glyph-name="uhornacute" unicode="&#x1ee9;" horiz-adv-x="537" 
d="M537.5 596q21.5 -24 21.5 -60q0 -40 -25.5 -73t-65.5 -49l-7 -280q0 -27 20 -27q7 0 22 3l11 -9l-15 -83q-35 -24 -79 -26q-36 1 -58 19t-36 55h-7q-53 -54 -113 -72q-75 0 -115 34.5t-39 98.5l2 112l-5 219l152 12l-2 -285q0 -65 53 -65q34 0 68 30v308l51 7q65 7 65 49
q0 33 -30 58l3 12q43 36 78 36q29 0 50.5 -24zM395 649l-3 -14q-99 -57 -206 -115l-14 1l-37 60q105 80 189 156l14 -1z" />
    <glyph glyph-name="Uhorngrave" unicode="&#x1eea;" horiz-adv-x="654" 
d="M196 789l-5 13l40 95l14 3q107 -63 215 -116l-25 -66l-15 -4q-131 41 -224 75zM660 635.5q-26 -32.5 -71 -50.5l-4 -267l-1 -93q0 -113 -70 -174t-201 -61q-125 0 -191.5 60t-63.5 172l2 98l-4 325h162l-7 -401q-1 -64 25.5 -94t84.5 -30t85.5 29.5t26.5 90.5l-7 405h77
q60 0 60 49q0 33 -31 59l3 12q44 31 77 31q31 0 52.5 -25t21.5 -63q0 -40 -26 -72.5z" />
    <glyph glyph-name="uhorngrave" unicode="&#x1eeb;" horiz-adv-x="537" 
d="M372 581l-37 -60l-14 -1q-107 58 -206 115l-3 14l57 87l14 1q84 -76 189 -156zM537.5 596q21.5 -24 21.5 -60q0 -40 -25.5 -73t-65.5 -49l-7 -280q0 -27 20 -27q7 0 22 3l11 -9l-15 -83q-35 -24 -79 -26q-36 1 -58 19t-36 55h-7q-53 -54 -113 -72q-75 0 -115 34.5
t-39 98.5l2 112l-5 219l152 12l-2 -285q0 -65 53 -65q34 0 68 30v308l51 7q65 7 65 49q0 33 -30 58l3 12q43 36 78 36q29 0 50.5 -24z" />
    <glyph glyph-name="Uhornhookabove" unicode="&#x1eec;" horiz-adv-x="654" 
d="M660 635.5q-26 -32.5 -71 -50.5l-4 -267l-1 -93q0 -113 -70 -174t-201 -61q-125 0 -191.5 60t-63.5 172l2 98l-4 325h162l-7 -401q-1 -64 25.5 -94t84.5 -30t85.5 29.5t26.5 90.5l-7 405h77q60 0 60 49q0 33 -31 59l3 12q44 31 77 31q31 0 52.5 -25t21.5 -63
q0 -40 -26 -72.5zM374.5 909q25.5 -22 25.5 -56q0 -21 -12.5 -39.5t-45.5 -47.5l25 -40l-55 -33l-47 72q24 18 38.5 38t14.5 35q0 23 -29 23q-35 0 -66 -25l-25 40q50 55 114 55q37 0 62.5 -22z" />
    <glyph glyph-name="uhornhookabove" unicode="&#x1eed;" horiz-adv-x="537" 
d="M537.5 596q21.5 -24 21.5 -60q0 -40 -25.5 -73t-65.5 -49l-7 -280q0 -27 20 -27q7 0 22 3l11 -9l-15 -83q-35 -24 -79 -26q-36 1 -58 19t-36 55h-7q-53 -54 -113 -72q-75 0 -115 34.5t-39 98.5l2 112l-5 219l152 12l-2 -285q0 -65 53 -65q34 0 68 30v308l51 7q65 7 65 49
q0 33 -30 58l3 12q43 36 78 36q29 0 50.5 -24zM294.5 732q25.5 -22 25.5 -56q0 -21 -12.5 -39.5t-45.5 -47.5l25 -40l-55 -33l-47 72q24 18 38.5 38t14.5 35q0 23 -29 23q-35 0 -66 -25l-25 40q50 55 114 55q37 0 62.5 -22z" />
    <glyph glyph-name="Uhorntilde" unicode="&#x1eee;" horiz-adv-x="654" 
d="M660 635.5q-26 -32.5 -71 -50.5l-4 -267l-1 -93q0 -113 -70 -174t-201 -61q-125 0 -191.5 60t-63.5 172l2 98l-4 325h162l-7 -401q-1 -64 25.5 -94t84.5 -30t85.5 29.5t26.5 90.5l-7 405h77q60 0 60 49q0 33 -31 59l3 12q44 31 77 31q31 0 52.5 -25t21.5 -63
q0 -40 -26 -72.5zM506 836l-74 -99l-14 -6q-14 2 -83 19q-53 16 -71 16q-13 0 -25 -10t-23.5 -24t-16.5 -20h-14l-46 46v13l74 99l14 5q22 -3 87 -20q53 -15 67 -15q13 0 24.5 10t23 24t17.5 21h14l46 -46v-13z" />
    <glyph glyph-name="uhorntilde" unicode="&#x1eef;" horiz-adv-x="537" 
d="M537.5 596q21.5 -24 21.5 -60q0 -40 -25.5 -73t-65.5 -49l-7 -280q0 -27 20 -27q7 0 22 3l11 -9l-15 -83q-35 -24 -79 -26q-36 1 -58 19t-36 55h-7q-53 -54 -113 -72q-75 0 -115 34.5t-39 98.5l2 112l-5 219l152 12l-2 -285q0 -65 53 -65q34 0 68 30v308l51 7q65 7 65 49
q0 33 -30 58l3 12q43 36 78 36q29 0 50.5 -24zM425 659l-74 -99l-14 -6q-14 2 -83 19q-53 16 -71 16q-13 0 -25 -10t-23.5 -24t-16.5 -20h-14l-46 46v13l74 99l14 5q22 -3 87 -20q53 -15 67 -15q13 0 24.5 10t23 24t17.5 21h14l46 -46v-13z" />
    <glyph glyph-name="Uhorndotbelow" unicode="&#x1ef0;" horiz-adv-x="654" 
d="M660 635.5q-26 -32.5 -71 -50.5l-4 -267l-1 -93q0 -113 -70 -174t-201 -61q-125 0 -191.5 60t-63.5 172l2 98l-4 325h162l-7 -401q-1 -64 25.5 -94t84.5 -30t85.5 29.5t26.5 90.5l-7 405h77q60 0 60 49q0 33 -31 59l3 12q44 31 77 31q31 0 52.5 -25t21.5 -63
q0 -40 -26 -72.5zM383.5 -65q20.5 -21 20.5 -58q0 -40 -23 -63.5t-61 -23.5t-58 21t-20 59q0 39 22.5 62.5t61.5 23.5q37 0 57.5 -21z" />
    <glyph glyph-name="uhorndotbelow" unicode="&#x1ef1;" horiz-adv-x="537" 
d="M537.5 596q21.5 -24 21.5 -60q0 -40 -25.5 -73t-65.5 -49l-7 -280q0 -27 20 -27q7 0 22 3l11 -9l-15 -83q-35 -24 -79 -26q-36 1 -58 19t-36 55h-7q-53 -54 -113 -72q-75 0 -115 34.5t-39 98.5l2 112l-5 219l152 12l-2 -285q0 -65 53 -65q34 0 68 30v308l51 7q65 7 65 49
q0 33 -30 58l3 12q43 36 78 36q29 0 50.5 -24zM321.5 -65q20.5 -21 20.5 -58q0 -40 -23 -63.5t-61 -23.5t-58 21t-20 59q0 39 22.5 62.5t61.5 23.5q37 0 57.5 -21z" />
    <glyph glyph-name="Ygrave" unicode="&#x1ef2;" horiz-adv-x="573" 
d="M157 789l-5 13l40 95l14 3q107 -63 215 -116l-25 -66l-15 -4q-131 41 -224 75zM360 0h-162l9 175l-1 35l-206 435h171l15 -48l94 -225h11l106 219l20 54h166l-228 -432l-1 -38z" />
    <glyph glyph-name="ygrave" unicode="&#x1ef3;" horiz-adv-x="457" 
d="M363 581l-37 -60l-14 -1q-107 58 -206 115l-3 14l57 87l14 1q84 -76 189 -156zM232 157h9l67 219l18 92h135l-146 -429q-33 -97 -89 -148.5t-163 -83.5l-12 1q-43 41 -70 96l6 14q110 20 179 82l-171 465l152 6l16 -80z" />
    <glyph glyph-name="Ydotbelow" unicode="&#x1ef4;" horiz-adv-x="573" 
d="M360 0h-162l9 175l-1 35l-206 435h171l15 -48l94 -225h11l106 219l20 54h166l-228 -432l-1 -38zM339.5 -65q20.5 -21 20.5 -58q0 -40 -23 -63.5t-61 -23.5t-58 21t-20 59q0 39 22.5 62.5t61.5 23.5q37 0 57.5 -21z" />
    <glyph glyph-name="ydotbelow" unicode="&#x1ef5;" horiz-adv-x="473" 
d="M232 157h9l67 219l18 92h135l-146 -429q-33 -97 -89 -148.5t-163 -83.5l-12 1q-43 41 -70 96l6 14q110 20 179 82l-171 465l152 6l16 -80zM422 -52.5q19 -19.5 19 -53.5q0 -37 -21 -58.5t-57 -21.5q-73 0 -73 74q0 36 21 57.5t58 21.5q34 0 53 -19.5z" />
    <glyph glyph-name="Yhookabove" unicode="&#x1ef6;" horiz-adv-x="573" 
d="M360 0h-162l8 175l-1 35l-206 435h171l15 -48l94 -225h11l106 219l20 54h167l-228 -431l-2 -39zM336.5 909q25.5 -22 25.5 -56q0 -21 -12.5 -39.5t-45.5 -47.5l25 -40l-55 -33l-47 72q24 18 38.5 38t14.5 35q0 23 -29 23q-35 0 -66 -25l-25 40q50 55 114 55
q37 0 62.5 -22z" />
    <glyph glyph-name="yhookabove" unicode="&#x1ef7;" horiz-adv-x="457" 
d="M231 157h9l67 219l18 92h135l-145 -429q-34 -98 -90 -149.5t-163 -82.5l-12 1q-44 44 -70 96l6 14q111 19 179 82l-170 465l151 6l16 -80zM285.5 732q25.5 -22 25.5 -56q0 -21 -12.5 -39.5t-45.5 -47.5l25 -40l-55 -33l-47 72q24 18 38.5 38t14.5 35q0 23 -29 23
q-35 0 -66 -25l-25 40q50 55 114 55q37 0 62.5 -22z" />
    <glyph glyph-name="endash" unicode="&#x2013;" horiz-adv-x="460" 
d="M467 205h-472l-10 11l8 96h472l10 -11z" />
    <glyph glyph-name="emdash" unicode="&#x2014;" horiz-adv-x="869" 
d="M880 205h-888l-10 11l8 96h887l10 -11z" />
    <glyph glyph-name="quoteleft" unicode="&#x2018;" horiz-adv-x="226" 
d="M34 474q0 84 101 179l54 -35l2 -10q-40 -44 -40 -87q0 -51 41 -78v-12q-52 -40 -100 -60q-58 35 -58 103z" />
    <glyph glyph-name="quoteright" unicode="&#x2019;" horiz-adv-x="226" 
d="M193 551q0 -84 -101 -179l-54 35l-2 10q40 44 40 87q0 51 -41 78v12q52 40 100 60q58 -35 58 -103z" />
    <glyph glyph-name="quotesinglbase" unicode="&#x201a;" horiz-adv-x="228" 
d="M192 59q0 -98 -133 -192l-51 44l-1 12q56 47 56 102q0 36 -33 66l1 14q60 33 115 48q46 -40 46 -94z" />
    <glyph glyph-name="quotedblleft" unicode="&#x201c;" horiz-adv-x="404" 
d="M214 474q0 84 101 179l54 -35l2 -10q-40 -44 -40 -87q0 -51 41 -78v-12q-52 -40 -100 -60q-58 35 -58 103zM32 474q0 84 101 179l54 -35l2 -10q-40 -44 -40 -87q0 -51 41 -78v-12q-52 -40 -100 -60q-58 35 -58 103z" />
    <glyph glyph-name="quotedblright" unicode="&#x201d;" horiz-adv-x="399" 
d="M366 551q0 -84 -101 -179l-54 35l-2 10q40 44 40 87q0 51 -41 78v12q52 40 100 60q58 -35 58 -103zM192 551q0 -84 -101 -179l-54 35l-2 10q40 44 40 87q0 51 -41 78v12q52 40 100 60q58 -35 58 -103z" />
    <glyph glyph-name="quotedblbase" unicode="&#x201e;" horiz-adv-x="410" 
d="M372 59q0 -98 -133 -192l-51 44l-1 12q56 47 56 102q0 36 -33 66l1 14q60 33 115 48q46 -40 46 -94zM192 59q0 -98 -133 -192l-51 44l-1 12q56 47 56 102q0 36 -33 66l1 14q60 33 115 48q46 -40 46 -94z" />
    <glyph glyph-name="dagger" unicode="&#x2020;" horiz-adv-x="511" 
d="M306 311v-21v-377l-97 -7l-10 11v363v31h-150l-10 11l7 94h153l1 168l100 8l9 -9l-2 -167h156l10 -11l-8 -94h-159z" />
    <glyph glyph-name="daggerdbl" unicode="&#x2021;" horiz-adv-x="511" 
d="M473 156l-8 -95h-159v-148l-97 -7l-10 11v144h-150l-10 11l7 94h153v114v44h-150l-10 11l7 94h153l1 155l100 8l9 -9l-2 -154h156l10 -10l-8 -95h-159v-34v-124h157z" />
    <glyph glyph-name="bullet" unicode="&#x2022;" horiz-adv-x="287" 
d="M221.443 376.78q26.6016 -27.251 26.6016 -75.2646q0 -51.9062 -29.8457 -82.4014q-29.8467 -30.4951 -79.1582 -30.4951t-75.2646 27.251t-25.9531 76.5615q0 50.6094 29.1973 81.1045t79.8066 30.4951q48.0137 0 74.6162 -27.251z" />
    <glyph glyph-name="onedotenleader" unicode="&#x2024;" horiz-adv-x="228" 
d="M174.5 137q20.5 -21 20.5 -58q0 -40 -23 -63.5t-61 -23.5t-58 21t-20 59q0 39 22.5 62.5t61.5 23.5q37 0 57.5 -21z" />
    <glyph glyph-name="twodotenleader" unicode="&#x2025;" horiz-adv-x="441" 
d="M382.5 137q20.5 -21 20.5 -58q0 -40 -23 -63.5t-61 -23.5t-58 21t-20 59q0 39 22.5 62.5t61.5 23.5q37 0 57.5 -21zM170.5 137q20.5 -21 20.5 -58q0 -40 -23 -63.5t-61 -23.5t-58 21t-20 59q0 39 22.5 62.5t61.5 23.5q37 0 57.5 -21z" />
    <glyph glyph-name="ellipsis" unicode="&#x2026;" horiz-adv-x="654" 
d="M382.5 137q20.5 -21 20.5 -58q0 -40 -23 -63.5t-61 -23.5t-58 21t-20 59q0 39 22.5 62.5t61.5 23.5q37 0 57.5 -21zM595.5 137q20.5 -21 20.5 -58q0 -40 -23 -63.5t-61 -23.5t-58 21t-20 59q0 39 22.5 62.5t61.5 23.5q37 0 57.5 -21zM170.5 137q20.5 -21 20.5 -58
q0 -40 -23 -63.5t-61 -23.5t-58 21t-20 59q0 39 22.5 62.5t61.5 23.5q37 0 57.5 -21z" />
    <glyph glyph-name="perthousand" unicode="&#x2030;" horiz-adv-x="1244" 
d="M686 630l-465 -723l-67 41l-6 15l466 726l63 -39zM309 606.5q39 -45.5 39 -130.5q0 -93 -43.5 -142t-124.5 -49q-74 0 -114 45.5t-40 130.5q0 92 44 141.5t126 49.5q74 0 113 -45.5zM137.5 532.5q-14.5 -19.5 -14.5 -63.5q0 -48 15 -69.5t49 -21.5t49.5 20.5t15.5 64.5
q0 47 -16 68t-50 21t-48.5 -19.5zM802 315.5q39 -45.5 39 -130.5q0 -93 -43.5 -142t-124.5 -49q-74 0 -114 45.5t-40 130.5q0 92 44 141.5t126 49.5q74 0 113 -45.5zM1177 315.5q39 -45.5 39 -130.5q0 -93 -43 -142t-125 -49q-74 0 -113.5 45.5t-39.5 130.5q0 92 43.5 141.5
t125.5 49.5q74 0 113 -45.5zM630.5 241.5q-14.5 -19.5 -14.5 -63.5q0 -48 15 -69.5t49 -21.5t49.5 20.5t15.5 64.5q0 47 -16 68t-50 21t-48.5 -19.5zM1006 241q-15 -20 -15 -63q0 -47 15 -69t49 -22q35 0 50.5 20.5t15.5 64.5q0 47 -16 68t-51 21q-33 0 -48 -20z" />
    <glyph glyph-name="minute" unicode="&#x2032;" horiz-adv-x="223" 
d="M145 396l-73 -11l-12 10l-6 241l123 8l8 -11z" />
    <glyph glyph-name="second" unicode="&#x2033;" horiz-adv-x="394" 
d="M315 396l-73 -11l-12 10l-6 241l123 8l8 -11zM145 396l-73 -11l-12 10l-6 241l123 8l8 -11z" />
    <glyph glyph-name="guilsinglleft" unicode="&#x2039;" horiz-adv-x="250" 
d="M23 238l131 181l74 -39l3 -15l-94 -137l94 -136l-3 -14l-74 -39l-131 175v24z" />
    <glyph glyph-name="guilsinglright" unicode="&#x203a;" horiz-adv-x="252" 
d="M232 222l-131 -181l-74 39l-3 15l94 137l-94 136l3 14l74 39l131 -175v-24z" />
    <glyph glyph-name="fraction" unicode="&#x2044;" horiz-adv-x="118" 
d="M311 630l-465 -723l-67 41l-6 15l466 726l63 -39z" />
    <glyph glyph-name="zerosuperior" unicode="&#x2070;" horiz-adv-x="375" 
d="M309 658.5q39 -49.5 39 -143.5q0 -101 -43.5 -155t-124.5 -54q-74 0 -114 49.5t-40 142.5q0 101 44 155.5t126 54.5q74 0 113 -49.5zM137.5 576.5q-14.5 -21.5 -14.5 -69.5q0 -52 15 -75.5t49 -23.5t49.5 22.5t15.5 70.5q0 51 -15.5 74t-50.5 23q-34 0 -48.5 -21.5z" />
    <glyph glyph-name="foursuperior" unicode="&#x2074;" horiz-adv-x="374" 
d="M296 392l5 -72l-7 -8l-97 -5l-6 7l2 79h-95l-73 -3l-8 10v74l165 227h114l-2 -219h50l7 -10l-5 -82zM195 482v90h-7l-66 -90h73z" />
    <glyph glyph-name="fivesuperior" unicode="&#x2075;" horiz-adv-x="328" 
d="M288 609l-9 -8l-72 8h-64l-1 -47l43 -9q57 -12 84.5 -38t27.5 -70q0 -63 -51 -101.5t-135 -38.5q-35 0 -87 8l-7 84l8 8q41 -11 86 -11q67 0 67 39q0 16 -11 24.5t-38 13.5l-74 11l-7 9v199l13 12l42 -1h111l78 4l7 -7z" />
    <glyph glyph-name="sixsuperior" unicode="&#x2076;" horiz-adv-x="356" 
d="M302 523.5q32 -34.5 32 -83.5q0 -35 -17.5 -66t-53 -50t-86.5 -19q-73 0 -114 40.5t-41 111.5q0 77 52.5 142.5t147.5 108.5h6l79 -52v-11q-64 -25 -99 -45.5t-52 -47.5l4 -5q27 11 54 11q56 0 88 -34.5zM223 429q0 48 -46 48q-22 0 -43 -10v-9q0 -41 9 -60t36 -19
q44 0 44 50z" />
    <glyph glyph-name="sevensuperior" unicode="&#x2077;" horiz-adv-x="316" 
d="M257 701l37 1l1 -86l-95 -197l-46 -115l-99 26l-8 18l127 256h-83l-72 -7l-6 9l8 97l91 -2h145z" />
    <glyph glyph-name="eightsuperior" unicode="&#x2078;" horiz-adv-x="370" 
d="M290.5 680q34.5 -27 34.5 -72q0 -52 -58 -87v-5q68 -33 68 -90q0 -56 -43.5 -88.5t-117.5 -32.5q-68 0 -105 28t-37 72q0 60 75 90v4q-64 32 -64 92q0 54 41 85t111 31q61 0 95.5 -27zM144 595q0 -16 13.5 -26.5t39.5 -21.5q32 24 32 47q0 16 -11.5 25t-30.5 9
q-43 0 -43 -33zM134 422q0 -19 13 -30t37 -11q25 0 38 10.5t13 25.5q0 17 -15 27.5t-45 21.5q-41 -14 -41 -44z" />
    <glyph glyph-name="ninesuperior" unicode="&#x2079;" horiz-adv-x="357" 
d="M294.5 667q41.5 -41 41.5 -112q0 -78 -52.5 -143t-148.5 -107h-6l-78 51v12q63 24 98.5 44.5t52.5 46.5l-5 5q-27 -10 -54 -10q-56 0 -88 35t-32 84q0 35 17.5 65.5t53.5 50t87 19.5q72 0 113.5 -41zM224 545v9q0 41 -9.5 60t-36.5 19q-44 0 -44 -49q0 -48 46 -48
q20 0 44 9z" />
    <glyph glyph-name="franc" unicode="&#x20a3;" horiz-adv-x="414" 
d="M201 301h72l99 2l7 -9l-8 -97l-108 2h-64l-1 -36l1 -25h108l6 -7l-4 -52h-108l2 -79h-134l3 79h-56l-5 7l4 52h60v11l-6 357h348l8 -10l-10 -96l-135 4h-76z" />
    <glyph glyph-name="Euro" unicode="&#x20ac;" horiz-adv-x="459" 
d="M2 278l4 65h70q23 84 86.5 128.5t161.5 44.5q66 0 127 -23l-24 -117l-10 -6q-47 25 -99 25q-65 0 -85 -52h123l6 -7l-4 -66h-351zM426 133l13 -8l-12 -116q-50 -17 -112 -17q-206 0 -244 170h-64l-5 7l4 66h350l6 -8l-4 -65h-121q24 -50 87 -50q51 0 102 21z" />
    <glyph glyph-name="uni2113" unicode="&#x2113;" horiz-adv-x="271" 
d="M214 0h-158l8 192l-6 499l157 11l-8 -495z" />
    <glyph glyph-name="trademark" unicode="&#x2122;" horiz-adv-x="593" 
d="M223 638l-4 -57l-52 3h-6l-3 -102l4 -78h-78l4 70l-1 110h-7l-53 -3l-5 6l5 56h192zM479 404l-2 73l-5 54h-5l-42 -105h-59l-36 105h-4l-6 -47l-4 -80h-66l26 239h91l7 -34l24 -81h5l26 78l9 37h90l20 -239h-69z" />
    <glyph glyph-name="Ohm" unicode="&#x2126;" horiz-adv-x="758" 
d="M546.5 620.5q66.5 -34.5 100 -96t33.5 -142.5q0 -138 -104 -257l3 -4h67l85 9l8 -10l-18 -127l-123 7h-145l-37 -3l-8 6v95q102 101 102 252q0 87 -32 131t-102 44q-68 0 -98.5 -42t-30.5 -126q0 -152 101 -259v-95l-7 -6l-37 3h-174l-103 -5l-8 10l18 123l94 -8l47 1
l2 4q-103 114 -103 246q0 83 36 147t105.5 100.5t166.5 36.5q95 0 161.5 -34.5z" />
    <glyph glyph-name="estimated" unicode="&#x212e;" horiz-adv-x="787" 
d="M588.5 605.5q84.5 -44.5 134 -120.5t49.5 -166v-7h-597q-5 0 -5 -5v-181q0 -10 9 -21q43 -45 101.5 -70.5t124.5 -25.5q71 0 133.5 28.5t107.5 78.5h49q-51 -59 -127.5 -93t-163.5 -34q-99 0 -184 44.5t-134.5 120t-49.5 165.5t49.5 166t134 120.5t184.5 44.5
t184.5 -44.5zM281.5 605q-57.5 -25 -101.5 -70q-10 -10 -10 -23v-176q0 -6 5 -6h458q6 0 6 6v180q0 12 -10 22q-44 44 -101.5 68t-122.5 24q-66 0 -123.5 -25z" />
    <glyph glyph-name="oneeighth" unicode="&#x215b;" horiz-adv-x="787" 
d="M611 630l-465 -723l-67 41l-6 15l466 726l63 -39zM211 396l4 -139h-125l5 127v133l-80 -15l-8 6v95l192 48l17 -12zM708.5 368q34.5 -27 34.5 -72q0 -52 -58 -87v-5q68 -33 68 -90q0 -56 -43.5 -88.5t-117.5 -32.5q-68 0 -105 28t-37 72q0 60 75 90v4q-64 32 -64 92
q0 54 41 85t111 31q61 0 95.5 -27zM562 283q0 -16 13.5 -26.5t39.5 -21.5q32 24 32 47q0 16 -11.5 25t-30.5 9q-43 0 -43 -33zM552 110q0 -19 13 -30t37 -11q25 0 38 10.5t13 25.5q0 17 -15 27.5t-45 21.5q-41 -14 -41 -44z" />
    <glyph glyph-name="threeeighths" unicode="&#x215c;" horiz-adv-x="827" 
d="M651 630l-465 -723l-67 41l-6 15l466 726l63 -39zM253 625.5q37 -26.5 37 -69.5q0 -59 -61 -91v-4q70 -20 70 -90q0 -55 -51 -88t-136 -33q-41 0 -81 8l-7 86l8 7q45 -12 82 -12q66 0 66 36q0 29 -41 30h-56l-6 7l2 80l32 1q23 1 38.5 11.5t15.5 27.5q0 26 -37 26
q-30 0 -78 -23h-13l-19 80q63 37 137 37q61 0 98 -26.5zM748.5 368q34.5 -27 34.5 -72q0 -52 -58 -87v-5q68 -33 68 -90q0 -56 -43.5 -88.5t-117.5 -32.5q-68 0 -105 28t-37 72q0 60 75 90v4q-64 32 -64 92q0 54 41 85t111 31q61 0 95.5 -27zM602 283q0 -16 13.5 -26.5
t39.5 -21.5q32 24 32 47q0 16 -11.5 25t-30.5 9q-43 0 -43 -33zM592 110q0 -19 13 -30t37 -11q25 0 38 10.5t13 25.5q0 17 -15 27.5t-45 21.5q-41 -14 -41 -44z" />
    <glyph glyph-name="fiveeighths" unicode="&#x215d;" horiz-adv-x="808" 
d="M632 630l-465 -723l-67 41l-6 15l466 726l63 -39zM288 554l-9 -8l-72 8h-64l-1 -47l43 -9q57 -12 84.5 -38t27.5 -70q0 -63 -51 -101.5t-135 -38.5q-35 0 -87 8l-7 84l8 8q41 -11 86 -11q67 0 67 39q0 16 -11 24.5t-38 13.5l-74 11l-7 9v199l13 12l42 -1h111l78 4l7 -7z
M729.5 368q34.5 -27 34.5 -72q0 -52 -58 -87v-5q68 -33 68 -90q0 -56 -43.5 -88.5t-117.5 -32.5q-68 0 -105 28t-37 72q0 60 75 90v4q-64 32 -64 92q0 54 41 85t111 31q61 0 95.5 -27zM583 283q0 -16 13.5 -26.5t39.5 -21.5q32 24 32 47q0 16 -11.5 25t-30.5 9
q-43 0 -43 -33zM573 110q0 -19 13 -30t37 -11q25 0 38 10.5t13 25.5q0 17 -15 27.5t-45 21.5q-41 -14 -41 -44z" />
    <glyph glyph-name="seveneighths" unicode="&#x215e;" horiz-adv-x="785" 
d="M608 630l-465 -723l-67 41l-6 15l466 726l63 -39zM257 646l37 1l1 -86l-95 -197l-46 -115l-99 26l-8 18l127 256h-83l-72 -7l-6 9l8 97l91 -2h145zM705.5 368q34.5 -27 34.5 -72q0 -52 -58 -87v-5q68 -33 68 -90q0 -56 -43.5 -88.5t-117.5 -32.5q-68 0 -105 28t-37 72
q0 60 75 90v4q-64 32 -64 92q0 54 41 85t111 31q61 0 95.5 -27zM559 283q0 -16 13.5 -26.5t39.5 -21.5q32 24 32 47q0 16 -11.5 25t-30.5 9q-43 0 -43 -33zM549 110q0 -19 13 -30t37 -11q25 0 38 10.5t13 25.5q0 17 -15 27.5t-45 21.5q-41 -14 -41 -44z" />
    <glyph glyph-name="arrowleft" unicode="&#x2190;" horiz-adv-x="539" 
d="M24 226v24l198 206l87 -19v-20l-123 -130l315 6l10 -11l-6 -98l-320 7l124 -131v-20l-87 -19z" />
    <glyph glyph-name="arrowup" unicode="&#x2191;" horiz-adv-x="539" 
d="M258 486h24l206 -198l-19 -87h-20l-130 123l6 -315l-11 -10l-98 6l7 320l-131 -124h-20l-19 87z" />
    <glyph glyph-name="arrowright" unicode="&#x2192;" horiz-adv-x="539" 
d="M514 252v-24l-198 -206l-87 19v20l123 130l-315 -6l-10 11l6 98l320 -7l-124 131v20l87 19z" />
    <glyph glyph-name="arrowdown" unicode="&#x2193;" horiz-adv-x="539" 
d="M282 -9h-24l-206 198l19 87h20l130 -123l-6 315l11 10l98 -6l-7 -320l131 124h20l19 -87z" />
    <glyph glyph-name="arrowupleft" unicode="&#x2196;" horiz-adv-x="539" 
d="M92.2715 405.997l16.9678 16.9678l285.615 5.65527l48.0742 -74.9385l-14.1396 -14.1396l-178.863 -4.94922l226.938 -218.453l-0.707031 -14.8467l-73.5244 -65.041l-221.282 231.179l-4.94824 -180.277l-14.1396 -14.1396l-74.9385 48.0742z" />
    <glyph glyph-name="arrowupright" unicode="&#x2197;" horiz-adv-x="539" 
d="M427.997 427.729l16.9678 -16.9678l5.65527 -285.615l-74.9385 -48.0742l-14.1396 14.1396l-4.94922 178.863l-218.453 -226.938l-14.8467 0.707031l-65.041 73.5244l231.179 221.282l-180.277 4.94824l-14.1396 14.1396l48.0742 74.9385z" />
    <glyph glyph-name="arrowdownright" unicode="&#x2198;" horiz-adv-x="539" 
d="M444.729 67.0029l-16.9678 -16.9678l-285.615 -5.65527l-48.0742 74.9385l14.1396 14.1396l178.863 4.94922l-226.938 218.453l0.707031 14.8467l73.5244 65.041l221.282 -231.179l4.94824 180.277l14.1396 14.1396l74.9385 -48.0742z" />
    <glyph glyph-name="arrowdownleft" unicode="&#x2199;" horiz-adv-x="539" 
d="M111.003 53.2715l-16.9678 16.9678l-5.65527 285.615l74.9385 48.0742l14.1396 -14.1396l4.94922 -178.863l218.453 226.938l14.8467 -0.707031l65.041 -73.5244l-231.179 -221.282l180.277 -4.94824l14.1396 -14.1396l-48.0742 -74.9385z" />
    <glyph glyph-name="partialdiff" unicode="&#x2202;" horiz-adv-x="523" 
d="M418.5 529.5q86.5 -113.5 86.5 -261.5q0 -129 -66 -204t-184 -75q-76 0 -128 30.5t-78 81.5t-26 114q0 60 23.5 111.5t69 82.5t108.5 31q43 -1 85 -24l10 9q-33 69 -100 117.5t-173 83.5v13l114 80h10q162 -76 248.5 -189.5zM353 258q0 24 -1 35q-49 30 -89 30
q-91 0 -91 -109q0 -55 22.5 -85t65.5 -30q93 0 93 159z" />
    <glyph glyph-name="increment" unicode="&#x2206;" horiz-adv-x="611" 
d="M6 0l208 645h195l189 -645h-592zM188 121h222l-97 376h-10z" />
    <glyph glyph-name="product" unicode="&#x220f;" horiz-adv-x="709" 
d="M601 207l7 -207h-163l8 191l-6 328h-192l-6 -312l6 -207h-163l9 191l-6 326l-52 -2l-10 12l10 118h625l9 -12l-10 -118l-60 2z" />
    <glyph glyph-name="summation" unicode="&#x2211;" horiz-adv-x="528" 
d="M490 518l-105 6h-162l178 -188v-24l-177 -192h153l121 8l10 -12l-11 -118l-155 2h-215l-98 -2v112l195 213l-194 202v121l91 -1h249l120 2l10 -12z" />
    <glyph glyph-name="minus" unicode="&#x2212;" horiz-adv-x="480" 
d="M453 205h-423l-10 11l8 95h422l11 -10z" />
    <glyph glyph-name="divisionslash" unicode="&#x2215;" horiz-adv-x="282" 
d="M107 -116h-110l-9 12l207 785h107l12 -13z" />
    <glyph glyph-name="bulletoperator" unicode="&#x2219;" horiz-adv-x="287" 
d="M221.5 331q26.5 -27 26.5 -76q0 -52 -29.5 -82t-79.5 -30q-49 0 -75.5 26.5t-26.5 76.5q0 51 29.5 81.5t80.5 30.5q48 0 74.5 -27z" />
    <glyph glyph-name="radical" unicode="&#x221a;" horiz-adv-x="499" 
d="M156 0l-90 360h-94l-4 6l3 102h199l6 -7l75 -325h10l172 564l12 10h105l-224 -710h-170z" />
    <glyph glyph-name="infinity" unicode="&#x221e;" horiz-adv-x="480" 
d="M454 374q36 -43 36 -115q0 -74 -37 -115t-96 -41q-66 0 -111 70q-43 -70 -123 -70q-64 0 -100 43t-36 115q0 74 36 115t96 41q37 0 63 -16.5t50 -51.5q44 68 123 68q63 0 99 -43zM75 262q0 -27 13 -42t35 -15q25 0 41 18t31 52q-29 45 -67 45q-53 0 -53 -58zM312 298
q-15 -18 -29 -52q29 -47 67 -47q24 0 38 15.5t14 44.5q0 27 -13 42t-36 15q-26 0 -41 -18z" />
    <glyph glyph-name="integral" unicode="&#x222b;" horiz-adv-x="305" 
d="M372 702l-9 -112l-11 -7q-48 20 -81 20q-48 0 -49 -52l2 -496q1 -74 -31 -122.5t-109 -88.5l-69 67v13q36 25 51.5 53.5t14.5 73.5l-5 474q-1 89 55 137.5t157 48.5q42 0 84 -9z" />
    <glyph glyph-name="approxequal" unicode="&#x2248;" horiz-adv-x="480" 
d="M133.5 314q-13.5 -11 -27.5 -26t-19 -21h-14l-42 52v14l86 101l14 7q37 -7 103 -28q89 -27 109 -27q14 0 27.5 11.5t27.5 26.5t19 20h13l41 -52v-13l-85 -102l-14 -5q-27 4 -111 29q-86 24 -100 24t-27.5 -11zM133.5 117q-13.5 -11 -27.5 -26t-19 -21h-14l-42 52v14
l86 101l14 7q37 -7 103 -28q89 -27 109 -27q14 0 27.5 11.5t27.5 26.5t19 20h13l41 -52v-13l-85 -102l-14 -5q-27 4 -111 29q-86 24 -100 24t-27.5 -11z" />
    <glyph glyph-name="notequal" unicode="&#x2260;" horiz-adv-x="480" 
d="M461 201l-8 -96h-201l-32 -140h-99l-8 12l30 128h-113l-10 11l8 95h140l22 93h-160l-10 11l8 95h186l33 139h96l10 -11l-30 -128h127l11 -10l-8 -96h-154l-22 -93h173z" />
    <glyph glyph-name="lessequal" unicode="&#x2264;" horiz-adv-x="480" 
d="M440 373l-297 -107v-8l297 -104l-22 -89l-13 -10l-372 139v128l10 14l370 139l33 -91zM453 -128h-423l-10 11l8 95h422l11 -10z" />
    <glyph glyph-name="greaterequal" unicode="&#x2265;" horiz-adv-x="480" 
d="M447 322v-128l-372 -139l-13 10l-22 89l297 104v8l-297 107l-6 11l33 91l370 -139zM453 -128h-423l-10 11l8 95h422l11 -10z" />
    <glyph glyph-name="lozenge" unicode="&#x25ca;" horiz-adv-x="521" 
d="M485 302l-1 -43l-154 -343l-122 -5l-13 6l-154 340v41l155 345l123 6l10 -6zM143 274l118 -252h7l114 258l-119 258h-7z" />
    <glyph glyph-name="dieresisacute" unicode="&#xf6d7;" 
d="M324 765l-7 -13q-136 -23 -234 -33l-14 6l-13 69q112 33 232 77l13 -6zM156.5 657q17.5 -18 17.5 -51q0 -35 -19.5 -55t-53.5 -20q-33 0 -51 18t-18 51q0 35 20.5 55t54.5 20q32 0 49.5 -18zM338 657q18 -18 18 -51q0 -35 -19.5 -55t-53.5 -20q-33 0 -51 18t-18 51
q0 35 20 55t54 20q32 0 50 -18z" />
    <glyph glyph-name="dieresisgrave" unicode="&#xf6d8;" 
d="M324 794l-13 -69l-14 -6q-102 11 -233 33l-8 13l23 100l14 6q116 -43 231 -77zM156.5 657q17.5 -18 17.5 -51q0 -35 -19.5 -55t-53.5 -20q-33 0 -51 18t-18 51q0 35 20.5 55t54.5 20q32 0 49.5 -18zM338 657q18 -18 18 -51q0 -35 -19.5 -55t-53.5 -20q-33 0 -51 18
t-18 51q0 35 20 55t54 20q32 0 50 -18z" />
    <glyph glyph-name="Iacute_J.loclNLD" horiz-adv-x="654" 
d="M233 0h-163l9 191l-9 454h166l-9 -438zM307 802l-5 -13q-93 -34 -224 -75l-15 4l-25 66q108 53 215 116l14 -3zM578 122q0 -59 -19.5 -100.5t-64.5 -72.5t-124 -58l-46 85v14q58 29 81 59t23 77v71l-6 332l-97 -3l-10 11l7 108h263l-9 -432zM617 802l-5 -13
q-93 -34 -224 -75l-15 4l-25 66q108 53 215 116l14 -3z" />
    <glyph glyph-name="Q.corta" horiz-adv-x="654" 
d="M592 -185l-12 -6q-147 89 -250 180h-18q-138 0 -213 84.5t-75 239.5q0 164 81.5 253t230.5 89q138 0 213 -82.5t75 -235.5q0 -112 -38.5 -191t-110.5 -119q87 -52 188 -92l6 -15q-34 -66 -77 -105zM206 201.5q13 -47.5 42 -68.5t78 -21q47 0 74.5 18.5t40.5 61t13 114.5
q0 83 -13 130.5t-42 68t-78 20.5q-47 0 -75 -18.5t-40.5 -60t-12.5 -113.5q0 -84 13 -131.5z" />
    <glyph glyph-name="C.ss01" horiz-adv-x="451" 
d="M210.5 359.5q-24.5 -28.5 -24.5 -93.5q0 -145 110 -145q55 0 106 22l12 -8l-8 -80h145v-55h-651v55h209q-75 63 -75 195q0 137 86 203h-220v55h651v-55h-130l-18 -87l-11 -6q-46 28 -105 28q-52 0 -76.5 -28.5z" />
    <glyph glyph-name="D.ss01" horiz-adv-x="572" 
d="M464 453q73 -59 73 -180q0 -147 -89 -218h224v-55h-772v55h175l5 97l-6 301h-174v55h772v-55h-208zM291 110q95 0 95 128q0 82 -22.5 115.5t-75.5 33.5q-32 0 -70 -3l-6 -218l2 -49q45 -7 77 -7z" />
    <glyph glyph-name="I.ss01" horiz-adv-x="289" 
d="M213 55h176v-55h-489v55h168l4 94l-6 304h-166v55h489v-55h-172l-8 -289z" />
    <glyph glyph-name="L.ss01" horiz-adv-x="413" 
d="M205 166l2 -40h163l8 -11l-5 -60h140v-55h-613v55h166l5 96l-6 302h-165v55h613v-55h-300z" />
    <glyph glyph-name="M.ss01" horiz-adv-x="688" 
d="M624 55h164v-55h-888v55h157l41 398h-198v55h888v-55h-199zM278 453l6 -24l53 -156h9l58 153l9 27h-135zM498 174l-10 124h-8l-92 -208h-109l-79 208h-8l-12 -113l-5 -130h326z" />
    <glyph glyph-name="V.ss01" horiz-adv-x="527" 
d="M362 55h265v-55h-727v55h260l-119 398h-141v55h727v-55h-133zM180 453l6 -34l73 -280h9l86 271l7 43h-181z" />
    <glyph glyph-name="X.ss01" horiz-adv-x="544" 
d="M495 55h149v-55h-744v55h160l132 193l-133 205h-159v55h744v-55h-161l-122 -185zM227 428l54 -79l60 85l9 19h-135zM327 84l-57 81l-67 -88l-11 -22h148z" />
    <glyph glyph-name="i.loclTRK" horiz-adv-x="261" 
d="M193.5 687q20.5 -21 20.5 -58q0 -40 -23 -63.5t-61 -23.5t-58 21t-20 59q0 39 22.5 62.5t61.5 23.5q37 0 57.5 -21zM209 0h-158l8 191l-6 267l157 12l-8 -263z" />
    <glyph glyph-name="germandbls.calt" horiz-adv-x="686" 
d="M480 638q63 -17 140 -53l7 -21l-133 -181q71 -41 106 -66.5t54 -57.5t19 -78q0 -62 -31 -105t-83 -64.5t-116 -21.5q-96 0 -179 40l23 145l17 10q39 -34 78.5 -53.5t70.5 -19.5q27 0 43 14t16 36q0 31 -44.5 63.5t-161.5 86.5l-5 22l126 173q-48 19 -92 19
q-63 0 -92 -28.5t-28 -87.5l-4 -203l6 -207h-163l9 190l-4 220q-1 113 74 179t215 66q69 0 132 -17z" />
    <glyph glyph-name="f.f" horiz-adv-x="333" 
d="M242 207l7 -207h-158l8 192l-3 178h-70l-4 8l7 86h65v28q0 96 56.5 147t161.5 51q41 0 82 -9l-9 -111l-10 -7q-48 18 -77 18q-50 0 -51 -60l-1 -57h235l4 -9l-7 -85h-233z" />
    <glyph glyph-name="iacute_j.loclNLD" horiz-adv-x="555" 
d="M209 0h-158l8 191l-6 267l157 12l-8 -263zM285 649l-3 -14q-99 -57 -206 -115l-14 1l-37 60q105 80 189 156l14 -1zM490 207l7 -177q0 -79 -41.5 -133t-132.5 -93l-54 70v14q41 22 59.5 55t18.5 83v165l-4 179h-73l-9 9l7 85h79l147 7l5 -3zM560 649l-3 -14
q-99 -57 -206 -115l-14 1l-37 60q105 80 189 156l14 -1z" />
    <glyph glyph-name="f.l" horiz-adv-x="361" 
d="M490 681l-34 -111l-10 -7q-79 36 -132 36q-67 0 -68 -69l-1 -66h110l5 -9l-7 -85h-109l-2 -164l7 -206h-158l8 191l-3 179h-70l-4 8l7 86h66l-1 43q0 98 59 150.5t168 52.5q74 0 169 -29z" />
    <glyph glyph-name="a.sups" horiz-adv-x="350" 
d="M273 628.5q32 -24.5 32 -70.5q0 -28 -3 -73l-2 -61q0 -19 11 -19q10 0 14 3l8 -7l-11 -61q-24 -19 -54 -19q-27 0 -40.5 10.5t-21.5 37.5h-4q-30 -35 -71 -49q-51 1 -80.5 28t-29.5 74q0 73 76 85l99 14l1 15q0 36 -36 36q-39 0 -99 -34l-8 4l-13 76q67 35 139 35
q61 0 93 -24.5zM127 433q0 -32 29 -32q20 0 40 17v50l-47 -8q-22 -5 -22 -27z" />
    <glyph glyph-name="b.sups" horiz-adv-x="371" 
d="M319 608.5q33 -40.5 33 -114.5q0 -84 -43.5 -129.5t-119.5 -45.5q-41 0 -91 16l-50 -15l-10 11l4 125l-4 339l118 8l-4 -204h3q32 38 70 50q61 0 94 -40.5zM242 479q0 78 -53 78q-17 0 -38 -13l-1 -73l1 -73q18 -5 29 -5q62 0 62 86z" />
    <glyph glyph-name="c.sups" horiz-adv-x="268" 
d="M264 635l-20 -89l-8 -5q-36 17 -55 17q-50 0 -50 -64q0 -82 57 -82q25 0 61 12l9 -7l-12 -86q-40 -12 -86 -12q-67 0 -104 42.5t-37 119.5q0 82 42.5 127t119.5 45q45 0 83 -18z" />
    <glyph glyph-name="d.sups" horiz-adv-x="375" 
d="M340 405q9 0 15 3l8 -7l-13 -61q-24 -19 -61 -19q-24 0 -38.5 10t-23.5 36h-5q-29 -32 -66 -46q-64 0 -100.5 43t-36.5 117q0 83 44.5 127t122.5 44q-7 0 32 -3l-2 146l117 8l-5 -380q0 -18 12 -18zM142 555q-13 -17 -13 -59q0 -87 48 -87q21 0 44 20l-3 138q-14 5 -34 5
q-29 0 -42 -17z" />
    <glyph glyph-name="e.sups" horiz-adv-x="337" 
d="M130 463q5 -30 21.5 -44t49.5 -14q47 0 101 19l8 -7l-12 -81q-54 -17 -107 -17q-82 0 -127 44t-45 123q0 78 43.5 122t118.5 44q67 0 103 -35t36 -98q0 -24 -3 -44l-8 -12h-179zM219 533q0 20 -11.5 31.5t-30.5 11.5q-41 0 -48 -58l89 1z" />
    <glyph glyph-name="f.sups" horiz-adv-x="223" 
d="M292 799l-6 -86l-8 -6q-39 16 -61 16q-35 0 -35 -36v-45h75l2 -6l-5 -62h-73l-1 -106l4 -141h-117l5 129l-2 118h-47l-4 6l5 62h45v24q0 67 42 103t119 36q30 0 62 -6z" />
    <glyph glyph-name="g.sups" horiz-adv-x="354" 
d="M325 584l-1 -2q8 -19 8 -38q0 -53 -40 -83t-110 -30q-21 0 -39 3q-4 -7 -4 -11q0 -11 14.5 -14.5t47.5 -6.5q43 -4 70.5 -10.5t48.5 -25t21 -54.5q0 -53 -44.5 -85.5t-119.5 -32.5q-67 0 -104 24.5t-37 65.5q17 24 55 47v4q-48 19 -48 68q18 20 51 42v4q-55 28 -55 90
q0 53 39.5 83t108.5 30q41 0 74 -14q47 10 100 32l9 -7v-73q-20 -4 -45 -6zM228 541q0 21 -10 30t-32 9q-44 0 -44 -39q0 -41 43 -41t43 41zM223.5 309.5q-17.5 5.5 -53.5 9.5l-23 3q-16 -13 -16 -28q0 -35 56 -35q54 0 54 31q0 14 -17.5 19.5z" />
    <glyph glyph-name="h.sups" horiz-adv-x="379" 
d="M232 511q0 45 -38 45q-21 0 -42 -14l-1 -74l5 -141h-118l5 130l-4 338l117 8l-3 -204h3q42 40 83 49q50 0 76.5 -22.5t25.5 -65.5l-2 -92l4 -141h-118z" />
    <glyph glyph-name="i.sups" horiz-adv-x="193" 
d="M142.5 797.5q14.5 -15.5 14.5 -43.5q0 -29 -16.5 -46t-44.5 -17q-56 0 -56 59q0 29 16.5 46t45.5 17q26 0 40.5 -15.5zM156 327h-118l6 130l-4 182l116 8l-5 -179z" />
    <glyph glyph-name="j.sups" horiz-adv-x="217" 
d="M147 797.5q15 -15.5 15 -43.5q0 -29 -16.5 -46t-45.5 -17q-58 0 -58 59q0 28 17 45.5t45 17.5t43 -15.5zM163 468l5 -119q0 -54 -28.5 -91.5t-89.5 -63.5l-39 52v10q45 28 45 90v111l-1 98l-44 -2l-6 8l6 81h46l109 6l3 -3z" />
    <glyph glyph-name="k.sups" horiz-adv-x="362" 
d="M344 369l15 -22l-1 -13q-41 -8 -110 -15l-12 6q-54 87 -85 162v-19l5 -141h-118l5 130l-4 338l117 8l-4 -299l65 105l15 36h121l-92 -142q21 -38 83 -134z" />
    <glyph glyph-name="l.sups" horiz-adv-x="192" 
d="M155 327h-117l5 130l-4 338l116 8l-4 -335z" />
    <glyph glyph-name="m.sups" horiz-adv-x="569" 
d="M422 512q0 46 -38 46q-20 0 -43 -14l-2 -76l5 -141h-117l6 185q0 46 -39 46q-20 0 -45 -17v-73l5 -141h-116l5 130l-4 182l110 8v-48h5q44 40 85 49q76 0 96 -50h4q42 40 90 50q50 0 76.5 -22.5t26.5 -65.5l-3 -92l4 -141h-116z" />
    <glyph glyph-name="n.sups" horiz-adv-x="379" 
d="M232 511q0 45 -39 45q-21 0 -42 -14v-74l5 -141h-118l5 130l-4 182l112 8v-48h5q40 40 84 49q50 0 76 -22.5t25 -65.5l-2 -92l4 -141h-118z" />
    <glyph glyph-name="o.sups" horiz-adv-x="351" 
d="M331 493q0 -174 -162 -174q-74 0 -112 41t-38 120q0 173 162 173q150 0 150 -160zM139.5 556q-9.5 -17 -9.5 -62q0 -56 10.5 -77t36.5 -21q25 0 35 18t10 65q0 54 -10.5 74t-37.5 20q-25 0 -34.5 -17z" />
    <glyph glyph-name="p.sups" horiz-adv-x="383" 
d="M317 608.5q33 -40.5 33 -113.5q0 -85 -43.5 -130.5t-120.5 -45.5q-17 0 -35 3l2 -120h-115l4 255l-4 182l111 8v-47h5q33 38 70 49q60 0 93 -40.5zM224 413q15 20 15 66q0 40 -12.5 58.5t-39.5 18.5q-21 0 -38 -13v-75l1 -70q18 -5 29 -5q30 0 45 20z" />
    <glyph glyph-name="q.sups" horiz-adv-x="366" 
d="M330 647l-4 -180l3 -265h-115l5 143v15h-4q-32 -31 -59 -39q-64 0 -100.5 43.5t-36.5 116.5q0 83 44.5 127t117.5 44q36 0 86 -16l55 17zM141.5 555.5q-12.5 -16.5 -12.5 -59.5q0 -87 47 -87q23 0 43 19v138q-14 6 -37 6q-28 0 -40.5 -16.5z" />
    <glyph glyph-name="r.sups" horiz-adv-x="256" 
d="M252 645v-102l-12 -4q-13 3 -24 3q-34 0 -65 -32v-42l5 -141h-118l5 130l-4 182l112 8v-61h5q32 60 80 60q9 0 16 -1z" />
    <glyph glyph-name="s.sups" horiz-adv-x="280" 
d="M255 636l-16 -82l-13 -5q-47 29 -81 29q-25 0 -25 -19q0 -10 11.5 -17t34.5 -15q44 -17 69 -37t25 -62q0 -45 -34.5 -77t-101.5 -32q-51 0 -111 18l13 88l10 8q25 -19 52.5 -30t47.5 -11q27 0 27 18q0 11 -11 17.5t-36 16.5q-44 17 -69 37.5t-25 61.5q0 48 36.5 78.5
t100.5 30.5q46 0 96 -16z" />
    <glyph glyph-name="t.sups" horiz-adv-x="242" 
d="M226 420l7 -10l-9 -63q-39 -19 -69 -24q-52 0 -80.5 24t-27.5 64l2 71v92h-42l-3 6l5 62h40v65l109 24l7 -7l-2 -82h69l3 -6l-5 -62h-69l-4 -117q0 -44 34 -44q14 0 35 7z" />
    <glyph glyph-name="u.sups" horiz-adv-x="373" 
d="M341 405q8 0 14 3l8 -7l-12 -61q-25 -19 -56 -19q-26 0 -41.5 12t-26.5 41h-5q-38 -42 -80 -50q-49 0 -76 23t-27 66l3 69l-4 157l111 8v-188q0 -43 34 -43q22 0 40 17v206l112 8l-6 -223q0 -19 12 -19z" />
    <glyph glyph-name="v.sups" horiz-adv-x="313" 
d="M159 436h7l41 145l11 64h102l-100 -318h-128l-85 317l111 4l8 -60z" />
    <glyph glyph-name="w.sups" horiz-adv-x="492" 
d="M149 445h6l34 139l10 61h117l6 -54l28 -144h7l31 137l12 61h99l-96 -318h-112l-37 172h-8l-42 -172h-117l-80 317l108 4l7 -57z" />
    <glyph glyph-name="x.sups" horiz-adv-x="331" 
d="M174 553l33 56l18 36h101l-89 -157l90 -157l-124 -9l-17 46l-29 53l-35 -58l-16 -36h-103l89 159l-88 157l126 4l15 -42z" />
    <glyph glyph-name="y.sups" horiz-adv-x="308" 
d="M154 443h7l41 137l13 65h100l-99 -288q-22 -67 -59 -101t-116 -60l-9 1q-25 24 -51 70l4 11q71 11 120 49l-118 317l112 4l11 -57z" />
    <glyph glyph-name="z.sups" horiz-adv-x="308" 
d="M241 645l41 1l1 -69l-138 -179h78l60 5l7 -8l-8 -70l-90 2h-119l-53 -3v69l139 181h-73l-61 -4l-6 8l8 69l75 -2h139z" />
    <glyph glyph-name="f.t" horiz-adv-x="336" 
d="M242 207l7 -207h-158l8 192l-3 178h-70l-4 8l7 86h65v28q0 96 56.5 147t159.5 51q38 0 72 -7l-9 -111l-10 -7q-41 16 -67 16q-48 0 -49 -60l-1 -57h234l4 -9l-7 -85h-232z" />
    <glyph glyph-name="dotlessi.sc" horiz-adv-x="289" 
 />
    <glyph glyph-name="dotlessj.sc" horiz-adv-x="328" 
 />
    <glyph glyph-name="kgreenlandic.sc" horiz-adv-x="469" 
 />
    <glyph glyph-name="zero.lf" horiz-adv-x="517" 
d="M427 520q55 -76 55 -217q0 -151 -60.5 -232t-172.5 -81q-104 0 -160 75.5t-56 216.5q0 151 61 232.5t175 81.5q103 0 158 -76zM180 409.5q-24 -37.5 -24 -117.5q0 -83 24.5 -123t77.5 -40q52 0 77 38t25 118q0 83 -25.5 122.5t-78.5 39.5q-52 0 -76 -37.5z" />
    <glyph glyph-name="one.lf" horiz-adv-x="382" 
d="M282 209l7 -209h-161l7 192v221l-121 -25l-11 8v127l264 72l23 -17z" />
    <glyph glyph-name="two.lf" horiz-adv-x="501" 
d="M379.5 556.5q48.5 -38.5 48.5 -105.5q0 -44 -26.5 -97t-87.5 -130l-73 -95l2 -4h128l97 9l8 -12l-18 -129l-135 7h-240l-38 -3l-8 6v98l134 154q54 64 77 97t23 60q0 21 -14.5 34.5t-40.5 13.5q-31 0 -68 -18.5t-68 -49.5h-18l-26 123q114 80 219 80q76 0 124.5 -38.5z
" />
    <glyph glyph-name="three.lf" horiz-adv-x="445" 
d="M344 558q51 -39 51 -103q0 -39 -21 -76.5t-69 -63.5v-5q104 -33 104 -134q0 -55 -32.5 -97t-91.5 -65t-137 -23q-55 0 -112 10l-9 120l10 10q65 -20 116 -20q50 0 77 17.5t27 49.5q0 53 -73 54h-76l-7 10l2 109l45 2q35 1 60.5 20t25.5 49q0 46 -59 46q-46 0 -115 -40
h-16l-24 112q87 57 189 57q84 0 135 -39z" />
    <glyph glyph-name="four.lf" horiz-adv-x="510" 
d="M401 129l6 -118l-8 -11l-124 -8l-8 10l4 128h-146l-97 -3l-10 13v101l238 345h146l-3 -334h75l10 -14l-7 -111zM273 252l-1 158h-9l-110 -158h120z" />
    <glyph glyph-name="five.lf" horiz-adv-x="444" 
d="M395 461l-11 -11l-99 12h-101l-2 -88l61 -13q85 -18 123.5 -57t38.5 -104q0 -63 -32.5 -110.5t-91.5 -73.5t-136 -26q-57 0 -119 12l-9 119l11 11q60 -21 123 -21q49 0 76.5 18.5t27.5 52.5q0 28 -19.5 44t-63.5 23l-101 17l-10 12l1 294l17 17l60 -3h153l109 7l9 -10z
" />
    <glyph glyph-name="six.lf" horiz-adv-x="486" 
d="M381.5 343q38.5 -24 58.5 -64.5t20 -88.5q0 -53 -25 -99t-75 -74t-121 -28q-101 0 -157 60.5t-56 167.5q0 119 75.5 218t212.5 162h8l105 -70v-16q-97 -37 -151 -73t-80 -83l7 -8q43 20 87 20q53 0 91.5 -24zM298.5 112.5q18.5 20.5 18.5 60.5q0 84 -74 84q-35 0 -74 -22
v-16q0 -66 16 -96.5t60 -30.5q35 0 53.5 20.5z" />
    <glyph glyph-name="seven.lf" horiz-adv-x="430" 
d="M353 586l52 2v-116l-144 -320l-62 -164l-127 36l-9 24l189 407h-134l-98 -10l-8 13l10 132l122 -4h209z" />
    <glyph glyph-name="eight.lf" horiz-adv-x="502" 
d="M396.5 556q48.5 -40 48.5 -109q0 -80 -89 -132v-7q49 -23 76.5 -55.5t27.5 -83.5q0 -83 -60.5 -131t-162.5 -48q-95 0 -147 42t-52 110q0 93 110 137v7q-93 48 -93 139q0 79 57 125t152 46q84 0 132.5 -40zM202 472.5q-18 -15.5 -18 -41.5q0 -29 21 -46.5t61 -33.5
q55 34 55 78q0 27 -18.5 43t-49.5 16q-33 0 -51 -15.5zM186 210q-17 -17 -17 -47q0 -31 21.5 -49.5t59.5 -18.5q39 0 60 18t21 44q0 30 -23 47t-70 36q-35 -13 -52 -30z" />
    <glyph glyph-name="nine.lf" horiz-adv-x="485" 
d="M406 536.5q56 -60.5 56 -167.5q0 -119 -75.5 -217.5t-213.5 -161.5h-7l-105 70v15q98 38 151.5 74t78.5 83l-7 8q-42 -21 -87 -21q-53 0 -91.5 24t-58 64.5t-19.5 88.5q0 53 25 99t74.5 74t120.5 28q102 0 158 -60.5zM318 351v16q0 66 -16 96.5t-60 30.5q-72 0 -72 -81
q0 -83 74 -83q36 0 74 21z" />
    <glyph glyph-name="zero.sinf" horiz-adv-x="375" 
d="M309 225.5q39 -49.5 39 -143.5q0 -101 -43.5 -155t-124.5 -54q-74 0 -114 49.5t-40 142.5q0 101 44 155.5t126 54.5q74 0 113 -49.5zM137.5 143.5q-14.5 -21.5 -14.5 -69.5q0 -52 15 -75.5t49 -23.5t49.5 22.5t15.5 70.5q0 51 -15.5 74t-50.5 23q-34 0 -48.5 -21.5z" />
    <glyph glyph-name="one.sinf" horiz-adv-x="284" 
d="M211 19l4 -139h-125l5 127v133l-80 -15l-8 6v95l192 48l17 -12z" />
    <glyph glyph-name="two.sinf" horiz-adv-x="367" 
d="M278 248.5q36 -25.5 36 -71.5q0 -29 -18.5 -63t-60.5 -85l-45 -54l2 -3h77l69 6l6 -8l-14 -95l-99 5h-168l-27 -2l-6 5v71l93 96q37 41 52 61t15 37q0 27 -34 27q-21 0 -46.5 -11.5t-46.5 -31.5h-14l-20 91q84 51 158 51q55 0 91 -25.5z" />
    <glyph glyph-name="three.sinf" horiz-adv-x="328" 
d="M253 248.5q37 -26.5 37 -69.5q0 -59 -61 -91v-4q70 -20 70 -90q0 -55 -51 -88t-136 -33q-41 0 -81 8l-7 86l8 7q45 -12 82 -12q66 0 66 36q0 29 -41 30h-56l-6 7l2 80l32 1q23 1 38.5 11.5t15.5 27.5q0 26 -37 26q-30 0 -78 -23h-13l-19 80q63 37 137 37q61 0 98 -26.5z
" />
    <glyph glyph-name="four.sinf" horiz-adv-x="374" 
d="M296 -40l5 -72l-7 -8l-97 -5l-6 7l2 79h-95l-73 -3l-8 10v74l165 227h114l-2 -219h50l7 -10l-5 -82zM195 50v90h-7l-66 -90h73z" />
    <glyph glyph-name="five.sinf" horiz-adv-x="328" 
d="M288 177l-9 -8l-72 8h-64l-1 -47l43 -9q57 -12 84.5 -38t27.5 -70q0 -63 -51 -101.5t-135 -38.5q-35 0 -87 8l-7 84l8 8q41 -11 86 -11q67 0 67 39q0 16 -11 24.5t-38 13.5l-74 11l-7 9v199l13 12l42 -1h111l78 4l7 -7z" />
    <glyph glyph-name="six.sinf" horiz-adv-x="356" 
d="M302 91.5q32 -34.5 32 -83.5q0 -35 -17.5 -66t-53 -50t-86.5 -19q-73 0 -114 40.5t-41 111.5q0 77 52.5 142.5t147.5 108.5h6l79 -52v-11q-64 -25 -99 -45.5t-52 -47.5l4 -5q27 11 54 11q56 0 88 -34.5zM223 -3q0 48 -46 48q-22 0 -43 -10v-9q0 -41 9 -60t36 -19
q44 0 44 50z" />
    <glyph glyph-name="seven.sinf" horiz-adv-x="316" 
d="M257 269l37 1l1 -86l-95 -197l-46 -115l-99 26l-8 18l127 256h-83l-72 -7l-6 9l8 97l91 -2h145z" />
    </font>
</defs>
</svg>
